<svg xmlns="http://www.w3.org/2000/svg" width="14.869" height="14.869" viewBox="0 0 14.869 14.869">
  <g id="Group_16065" data-name="Group 16065" transform="translate(-6.413 -10.258)">
    <path id="Path_11526" data-name="Path 11526" d="M21.282,17.7a7.434,7.434,0,1,1-7.426-7.443A7.432,7.432,0,0,1,21.282,17.7Z" transform="translate(0 0)" fill="#006b35"/>
    <g id="Group_16064" data-name="Group 16064" transform="translate(8.284 13.812)">
      <g id="Group_16063" data-name="Group 16063">
        <path id="Path_11527" data-name="Path 11527" d="M14.645,11.191l-.067-.017a.8.8,0,0,0-.2,0h-.234l-.451-.017h-.15v-.017l.067-.067-.083-.117-.017-.017-.017-.017-.117-.05-.05.134.033.083.017.067-6.758-.083a.917.917,0,0,0,.834.417h5.891l.033.217.033.117.117.067.067-.067h.834l.033.033.033.033.15.033c.083,0,.184-.083.184-.384A.393.393,0,0,0,14.645,11.191Zm-.25.451-.25.017-.117-.067-.117.067h-.334a.163.163,0,0,1-.017-.15h.818Z" transform="translate(-5.068 -4.149)" fill="#fff"/>
        <g id="Group_16062" data-name="Group 16062">
          <path id="Path_11528" data-name="Path 11528" d="M6.74,10.649a.826.826,0,0,0-.2.417.712.712,0,0,0,0,.284c.017.033.067.234.184.234.1.017.184-.117.217-.2s.017-.2-.017-.217l-.117.067-.067-.017-.017-.167C6.757,10.866,6.774,10.666,6.74,10.649Z" transform="translate(-6.525 -7.679)" fill="#fff"/>
          <path id="Path_11529" data-name="Path 11529" d="M7.4,10.711c0-.05-.1-.1-.184-.117a.5.5,0,0,0-.234.033,1.027,1.027,0,0,0-.434.451l-.017.067c.033.067.567-.3.818-.4Z" transform="translate(-6.354 -8.609)" fill="#fff"/>
          <path id="Path_11530" data-name="Path 11530" d="M6.645,10.745l-.1-.2.067-.067a.147.147,0,0,1,.15.083.386.386,0,0,1,.033.35l-.083.1L6.679,10.9v-.1Z" transform="translate(-6.213 -10.395)" fill="#fff"/>
          <path id="Path_11531" data-name="Path 11531" d="M6.534,11.03a1.553,1.553,0,0,0,.017.35c.033.217,0,.217.033.367.033.133.067.25.167.267a.218.218,0,0,0,.15,0c.1-.067.117-.217.134-.3.017-.134-.017-.167.017-.267l.083-.15c.05,0,0,.217.05.567.017.15.033.217.083.267.067.033.15,0,.217.067l.05.1a2.38,2.38,0,0,1,.033.6c0,.267.033.284.05.3l.15-.134a.636.636,0,0,0,.067-.417,3.09,3.09,0,0,0-.017-.417c-.033-.117-.05-.217,0-.284l.1-.017c.067,0,.1.05.167.067a.29.29,0,0,0,.25-.017.4.4,0,0,0,.184-.167.358.358,0,0,0,.033-.3L8.47,11.2v-.083l.05-.017.017-.05a.359.359,0,0,0-.083-.2c-.033-.033-.134-.117-.217-.083-.067.033-.083.15-.083.2a.708.708,0,0,0,.1.384c.067.1.117.15.1.234l-.05.067-.15-.05-.134-.15c-.05-.1.017-.133,0-.3a.346.346,0,0,0-.083-.267l-.1-.05c-.134,0-.134.184-.117.284l.033.167.017.067.033.2-.033.017-.05-.117-.033-.284-.05-.3c-.017-.15-.067-.367-.167-.384l-.117.1c-.033.083,0,.15.05.3l.033.317c.05.267.117.367.05.467l-.083.05-.067-.2c0-.1.017-.134.017-.317,0-.15,0-.2-.033-.234A.135.135,0,0,0,7.2,10.88l-.15.167a.862.862,0,0,0-.117.35l-.033.25-.1.017c-.067-.033-.083-.134-.1-.284a.946.946,0,0,0-.05-.25l-.067-.117H6.551Z" transform="translate(-6.453 -10.345)" fill="#fff"/>
          <path id="Path_11532" data-name="Path 11532" d="M6.607,10.528v.134l.1.117c.067.05.15.017.184.017l.117-.083.033-.117-.033-.117-.067.05-.017.05-.05-.017-.033-.083-.067.017-.017.083-.033-.033-.033-.05Z" transform="translate(-5.24 -10.361)" fill="#fff"/>
          <path id="Path_11533" data-name="Path 11533" d="M9.491,12.082l-.117-.033-.067.05-.033.1-.05.033-.05-.083-.15-.033-.1.15-.05.067H8.74l-.017-.15-.134-.067-.067.017-.067-.417-.067-.4c-.017-.067-.05-.15-.017-.184l.167-.017-.1-.284a.949.949,0,0,0-.134-.317l-.083-.033-.083.033-.1.083.017.133a1.188,1.188,0,0,1,.067.35l.067.467.05.367c.05.267.05.367,0,.4H8.122c-.083-.033-.083-.134-.167-.167-.083-.05-.184.017-.234.033a.512.512,0,0,0-.2.217.359.359,0,0,0,.017.367.306.306,0,0,0,.284.1l.167-.083v.033a.5.5,0,0,1-.067.234.837.837,0,0,1-.267.234c-.15.083-.25.15-.367.117a.374.374,0,0,1-.267-.234c-.033-.117.017-.2-.05-.35L6.9,12.75l-.1.267a.591.591,0,0,0,.25.651.6.6,0,0,0,.384.1.59.59,0,0,0,.384-.184.659.659,0,0,0,.3-.417c.05-.167,0-.317.1-.384l.067-.033c.05.033.017.184,0,.25a1.221,1.221,0,0,1-.184.451.958.958,0,0,1-.317.334.935.935,0,0,1-.451.117.522.522,0,0,1-.467-.15l-.083-.2a1.116,1.116,0,0,0-.083-.317l-.05-.05-.083.284a.756.756,0,0,0,.033.384.536.536,0,0,0,.217.317.669.669,0,0,0,.451.083,1.207,1.207,0,0,0,.551-.134,1.219,1.219,0,0,0,.35-.234.988.988,0,0,0,.284-.4.861.861,0,0,0,.05-.317v-.484l.033-.017.033.033.083.017h.117l.1-.05.1-.067a.376.376,0,0,1,.117.017l.184.017a.211.211,0,0,0,.167-.117c.067-.134-.017-.267.033-.384Zm-1.619.484H7.739l-.017-.117.117-.017.033.083Z" transform="translate(-5.972 -10.33)" fill="#fff"/>
          <path id="Path_11534" data-name="Path 11534" d="M6.731,10.788l.1.1c.033.083-.05.184,0,.217H6.9c.067-.033.067-.167.067-.2a.343.343,0,0,0-.067-.217l-.134-.067-.067.067Z" transform="translate(-3.813 -8.118)" fill="#fff"/>
          <path id="Path_11535" data-name="Path 11535" d="M7.166,10.8l-.033-.134-.117.033-.134.133.083.067h.067v.117l.067.067.15-.017.3-.117-.033-.1c-.05-.033-.134-.017-.25.033l-.117.017Z" transform="translate(-0.926 -7.334)" fill="#fff"/>
          <path id="Path_11536" data-name="Path 11536" d="M6.862,10.635l.017-.05-.033-.05-.1.067a.2.2,0,0,0,0,.217l.117.083.15-.05.05-.1H6.978l-.1-.017Z" transform="translate(-3.576 -9.467)" fill="#fff"/>
          <path id="Path_11537" data-name="Path 11537" d="M6.922,10.6l-.083-.017-.017.117a.262.262,0,0,0,.15.15.271.271,0,0,0,.167,0l.083-.1V10.57l-.1.033-.033.05-.033-.067-.05-.017-.033.083Z" transform="translate(-1.868 -8.918)" fill="#fff"/>
          <path id="Path_11538" data-name="Path 11538" d="M7.585,10.661l-.1-.167a.2.2,0,0,0-.234.05l-.017.217.1.117v.05l-.033.033a1.28,1.28,0,0,1-.3.267l-.267.167-.05.1c.017.05.2.05.334,0,.15-.067.117-.15.35-.334.083-.067.2-.133.184-.2l-.033-.1.017-.083Zm-.134.117-.1-.033v-.083l.083.017Z" transform="translate(-4.033 -10.377)" fill="#fff"/>
          <path id="Path_11539" data-name="Path 11539" d="M6.8,10.839c-.067.017-.067.267-.05.451.033.217.05.5.234.584a.232.232,0,0,0,.25-.033c.083-.067.033-.167.117-.367l.117-.167c.033,0-.067.2.017.417.017.017.1.25.284.284a.491.491,0,0,0,.35-.15c.083-.05.134-.117.2-.117l.083.05c.017.017.184.184.334.167a.291.291,0,0,0,.184-.15L9,11.657l.083.05.033.083H9.2a.311.311,0,0,0,.15-.184v-.134l-.134.033-.117.017-.117-.133c-.117-.2-.184-.317-.133-.4l.083-.067.033.017c.033-.017.017-.2-.117-.317a.215.215,0,0,0-.184-.083c-.1.033-.134.2-.15.284a.622.622,0,0,0,.117.3l.1.184c.017.083.033.234-.05.284l-.167-.017c-.083-.067-.1-.167-.133-.334l-.017-.334-.033-.267-.1-.167-.117.117a.378.378,0,0,0-.05.2,2.024,2.024,0,0,0,.083.234,1.3,1.3,0,0,1,.017.217.569.569,0,0,1-.117.317c-.017,0-.1.067-.184.05a.177.177,0,0,1-.15-.134c-.05-.083-.033-.133-.017-.334,0-.3-.033-.35-.05-.367l-.167.017c-.217.083-.267.451-.284.517l-.017.083-.067.184-.1-.067a.726.726,0,0,1-.1-.284c-.017-.15,0-.234-.05-.317Z" transform="translate(-3.116 -10.455)" fill="#fff"/>
          <path id="Path_11540" data-name="Path 11540" d="M6.908,10.471a.3.3,0,0,0-.117.167.333.333,0,0,0-.033.15l.05.117.117-.05.05-.083-.083-.033v-.083l.067-.117v-.05Z" transform="translate(-2.872 -10.471)" fill="#fff"/>
          <path id="Path_11541" data-name="Path 11541" d="M6.887,10.473a.249.249,0,0,0-.083.184v.2a.153.153,0,0,0,.05.117l.067-.05a.577.577,0,0,0,.067-.35l-.017-.1Z" transform="translate(-2.15 -10.44)" fill="#fff"/>
          <path id="Path_11542" data-name="Path 11542" d="M8.614,13.009a4.589,4.589,0,0,0-.35-.651l-.384-.584-.05-.517.033-.05h.05v-.1c-.033-.15-.117-.234-.284-.451l-.083-.083-.1.184a.626.626,0,0,0,.017.184l-.117-.184-.217-.2c-.117-.1-.15-.083-.167-.083L6.9,10.59a.334.334,0,0,0,.017.25l.05.083c.267.317.484.634.668.9.067.718.083,1.619.083,1.852,0,.083-.017.3.05.317l.167-.184A.737.737,0,0,0,8,13.293l-.067-.968.184.334a6.313,6.313,0,0,0,.484.884C8.665,13.56,8.7,13.226,8.614,13.009ZM7.38,11.024l-.017-.033H7.48l.05.1.033.2Z" transform="translate(-0.973 -10.456)" fill="#fff"/>
          <path id="Path_11543" data-name="Path 11543" d="M6.947,10.6l.117.2.05.167c.017.1,0,.167.017.167l.1-.15A.391.391,0,0,0,7.2,10.6c-.017-.033-.083-.117-.15-.117Z" transform="translate(0.093 -10.345)" fill="#fff"/>
          <path id="Path_11544" data-name="Path 11544" d="M7.063,10.614l-.033-.067-.083.067.033.167a.232.232,0,0,0,.2.067.226.226,0,0,0,.167-.1v-.167l-.05-.033-.033.083-.05-.033-.033-.067-.05.05-.033.05Z" transform="translate(0.078 -9.53)" fill="#fff"/>
          <path id="Path_11545" data-name="Path 11545" d="M7.263,10.755,7.2,10.688l-.134.033-.017.117c0,.033.017.083.2.25.133.134.167.134.184.117l.033-.083c.033-.134-.033-.217.017-.25l.1-.067.017-.067c.017-.067.017-.167-.067-.2l-.15.017-.017.2-.067.017Z" transform="translate(1.646 -9.42)" fill="#fff"/>
          <path id="Path_11546" data-name="Path 11546" d="M7.348,10.845l.05-.067c0-.05-.083-.1-.167-.1l-.1.083.117.1-.017.083-.117.133.05.083.234-.1L7.515,11l-.033-.083-.117-.017Z" transform="translate(2.713 -7.224)" fill="#fff"/>
          <path id="Path_11547" data-name="Path 11547" d="M7.542,12.9l-.134-1.085c-.033-.234-.083-.451-.1-.684h.067l.083-.017-.033-.1-.083-.15-.117-.234-.1-.15c-.067,0-.1.234-.117.384a2.511,2.511,0,0,0,.05.567,9.823,9.823,0,0,1,.284,1.919l.017.417c.05.017.134-.117.167-.2A1.146,1.146,0,0,0,7.542,12.9Z" transform="translate(1.001 -10.377)" fill="#fff"/>
          <path id="Path_11548" data-name="Path 11548" d="M7.672,10.511a.64.64,0,0,0-.117.334c0,.167.05.2.067.451l.017.15c.033.818.1,1.151.117,1.485a1.384,1.384,0,0,1,.033.5c0,.083-.05.134-.117.217a3.893,3.893,0,0,1-.651.467l-.083.05.1.1a.378.378,0,0,0,.384-.017,1.039,1.039,0,0,0,.467-.484,1.686,1.686,0,0,0,.117-.5,4.863,4.863,0,0,0-.117-1.635s-.134-.484-.05-.517h.05l.05-.083a.484.484,0,0,0-.05-.184l-.2-.367Z" transform="translate(-0.048 -10.361)" fill="#fff"/>
          <g id="Group_16061" data-name="Group 16061" transform="translate(8.094 0.063)">
            <path id="Path_11549" data-name="Path 11549" d="M7.642,10.84v-.26l-.507.345-.082.137V11.2Z" transform="translate(-6.34 -8.824)" fill="#fff"/>
            <path id="Path_11550" data-name="Path 11550" d="M7.079,10.606l.017.234.033.334.067.083a.489.489,0,0,0,.117-.267,1.686,1.686,0,0,0-.117-.384Z" transform="translate(-5.93 -8.416)" fill="#fff"/>
            <path id="Path_11551" data-name="Path 11551" d="M7.261,10.8l.017.184v.184c.033,0,.083-.1.117-.217a.51.51,0,0,0-.05-.284l-.1-.167-.1.033.017.15Z" transform="translate(-4.91 -10.079)" fill="#fff"/>
            <path id="Path_11552" data-name="Path 11552" d="M7.174,10.667Z" transform="translate(-4.44 -7.459)" fill="#fff"/>
            <path id="Path_11553" data-name="Path 11553" d="M9.144,13.716c.083-.1.134-.133.15-.25l.017-.451.3.5.134.167a.8.8,0,0,0-.033-.517,7.356,7.356,0,0,0-.4-.634,7.956,7.956,0,0,0-.083-.8c-.117-.467-.134-.534-.05-.534.067,0-.1-.467-.167-.584-.067-.133-.15-.083-.184-.067-.017.033-.083.067-.067.167l.134.8.067.551-.3-.417-.033-.5.083-.067L8.56,10.8c-.15-.15-.117-.284-.167-.284l-.083.117.033.567-.134-.217.017-.05.083-.033c0-.017-.484-.567-.451-.384,0,0-.117.35.033.534l.5.651.017.184a7.081,7.081,0,0,1,.067,1.5c0,.05-.067.2-.15.2l-.167-.1c-.117-.133-.134-.217-.217-.234l-.133.033c-.067.033-.117.1-.2.317-.067.217-.083.317-.15.384a.209.209,0,0,1-.15.017c-.15-.017-.2-.284-.217-.367a.824.824,0,0,1,0-.317.891.891,0,0,0,.017.768c.1.167.3.3.4.25s.167-.217.217-.5a.209.209,0,0,1,.184-.167c.15-.017.2.234.384.284a.5.5,0,0,0,.4-.167c.083-.083.133-.284.05-1.185l-.033-.467.3.434c.033.417.05.818.067,1.2C9.077,13.766,9.077,13.816,9.144,13.716Z" transform="translate(-7.01 -10.475)" fill="#fff"/>
            <path id="Path_11554" data-name="Path 11554" d="M7.919,11.078c.05-.033.184.067.167-.033s-.284-.584-.4-.567l-.083.217.067.617c.017.25.234,2.119.184,2.286a.826.826,0,0,1-.25.35c-.083.083-.467.234-.467.334s.2.1.384.033a.706.706,0,0,0,.517-.517,8.157,8.157,0,0,0,.033-1.6A10.312,10.312,0,0,1,7.919,11.078Z" transform="translate(-5.051 -10.44)" fill="#fff"/>
          </g>
          <path id="Path_11555" data-name="Path 11555" d="M11.13,11.589,11,11.572a5.9,5.9,0,0,1-1-.017l.184-.05a.879.879,0,0,0,.4-.2.461.461,0,0,0,.2-.334.377.377,0,0,0-.551-.367.555.555,0,0,0-.184.35l-.033.217c-.1.133-.3.017-.551.133a.708.708,0,0,0-.3.284l-.033-.217a1.419,1.419,0,0,0-.234-.7l-.184-.1c-.067.017-.067.184-.067.217a1.328,1.328,0,0,0,.133.467,1.149,1.149,0,0,1,.1.417.964.964,0,0,1-.15.534,1.1,1.1,0,0,1-.451.384.337.337,0,0,1-.3.033l-.1-.15.033-.017a1.744,1.744,0,0,0,.35-.284.885.885,0,0,0,.317-.551.7.7,0,0,0-.083-.467l-.033-.067h.083c.033-.017-.017-.134-.067-.2s-.1-.15-.2-.167l-.184.083c-.083.1.017.25.033.267l.134.15a.428.428,0,0,1,.067.25l-.033.2a1.3,1.3,0,0,1-.451.467c0-.234.033-.35,0-.35-.033-.017-.134.167-.184.384l-.017.1-.384.217c-.15.1-.617.4-.6.451.033.067.668-.184.7-.2l.25-.117.067.167a.538.538,0,0,0,.451.217.734.734,0,0,0,.434-.2,1.453,1.453,0,0,0,.467-.517l.017-.05.05.15.15.167a1.334,1.334,0,0,0,.417.25c.1.05.3.117.4.05l.067-.067.017-.117c-.033-.083-.117-.067-.2-.15,0-.017-.083-.1-.05-.167.017-.067.083-.1.184-.134a5.756,5.756,0,0,1,.651-.117c.134-.017.217-.05.25-.117.033-.05-.017-.083.017-.167l.117-.184Zm-.868-.651.117-.017.067.117v.033h-.1Zm-.634,1.218c-.05.083,0,.167-.05.184h-.1a.372.372,0,0,1-.234-.317c-.017-.017-.017-.167.05-.2l.2.033c.167.033.25-.05.334.017l.05.1C9.861,12.056,9.678,12.04,9.628,12.156Z" transform="translate(-4.457 -9.069)" fill="#fff"/>
        </g>
      </g>
    </g>
  </g>
</svg>
