<svg width="2371" height="2318" viewBox="0 0 2371 2318" fill="none" xmlns="http://www.w3.org/2000/svg">
<style>
    #rocket , #opacity_1 , #opacity_2 {      
        transform-origin: center;
        transform-box: fill-box;
    }
    #rocket{
        animation: vibrate 3s linear infinite;
    }
    #opacity_1{
        animation: opacity 3s linear infinite;
    }
    #opacity_2{
        animation: opacity 6s linear infinite reverse;
    }
    @keyframes opacity{
        0% , 100%{
            opacity: 1; 
        }
        50%{
            opacity: .5;
        }
    }
    @keyframes vibrate {
        0% {
            transform: translate(0);
        }

        20% {
            transform: translate(-10px, 10px);
        }

        40% {
            transform: translate(-10px, -10px);
        }

        60% {
            transform: translate(10px, 10px);
        }

        80% {
            transform: translate(10px, -10px);
        }

        100% {
            transform: translate(0);
        }
    }
</style>
<g id="Group 16109">
<path id="Path 11691" d="M1507.12 586.306C1476.98 633.563 1405.35 708.924 1302.8 663.728C1253.03 641.795 1204.59 611.132 1150.1 607.004C1123.69 605.008 1097.98 609.679 1074.4 619C924.773 678.149 965.873 888.341 793.446 970.942C536.828 1093.88 350.926 837.558 -0.00109863 1181.21L1563.3 2317.45C1573.37 2156.89 1381.85 2129.33 1391.92 1968.77C1401.99 1808.21 1593.52 1835.76 1603.59 1675.2C1613.67 1514.64 1422.14 1487.08 1432.22 1326.51C1442.29 1165.95 1633.82 1193.5 1643.89 1032.92C1647.52 975.127 1620.95 926.176 1580.42 881.988C1543.71 841.948 1516.46 817.921 1504.9 765.261C1485.99 679.163 1542.19 611.115 1541.58 607.513C1540.69 602.296 1511.41 579.574 1507.12 586.306Z" fill="#F9FAFD"/>
<g id="rocket">
<g id="Group 16083">
<path id="opacity_2" d="M1592.34 427.514C1539.32 482.263 1404.41 479.246 1394.9 662.364C1408.08 625.407 1433.13 583.393 1475.11 568.149C1461.51 585.247 1410.8 627.578 1397.7 777.401L1397.69 777.412L1397.69 777.407L1397.69 777.412L1397.7 777.401C1536.18 718.705 1560.79 657.405 1572.86 639.192C1571.31 683.823 1539.08 720.627 1508 744.565C1679.24 678.995 1634.73 551.609 1670.44 484.275L1592.34 427.514Z" fill="url(#paint0_linear)"/>
<g id="opacity_1">
<path id="Path 11693" d="M1483.44 655.153C1483.44 655.153 1485.84 536.058 1592.34 427.515L1670.44 484.275C1670.44 484.275 1612.23 610.321 1483.44 655.153Z" fill="url(#paint1_linear)"/>
<path id="Vector" d="M1523.94 600.904C1523.94 600.904 1529.42 517.008 1605.65 437.184L1657.14 474.614C1657.14 474.614 1613.33 565.201 1523.94 600.904Z" fill="url(#paint2_linear)"/>
</g>
</g>
<g id="Group 16107">
<path id="Path 11695" d="M1912.09 65.2445L1910.65 67.3418L1912.04 65.2104C1829.32 84.345 1753.66 126.423 1693.77 186.612C1633.88 246.801 1592.17 322.661 1573.45 405.482L1566.64 435.573C1575.31 456.285 1589.53 474.196 1607.74 487.325C1625.95 500.455 1647.44 508.29 1669.82 509.966C1678.63 504.646 1687.43 499.326 1696.22 494.003C1768.89 450.071 1827.69 386.537 1865.87 310.695C1904.05 234.853 1920.07 149.78 1912.09 65.2445V65.2445Z" fill="#F9FAFD"/>
<g id="Group 16084">
<path id="Path 11696" d="M1575.19 398.36C1574.62 400.736 1573.99 403.093 1573.45 405.483L1566.64 435.571C1575.31 456.283 1589.53 474.195 1607.74 487.325C1625.95 500.455 1647.44 508.291 1669.82 509.966C1678.63 504.646 1687.43 499.326 1696.22 494.003C1698.32 492.736 1700.36 491.399 1702.43 490.1C1674.99 487.458 1648.75 477.57 1626.4 461.45C1604.04 445.33 1586.37 423.557 1575.19 398.36V398.36Z" fill="#1285A2"/>
</g>
<g id="Group 16085">
<path id="Path 11697" d="M1857.34 141.096C1873.21 152.479 1891.37 160.265 1910.55 163.912C1914.67 131.18 1915.18 98.0946 1912.09 65.2503L1910.65 67.3475L1912.04 65.2186C1879.89 72.6554 1848.66 83.5971 1818.9 97.8472C1828.33 114.728 1841.3 129.374 1856.91 140.783L1857.34 141.096Z" fill="#5A9CD4"/>
</g>
<g id="Group 16089">
<g id="Group 16086">
<g id="Path 11698" style="mix-blend-mode:multiply">
<path d="M1912.09 65.2424L1910.65 67.3372L1912.04 65.2058C1911.54 65.3242 1911.05 65.4475 1910.55 65.5626L1606.92 486.7C1607.19 486.896 1607.44 487.106 1607.71 487.307C1625.95 500.414 1647.43 508.253 1669.82 509.965C1678.62 504.646 1687.42 499.325 1696.22 494.002C1768.89 450.07 1827.68 386.535 1865.87 310.693C1904.05 234.851 1920.07 149.778 1912.09 65.2424V65.2424Z" fill="#DCDDE0"/>
</g>
</g>
<g id="Group 16088">
<g id="Group 16087" style="mix-blend-mode:multiply">
<g id="Path 11699" style="mix-blend-mode:multiply">
<path d="M1912.12 64.8767L1910.68 66.9689L1912.07 64.8408C1911.57 64.9559 1911.08 65.0825 1910.58 65.1993C1901.93 151.67 1876.14 235.551 1834.73 311.95C1793.39 388.095 1737.35 455.275 1669.85 509.594C1678.65 504.272 1687.44 498.953 1696.24 493.635C1768.91 449.703 1827.71 386.168 1865.89 310.327C1904.08 234.485 1920.1 149.412 1912.12 64.8767Z" fill="#CACBCE"/>
</g>
</g>
</g>
</g>
<g id="Group 16092">
<g id="Group 16091">
<g id="Group 16090">
<path id="Path 11700" d="M1730.09 320.434C1723.1 315.399 1717.77 308.406 1714.76 300.34C1711.75 292.273 1711.2 283.496 1713.18 275.117C1715.16 266.738 1719.58 259.133 1725.88 253.266C1732.18 247.398 1740.08 243.531 1748.58 242.153C1757.08 240.775 1765.79 241.948 1773.62 245.523C1781.46 249.099 1788.05 254.917 1792.58 262.241C1797.1 269.565 1799.35 278.067 1799.05 286.671C1798.74 295.275 1795.89 303.595 1790.86 310.579C1784.1 319.933 1773.9 326.224 1762.51 328.071C1751.12 329.919 1739.46 327.172 1730.09 320.434Z" fill="#281C4B"/>
<path id="Path 11701" d="M1777.98 254.009C1784.13 258.445 1788.83 264.606 1791.48 271.713C1794.13 278.82 1794.62 286.554 1792.88 293.937C1791.13 301.319 1787.24 308.019 1781.69 313.189C1776.14 318.359 1769.18 321.767 1761.69 322.981C1754.2 324.196 1746.52 323.163 1739.62 320.013C1732.72 316.863 1726.91 311.737 1722.92 305.284C1718.93 298.831 1716.95 291.34 1717.22 283.759C1717.49 276.178 1720 268.847 1724.43 262.694C1727.38 258.608 1731.1 255.142 1735.39 252.494C1739.67 249.846 1744.43 248.068 1749.41 247.262C1754.38 246.455 1759.46 246.636 1764.36 247.794C1769.26 248.951 1773.89 251.063 1777.98 254.009V254.009ZM1784.03 245.611C1776.22 239.978 1766.91 236.789 1757.28 236.446C1747.66 236.104 1738.15 238.623 1729.95 243.687C1721.76 248.75 1715.25 256.129 1711.25 264.892C1707.25 273.654 1705.93 283.406 1707.47 292.915C1709.02 302.423 1713.34 311.261 1719.91 318.311C1726.47 325.361 1734.98 330.306 1744.35 332.521C1753.73 334.736 1763.55 334.122 1772.57 330.756C1781.6 327.389 1789.42 321.422 1795.06 313.609C1802.6 303.125 1805.67 290.079 1803.61 277.331C1801.54 264.583 1794.5 253.176 1784.03 245.611V245.611Z" fill="#1285A2"/>
</g>
</g>
<path id="Path 11702" d="M1732.91 269.03C1736.09 264.593 1740.51 261.199 1745.62 259.277C1750.73 257.354 1756.29 256.99 1761.61 258.23C1766.93 259.47 1771.76 262.258 1775.49 266.243C1779.22 270.227 1781.69 275.229 1782.58 280.615C1783.46 286.001 1782.74 291.53 1780.48 296.502C1778.23 301.475 1774.56 305.668 1769.92 308.551C1765.28 311.434 1759.9 312.878 1754.44 312.7C1748.98 312.522 1743.7 310.73 1739.27 307.551C1736.32 305.439 1733.82 302.768 1731.9 299.689C1729.99 296.611 1728.7 293.185 1728.11 289.608C1727.52 286.031 1727.64 282.373 1728.46 278.842C1729.28 275.311 1730.79 271.977 1732.91 269.03V269.03Z" fill="url(#paint3_linear)"/>
</g>
<g id="Group 16095">
<g id="Group 16094">
<g id="Group 16093">
<path id="Path 11703" d="M1799.21 228.66C1795.32 225.856 1792.35 221.961 1790.67 217.468C1789 212.975 1788.69 208.087 1789.79 203.42C1790.9 198.754 1793.36 194.519 1796.87 191.252C1800.38 187.984 1804.78 185.831 1809.51 185.064C1814.24 184.296 1819.1 184.95 1823.46 186.942C1827.82 188.933 1831.49 192.173 1834.01 196.253C1836.53 200.332 1837.79 205.067 1837.62 209.859C1837.45 214.651 1835.86 219.284 1833.06 223.174C1829.29 228.385 1823.61 231.889 1817.27 232.918C1810.92 233.946 1804.42 232.415 1799.21 228.66Z" fill="#281C4B"/>
<path id="Path 11704" d="M1825.88 191.667C1829.31 194.138 1831.92 197.569 1833.4 201.528C1834.88 205.486 1835.15 209.793 1834.18 213.905C1833.21 218.016 1831.04 221.748 1827.95 224.627C1824.85 227.506 1820.98 229.404 1816.81 230.08C1812.64 230.756 1808.36 230.18 1804.52 228.425C1800.67 226.671 1797.44 223.816 1795.22 220.222C1793 216.627 1791.89 212.456 1792.04 208.233C1792.19 204.011 1793.59 199.929 1796.06 196.502C1797.7 194.226 1799.78 192.296 1802.16 190.821C1804.55 189.347 1807.2 188.357 1809.97 187.907C1812.74 187.458 1815.57 187.559 1818.3 188.204C1821.03 188.848 1823.61 190.025 1825.88 191.665L1825.88 191.667ZM1829.26 186.987C1824.91 183.849 1819.72 182.072 1814.36 181.881C1809 181.69 1803.7 183.093 1799.13 185.914C1794.57 188.734 1790.94 192.844 1788.71 197.725C1786.48 202.606 1785.75 208.038 1786.61 213.335C1787.47 218.631 1789.88 223.554 1793.54 227.481C1797.19 231.408 1801.93 234.162 1807.15 235.395C1812.38 236.629 1817.85 236.286 1822.87 234.411C1827.9 232.535 1832.26 229.211 1835.4 224.859C1839.6 219.02 1841.31 211.754 1840.16 204.655C1839.01 197.555 1835.09 191.203 1829.26 186.99L1829.26 186.987Z" fill="#1285A2"/>
</g>
</g>
<path id="Path 11705" d="M1800.78 200.036C1802.55 197.564 1805.02 195.673 1807.86 194.602C1810.71 193.531 1813.81 193.329 1816.77 194.019C1819.73 194.71 1822.42 196.264 1824.5 198.483C1826.58 200.703 1827.95 203.489 1828.45 206.49C1828.94 209.49 1828.54 212.57 1827.28 215.34C1826.03 218.11 1823.98 220.445 1821.4 222.051C1818.81 223.656 1815.81 224.46 1812.77 224.361C1809.73 224.261 1806.79 223.262 1804.32 221.491C1802.68 220.315 1801.29 218.827 1800.22 217.112C1799.15 215.397 1798.44 213.489 1798.11 211.496C1797.78 209.504 1797.85 207.466 1798.3 205.5C1798.76 203.533 1799.6 201.677 1800.78 200.036Z" fill="url(#paint4_linear)"/>
</g>
<g id="Group 16098">
<g id="Group 16097">
<g id="Group 16096">
<path id="Path 11706" d="M1681.65 382.396C1677.76 379.592 1674.79 375.698 1673.11 371.205C1671.44 366.712 1671.13 361.824 1672.23 357.157C1673.34 352.49 1675.8 348.255 1679.31 344.987C1682.82 341.719 1687.22 339.565 1691.95 338.798C1696.68 338.03 1701.54 338.683 1705.9 340.675C1710.26 342.666 1713.93 345.906 1716.46 349.985C1718.98 354.065 1720.23 358.8 1720.06 363.592C1719.89 368.384 1718.3 373.018 1715.5 376.908C1711.73 382.118 1706.05 385.622 1699.71 386.651C1693.36 387.68 1686.87 386.15 1681.65 382.396Z" fill="#281C4B"/>
<path id="Path 11707" d="M1708.32 345.402C1711.75 347.872 1714.37 351.304 1715.84 355.262C1717.32 359.22 1717.59 363.527 1716.62 367.638C1715.65 371.75 1713.48 375.481 1710.39 378.36C1707.3 381.24 1703.42 383.137 1699.25 383.814C1695.08 384.49 1690.8 383.915 1686.96 382.161C1683.12 380.406 1679.88 377.552 1677.66 373.958C1675.44 370.364 1674.33 366.192 1674.48 361.97C1674.63 357.748 1676.03 353.666 1678.5 350.239C1680.14 347.963 1682.22 346.033 1684.6 344.558C1686.99 343.084 1689.64 342.093 1692.41 341.644C1695.18 341.195 1698.01 341.296 1700.74 341.94C1703.47 342.585 1706.05 343.761 1708.32 345.402ZM1711.7 340.724C1707.34 337.586 1702.16 335.809 1696.8 335.618C1691.44 335.427 1686.14 336.83 1681.57 339.65C1677.01 342.471 1673.38 346.581 1671.15 351.462C1668.92 356.343 1668.19 361.775 1669.05 367.071C1669.91 372.368 1672.32 377.291 1675.98 381.218C1679.63 385.144 1684.37 387.899 1689.59 389.132C1694.82 390.366 1700.29 390.023 1705.31 388.148C1710.34 386.272 1714.7 382.948 1717.84 378.596C1722.04 372.757 1723.75 365.49 1722.6 358.39C1721.45 351.29 1717.53 344.937 1711.7 340.724V340.724Z" fill="#1285A2"/>
</g>
</g>
<path id="Path 11708" d="M1683.22 353.768C1684.99 351.296 1687.46 349.405 1690.3 348.334C1693.15 347.263 1696.25 347.06 1699.21 347.751C1702.17 348.442 1704.86 349.996 1706.94 352.215C1709.02 354.435 1710.39 357.221 1710.89 360.222C1711.38 363.222 1710.98 366.302 1709.72 369.072C1708.47 371.842 1706.42 374.177 1703.84 375.783C1701.25 377.388 1698.25 378.192 1695.21 378.092C1692.17 377.993 1689.23 376.994 1686.76 375.222C1685.12 374.046 1683.73 372.558 1682.66 370.843C1681.59 369.129 1680.87 367.221 1680.55 365.228C1680.22 363.236 1680.28 361.198 1680.74 359.232C1681.2 357.265 1682.04 355.409 1683.22 353.768V353.768Z" fill="url(#paint5_linear)"/>
</g>
<g id="Group 16100">
<g id="Group 16099">
<path id="Path 11709" d="M1577.74 387.811C1590.48 344.961 1608.41 303.829 1631.14 265.331C1617.11 272.14 1603.09 278.948 1589.06 285.752C1555.4 302.09 1528.85 330.14 1514.38 364.648L1485.45 433.649L1577.74 387.811Z" fill="#5A9CD4"/>
</g>
</g>
<g id="Group 16102" style="mix-blend-mode:multiply">
<g id="Group 16101" style="mix-blend-mode:multiply">
<g id="Path 11710" style="mix-blend-mode:multiply">
<path d="M1578.68 382.527C1589.56 345.922 1604.88 310.785 1624.29 277.897L1588.36 295.342C1559.6 309.299 1536.91 333.262 1524.55 362.742L1499.84 421.684L1578.68 382.527Z" fill="#DCDDE0"/>
</g>
</g>
</g>
<g id="Group 16104">
<g id="Group 16103">
<path id="Path 11711" d="M1706.51 486.268C1723.75 474.827 1740.32 462.421 1756.15 449.11C1774.5 433.674 1791.82 417.054 1808 399.355C1805.6 414.754 1803.19 430.156 1800.79 445.56C1795.02 482.532 1775.98 516.134 1747.21 540.07L1689.71 587.933L1706.51 486.268Z" fill="#5A9CD4"/>
</g>
</g>
<g id="Group 16106" style="mix-blend-mode:multiply">
<g id="Group 16105" style="mix-blend-mode:multiply">
<g id="Path 11712" style="mix-blend-mode:multiply">
<path d="M1713.87 482.439C1729.22 472.246 1743.98 461.194 1758.09 449.336C1774.44 435.582 1789.87 420.773 1804.28 405.003C1802.14 418.724 1800 432.446 1797.86 446.17C1792.72 479.111 1775.75 509.049 1750.13 530.376L1698.9 573.012L1713.87 482.439Z" fill="#DCDDE0"/>
</g>
</g>
</g>
</g>
</g>
</g>
<defs>
<linearGradient id="paint0_linear" x1="1397.7" y1="777.418" x2="1633.49" y2="453.001" gradientUnits="userSpaceOnUse">
<stop stop-color="#FEE62A"/>
<stop offset="0.138" stop-color="#FCD82A"/>
<stop offset="0.396" stop-color="#F9B42C"/>
<stop offset="0.745" stop-color="#F37A2E"/>
<stop offset="0.991" stop-color="#EF4E31"/>
</linearGradient>
<linearGradient id="paint1_linear" x1="1485.5" y1="656.65" x2="1632.72" y2="454.1" gradientUnits="userSpaceOnUse">
<stop stop-color="#F5E55E"/>
<stop offset="1" stop-color="#DA9231"/>
</linearGradient>
<linearGradient id="paint2_linear" x1="1525.3" y1="601.892" x2="1632.36" y2="454.593" gradientUnits="userSpaceOnUse">
<stop stop-color="#F5EA91"/>
<stop offset="1" stop-color="#DA9231"/>
</linearGradient>
<linearGradient id="paint3_linear" x1="-2607.3" y1="-1605.29" x2="-2536.25" y2="-1553.65" gradientUnits="userSpaceOnUse">
<stop stop-color="white"/>
<stop offset="0.075" stop-color="white" stop-opacity="0.851"/>
<stop offset="0.214" stop-color="white" stop-opacity="0.596"/>
<stop offset="0.348" stop-color="white" stop-opacity="0.384"/>
<stop offset="0.471" stop-color="white" stop-opacity="0.216"/>
<stop offset="0.581" stop-color="white" stop-opacity="0.098"/>
<stop offset="0.676" stop-color="white" stop-opacity="0.027"/>
<stop offset="0.742" stop-color="white" stop-opacity="0"/>
</linearGradient>
<linearGradient id="paint4_linear" x1="-2663.68" y1="-1649.63" x2="-2624.13" y2="-1620.88" gradientUnits="userSpaceOnUse">
<stop stop-color="white"/>
<stop offset="0.075" stop-color="white" stop-opacity="0.851"/>
<stop offset="0.214" stop-color="white" stop-opacity="0.596"/>
<stop offset="0.348" stop-color="white" stop-opacity="0.384"/>
<stop offset="0.471" stop-color="white" stop-opacity="0.216"/>
<stop offset="0.581" stop-color="white" stop-opacity="0.098"/>
<stop offset="0.676" stop-color="white" stop-opacity="0.027"/>
<stop offset="0.742" stop-color="white" stop-opacity="0"/>
</linearGradient>
<linearGradient id="paint5_linear" x1="-2510.75" y1="-1531" x2="-2471.2" y2="-1502.26" gradientUnits="userSpaceOnUse">
<stop stop-color="white"/>
<stop offset="0.075" stop-color="white" stop-opacity="0.851"/>
<stop offset="0.214" stop-color="white" stop-opacity="0.596"/>
<stop offset="0.348" stop-color="white" stop-opacity="0.384"/>
<stop offset="0.471" stop-color="white" stop-opacity="0.216"/>
<stop offset="0.581" stop-color="white" stop-opacity="0.098"/>
<stop offset="0.676" stop-color="white" stop-opacity="0.027"/>
<stop offset="0.742" stop-color="white" stop-opacity="0"/>
</linearGradient>
</defs>
</svg>
