<svg xmlns="http://www.w3.org/2000/svg" width="48.543" height="48.543" viewBox="0 0 48.543 48.543">
  <g id="Group_16112" data-name="Group 16112" transform="translate(-775.389 -7163.221)">
    <path id="Path_11686" data-name="Path 11686" d="M24.272,0A24.272,24.272,0,1,1,0,24.272,24.272,24.272,0,0,1,24.272,0Z" transform="translate(775.389 7163.221)" fill="#fe0054"/>
    <path id="Path_2978" data-name="Path 2978" d="M0,4v8.826H5.884A5.89,5.89,0,0,1,0,18.71v2.942a8.836,8.836,0,0,0,8.826-8.826V4Z" transform="translate(787.893 7173.931)" fill="#fff"/>
    <path id="Path_2979" data-name="Path 2979" d="M20,4v8.826h5.884A5.89,5.89,0,0,1,20,18.71v2.942a8.836,8.836,0,0,0,8.826-8.826V4Z" transform="translate(782.603 7173.931)" fill="#fff"/>
  </g>
</svg>
