<svg xmlns="http://www.w3.org/2000/svg" width="662.81" height="510.951" viewBox="0 0 662.81 510.951">
  <g id="Group_9979" data-name="Group 9979" transform="translate(-3422.737 -493.109)">
    <circle id="Ellipse_26" data-name="Ellipse 26" cx="40.32" cy="40.32" r="40.32" transform="translate(3590.671 613.394) rotate(-22.5)" fill="#ffce26"/>
    <path id="Path_3419" data-name="Path 3419" d="M3538.5,638.328c-15.369.15-17.64,3.1-17.64,3.1-.23,1.248-12.2,1.618-15.258,10.376s1.174,17.28,4.187,19.823S3520.463,676,3520.463,676l.4,6.231s5.966,3.111,19.152,2.853,16.977-2.125,16.977-2.125V641.736S3553.871,638.178,3538.5,638.328Zm-28.386,19.213c.418-9.15,4.824-7.727,10.516-8.608l.233,21.373S3509.7,666.826,3510.119,657.541Z" transform="translate(179.219 318.095)" fill="#1a1a1a"/>
    <path id="Path_3420" data-name="Path 3420" d="M3491.658,584.241s-15.579,9.868-18.18,12.714-15.161,20.263-25.594,38.12-20.854,48.429-22.71,61.044-5.054,35.239,4.17,51.792,18.626,18.811,18.626,18.811v41.445l143.442.188s-3.172-28.712-1.755-35.97l20.9,32.387s13.353-1.768,24.188-8.063a166.552,166.552,0,0,0,16.6-10.752L3617.6,657.885s-13.272-43.34-21.239-54.041-16.778-21.233-47.2-27.391Z" transform="translate(0.787 182.566)" fill="#fe0054"/>
    <rect id="Rectangle_191" data-name="Rectangle 191" width="184.089" height="123.448" rx="3.668" transform="translate(3753.778 867.475)" fill="#1a1a1a"/>
    <path id="Path_3421" data-name="Path 3421" d="M3680.534,624.356l10.691,51.906-66.535.319s-10.356,1.429-11.645,10.209v11.164s-24.306,2.8-49.077-6.34-39.5-21.131-50.358-36.719-16.374-32.228-17.88-36.707-8.746-28.616-8.746-28.616,7.536,6.062,29.369,1.694,25.1-10.867,25.1-10.867,2.45,25.984,15.72,40.261,28.386,22.407,57.611,18.508c0,0,26.079-6.77,37.584-9.166S3680.534,624.356,3680.534,624.356Z" transform="translate(140.735 191.212)" fill="#fff"/>
    <path id="Path_3422" data-name="Path 3422" d="M3502.584,567.688s.054,24.995.152,29.547-1.787,18.464-13.786,18.416L3487.458,630l-3.385,19.759L3464.7,634.724s10.892-2.488,11.523-15.193-12.021-22.3-12.021-22.3-11.429,2.256-12.938-8.857c0,0,.159-7.054,6.547-8.471s6.889.246,6.889.246,8.748-4.2,13.174-10.5,8.541-13.119,9.307-17.643c0,0,7.021,5.475,9.629,8.381S3502.584,567.688,3502.584,567.688Z" transform="translate(62.489 129.017)" fill="#fff"/>
    <path id="Path_3423" data-name="Path 3423" d="M3548.855,575.3s-.612,24.637-.455,30.176-1.807,19.015,12.7,21.967l-.029,14.249,17.265,25.556,17.52-25.556-1.717-34.072s14.753,4.92,15.04-11.291c0,0,.845-7.475-10.688-9.272,0,0-4.926-.042-7.836,3.675,0,0-5.114-1.981-9.556-10.947s-3.8-13.228-3.8-13.228-5.966,7.415-13.665,8.471A67.936,67.936,0,0,1,3548.855,575.3Z" transform="translate(275.21 160.882)" fill="#fff"/>
    <path id="Path_3424" data-name="Path 3424" d="M3553.569,605.21l.356-11.594s8.41,1.863,14.032,0,14.469-8.085,14.469-8.085,2.329,18.007,13.3,23.517c0,0,2.412-4.393,7.277-3.538a33.6,33.6,0,0,1,8.285,2.549,30.677,30.677,0,0,0,4.649-15.206c.5-9.431-2.429-15.436-6.821-16.856s-18.316-2.058-18.316-2.058-8.363-14.01-17.172-15.362-15.413.986-20.062,5.079-7.878,13.263-3.1,21.836c0,0-4.087,1.085-4.4,6.971S3552.142,605.187,3553.569,605.21Z" transform="translate(270.141 142.563)" fill="#ffce26"/>
    <path id="Path_3425" data-name="Path 3425" d="M3495.7,580.611l2,11.716s-10.638-.281-10.781-4.007S3495.7,580.611,3495.7,580.611Z" transform="translate(140.585 191.675)" fill="#ffce26"/>
    <path id="Path_3426" data-name="Path 3426" d="M3501.644,578.909v10.526s8.611-5.15,7.612-7.5S3501.644,578.909,3501.644,578.909Z" transform="translate(172.845 187.946)" fill="#ffce26"/>
    <path id="Path_3427" data-name="Path 3427" d="M3567.859,580.143a10.83,10.83,0,0,0-4.471,4.664c-1.184,2.849.31,6.563.31,6.563s-1.41,2.154-5.037,1.152-5.766-1.694-5.476-3.944.364-2.683,2.888-2.82,4.879.469,5.44-1.825.659-5.421,3.068-5.593A3.3,3.3,0,0,1,3567.859,580.143Z" transform="translate(285.692 186.677)" fill="#1a1a1a"/>
    <path id="Path_3428" data-name="Path 3428" d="M3525.914,639.161c-8.518,0-15.419,1.3-15.419,2.906l15.419,1.244,15.42-1.244C3541.333,640.463,3534.43,639.161,3525.914,639.161Z" transform="translate(192.233 319.929)" fill="#fff"/>
    <path id="Path_3429" data-name="Path 3429" d="M3529.845,585.225s-1.5-16.179-4.3-21.526-3.95-8.343-6.742-7.137-6.664,3.529-6.4,8.26,3.028,18.974,3.028,18.974-4.256-5.019-8.828-3.643-5.561,8.666-5.561,8.666-4.727-6.432-9.879-5.516-5.152,10.411-3.969,15.949,1.04,9.064,3.49,10.4l4.726,18.747,3.095,17.194s10.691.1,17.765-1.375,18.441-5.245,18.441-5.245l-.829-18.518s4.888-17.928,4.677-22.461S3540.987,590.821,3529.845,585.225Z" transform="translate(139.781 138.411)" fill="#fff"/>
    <path id="Path_3430" data-name="Path 3430" d="M3516.691,642.862a35.081,35.081,0,0,0,11.817,7.476c6.613,2.259,22.178,4.709,22.178,4.709l4.722,6.643-68.819,1.008-2.859-4.221s12.8-3.634,20.758-8.608A139.1,139.1,0,0,1,3516.691,642.862Z" transform="translate(133.605 328.036)" fill="#fff"/>
    <path id="Path_3431" data-name="Path 3431" d="M3580.363,616.3l-17.7-26.2-15.016,13,10.689,51.905h14.089l1.793-7.425-4.746-9.507Z" transform="translate(273.621 212.467)" fill="#fff"/>
    <path id="Path_3432" data-name="Path 3432" d="M3574.987,590.1,3557.9,616.3l11.033,22.212-3.853,9.041,2.237,7.452h11.939l10.937-53.4Z" transform="translate(296.082 212.467)" fill="#fff"/>
    <path id="Path_3433" data-name="Path 3433" d="M3554.489,620.088l4.746,9.507-1.793,7.425H3574.8l-2.237-7.452,3.853-9.041-11.033-22.212Z" transform="translate(288.605 230.455)" fill="#ffce26"/>
    <path id="Path_3434" data-name="Path 3434" d="M3579.147,640.273a12.99,12.99,0,1,1-12.991-12.989A12.993,12.993,0,0,1,3579.147,640.273Z" transform="translate(285.71 293.912)" fill="#fff"/>
    <path id="Path_3435" data-name="Path 3435" d="M3524.622,608.472s-5.344,1.426-5.487,8.385,3.994,8.71,5.487,8.388a7.782,7.782,0,0,0,5.491-8.388C3529.743,611.05,3527.066,608.912,3524.622,608.472Z" transform="translate(211.15 252.704)" fill="#fff"/>
    <path id="Path_3436" data-name="Path 3436" d="M3530.1,614.794s-10.337.845-13.23,8.522,2.233,12.883,1.388,18.094-.756,4.7-4.115,8.563-5.9,19.979,2.75,22.337,13.246,3.525,19.609,0,8.942-10.235,9-17.462-2.349-8.953-1.95-13.946,3.95-7.938.795-15.557S3537.151,614.717,3530.1,614.794Z" transform="translate(193.367 266.55)" fill="#fff"/>
    <path id="Path_3437" data-name="Path 3437" d="M3467.144,617.687l9.435-30.859h64.362s-10.973,34.343-11.983,54.647-3.514,50.1-3.514,50.1H3467.7l1.764-2.922-3.707-7.262-2.9-50Z" transform="translate(87.88 205.293)" fill="#fff"/>
    <path id="Path_3438" data-name="Path 3438" d="M3575.533,593.708l-10.937,53.4h49.849s12.68-.734,12.68,13.151-.25,100.122-.25,100.122-2.775,8.9-8.934,9.986l28.543-.325s9.574-.316,14.6-6.289,11.878-17.194,11.4-31.27-3.057-42.2-12.6-65.642-16.744-40.542-24.413-48.311-19.354-14.868-27.92-17.631S3575.533,593.708,3575.533,593.708Z" transform="translate(310.745 220.364)" fill="#fff"/>
    <path id="Path_3439" data-name="Path 3439" d="M3726.5,565.578a2.222,2.222,0,0,0-1.819-2.495c-3.907-1.349-7.8-2.747-11.625-4.317a4.6,4.6,0,0,1-2.189-2.284c-1.605-3.714-3.06-7.495-4.457-11.3a3.668,3.668,0,0,1,0-2.517c1.889-4.2,3.963-8.311,5.839-12.516a2.634,2.634,0,0,0-.312-2.332c-3.152-3.366-6.468-6.576-9.658-9.9a1.893,1.893,0,0,0-2.62-.424c-3.983,1.978-7.994,3.9-12.053,5.714a4.024,4.024,0,0,1-2.744.128q-5.824-2.1-11.53-4.511a4.247,4.247,0,0,1-2.173-2.007c-1.576-3.905-2.993-7.874-4.355-11.859-.434-1.279-.954-1.9-2.444-1.86-4.453.109-8.91.1-13.367.006a2.219,2.219,0,0,0-2.486,1.831c-1.34,3.908-2.855,7.756-4.183,11.668a3.453,3.453,0,0,1-2.5,2.39c-3.675,1.276-7.312,2.718-10.848,4.342a3.5,3.5,0,0,1-3.445-.035c-3.9-1.962-7.881-3.774-11.79-5.73a2.045,2.045,0,0,0-2.823.491c-3.081,3.219-6.222,6.384-9.456,9.447-1.092,1.034-1,1.835-.411,3.031,1.937,3.918,3.841,7.855,5.589,11.856a4.047,4.047,0,0,1-.073,2.9q-2.44,5.69-5.213,11.231a4.765,4.765,0,0,1-2.25,2.23c-4.153,1.582-8.378,2.99-12.6,4.368a2.192,2.192,0,0,0-1.854,2.463c.1,4.451.087,8.911.007,13.365a2.025,2.025,0,0,0,1.659,2.329c4.307,1.385,8.6,2.82,12.832,4.428a4.728,4.728,0,0,1,2.2,2.3c1.707,3.583,3.114,7.313,4.9,10.857a3.846,3.846,0,0,1,.083,3.9c-1.847,3.7-3.528,7.482-5.366,11.186a2.182,2.182,0,0,0,.479,3.021q4.833,4.609,9.447,9.454c1.021,1.078,1.818,1.027,3.012.431,3.845-1.9,7.76-3.669,11.6-5.577a3.412,3.412,0,0,1,3.446.089c3.694,1.825,7.549,3.331,11.278,5.1a4.017,4.017,0,0,1,1.9,1.984c1.582,4.237,3.05,8.522,4.464,12.816a2.077,2.077,0,0,0,2.349,1.688c4.454-.076,8.914-.089,13.368.006a2.142,2.142,0,0,0,2.443-1.825c1.359-4.234,2.811-8.442,4.393-12.6a4.348,4.348,0,0,1,2.106-2.112q5.714-2.67,11.572-5.022a3.86,3.86,0,0,1,2.725-.054c4.55,2.02,9.032,4.2,13.71,6.4,3.662-3.714,7.322-7.341,10.851-11.1a2.664,2.664,0,0,0,.213-2.367c-1.814-4.061-3.817-8.037-5.653-12.086a3.828,3.828,0,0,1-.178-2.572c1.378-3.966,2.843-7.912,4.438-11.8a4.237,4.237,0,0,1,2.079-2.125c3.906-1.576,7.874-3.005,11.854-4.387a2.082,2.082,0,0,0,1.637-2.371C3726.421,574.489,3726.408,570.032,3726.5,565.578Zm-68.861,32.716a26.048,26.048,0,1,1,26.08-26.019A25.966,25.966,0,0,1,3657.64,598.294Z" transform="translate(359.044 21.871)" fill="#781bfb"/>
    <g id="Group_9980" data-name="Group 9980" transform="translate(3621.092 624.625)">
      <path id="Path_3440" data-name="Path 3440" d="M3484.908,547.823l4.381-1.212c.791-.22,1.589-.431,2.376-.654a68.728,68.728,0,0,0,10.016,9.712,4.019,4.019,0,0,0,3.672.763,12.39,12.39,0,0,0,3.752-1.717,47.4,47.4,0,0,0,7.811-6.474,143.806,143.806,0,0,0,12.262-13.911,54.281,54.281,0,0,1,7.9,1.723,133.158,133.158,0,0,1-15.285,22.917,56.031,56.031,0,0,1-9.808,9.661,30.757,30.757,0,0,1-3.807,2.326,9.463,9.463,0,0,1-8.7.125,18.4,18.4,0,0,1-7.016-5.845,39.814,39.814,0,0,1-5.937-11.856C3485.928,551.568,3485.453,549.721,3484.908,547.823Z" transform="translate(-3484.908 -534.33)" fill="#fff"/>
    </g>
    <path id="Path_3441" data-name="Path 3441" d="M3443.032,652.7s-5.564-5.047-2.09-14.788,8.984-9.371,8.984-9.371-4.616-8.538.587-13.132,13.2-4,15.442-1.981c0,0-1.889-15.12-3.991-27.9s-2.82-14.236-2.82-14.236,2.612-17.876,19.583-20.432,22.216-3.009,31.462-1.873,12.2,3.57,14.641,6.946,4.521,15.582,2.866,19.669c0,0-6.092-11.269-15.4-15.681,0,0-2.1,14.871-22,27.9,0,0-7.861-3.548-12.65,3.79s1.641,15.034,10.577,13.537c0,0,14.612,8.059,13.115,20.47s-7.765,15.215-12.021,17.506c0,0-.416,11.2-12.294,12.328s-20.818-4.569-22.755-8.694Z" transform="translate(37.378 121.107)" fill="#1a1a1a"/>
    <path id="Path_3442" data-name="Path 3442" d="M3463.464,573.013l-.888,14.916,9.767,1.078s3.733-2.958,2.594-8.847-3.819-8.688-3.819-8.688Z" transform="translate(87.271 171.655)" fill="#1a1a1a"/>
    <path id="Path_3443" data-name="Path 3443" d="M3458.413,633.654s3.174-2.262,3.818-9.144,1.516-22.946,14.645-28.01l-2.772,13.946s-.935,8.9,3.328,9.894,19.832-9.807,23.647-12.65,9.339-8.94,14.246-5.5.641,9.064.641,9.064,4.34-1.592,6.7,1.1-2.575,9.17-2.575,9.17,3.667,5.443-.937,10.312-43.165,28.373-43.165,28.373Z" transform="translate(78.147 226.48)" fill="#fff"/>
    <path id="Rectangle_192" data-name="Rectangle 192" d="M1.322,0H24.381A1.321,1.321,0,0,1,25.7,1.321V24.38A1.322,1.322,0,0,1,24.38,25.7H1.322A1.322,1.322,0,0,1,0,24.38V1.322A1.322,1.322,0,0,1,1.322,0Z" transform="translate(3786.219 612.655)" fill="#781bfb"/>
    <path id="Rectangle_193" data-name="Rectangle 193" d="M1.322,0H24.38A1.322,1.322,0,0,1,25.7,1.322V24.38A1.322,1.322,0,0,1,24.38,25.7H1.321A1.321,1.321,0,0,1,0,24.381V1.322A1.322,1.322,0,0,1,1.322,0Z" transform="translate(3776.353 664.56)" fill="#1a1a1a"/>
    <path id="Path_3444" data-name="Path 3444" d="M3536.309,620.146s-42.325,80.621-105.459,66.009l.134-15.142s14.961,8.592,39.486-3.165,39.639-22.637,50.892-33.322S3536.309,620.146,3536.309,620.146Z" transform="translate(17.773 278.276)" fill="#1a1a1a"/>
    <path id="Path_3445" data-name="Path 3445" d="M3451.466,590.414s9.9-2.1,11.132-6.043a21.334,21.334,0,0,0,1.162-6.285l19.889,15.9s.224,17.462-10.413,17.35S3455.292,604.025,3451.466,590.414Z" transform="translate(62.932 186.143)" fill="#fff"/>
    <path id="Path_3446" data-name="Path 3446" d="M3465.513,575.119v5.427l-4.03,19.331s4.62,7.287,10.245,8.63,9.91-1.426,11-4.282,1.761-5.96-.926-10.79S3465.513,575.119,3465.513,575.119Z" transform="translate(84.874 179.644)" fill="#fff"/>
    <path id="Path_3447" data-name="Path 3447" d="M3461.353,589.405s6.311,5.861,14.407,3.063c0,0-10.5-1.455-13.767-9.4Z" transform="translate(84.587 197.059)" fill="#3a3a3a"/>
    <path id="Path_3448" data-name="Path 3448" d="M3503.129,646.681s-9,6.208-18.115,3c-.357-.127-1.22.919-1.22.919l2.652,3.733,23.584-.15S3502.389,649.658,3503.129,646.681Z" transform="translate(133.747 336.402)" fill="#b5b5b5"/>
    <path id="Path_3449" data-name="Path 3449" d="M3559.037,583.408c-9.612-5.867-2.979-23.144-2.574-24.165a21.283,21.283,0,0,0-2.894,2.109c-4.648,4.09-7.878,13.263-3.1,21.836,0,0-4.087,1.085-4.4,6.968s6.071,12.727,7.5,12.749l.356-11.594s8.407,1.863,14.032,0c3.445-1.142,8.1-3.921,11.192-5.9C3579.848,584.585,3568.947,589.454,3559.037,583.408Z" transform="translate(270.141 144.867)" fill="#fff"/>
    <path id="Path_3450" data-name="Path 3450" d="M3575.558,587.417c-10.958-3.14-18.07-20.968-18.07-20.968-.09.992,2.239,19,13.212,24.51a7.667,7.667,0,0,1,4.862-3.538Z" transform="translate(295.169 160.652)" fill="#fff"/>
    <path id="Path_3451" data-name="Path 3451" d="M3479.812,548.983a64.8,64.8,0,0,0-14.467-.329c6.784,1.857,12.5,5.2,11.624,11.263-2.026,14.054-23.3,27.132-23.3,27.132a12.71,12.71,0,0,1,6.247.769c19.9-13.03,22-27.9,22-27.9,9.313,4.412,15.4,15.681,15.4,15.681,1.655-4.087-.422-16.294-2.866-19.669S3489.058,550.122,3479.812,548.983Z" transform="translate(67.756 121.107)" fill="#fff"/>
    <g id="Group_9981" data-name="Group 9981" transform="translate(3492.077 726.518)">
      <path id="Path_3452" data-name="Path 3452" d="M3478.439,566.266l-4.623.118s9.26,3.733,9.958,17.175c.922,17.806-16.064,18.285-16.064,18.285s-2.5,13.713-23.24,6.155c1.95,4.007,10.724,9.412,22.321,8.308,11.878-1.129,12.3-12.328,12.3-12.328,4.253-2.291,10.521-5.1,12.018-17.506C3492.452,575.324,3480.823,567.7,3478.439,566.266Z" transform="translate(-3444.47 -566.266)" fill="#fff"/>
    </g>
    <path id="Path_3453" data-name="Path 3453" d="M3471.621,589.007s3.733-2.958,2.594-8.847-3.819-8.688-3.819-8.688l-2.81.568c.559.147,5.28,11.537-1.522,13.553a4.651,4.651,0,0,0-3.155,2.453Z" transform="translate(87.993 171.655)" fill="#fff"/>
    <path id="Path_3454" data-name="Path 3454" d="M3568.485,604.568l-7.614,12.394,4.762,12.6-.183,7.452h-8.008l1.793-7.425-4.746-10.359,10.89-20.921Z" transform="translate(288.605 230.455)" fill="#fff"/>
    <g id="Group_9985" data-name="Group 9985" transform="translate(3757.554 750.354)">
      <g id="Group_9982" data-name="Group 9982" transform="translate(19.012 30.043)">
        <path id="Path_3455" data-name="Path 3455" d="M3534.349,594.491c-1-1.015-.785-1.531-.329-1.713L3558,583.209a.911.911,0,0,1,1.155.5.888.888,0,0,1-.5,1.155l-23.977,9.568A.894.894,0,0,1,3534.349,594.491Z" transform="translate(-3533.637 -583.154)" fill="#1a1a1a"/>
      </g>
      <g id="Group_9983" data-name="Group 9983" transform="translate(0 18.619)">
        <path id="Path_3456" data-name="Path 3456" d="M3569.03,582.393l-40.49-1.05a.886.886,0,0,1-.862-.909.989.989,0,0,1,.909-.861l40.466,1.05a.886.886,0,0,1-.022,1.771Z" transform="translate(-3527.677 -579.573)" fill="#1a1a1a"/>
      </g>
      <g id="Group_9984" data-name="Group 9984" transform="translate(21.078)">
        <path id="Path_3457" data-name="Path 3457" d="M3556.151,585.191c-.366-.083-21.354-9.763-21.354-9.763a.882.882,0,0,1-.431-1.171.873.873,0,0,1,1.174-.434l20.98,9.68a.884.884,0,0,1-.37,1.688Z" transform="translate(-3534.285 -573.737)" fill="#1a1a1a"/>
      </g>
    </g>
    <g id="Group_9986" data-name="Group 9986" transform="translate(3476.427 748.757)">
      <path id="Path_3458" data-name="Path 3458" d="M3444.022,599.5c-5.6-3.117-4.954-11.709-3.254-16.757,1.774-5.287,4.869-8.388,9.47-9.476a.861.861,0,0,1,1.063.657.884.884,0,0,1-.654,1.066c-3.956.938-6.64,3.663-8.2,8.315-1.455,4.323-2.192,12.1,2.025,14.545a.884.884,0,0,1-.447,1.65Z" transform="translate(-3439.565 -573.236)" fill="#1a1a1a"/>
    </g>
    <g id="Group_9987" data-name="Group 9987" transform="translate(3495.66 668.486)">
      <path id="Path_3459" data-name="Path 3459" d="M3453.771,615.339c-4.5-27.71-8.136-42.14-8.177-42.287a21.587,21.587,0,0,1,10.024-17.72c14.5-9.756,41.78-7.8,49.763-4.846.363.029,13.225,2.131,10.5,25.91a.894.894,0,0,1-.977.782.883.883,0,0,1-.781-.979c2.511-21.967-8.7-23.932-9.186-24-6.378-2.348-33.488-5.389-48.337,4.61a19.861,19.861,0,0,0-9.259,15.943c.38,1.528,3.852,15.917,7.306,41.585a.887.887,0,0,1-.762,1C3453.847,615.339,3453.812,615.339,3453.771,615.339Z" transform="translate(-3445.594 -548.077)" fill="#1a1a1a"/>
    </g>
    <g id="Group_9988" data-name="Group 9988" transform="translate(3490.76 763.349)">
      <path id="Path_3460" data-name="Path 3460" d="M3463.461,592.148c-8.192,0-13.358-2.537-19.184-9.243a.883.883,0,1,1,1.333-1.158c5.884,6.761,10.884,8.847,19.449,8.6,9.059-.348,13.652-4.176,14.045-11.7a.984.984,0,0,1,.932-.839.883.883,0,0,1,.836.932c-.443,8.493-5.739,12.989-15.741,13.372C3464.556,592.139,3464,592.148,3463.461,592.148Z" transform="translate(-3444.057 -577.81)" fill="#1a1a1a"/>
    </g>
    <g id="Group_9989" data-name="Group 9989" transform="translate(3681.191 769.719)">
      <path id="Path_3461" data-name="Path 3461" d="M3563.217,642.483a60.173,60.173,0,0,1-10.5-.9c-27.266-4.865-45.579-27.595-48.971-60.8a.877.877,0,0,1,.79-.967.863.863,0,0,1,.974.791c3.312,32.371,21.077,54.513,47.523,59.229,14.928,2.667,30.063-1.311,44.715-5.15,4.722-1.241,9.6-2.52,14.345-3.532,8.595-1.841,19.95-4.227,31.566-6.371a.924.924,0,0,1,1.03.718.878.878,0,0,1-.715,1.027c-11.591,2.141-22.927,4.518-31.509,6.359-4.707,1.008-9.56,2.281-14.265,3.513C3586.759,639.4,3575.012,642.483,3563.217,642.483Z" transform="translate(-3503.744 -579.807)" fill="#1a1a1a"/>
    </g>
    <g id="Group_9990" data-name="Group 9990" transform="translate(3937.252 532.065)">
      <path id="Path_3462" data-name="Path 3462" d="M3662.658,646.946c-4.118-.093-8.474-.093-13.46,0a2.923,2.923,0,0,1-3.21-2.3c-1.64-5-3.06-9.064-4.454-12.778a3.088,3.088,0,0,0-1.442-1.5c-1.646-.778-3.314-1.506-4.98-2.233-2.083-.906-4.237-1.844-6.316-2.872a2.547,2.547,0,0,0-2.658-.086c-1.959.973-3.934,1.9-5.915,2.843-1.9.9-3.8,1.8-5.688,2.734a3.022,3.022,0,0,1-4.049-.619c-2.907-3.066-5.992-6.145-9.418-9.425a3.039,3.039,0,0,1-.658-4.049c.874-1.774,1.727-3.573,2.568-5.366.919-1.946,1.841-3.9,2.8-5.823a2.99,2.99,0,0,0-.089-3.1c-1-1.991-1.9-4.068-2.76-6.072-.7-1.611-1.385-3.222-2.144-4.8a3.776,3.776,0,0,0-1.71-1.844c-4.436-1.694-8.96-3.191-12.794-4.425a2.894,2.894,0,0,1-2.272-3.19c.083-4.98.083-9.339-.006-13.327a3.064,3.064,0,0,1,2.463-3.321c4-1.3,8.3-2.734,12.561-4.349a3.955,3.955,0,0,0,1.774-1.8c1.844-3.688,3.59-7.45,5.194-11.189a3.148,3.148,0,0,0,.07-2.186c-1.918-4.384-3.985-8.621-5.571-11.824a3.04,3.04,0,0,1,.6-4.068c2.958-2.808,6.046-5.883,9.429-9.419a2.894,2.894,0,0,1,3.86-.667c1.876.938,3.768,1.838,5.659,2.75,2.052.976,4.1,1.956,6.133,2.98a2.628,2.628,0,0,0,2.677.019c3.455-1.589,7.137-3.06,10.928-4.374a2.585,2.585,0,0,0,1.946-1.835c.676-2,1.4-3.988,2.138-5.969.7-1.9,1.391-3.79,2.045-5.7a3.091,3.091,0,0,1,3.216-2.437c4.92.105,9.271.1,13.454,0a3.093,3.093,0,0,1,3.306,2.457c1.634,4.8,2.977,8.442,4.336,11.811a3.458,3.458,0,0,0,1.7,1.531c3.659,1.554,7.523,3.066,11.48,4.492a3.34,3.34,0,0,0,2.09-.1c3.662-1.65,7.6-3.513,12.021-5.7a2.736,2.736,0,0,1,3.647.612c1.372,1.42,2.769,2.827,4.154,4.237,1.854,1.873,3.711,3.743,5.51,5.67a3.47,3.47,0,0,1,.476,3.3c-.974,2.186-2,4.349-3.031,6.509-.948,2-1.9,3.991-2.808,6.008a2.839,2.839,0,0,0,.025,1.851c1.682,4.566,3.054,8.037,4.441,11.25a3.725,3.725,0,0,0,1.71,1.819c4.139,1.7,8.362,3.187,11.572,4.3a3.1,3.1,0,0,1,2.425,3.35c-.093,4.183-.093,8.547,0,13.33a2.962,2.962,0,0,1-2.24,3.229c-4.661,1.611-8.41,3-11.811,4.371a3.319,3.319,0,0,0-1.593,1.643c-1.489,3.624-2.929,7.469-4.419,11.754a2.918,2.918,0,0,0,.15,1.908c.858,1.9,1.761,3.79,2.657,5.679,1.019,2.125,2.033,4.259,3,6.413a3.511,3.511,0,0,1-.377,3.337c-2.677,2.843-5.472,5.666-8.181,8.4l-2.684,2.712c-1.014.185-4.425-1.436-4.425-1.436-3.468-1.646-6.856-3.257-10.276-4.783a2.951,2.951,0,0,0-2.032.067c-4.148,1.682-7.923,3.315-11.534,5a3.545,3.545,0,0,0-1.653,1.63c-1.493,3.924-2.922,8.027-4.374,12.545A2.97,2.97,0,0,1,3662.658,646.946Zm-6.569-1.838c2.282,0,4.429.026,6.478.07.864,0,1.247-.188,1.582-1.212,1.458-4.547,2.9-8.681,4.412-12.641a5.214,5.214,0,0,1,2.553-2.6c3.641-1.707,7.438-3.35,11.614-5.038a4.743,4.743,0,0,1,3.423-.042c3.433,1.528,6.84,3.14,10.312,4.792l2.85,1.346,2.242-2.265c2.7-2.721,5.491-5.539,8.151-8.369a2.029,2.029,0,0,0,.046-1.394c-.954-2.144-1.962-4.259-2.975-6.378-.9-1.9-1.812-3.793-2.679-5.711a4.669,4.669,0,0,1-.205-3.222c1.5-4.314,2.954-8.187,4.454-11.837a5.094,5.094,0,0,1,2.565-2.616c3.427-1.378,7.211-2.779,11.9-4.4.861-.3,1.057-.581,1.043-1.525-.086-4.8-.086-9.189,0-13.394.02-.983-.207-1.289-1.231-1.64-3.231-1.114-7.481-2.623-11.664-4.333a5.488,5.488,0,0,1-2.667-2.753c-1.4-3.248-2.783-6.745-4.477-11.346a4.551,4.551,0,0,1,.025-3.187c.912-2.026,1.869-4.033,2.823-6.04,1.019-2.154,2.039-4.3,3.013-6.477a1.853,1.853,0,0,0-.147-1.356c-1.793-1.921-3.634-3.777-5.479-5.638-1.4-1.417-2.795-2.827-4.173-4.262-.562-.59-.808-.625-1.589-.246-4.441,2.2-8.392,4.081-12.083,5.73a4.94,4.94,0,0,1-3.406.16c-4-1.448-7.891-2.97-11.575-4.534a5.147,5.147,0,0,1-2.655-2.5c-1.372-3.395-2.718-7.07-4.364-11.9-.37-1.069-.708-1.289-1.582-1.26-4.209.105-8.6.112-13.407,0-1.037,0-1.279.207-1.634,1.238-.657,1.924-1.362,3.832-2.058,5.737-.728,1.969-1.448,3.94-2.128,5.931a4.286,4.286,0,0,1-3.04,2.938c-3.74,1.3-7.361,2.744-10.771,4.31a4.361,4.361,0,0,1-4.212-.048c-2.022-1.018-4.062-1.991-6.1-2.964-1.9-.909-3.8-1.822-5.691-2.766-.83-.421-1.136-.364-1.787.316-3.4,3.545-6.5,6.646-9.485,9.473-.686.654-.728.989-.224,2,1.593,3.213,3.676,7.482,5.609,11.891a4.915,4.915,0,0,1-.07,3.6c-1.62,3.774-3.382,7.565-5.242,11.288a5.6,5.6,0,0,1-2.725,2.658c-4.307,1.637-8.623,3.072-12.644,4.384-1.03.335-1.264.632-1.241,1.6.1,4.014.1,8.394,0,13.407-.016.932.163,1.184,1.044,1.464,3.863,1.241,8.41,2.75,12.88,4.451a5.566,5.566,0,0,1,2.689,2.744c.763,1.6,1.468,3.229,2.17,4.866.854,1.981,1.735,4.033,2.715,5.976a4.692,4.692,0,0,1,.086,4.683c-.957,1.921-1.869,3.854-2.776,5.794-.851,1.806-1.706,3.612-2.586,5.4-.47.941-.416,1.314.289,1.988,3.449,3.293,6.554,6.394,9.483,9.482.656.7.988.743,1.978.246,1.892-.938,3.81-1.841,5.717-2.747,1.966-.928,3.935-1.86,5.884-2.827a4.313,4.313,0,0,1,4.23.083c2.042,1.011,4.173,1.94,6.234,2.84,1.691.734,3.373,1.468,5.035,2.252a4.839,4.839,0,0,1,2.351,2.479c1.4,3.739,2.824,7.823,4.477,12.848.294.893.615,1.063,1.487,1.082C3651.612,645.134,3653.917,645.108,3656.089,645.108Zm-.22-42.82a26.987,26.987,0,0,1-19.057-45.994,26.954,26.954,0,1,1,19.066,45.994Zm.22-52.095a25.3,25.3,0,0,0-18.022,7.354,25.17,25.17,0,0,0,17.8,42.967,25.161,25.161,0,0,0,.28-50.321Z" transform="translate(-3584.001 -505.319)" fill="#1a1a1a"/>
    </g>
    <g id="Group_9991" data-name="Group 9991" transform="translate(3885.395 813.172)">
      <path id="Path_3463" data-name="Path 3463" d="M3634.384,771.878c-1.251,0-2.523-.051-3.845-.15a.889.889,0,0,1-.82-.951c15.953.306,26.089-5.332,31.191-17.634,15.078-36.356-18.64-121.307-35-135.374-19.351-16.635-37.393-19.443-53.308-21.922-1.391-.217-2.76-.427-4.115-.648a.882.882,0,0,1-.731-1.018.852.852,0,0,1,1.013-.731c1.354.217,2.721.427,4.1.644,16.156,2.514,34.461,5.36,54.2,22.327,17.057,14.67,51.169,99.573,35.475,137.4C3657.573,765.813,3648.107,771.878,3634.384,771.878Z" transform="translate(-3567.747 -593.426)" fill="#1a1a1a"/>
    </g>
    <g id="Group_9992" data-name="Group 9992" transform="translate(3820.401 801.9)">
      <path id="Path_3464" data-name="Path 3464" d="M3602.317,656.355a.919.919,0,0,1-.868-1.062l10.829-52.857-14.01-10.592-16.562,25.409c-1.477.013-18.622-25.365-18.622-25.365l-13.87,12.006,10.584,51.4a.887.887,0,0,1-1.736.36l-10.685-51.906c.287-.849,15.3-13.85,15.3-13.85,1.312.172,18.271,25.269,18.271,25.269l16.349-25.087c1.276-.223,16.488,11.282,16.488,11.282.332.884-10.605,54.286-10.605,54.286A.879.879,0,0,1,3602.317,656.355Z" transform="translate(-3547.377 -589.893)" fill="#1a1a1a"/>
    </g>
    <g id="Group_9993" data-name="Group 9993" transform="translate(3833.74 828.375)">
      <path id="Path_3465" data-name="Path 3465" d="M3591.031,638.178c-.792-.491-19.226-37.6-19.226-37.6l-18.569,37.115a.872.872,0,0,1-1.19.392.884.884,0,0,1-.393-1.19l19.36-38.7c1.582.006,20.809,38.707,20.809,38.707a.877.877,0,0,1-.4,1.184A.813.813,0,0,1,3591.031,638.178Z" transform="translate(-3551.557 -598.191)" fill="#1a1a1a"/>
    </g>
    <g id="Group_9994" data-name="Group 9994" transform="translate(3842.635 848.802)">
      <path id="Path_3466" data-name="Path 3466" d="M3559.553,616.728c-.823-.546-5.141-10.905-5.141-10.905a.887.887,0,0,1,1.64-.68l4.092,9.808,12.14-.022,3.563-8.624a.887.887,0,1,1,1.64.676l-3.79,9.173c-.82.546-14.144.574-14.144.574Z" transform="translate(-3554.345 -604.594)" fill="#1a1a1a"/>
    </g>
    <g id="Group_9995" data-name="Group 9995" transform="translate(3822.67 735.295)">
      <path id="Path_3467" data-name="Path 3467" d="M3569.639,623.881c-9.482,0-19.035-3.624-20.863-12.421a77.789,77.789,0,0,1-.6-9.926l-.073-2.894c-.118-3.736.466-27.745.5-28.763a.878.878,0,0,1,.883-.861.89.89,0,0,1,.888.906c-.01.246-.609,24.975-.5,28.66l.076,2.91a78.138,78.138,0,0,0,.559,9.607c1.9,9.122,13.5,11.971,23.46,10.746a38.652,38.652,0,0,0,8.209-1.745.887.887,0,1,1,.585,1.675,40.631,40.631,0,0,1-8.584,1.828A37.6,37.6,0,0,1,3569.639,623.881Z" transform="translate(-3548.087 -569.017)" fill="#1a1a1a"/>
    </g>
    <g id="Group_9996" data-name="Group 9996" transform="translate(3868.465 767.608)">
      <path id="Path_3468" data-name="Path 3468" d="M3565.046,614.991c-.888-.839-2.6-34.914-2.6-34.914a.888.888,0,0,1,.836-.932.9.9,0,0,1,.936.836l1.716,34.075a.887.887,0,0,1-.839.935Z" transform="translate(-3562.441 -579.145)" fill="#1a1a1a"/>
    </g>
    <g id="Group_9997" data-name="Group 9997" transform="translate(3862.923 747.194)">
      <path id="Path_3469" data-name="Path 3469" d="M3571.591,595.934a11.529,11.529,0,0,1-7.045-2.409.887.887,0,1,1,1.082-1.407,9.814,9.814,0,0,0,13.55-14.022,9.814,9.814,0,0,0-16.76,2.75.887.887,0,0,1-1.656-.635,11.579,11.579,0,1,1,10.829,15.723Z" transform="translate(-3560.704 -572.747)" fill="#1a1a1a"/>
    </g>
    <g id="Group_9998" data-name="Group 9998" transform="translate(3422.737 766.533)">
      <path id="Path_3470" data-name="Path 3470" d="M3463.331,765.093a32.922,32.922,0,0,1-17.4-4.524c-11-6.674-18.177-16.8-21.335-30.112-8.819-37.147,15.694-89.963,31.567-115.321a182.5,182.5,0,0,1,15.316-21.644c5.4-6.34,12.826-10.513,20.6-14.581a.886.886,0,0,1,.82,1.57c-7.613,3.982-14.872,8.066-20.072,14.16a181.245,181.245,0,0,0-15.161,21.434c-15.726,25.122-40.025,77.4-31.347,113.972,3.047,12.829,9.957,22.589,20.534,29.011,26.728,16.221,75.386-15.882,109.476-52.7a82.691,82.691,0,0,0-10.764-19.9c-8.427-11.32-14.246-16.843-15.9-18.323-4.7,3.025-37.976,24.615-56.539,42.763a.886.886,0,1,1-1.24-1.267c20.043-19.593,57.017-43.12,57.387-43.356,1.3.281,7.565,5.5,17.711,19.127a83.443,83.443,0,0,1,11.2,20.9C3529.815,737.715,3491.51,765.086,3463.331,765.093Z" transform="translate(-3422.737 -578.808)" fill="#1a1a1a"/>
    </g>
    <g id="Group_9999" data-name="Group 9999" transform="translate(3588.739 837.374)">
      <path id="Path_3471" data-name="Path 3471" d="M3497.376,751.86c-.82-.5-11.737-15.11-22.5-34.279a.889.889,0,0,1,.341-1.209.9.9,0,0,1,1.207.341,344.911,344.911,0,0,0,21.376,33.347c16.342-1.062,36.092-15.736,39.343-18.231-2.741-9.8-32.228-115.382-33.96-129.822a.889.889,0,0,1,.774-.986.871.871,0,0,1,.986.775c1.758,14.686,33.746,128.974,34.068,130.125-1.226,1.672-23.16,19.034-41.6,19.937Z" transform="translate(-3474.767 -601.012)" fill="#1a1a1a"/>
    </g>
    <g id="Group_10000" data-name="Group 10000" transform="translate(3556.457 760.046)">
      <path id="Path_3472" data-name="Path 3472" d="M3509.273,609.733c-11.18-16.942-25.308-27.011-43.931-31.206a.889.889,0,0,1,.387-1.735c19.107,4.307,33.6,14.635,44.294,31.583a.889.889,0,0,1-.278,1.225A.834.834,0,0,1,3509.273,609.733Z" transform="translate(-3464.649 -576.775)" fill="#1a1a1a"/>
    </g>
    <g id="Group_10001" data-name="Group 10001" transform="translate(3537.619 696.29)">
      <path id="Path_3473" data-name="Path 3473" d="M3472.428,605.844c-.819,0-1.681-.042-2.605-.115-2.978-.255-7.345-.785-10.366-1.4a.878.878,0,0,1-.692-1.043.889.889,0,0,1,1.043-.692,100.931,100.931,0,0,0,10.168,1.359,18.081,18.081,0,0,0,7.144-.523c3.152-.992,5.306-3.382,6.592-7.3,2.144-6.534,2.032-13.623,1.92-20.48-.069-4.594-.185-8.257-.312-11.913l-.179-5.829a.885.885,0,1,1,1.707-.469c.061.437.248,6.237.248,6.237.118,3.672.24,7.338.294,11.007.131,7.938.246,15.181-1.994,22-1.48,4.5-4.014,7.262-7.747,8.433A16.991,16.991,0,0,1,3472.428,605.844Z" transform="translate(-3458.745 -556.792)" fill="#1a1a1a"/>
    </g>
    <g id="Group_10002" data-name="Group 10002" transform="translate(3526.439 680.633)">
      <path id="Path_3474" data-name="Path 3474" d="M3455.99,581.306c-1.012-.906-.843-1.442-.409-1.669a42.069,42.069,0,0,0,21.687-27.751c1.946-.169,14.83,9.329,17.229,16.23a.888.888,0,0,1-.545,1.129.871.871,0,0,1-1.13-.542c-1.834-5.287-10.959-12.689-14.124-15.136a44.321,44.321,0,0,1-22.3,27.64A.85.85,0,0,1,3455.99,581.306Z" transform="translate(-3455.24 -551.884)" fill="#1a1a1a"/>
    </g>
    <g id="Group_10003" data-name="Group 10003" transform="translate(3427.268 990.038)">
      <path id="Path_3475" data-name="Path 3475" d="M3687.292,650.632H3425.045a.885.885,0,1,1,0-1.771h262.247a.885.885,0,0,1,0,1.771Z" transform="translate(-3424.157 -648.861)" fill="#1a1a1a"/>
    </g>
    <g id="Group_10004" data-name="Group 10004" transform="translate(3926.425 990.038)">
      <path id="Path_3476" data-name="Path 3476" d="M3703.386,650.632H3581.491a.885.885,0,0,1,0-1.771h121.895a.885.885,0,1,1,0,1.771Z" transform="translate(-3580.607 -648.861)" fill="#1a1a1a"/>
    </g>
    <g id="Group_10005" data-name="Group 10005" transform="translate(3735.325 990.038)">
      <path id="Path_3477" data-name="Path 3477" d="M3551.842,650.632H3521.6a.885.885,0,1,1,0-1.771h30.243a.885.885,0,0,1,0,1.771Z" transform="translate(-3520.712 -648.861)" fill="#1a1a1a"/>
    </g>
    <g id="Group_10006" data-name="Group 10006" transform="translate(3752.896 866.591)">
      <path id="Path_3478" data-name="Path 3478" d="M3699.488,735.387H3538.806a12.6,12.6,0,0,1-12.587-12.59V622.756a12.6,12.6,0,0,1,12.587-12.587h160.683a12.6,12.6,0,0,1,12.587,12.587V722.8A12.6,12.6,0,0,1,3699.488,735.387ZM3538.806,611.94a10.829,10.829,0,0,0-10.82,10.816V722.8a10.831,10.831,0,0,0,10.82,10.819h160.683a10.83,10.83,0,0,0,10.819-10.819V622.756a10.828,10.828,0,0,0-10.819-10.816Z" transform="translate(-3526.219 -610.169)" fill="#1a1a1a"/>
    </g>
    <g id="Group_10007" data-name="Group 10007" transform="translate(3832.17 916.136)">
      <path id="Path_3479" data-name="Path 3479" d="M3564.944,653.443a13.872,13.872,0,1,1,13.872-13.875A13.892,13.892,0,0,1,3564.944,653.443Zm0-25.974a12.1,12.1,0,1,0,12.1,12.1A12.118,12.118,0,0,0,3564.944,627.469Z" transform="translate(-3551.065 -625.698)" fill="#1a1a1a"/>
    </g>
    <g id="Group_10008" data-name="Group 10008" transform="translate(3823.347 741.06)">
      <path id="Path_3480" data-name="Path 3480" d="M3549.179,575.281c-.819-.287-1.008-.814-.8-1.26.025-.038,2.179-4.479,8.448-2.83a.878.878,0,0,1,.635,1.078.86.86,0,0,1-1.078.632c-4.9-1.276-6.388,1.835-6.4,1.87A.88.88,0,0,1,3549.179,575.281Z" transform="translate(-3548.3 -570.824)" fill="#1a1a1a"/>
    </g>
    <g id="Group_10009" data-name="Group 10009" transform="translate(3844.319 740.57)">
      <path id="Path_3481" data-name="Path 3481" d="M3565.339,576.122c-4.853-5.638-8.931-3.124-9.1-3.015a.886.886,0,0,1-.96-1.49c.052-.048,5.612-3.5,10.756,3.076a.876.876,0,0,1-.154,1.241A.837.837,0,0,1,3565.339,576.122Z" transform="translate(-3554.874 -570.67)" fill="#1a1a1a"/>
    </g>
    <path id="Path_3482" data-name="Path 3482" d="M3460.762,560.053c.708-.112,1.184.191,1.388,2.741.227,2.843-.511,3.344-1.148,3.321s-1.276-.9-1.248-2.935S3459.836,560.2,3460.762,560.053Z" transform="translate(81.082 146.6)" fill="#1a1a1a"/>
    <path id="Path_3483" data-name="Path 3483" d="M3467.094,559.826c.7-.134,1.187.153,1.477,2.7.326,2.833-.4,3.359-1.033,3.356s-1.308-.862-1.347-2.891S3466.171,560.005,3467.094,559.826Z" transform="translate(95.166 146.087)" fill="#1a1a1a"/>
    <g id="Group_10010" data-name="Group 10010" transform="translate(3557.983 697.727)">
      <path id="Path_3484" data-name="Path 3484" d="M3472,560.311a6.042,6.042,0,0,0-5.765-.976.867.867,0,0,1-1.079-.632.884.884,0,0,1,.635-1.082c3.759-1,5.677.175,6.789,1.136a.882.882,0,0,1,.087,1.251A.858.858,0,0,1,3472,560.311Z" transform="translate(-3465.127 -557.242)" fill="#1a1a1a"/>
    </g>
    <g id="Group_10011" data-name="Group 10011" transform="translate(3537.928 697.778)">
      <path id="Path_3485" data-name="Path 3485" d="M3459.658,560.847c-.988-.683-.947-1.244-.571-1.56,3.625-3.111,8.442-1.736,8.644-1.669a.885.885,0,0,1-.5,1.7c-.041-.016-4.091-1.168-6.993,1.318A.87.87,0,0,1,3459.658,560.847Z" transform="translate(-3458.841 -557.258)" fill="#1a1a1a"/>
    </g>
    <g id="Group_10012" data-name="Group 10012" transform="translate(3835.399 787.441)">
      <path id="Path_3486" data-name="Path 3486" d="M3552.964,601.374a.885.885,0,0,1-.887-.884l.032-14.249a.884.884,0,0,1,1.768,0l-.028,14.249A.884.884,0,0,1,3552.964,601.374Z" transform="translate(-3552.077 -585.361)" fill="#1a1a1a"/>
    </g>
    <g id="Group_10013" data-name="Group 10013" transform="translate(3845.162 859.163)">
      <path id="Path_3487" data-name="Path 3487" d="M3556.024,617.039c-.689-.141-.98-.616-.861-1.1l1.793-7.424a.885.885,0,0,1,1.72.421l-1.793,7.428A.888.888,0,0,1,3556.024,617.039Z" transform="translate(-3555.137 -607.841)" fill="#1a1a1a"/>
    </g>
    <g id="Group_10014" data-name="Group 10014" transform="translate(3860.279 859.133)">
      <path id="Path_3488" data-name="Path 3488" d="M3563,617.06c-.853-.629-3.089-8.082-3.089-8.082a.887.887,0,0,1,1.7-.517l2.24,7.456a.886.886,0,0,1-.591,1.107A1.093,1.093,0,0,1,3563,617.06Z" transform="translate(-3559.875 -607.831)" fill="#1a1a1a"/>
    </g>
    <g id="Group_10015" data-name="Group 10015" transform="translate(3823.181 726.9)">
      <path id="Path_3489" data-name="Path 3489" d="M3590.933,591.984c-10.89-7.134-13.42-18.329-14.035-22.959-3.392,3.449-12.874,11.052-27.962,7.5a.883.883,0,1,1,.4-1.72c18.077,4.189,27.448-8.292,27.541-8.417,1.6.645,2.249,15.713,14.549,23.974a.886.886,0,0,1-.491,1.624Z" transform="translate(-3548.248 -566.386)" fill="#1a1a1a"/>
    </g>
    <g id="Group_10016" data-name="Group 10016" transform="translate(3815.311 699.436)">
      <path id="Path_3490" data-name="Path 3490" d="M3611.9,609.848c-1-1.018-.778-1.528-.321-1.71-.026,0,2.689-1.883,4.294-16.115.992-8.841-4.329-13.821-8.146-15.018-7.291-2.256-16.622-1.238-16.725-1.228-5.912-10.414-12.414-14.1-16.979-15.436a19.065,19.065,0,0,0-15.158,1.9c-4.859,2.859-7.865,6.493-8.931,10.8-1.723,6.936,2.144,13.327,2.186,13.394a6.053,6.053,0,0,0-3.631,3.015c-1.949,3.921-1.355,11.69,6.126,15.892a.886.886,0,1,1-.864,1.547c-8.49-4.77-9.1-13.7-6.844-18.231a4.83,4.83,0,0,1,2.938-2.747,20.477,20.477,0,0,1-1.633-13.3c1.19-4.786,4.47-8.8,9.75-11.9a20.745,20.745,0,0,1,16.56-2.074c4.817,1.414,11.619,5.213,16.9,15.311,2.253-.191,10.19-.7,16.834,1.366,5.414,1.688,10.372,8.04,9.376,16.906-1.732,15.388-4.812,17.334-5.408,17.567A.875.875,0,0,1,3611.9,609.848Z" transform="translate(-3545.781 -557.778)" fill="#1a1a1a"/>
    </g>
    <g id="Group_10017" data-name="Group 10017" transform="translate(3651.142 720.408)">
      <path id="Path_3491" data-name="Path 3491" d="M3517.829,621.65c-1.11-4.588-1.981-18.323-1.981-18.323.022-.265,3.383-14.38,3.383-14.38.193-.705.366-1.381.532-2.058,1.037-4.266,1.975-9.121-.07-12.676-1.069-1.851-2.872-2.888-4.938-3.966a45.545,45.545,0,0,0-8.6-3.4,15.675,15.675,0,0,0-4.142-.721c-2.7,0-5.65,1.678-5.9,4.8a7.277,7.277,0,0,0,2.074,5.252,25.615,25.615,0,0,0,6.406,4.747,24.062,24.062,0,0,0,11.384,3.133.885.885,0,0,1-.006,1.771,25.779,25.779,0,0,1-12.245-3.36,26.95,26.95,0,0,1-6.863-5.108,8.987,8.987,0,0,1-2.521-6.576c.335-4.183,4.177-6.429,7.639-6.429a17.451,17.451,0,0,1,4.651.782,47.46,47.46,0,0,1,8.937,3.545c2.319,1.206,4.349,2.387,5.654,4.652,2.367,4.122,1.378,9.377.258,13.987-.176.692-.351,1.385-.539,2.068l-3.321,13.958c.093,1.42.878,13.828,1.091,17.369a.9.9,0,0,1-.836.938Z" transform="translate(-3494.326 -564.351)" fill="#1a1a1a"/>
    </g>
    <g id="Group_10018" data-name="Group 10018" transform="translate(3629.576 747.171)">
      <path id="Path_3492" data-name="Path 3492" d="M3496.269,610.38c-.873-.731-3.621-16.744-3.621-16.744a200.622,200.622,0,0,1-5.062-19.832.885.885,0,1,1,1.735-.351c2.215,10.94,5.016,19.673,5.044,19.759l2.779,16.131a.891.891,0,0,1-.725,1.027A.809.809,0,0,1,3496.269,610.38Z" transform="translate(-3487.567 -572.739)" fill="#1a1a1a"/>
    </g>
    <g id="Group_10019" data-name="Group 10019" transform="translate(3625.378 720.817)">
      <path id="Path_3493" data-name="Path 3493" d="M3495.678,594.173a7.315,7.315,0,0,1-4.939-1.793,6.648,6.648,0,0,1-1.251-1.567,10.436,10.436,0,0,1-1.147-2.98c-1.2-5.146-2.518-10.806-1.956-16a8.94,8.94,0,0,1,2.281-5.306,7.015,7.015,0,0,1,7.523-1.563c2.712,1.085,4.412,4.014,5.359,6.289a29.318,29.318,0,0,1,1.2,3.643c.926,3.886,1.577,7.252,1.318,10.484a10.382,10.382,0,0,1-2.779,6.576A7.981,7.981,0,0,1,3495.678,594.173Zm-2.011-27.911a5.278,5.278,0,0,0-3.738,1.5,7.347,7.347,0,0,0-1.787,4.269c-.526,4.885.757,10.388,1.886,15.244a9.166,9.166,0,0,0,.985,2.632,4.947,4.947,0,0,0,.919,1.165,6.151,6.151,0,0,0,8.11-.373,8.631,8.631,0,0,0,2.25-5.456,29.468,29.468,0,0,0-.942-8.627,34.879,34.879,0,0,0-1.441-4.681c-.667-1.6-2.122-4.425-4.378-5.328A5.086,5.086,0,0,0,3493.667,566.262Z" transform="translate(-3486.25 -564.479)" fill="#1a1a1a"/>
    </g>
    <g id="Group_10020" data-name="Group 10020" transform="translate(3651.27 694.032)">
      <path id="Path_3494" data-name="Path 3494" d="M3512.783,587.038c-1.8-8.146-3.159-16.753-6.266-24.659a9.243,9.243,0,0,0-2.237-3.685c-1.981-1.707-4.329-.491-5.75,1.059-3.375,3.691-2.51,8.212-1.607,12.992.785,4.221,1.362,7.437,1.915,10.647a.884.884,0,0,1-.719,1.024.84.84,0,0,1-1.027-.718c-.551-3.213-1.132-6.416-1.723-9.623-1.136-6-2.118-11.167,1.851-15.516,2.122-2.31,5.484-3.58,8.222-1.2a10.771,10.771,0,0,1,2.731,4.371c3.178,8.094,4.557,16.83,5.491,24.312a.882.882,0,0,1-.769.989A.48.48,0,0,1,3512.783,587.038Z" transform="translate(-3494.366 -556.084)" fill="#1a1a1a"/>
    </g>
    <g id="Group_10021" data-name="Group 10021" transform="translate(3639.915 717.328)">
      <path id="Path_3495" data-name="Path 3495" d="M3502.571,592.8a10.394,10.394,0,0,1-4.84-1.219c-2.518-1.366-3.777-4.042-4.4-6.046-.488-1.6-.84-3.27-1.178-4.882-.185-.922-.38-1.834-.6-2.744-.674-2.788-1.171-5.765-.252-8.56,1.171-3.577,5.392-6.809,9.622-5.765,3.021.763,4.939,2.613,5.242,5.086a.881.881,0,0,1-.763.989.858.858,0,0,1-.992-.769c-.3-2.335-2.578-3.248-3.921-3.583-3.193-.8-6.576,1.771-7.5,4.591-.819,2.5-.28,5.236.287,7.6.224.919.418,1.851.609,2.789.328,1.57.67,3.2,1.143,4.725.517,1.691,1.547,3.931,3.541,5.006,2.042,1.1,5.117,1.554,7.405.067,2.038-1.33,2.964-3.963,2.667-7.613a.886.886,0,0,1,.814-.954.926.926,0,0,1,.953.814c.447,5.472-1.64,8.046-3.468,9.24A7.959,7.959,0,0,1,3502.571,592.8Z" transform="translate(-3490.807 -563.386)" fill="#1a1a1a"/>
    </g>
    <g id="Group_10022" data-name="Group 10022" transform="translate(3735.826 888.277)">
      <path id="Path_3496" data-name="Path 3496" d="M3535.892,619.3c-4.875,0-9.645-.188-14.2-.558a.888.888,0,0,1-.816-.954.941.941,0,0,1,.957-.817c5.421.443,11.116.606,16.979.536a.884.884,0,0,1,.026,1.768C3537.851,619.289,3536.869,619.3,3535.892,619.3Z" transform="translate(-3520.869 -616.966)" fill="#1a1a1a"/>
    </g>
    <g id="Group_10023" data-name="Group 10023" transform="translate(3626.639 779.24)">
      <path id="Path_3497" data-name="Path 3497" d="M3573,689.718c-19.475-4.98-36-14.249-49.312-27.582-20.3-20.311-28.316-48.091-36.069-74.955l-.938-3.261a.885.885,0,0,1,1.7-.491l.945,3.257c7.686,26.65,15.64,54.207,35.612,74.2,13.094,13.1,29.337,22.215,48.285,27.091a.886.886,0,0,1-.224,1.745Z" transform="translate(-3486.646 -582.791)" fill="#1a1a1a"/>
    </g>
    <g id="Group_10024" data-name="Group 10024" transform="translate(3626.579 765.921)">
      <path id="Path_3498" data-name="Path 3498" d="M3501.187,597.568c-7.836,0-13.933-1.394-14.507-4.729-.5-2.9,2.577-5.609,9.4-8.286a.888.888,0,1,1,.647,1.653c-5.586,2.192-8.607,4.5-8.3,6.327.463,2.7,11.151,4.728,27.519,1.917,15.57-2.683,25.83-7.948,25.308-10.995-.278-1.6-2.782-2.658-7.259-3.069a.9.9,0,0,1-.8-.967.831.831,0,0,1,.967-.8c5.513.507,8.406,1.991,8.841,4.537.916,5.315-13.094,10.691-26.75,13.04A90.992,90.992,0,0,1,3501.187,597.568Z" transform="translate(-3486.628 -578.616)" fill="#1a1a1a"/>
    </g>
    <g id="Group_10025" data-name="Group 10025" transform="translate(3861.461 702.982)">
      <path id="Path_3499" data-name="Path 3499" d="M3561.125,573.195c-.853-.335-1.019-.877-.782-1.308.252-.469,6.263-11.543,11.809-12.966a.875.875,0,0,1,1.084.635.9.9,0,0,1-.641,1.085c-3.985,1.021-9.071,9.071-10.7,12.089A.878.878,0,0,1,3561.125,573.195Z" transform="translate(-3560.245 -558.889)" fill="#1a1a1a"/>
    </g>
    <g id="Group_10026" data-name="Group 10026" transform="translate(3858.1 706.189)">
      <path id="Path_3500" data-name="Path 3500" d="M3560.073,568.508c-.826-.3-1.015-.836-.8-1.273a35.743,35.743,0,0,0,2.44-6.627.905.905,0,0,1,1.04-.708.892.892,0,0,1,.708,1.037,36.5,36.5,0,0,1-2.594,7.07A.882.882,0,0,1,3560.073,568.508Z" transform="translate(-3559.192 -559.894)" fill="#1a1a1a"/>
    </g>
    <g id="Group_10027" data-name="Group 10027" transform="translate(3830.765 748.93)">
      <path id="Path_3501" data-name="Path 3501" d="M3558.733,591.6c-.581,0-5.724-.054-7.463-1.9a2.278,2.278,0,0,1-.641-1.729c.182-2.814,4.08-13.636,4.249-14.093a.889.889,0,0,1,1.13-.536.879.879,0,0,1,.533,1.133c-1.1,3.066-4.008,11.483-4.142,13.611,1.085,1.381,4.438,1.748,6.333,1.748a.885.885,0,1,1,0,1.771Z" transform="translate(-3550.625 -573.291)" fill="#1a1a1a"/>
    </g>
    <g id="Group_10029" data-name="Group 10029" transform="translate(3837.388 764.038)">
      <g id="Group_10028" data-name="Group 10028">
        <path id="Path_3502" data-name="Path 3502" d="M3560.224,594.1a10.14,10.14,0,0,1-2.895-.428c-2.17-.654-3.845-1.956-4.371-3.4a3.447,3.447,0,0,1,.469-3.452,4.889,4.889,0,0,1,4.563-1.567c2.409.29,2.613.131,3.089-.223s.705-.517,1.123-2.878a5.041,5.041,0,0,1,2.853-3.9,3.492,3.492,0,0,1,3.436.577c1.14.862,1.807,2.725,1.79,4.968a10.385,10.385,0,0,1-4,8.286A10.181,10.181,0,0,1,3560.224,594.1Zm-3.006-7.131a3.038,3.038,0,0,0-2.4.957,1.689,1.689,0,0,0-.191,1.732,4.923,4.923,0,0,0,3.213,2.316,8.281,8.281,0,0,0,7.386-1.324,8.56,8.56,0,0,0,3.28-6.869c.019-1.87-.533-3.127-1.092-3.551a1.688,1.688,0,0,0-1.717-.325,3.283,3.283,0,0,0-1.744,2.559c-.5,2.785-.9,3.305-1.816,3.991-.992.718-1.682.884-4.357.549A5.552,5.552,0,0,0,3557.218,586.969Z" transform="translate(-3552.7 -578.026)" fill="#1a1a1a"/>
      </g>
    </g>
    <g id="Group_10030" data-name="Group 10030" transform="translate(3847.811 765.932)">
      <path id="Path_3503" data-name="Path 3503" d="M3557.548,591.619c-4.1-6.387.716-11.179,3.724-12.886a.887.887,0,0,1,.878,1.541c-.294.169-7.115,4.154-3.825,10.025a.891.891,0,0,1-.342,1.209A.927.927,0,0,1,3557.548,591.619Z" transform="translate(-3555.968 -578.62)" fill="#1a1a1a"/>
    </g>
    <g id="Group_10031" data-name="Group 10031" transform="translate(3868.492 751.611)">
      <path id="Path_3504" data-name="Path 3504" d="M3571.158,587.745c-.393-.086-8.7-4.2-8.7-4.2-.239-1.42,7.319-9.147,7.319-9.147a.887.887,0,0,1,1.264,1.244l-6.7,6.853,7.221,3.57a.887.887,0,0,1-.4,1.682Z" transform="translate(-3562.449 -574.131)" fill="#1a1a1a"/>
    </g>
    <g id="Group_10032" data-name="Group 10032" transform="translate(3909.662 859.422)">
      <path id="Path_3505" data-name="Path 3505" d="M3576.237,616.6a.88.88,0,0,1-.884-.884V608.8a.884.884,0,0,1,1.768,0v6.917A.88.88,0,0,1,3576.237,616.6Z" transform="translate(-3575.354 -607.922)" fill="#1a1a1a"/>
    </g>
    <g id="Group_10034" data-name="Group 10034" transform="translate(3620.244 623.437)">
      <g id="Group_10033" data-name="Group 10033">
        <path id="Path_3506" data-name="Path 3506" d="M3504.377,573.78a11.264,11.264,0,0,1-4.69-1.078,19.11,19.11,0,0,1-7.348-6.12,39.792,39.792,0,0,1-6.078-12.111c-.417-1.283-.784-2.581-1.151-3.905l-.469-1.682c.612-1.1,7.363-2.967,7.363-2.967a1.267,1.267,0,0,1,1.5.517,50.012,50.012,0,0,0,9.307,9.351,3.135,3.135,0,0,0,2.919.6,11.7,11.7,0,0,0,3.484-1.6,47.512,47.512,0,0,0,7.66-6.359,144.006,144.006,0,0,0,12.188-13.825,1.485,1.485,0,0,1,1.717-.568c1.905.545,3.822,1.072,5.733,1.6l1.382.38a93.021,93.021,0,0,1-14.837,24.34,57.046,57.046,0,0,1-9.966,9.8,31.271,31.271,0,0,1-3.921,2.4A10.256,10.256,0,0,1,3504.377,573.78Zm-17.79-24.529c.59,2.134.947,3.407,1.365,4.671a38.222,38.222,0,0,0,5.794,11.591,17.45,17.45,0,0,0,6.675,5.571,8.547,8.547,0,0,0,7.929-.093,30.365,30.365,0,0,0,3.7-2.262,55.135,55.135,0,0,0,9.647-9.511,166.739,166.739,0,0,0,15.031-21.686c-2.564-.708-4.447-1.225-6.32-1.764a146.454,146.454,0,0,1-12.29,13.92,48.771,48.771,0,0,1-7.95,6.595,13.9,13.9,0,0,1-4.021,1.828,4.925,4.925,0,0,1-4.435-.932,51.759,51.759,0,0,1-9.477-9.489Z" transform="translate(-3484.641 -533.958)" fill="#1a1a1a"/>
      </g>
    </g>
    <g id="Group_10035" data-name="Group 10035" transform="translate(3606.164 601.788)">
      <path id="Path_3507" data-name="Path 3507" d="M3521.434,609.574a41.178,41.178,0,1,1,38.8-27.311.885.885,0,0,1-1.13.533.875.875,0,0,1-.533-1.129,39.443,39.443,0,1,0-37.137,26.14.884.884,0,0,1,0,1.768Z" transform="translate(-3480.228 -527.172)" fill="#1a1a1a"/>
    </g>
    <g id="Group_10036" data-name="Group 10036" transform="translate(3579.13 618.294)">
      <path id="Path_3508" data-name="Path 3508" d="M3493.358,544.818c-.4-.1-21.124-10.8-21.124-10.8a.883.883,0,0,1,.811-1.57l20.723,10.7a.886.886,0,0,1-.409,1.672Z" transform="translate(-3471.755 -532.346)" fill="#1a1a1a"/>
    </g>
    <g id="Group_10037" data-name="Group 10037" transform="translate(3683.303 601.087)">
      <path id="Path_3509" data-name="Path 3509" d="M3505.221,541.544c-.992-.692-.941-1.257-.565-1.567l15.357-12.813a.872.872,0,0,1,1.247.112.882.882,0,0,1-.108,1.248l-15.359,12.813A.86.86,0,0,1,3505.221,541.544Z" transform="translate(-3504.406 -526.953)" fill="#1a1a1a"/>
    </g>
    <g id="Group_10038" data-name="Group 10038" transform="translate(3680.273 673.427)">
      <path id="Path_3510" data-name="Path 3510" d="M3527.886,571.012c-.564-.2-24.11-19.816-24.11-19.816a.886.886,0,1,1,1.136-1.359l23.546,19.612a.884.884,0,0,1-.571,1.563Z" transform="translate(-3503.456 -549.626)" fill="#1a1a1a"/>
    </g>
    <g id="Group_10039" data-name="Group 10039" transform="translate(3646.482 574.691)">
      <path id="Path_3511" data-name="Path 3511" d="M3493.753,542.117a.881.881,0,0,1-.888-.884v-21.67a.885.885,0,0,1,1.771,0v21.67A.882.882,0,0,1,3493.753,542.117Z" transform="translate(-3492.865 -518.679)" fill="#1a1a1a"/>
    </g>
    <g id="Group_10040" data-name="Group 10040" transform="translate(3609.079 679.189)">
      <path id="Path_3512" data-name="Path 3512" d="M3481.989,560.729c-.964-.571-.986-1.133-.651-1.49l7-7.523a.886.886,0,1,1,1.3,1.206l-7,7.523A.876.876,0,0,1,3481.989,560.729Z" transform="translate(-3481.142 -551.432)" fill="#1a1a1a"/>
    </g>
    <g id="Group_10041" data-name="Group 10041" transform="translate(3512.862 707.274)">
      <path id="Path_3513" data-name="Path 3513" d="M3461.126,580.483a10.444,10.444,0,0,1-7.609-3.427,10.063,10.063,0,0,1-2.512-7.332,10.242,10.242,0,0,1,10.733-9.476,10.088,10.088,0,0,1,5.545,2.08.88.88,0,0,1,.163,1.241.892.892,0,0,1-1.245.166,8.319,8.319,0,0,0-4.571-1.716,8.407,8.407,0,0,0-8.857,7.817,8.354,8.354,0,0,0,12.179,7.935.884.884,0,1,1,.819,1.566A10,10,0,0,1,3461.126,580.483Z" transform="translate(-3450.985 -560.235)" fill="#1a1a1a"/>
    </g>
    <g id="Group_10042" data-name="Group 10042" transform="translate(3519.419 711.282)">
      <path id="Path_3514" data-name="Path 3514" d="M3454.575,573.179c-1-.734-.932-1.289-.539-1.589l5.306-4.094-5.943-4.4a.888.888,0,1,1,1.056-1.429l6.886,5.1c.009,1.417-6.226,6.234-6.226,6.234A.885.885,0,0,1,3454.575,573.179Z" transform="translate(-3453.041 -561.491)" fill="#1a1a1a"/>
    </g>
    <g id="Group_10043" data-name="Group 10043" transform="translate(3525.806 743.785)">
      <path id="Path_3515" data-name="Path 3515" d="M3475.67,608.3c-.546-.182-20.289-15.471-20.289-15.471a.9.9,0,0,1-.155-1.247.887.887,0,0,1,1.25-.156l18.572,14.392,3.261-18.489.778-14.813a.906.906,0,0,1,.932-.836.885.885,0,0,1,.836.932l-.788,14.919-3.525,20.04C3475.884,608.283,3475.775,608.3,3475.67,608.3Z" transform="translate(-3455.042 -571.678)" fill="#1a1a1a"/>
    </g>
    <g id="Group_10044" data-name="Group 10044" transform="translate(3484.484 732.028)">
      <path id="Path_3516" data-name="Path 3516" d="M3447.013,587.695a10.844,10.844,0,0,1-4.882-10.13,9.362,9.362,0,0,1,2.737-5.7,14.475,14.475,0,0,1,10.864-3.848,10.793,10.793,0,0,1,8.161,3.966.885.885,0,1,1-1.4,1.078,9.094,9.094,0,0,0-6.868-3.273,12.324,12.324,0,0,0-9.486,3.321,7.552,7.552,0,0,0-2.233,4.6,9.377,9.377,0,0,0,3.657,8.41.886.886,0,0,1-.546,1.583Z" transform="translate(-3442.09 -567.993)" fill="#1a1a1a"/>
    </g>
    <g id="Group_10045" data-name="Group 10045" transform="translate(3557.244 742.075)">
      <path id="Path_3517" data-name="Path 3517" d="M3467.827,590.616c-.915-.443-1.008-1-.725-1.4,5.887-8.3-1.878-16.489-1.959-16.572a.886.886,0,1,1,1.277-1.228c.085.093,8.856,9.345,2.128,18.833A.89.89,0,0,1,3467.827,590.616Z" transform="translate(-3464.896 -571.142)" fill="#1a1a1a"/>
    </g>
    <g id="Group_10046" data-name="Group 10046" transform="translate(3520.073 725.359)">
      <path id="Path_3518" data-name="Path 3518" d="M3456.277,605.641a13.372,13.372,0,0,1-2.319-.172.873.873,0,0,1-.7-1.037.917.917,0,0,1,1.033-.705c.536.131,13.012,2.31,16.346-12.526,3.4-15.066-12.115-23.536-12.271-23.626a.879.879,0,0,1-.363-1.2.869.869,0,0,1,1.193-.364c.172.086,16.868,9.208,13.177,25.572C3469.556,604.087,3460.575,605.641,3456.277,605.641Z" transform="translate(-3453.245 -565.903)" fill="#1a1a1a"/>
    </g>
    <g id="Group_10047" data-name="Group 10047" transform="translate(3575.487 835.796)">
      <path id="Path_3519" data-name="Path 3519" d="M3471.421,628.431c-1-.734-.932-1.289-.539-1.589.615-.475,2.052-1.3,4.038-2.434,6.264-3.58,17.925-10.242,19.977-15.442,1.075-2.721.919-4.741-.447-5.845a4.227,4.227,0,0,0-4.5-.316.886.886,0,0,1-1.231-.246.9.9,0,0,1,.245-1.231,5.936,5.936,0,0,1,6.6.412c1.161.938,2.83,3.21.985,7.88-2.288,5.778-13.843,12.382-20.751,16.332-1.851,1.059-3.318,1.892-3.838,2.3A.885.885,0,0,1,3471.421,628.431Z" transform="translate(-3470.614 -600.517)" fill="#1a1a1a"/>
    </g>
    <g id="Group_10048" data-name="Group 10048" transform="translate(3553.359 847.119)">
      <path id="Path_3520" data-name="Path 3520" d="M3464.451,644.516c-1.011-.839-.877-1.385-.463-1.64.142-.086,14.578-8.937,33.045-19.73,6.665-3.9,10.688-8.152,11.619-12.312a7.144,7.144,0,0,0-.692-5.379.885.885,0,0,1,1.452-1.011,8.876,8.876,0,0,1,.986,6.716c-1.037,4.741-5.233,9.284-12.476,13.521-18.447,10.778-32.861,19.622-33.006,19.708A.92.92,0,0,1,3464.451,644.516Z" transform="translate(-3463.678 -604.066)" fill="#1a1a1a"/>
    </g>
    <g id="Group_10049" data-name="Group 10049" transform="translate(3551.367 791.234)">
      <path id="Path_3521" data-name="Path 3521" d="M3463.938,633.125a.908.908,0,0,1-.871-1.031c4.7-27.557,12.193-44.84,12.264-45.015.814-.53,37.438-.53,37.438-.53a.885.885,0,0,1,0,1.771h-36.037c-1.271,3.089-7.719,19.424-11.92,44.064A.883.883,0,0,1,3463.938,633.125Z" transform="translate(-3463.053 -586.55)" fill="#1a1a1a"/>
    </g>
    <g id="Group_10050" data-name="Group 10050" transform="translate(3554.691 791.234)">
      <path id="Path_3522" data-name="Path 3522" d="M3522.727,693.075h-57.748a.885.885,0,0,1,0-1.771h56.878c.935-58.977,12.7-96,15.116-102.984h-26.487a.885.885,0,0,1,0-1.771h27.738c.688,1.583-13.693,40.06-14.612,105.651A.883.883,0,0,1,3522.727,693.075Z" transform="translate(-3464.095 -586.55)" fill="#1a1a1a"/>
    </g>
    <g id="Group_10051" data-name="Group 10051" transform="translate(3587.802 895.988)">
      <path id="Path_3523" data-name="Path 3523" d="M3478.886,715.213c-3-3.328-4.192-59.95-4.412-94.94a.887.887,0,0,1,1.774-.01c.293,48.036,1.831,90.879,3.343,93.54a.87.87,0,0,1-.172,1.228A.849.849,0,0,1,3478.886,715.213Z" transform="translate(-3474.474 -619.383)" fill="#1a1a1a"/>
    </g>
    <g id="Group_10052" data-name="Group 10052" transform="translate(3447.755 948.405)">
      <path id="Path_3524" data-name="Path 3524" d="M3431.584,679.028c-1.479-13.084-.891-42.057-.888-42.348a.905.905,0,0,1,.9-.868.878.878,0,0,1,.868.9c-.006.29-.587,29.2,0,41.384a.889.889,0,0,1-.842.928Z" transform="translate(-3430.579 -635.812)" fill="#1a1a1a"/>
    </g>
    <g id="Group_10053" data-name="Group 10053" transform="translate(3483.302 810.42)">
      <path id="Path_3525" data-name="Path 3525" d="M3442.6,670.609c-.837-.31-1.015-.846-.791-1.283,14.555-28.919,16.424-75.44,16.439-75.909a.823.823,0,0,1,.923-.849.887.887,0,0,1,.849.922c-.02.466-1.9,47.363-16.633,76.63A.864.864,0,0,1,3442.6,670.609Z" transform="translate(-3441.719 -592.563)" fill="#1a1a1a"/>
    </g>
    <g id="Group_10054" data-name="Group 10054" transform="translate(3648.861 969.438)">
      <path id="Path_3526" data-name="Path 3526" d="M3529.245,657.5a33.591,33.591,0,0,0-10.079-2.131c-16.307-1.366-24.976-11.084-25.336-11.492a.887.887,0,0,1,1.333-1.171c.084.1,8.593,9.591,24.155,10.892a32.96,32.96,0,0,1,10.268,2.2.885.885,0,0,1-.341,1.7Z" transform="translate(-3493.61 -642.404)"/>
    </g>
    <g id="Group_10055" data-name="Group 10055" transform="translate(3659.77 977.017)">
      <path id="Path_3527" data-name="Path 3527" d="M3518.42,659.237c-.925-.475-1-1.031-.708-1.417.02-.026,1.534-2.071.9-3.841-.439-1.216-1.834-2.112-4.146-2.664-8.209-1.959-16.744-4.783-16.831-4.8a.89.89,0,0,1,.563-1.688c.083.029,8.544,2.83,16.677,4.766,2.941.7,4.757,1.981,5.408,3.806.956,2.677-1.073,5.376-1.162,5.494A.866.866,0,0,1,3518.42,659.237Z" transform="translate(-3497.03 -644.78)" fill="#1a1a1a"/>
    </g>
    <g id="Group_10056" data-name="Group 10056" transform="translate(3635.985 982.194)">
      <path id="Path_3528" data-name="Path 3528" d="M3500.092,656.018c-11.177-2.31-10.535-8.566-10.5-8.831a.864.864,0,0,1,.982-.775.888.888,0,0,1,.775.979c-.019.233-.342,4.939,8.921,6.876a.886.886,0,0,1,.689,1.046A.9.9,0,0,1,3500.092,656.018Z" transform="translate(-3489.574 -646.402)" fill="#1a1a1a"/>
    </g>
    <g id="Group_10057" data-name="Group 10057" transform="translate(3616.444 985.626)">
      <path id="Path_3529" data-name="Path 3529" d="M3487.2,653.473a12.432,12.432,0,0,1-3.7-4.824.886.886,0,0,1,1.675-.58,11.488,11.488,0,0,0,2.646,3.886.89.89,0,0,1,.012,1.254A.9.9,0,0,1,3487.2,653.473Z" transform="translate(-3483.451 -647.478)" fill="#1a1a1a"/>
    </g>
    <g id="Group_10058" data-name="Group 10058" transform="translate(3553.687 705.745)">
      <path id="Path_3530" data-name="Path 3530" d="M3468.313,578.534c-1.008-.785-.912-1.337-.5-1.618,1.136-.782,3.379-3.363,3.59-4.987-.562-1.184-2.285-.44-3.2-.051-1.015.437-1.679.718-2.259.431-.788-1.516-1.927-9.878-2.153-11.55a.887.887,0,1,1,1.758-.233c.434,3.194,1.117,8.1,1.417,9.951,2.058-.887,4.354-1.886,5.666-.348a2.48,2.48,0,0,1,.526,2.026c-.3,2.335-2.989,5.293-4.34,6.225A.9.9,0,0,1,3468.313,578.534Z" transform="translate(-3463.781 -559.755)" fill="#1a1a1a"/>
    </g>
    <g id="Group_10059" data-name="Group 10059" transform="translate(3543.834 723.399)">
      <path id="Path_3531" data-name="Path 3531" d="M3467.425,572.97a6.243,6.243,0,0,1-3.628-1.072c-2.709-1.87-3.082-5.484-3.1-5.638a.89.89,0,0,1,1.771-.172c0,.032.315,2.964,2.345,4.355a5.7,5.7,0,0,0,4.82.421.888.888,0,1,1,.47,1.713A10.253,10.253,0,0,1,3467.425,572.97Z" transform="translate(-3460.692 -565.289)" fill="#1a1a1a"/>
    </g>
    <g id="Group_10062" data-name="Group 10062" transform="translate(3703.804 860.309)">
      <g id="Group_10060" data-name="Group 10060" transform="translate(0 20.646)">
        <path id="Path_3532" data-name="Path 3532" d="M3526.646,676.334c-9.61-.284-13.184-4.508-14.66-8.011-2.837-6.751-.071-15.63,4.239-20.324.077-.089,2.92-3.561.125-11.939-1.822-5.469-1.395-10.889,1.177-14.881,2.352-3.656,6.317-5.871,11.467-6.413a14.832,14.832,0,0,1,12.852,4.732,15.922,15.922,0,0,1,3.966,13.413c-1.572,7.536-1.991,9.533-.016,16.032,1.33,4.365,1.534,13.783-3.58,20.467C3538.713,674.005,3533.471,676.334,3526.646,676.334Zm4.218-59.892a16.163,16.163,0,0,0-1.682.086c-4.6.485-8.116,2.425-10.165,5.612-2.274,3.535-2.638,8.4-.986,13.355,3.179,9.54-.341,13.531-.484,13.694-3.86,4.189-6.451,12.43-3.927,18.448,1.82,4.33,6.017,6.719,12.143,6.908,6.7.124,11.74-1.892,15.047-6.206,4.457-5.835,4.6-14.555,3.286-18.878-2.1-6.933-1.589-9.4-.211-15.988a14.7,14.7,0,0,0-3.35-12.785A12.678,12.678,0,0,0,3530.864,616.442Z" transform="translate(-3510.832 -614.671)" fill="#1a1a1a"/>
      </g>
      <g id="Group_10061" data-name="Group 10061" transform="translate(25.606)">
        <path id="Path_3533" data-name="Path 3533" d="M3525.232,626.74c-3.577,0-6.375-4.071-6.375-9.268s2.8-9.272,6.375-9.272,6.375,4.074,6.375,9.272S3528.806,626.74,3525.232,626.74Zm0-16.769c-2.5,0-4.6,3.433-4.6,7.5s2.108,7.5,4.6,7.5,4.6-3.433,4.6-7.5S3527.727,609.971,3525.232,609.971Z" transform="translate(-3518.857 -608.2)" fill="#1a1a1a"/>
      </g>
    </g>
    <g id="Group_10063" data-name="Group 10063" transform="translate(3688.124 966.1)">
      <path id="Path_3534" data-name="Path 3534" d="M3517.873,664.531c-.3-.051-11.271-2.613-11.929-13.292a8.632,8.632,0,0,1,2.414-7.125c3.463-3.312,9.317-2.737,9.55-2.689a.884.884,0,1,1-.186,1.758c-.054,0-5.28-.517-8.145,2.221a6.95,6.95,0,0,0-1.863,5.727c.574,9.332,9.954,11.556,10.356,11.645a.889.889,0,0,1-.2,1.755Z" transform="translate(-3505.917 -641.358)" fill="#1a1a1a"/>
    </g>
    <g id="Group_10064" data-name="Group 10064" transform="translate(3682.531 960.535)">
      <path id="Path_3535" data-name="Path 3535" d="M3521.314,674.056c-.268-.022-18.3-1.991-17.092-19.009.377-5.261,2.2-9.275,5.421-11.936,5.057-4.189,11.668-3.468,11.948-3.423a.885.885,0,0,1-.21,1.758c-.049,0-6.158-.667-10.625,3.041-2.823,2.342-4.425,5.938-4.764,10.692-1.091,15.282,14.737,17.044,15.414,17.111a.886.886,0,0,1-.093,1.768Z" transform="translate(-3504.164 -639.614)" fill="#1a1a1a"/>
    </g>
    <g id="Group_10065" data-name="Group 10065" transform="translate(3699.216 999.438)">
      <path id="Path_3536" data-name="Path 3536" d="M3528.432,656.43c-3.182,0-19.038-.175-19.038-3.739a.885.885,0,0,1,1.771,0c.632.693,7.188,1.969,17.268,1.969,9.974,0,16.453-1.276,17.123-2.154,1.35-.791,1.724-.306,1.724.185C3547.278,656.255,3531.577,656.43,3528.432,656.43Z" transform="translate(-3509.394 -651.807)" fill="#1a1a1a"/>
    </g>
    <g id="Group_10066" data-name="Group 10066" transform="translate(3735.325 958.947)">
      <path id="Path_3537" data-name="Path 3537" d="M3521.6,681.378a.883.883,0,0,1-.887-.887V640a.887.887,0,0,1,1.774,0V680.49A.883.883,0,0,1,3521.6,681.378Z" transform="translate(-3520.712 -639.116)" fill="#1a1a1a"/>
    </g>
    <g id="Group_10067" data-name="Group 10067" transform="translate(3699.196 958.65)">
      <path id="Path_3538" data-name="Path 3538" d="M3510.271,681.581a.883.883,0,0,1-.884-.887V639.9a.885.885,0,0,1,1.771,0v40.791A.883.883,0,0,1,3510.271,681.581Z" transform="translate(-3509.387 -639.023)" fill="#1a1a1a"/>
    </g>
    <g id="Group_10068" data-name="Group 10068" transform="translate(3699.196 955.536)">
      <path id="Path_3539" data-name="Path 3539" d="M3528.338,646.639c-.774,0-18.951-.048-18.951-4.3s18.177-4.294,18.951-4.294,18.953.048,18.953,4.294S3529.112,646.639,3528.338,646.639Zm0-6.824c-10.589,0-16.73,1.665-17.193,2.6.463.792,6.6,2.457,17.193,2.457,10.319,0,16.412-1.582,17.144-2.527C3544.75,641.4,3538.658,639.815,3528.338,639.815Z" transform="translate(-3509.387 -638.047)" fill="#1a1a1a"/>
    </g>
    <g id="Group_10069" data-name="Group 10069" transform="translate(3780.851 616.92)">
      <path id="Path_3540" data-name="Path 3540" d="M3557.352,559.385h-17.267a5.106,5.106,0,0,1-5.1-5.1V537.02a5.112,5.112,0,0,1,5.1-5.1h17.267a5.112,5.112,0,0,1,5.105,5.1v17.267A5.106,5.106,0,0,1,3557.352,559.385Zm-17.267-25.7a3.335,3.335,0,0,0-3.334,3.334v17.267a3.333,3.333,0,0,0,3.334,3.328h17.267a3.336,3.336,0,0,0,3.338-3.328V537.02a3.337,3.337,0,0,0-3.338-3.334Z" transform="translate(-3534.98 -531.915)" fill="#1a1a1a"/>
    </g>
    <g id="Group_10070" data-name="Group 10070" transform="translate(3780.851 659.357)">
      <path id="Path_3541" data-name="Path 3541" d="M3557.352,572.686h-17.267a5.108,5.108,0,0,1-5.1-5.1v-17.27a5.111,5.111,0,0,1,5.1-5.1h17.267a5.111,5.111,0,0,1,5.105,5.1v17.27A5.108,5.108,0,0,1,3557.352,572.686Zm-17.267-25.7a3.337,3.337,0,0,0-3.334,3.334v17.27a3.336,3.336,0,0,0,3.334,3.331h17.267a3.339,3.339,0,0,0,3.338-3.331v-17.27a3.339,3.339,0,0,0-3.338-3.334Z" transform="translate(-3534.98 -545.216)" fill="#1a1a1a"/>
    </g>
    <g id="Group_10071" data-name="Group 10071" transform="translate(3816.444 622.424)">
      <path id="Path_3542" data-name="Path 3542" d="M3655.057,535.407H3547.021a.884.884,0,1,1,0-1.767h108.036a.884.884,0,1,1,0,1.767Z" transform="translate(-3546.136 -533.64)" fill="#1a1a1a"/>
    </g>
    <g id="Group_10072" data-name="Group 10072" transform="translate(3816.444 638.549)">
      <path id="Path_3543" data-name="Path 3543" d="M3655.057,540.465H3547.021a.885.885,0,0,1,0-1.771h108.036a.885.885,0,0,1,0,1.771Z" transform="translate(-3546.136 -538.694)" fill="#1a1a1a"/>
    </g>
    <g id="Group_10073" data-name="Group 10073" transform="translate(3816.444 664.858)">
      <path id="Path_3544" data-name="Path 3544" d="M3655.057,548.711H3547.021a.885.885,0,0,1,0-1.771h108.036a.885.885,0,0,1,0,1.771Z" transform="translate(-3546.136 -546.94)" fill="#1a1a1a"/>
    </g>
    <g id="Group_10074" data-name="Group 10074" transform="translate(3816.444 680.986)">
      <path id="Path_3545" data-name="Path 3545" d="M3655.057,553.763H3547.021a.884.884,0,1,1,0-1.768h108.036a.884.884,0,1,1,0,1.768Z" transform="translate(-3546.136 -551.995)" fill="#1a1a1a"/>
    </g>
    <g id="Group_10075" data-name="Group 10075" transform="translate(3535.022 821.62)">
      <path id="Path_3546" data-name="Path 3546" d="M3458.638,636.054c-1.006-1.027-.775-1.538-.316-1.713.017-.013,3.778-1.793,4.457-12.95,1.255-20.588,14.319-25.09,14.878-25.272a.888.888,0,1,1,.552,1.688c-.511.169-12.481,4.361-13.659,23.693-.752,12.3-5.1,14.306-5.6,14.494A.874.874,0,0,1,3458.638,636.054Z" transform="translate(-3457.93 -596.074)" fill="#1a1a1a"/>
    </g>
    <g id="Group_10076" data-name="Group 10076" transform="translate(3551.33 826.735)">
      <path id="Path_3547" data-name="Path 3547" d="M3482.079,627.594c-1.009-.964-.812-1.487-.367-1.691,12.759-5.771,23.054-14.357,24.478-20.416a4.982,4.982,0,0,0-.947-4.559,3.7,3.7,0,0,0-2.809-1.484c-1.659,0-3.34.992-4.916,2-1.6,1.034-3.152,2.2-4.658,3.334-.632.475-1.261.951-1.9,1.42-3.452,2.536-7.013,4.77-10.337,6.8-.836.51-1.666,1.062-2.5,1.614a35.919,35.919,0,0,1-6.751,3.8,6.241,6.241,0,0,1-3.462.45c-5.162-1.043-4.938-7.788-4.827-11.026a.848.848,0,0,1,.913-.858.882.882,0,0,1,.854.912c-.141,4.2.156,8.573,3.411,9.24a4.639,4.639,0,0,0,2.485-.377,34.622,34.622,0,0,0,6.4-3.621c.855-.571,1.707-1.126,2.556-1.646,3.3-2.016,6.815-4.227,10.213-6.722.632-.462,1.254-.932,1.879-1.4,1.532-1.155,3.114-2.351,4.767-3.411,1.8-1.155,3.74-2.278,5.868-2.278a5.348,5.348,0,0,1,4.186,2.125,6.73,6.73,0,0,1,1.308,6.091c-1.828,7.769-14.484,16.651-25.479,21.625A.847.847,0,0,1,3482.079,627.594Z" transform="translate(-3463.042 -597.677)" fill="#1a1a1a"/>
    </g>
    <g id="Group_10080" data-name="Group 10080" transform="translate(3902.863 724.565)">
      <g id="Group_10077" data-name="Group 10077">
        <path id="Path_3548" data-name="Path 3548" d="M3595.128,632.687h-21.019a.88.88,0,0,1-.887-.884V566.535a.88.88,0,0,1,.887-.881h21.019a.879.879,0,0,1,.885.881V587.5a.885.885,0,0,1-1.771,0V567.422h-19.249v63.5h19.249V611.7a.885.885,0,0,1,1.771,0V631.8A.88.88,0,0,1,3595.128,632.687Z" transform="translate(-3573.223 -565.654)" fill="#1a1a1a"/>
      </g>
      <g id="Group_10078" data-name="Group 10078" transform="translate(35.166 24.65)">
        <path id="Path_3549" data-name="Path 3549" d="M3606.141,615.763h-21.012a.88.88,0,0,1-.885-.884V574.264a.88.88,0,0,1,.885-.884h21.012a.88.88,0,0,1,.885.884v40.615A.88.88,0,0,1,3606.141,615.763ZM3586.013,614h19.245V575.151h-19.245Z" transform="translate(-3584.244 -573.38)" fill="#1a1a1a"/>
      </g>
      <g id="Group_10079" data-name="Group 10079" transform="translate(70.322 39.4)">
        <path id="Path_3550" data-name="Path 3550" d="M3617.163,605.636H3596.15a.88.88,0,0,1-.887-.884V588.675a.885.885,0,1,1,1.771,0v15.193h19.242V579.774h-13.317a.885.885,0,1,1,0-1.771h14.2a.88.88,0,0,1,.884.884v25.865A.88.88,0,0,1,3617.163,605.636Z" transform="translate(-3595.264 -578.003)" fill="#1a1a1a"/>
      </g>
    </g>
    <g id="Group_10084" data-name="Group 10084" transform="translate(3522.744 493.109)">
      <g id="Group_10081" data-name="Group 10081" transform="translate(0 155.726)">
        <path id="Path_3551" data-name="Path 3551" d="M3455.085,548.787a14.96,14.96,0,0,1-1-5.992.885.885,0,0,1,1.771.01c-.01,1.675.032,3.36.112,5.057a.879.879,0,0,1-.84.925Z" transform="translate(-3454.083 -541.918)" fill="#1a1a1a"/>
      </g>
      <g id="Group_10082" data-name="Group 10082" transform="translate(0.551)">
        <path id="Path_3552" data-name="Path 3552" d="M3455.141,640.326a.9.9,0,0,1-.88-.979,103.3,103.3,0,0,1,1.61-10.251.885.885,0,0,1,1.732.367c-.7,3.356-1.229,6.741-1.586,10.072A.881.881,0,0,1,3455.141,640.326Zm4.2-20.113c-.73-.188-.988-.686-.842-1.149,1.018-3.251,2.207-6.528,3.545-9.737a.9.9,0,0,1,1.161-.482.891.891,0,0,1,.479,1.161c-1.318,3.165-2.492,6.387-3.5,9.584A.879.879,0,0,1,3459.339,620.213Zm7.894-18.974c-.842-.329-1.012-.862-.781-1.3,1.566-3,3.309-6.014,5.172-8.978a.9.9,0,0,1,1.225-.275.888.888,0,0,1,.274,1.225c-1.834,2.913-3.551,5.89-5.1,8.847A.875.875,0,0,1,3467.232,601.239Zm10.966-17.391c-.922-.469-1-1.021-.712-1.413,2.036-2.734,4.215-5.453,6.478-8.078a.908.908,0,0,1,1.254-.1.9.9,0,0,1,.093,1.254c-2.236,2.6-4.4,5.28-6.4,7.976A.881.881,0,0,1,3478.2,583.847Zm202.212-8.685c-1,0-2.058-.051-3.226-.163a29.772,29.772,0,0,1-4.387-.728.887.887,0,0,1,.421-1.723,28.473,28.473,0,0,0,4.138.683,25.877,25.877,0,0,0,5.766,0,.9.9,0,0,1,.992.766.882.882,0,0,1-.769.989A23.355,23.355,0,0,1,3680.41,575.163Zm11.4-5.185c-.877-.386-1.014-.932-.756-1.35a11.728,11.728,0,0,0,1.6-6.151,14.484,14.484,0,0,0-.335-3.152.894.894,0,0,1,.689-1.05.883.883,0,0,1,1.047.686,16.543,16.543,0,0,1,.369,3.522,13.512,13.512,0,0,1-1.862,7.073A.882.882,0,0,1,3691.807,569.978Zm-27.611-.625a7.454,7.454,0,0,1-2.36-3.318,11.272,11.272,0,0,1-.615-3.768,16.547,16.547,0,0,1,.475-3.784.852.852,0,0,1,1.065-.657.886.886,0,0,1,.658,1.066,14.759,14.759,0,0,0-.428,3.375,9.388,9.388,0,0,0,.521,3.168,8.725,8.725,0,0,0,1.374,2.479.88.88,0,0,1-.137,1.244A.86.86,0,0,1,3664.2,569.353Zm-172.562-1.085c-.973-.606-.973-1.161-.626-1.512,2.391-2.409,4.92-4.792,7.527-7.1a.884.884,0,0,1,1.171,1.324c-2.574,2.278-5.076,4.639-7.447,7.026A.884.884,0,0,1,3491.634,568.268Zm15.423-13.62c-1-.73-.932-1.289-.545-1.589,2.753-2.125,5.577-4.164,8.384-6.056a.886.886,0,1,1,1,1.464c-2.782,1.873-5.571,3.889-8.292,6A.89.89,0,0,1,3507.057,554.648Zm181.326-3.609a74.044,74.044,0,0,0-8.062-7.159.888.888,0,0,1,1.065-1.42,46.963,46.963,0,0,1,7.68,7.128.886.886,0,0,1-.112,1.247A.873.873,0,0,1,3688.383,551.039Zm-21.985-.983c-.849-.329-1.012-.868-.785-1.3a65.62,65.62,0,0,1,5.609-8.783.887.887,0,1,1,1.419,1.066,63.387,63.387,0,0,0-5.458,8.551A.881.881,0,0,1,3666.4,550.057Zm-142.291-6.933c-1.014-.861-.87-1.4-.443-1.653,2.971-1.739,6.03-3.4,9.09-4.939a.884.884,0,1,1,.795,1.579c-3.025,1.525-6.053,3.172-8.994,4.894A.87.87,0,0,1,3524.106,543.124Zm147.983-4.454c-3.405-1.681-6.506-3.175-9.623-4.531a.886.886,0,1,1,.7-1.627c3.169,1.375,6.3,2.887,9.336,4.489a.885.885,0,0,1-.414,1.669ZM3542.5,533.9c-1.008-.992-.794-1.512-.345-1.7,3.117-1.311,6.317-2.536,9.508-3.624a.959.959,0,0,1,1.193.485,70.632,70.632,0,0,1-10.009,4.77A.937.937,0,0,1,3542.5,533.9Zm136.2-.252c-.97-.6-.97-1.161-.626-1.512a90.6,90.6,0,0,1,7.747-6.92.883.883,0,0,1,1.1,1.382,91.188,91.188,0,0,0-7.593,6.793A.893.893,0,0,1,3678.7,533.648Zm197.534-3.168c-3.075-2.578-5.663-4.849-8.306-6.974a.9.9,0,0,1-.134-1.251.913.913,0,0,1,1.248-.134c2.681,2.163,5.3,4.46,7.8,6.828a.887.887,0,0,1-.606,1.531Zm-223-.019c-3.5-1.168-6.793-2.179-10.062-3.063a.889.889,0,0,1-.626-1.085.872.872,0,0,1,1.085-.629c3.314.9,6.643,1.921,9.894,3.053a.886.886,0,0,1-.29,1.723Zm-91.269-3.2c-.981-1.129-.7-1.614-.226-1.742,3.359-.887,6.758-1.662,10.091-2.307a.907.907,0,0,1,1.044.7.9.9,0,0,1-.705,1.043c-3.3.632-6.655,1.4-9.974,2.275A.806.806,0,0,1,3561.965,527.26Zm71.407-2.185c-3.493-.673-6.895-1.238-10.27-1.675a.892.892,0,0,1-.763-1,.868.868,0,0,1,1-.759c3.408.443,6.851,1.015,10.207,1.681a.884.884,0,0,1-.173,1.752Zm-51.207-1.726c-.941-1.263-.6-1.7-.108-1.768,3.365-.427,6.83-.759,10.293-.976a.9.9,0,0,1,.943.823.889.889,0,0,1-.826.948c-3.427.214-6.856.546-10.19.964A.444.444,0,0,1,3582.165,523.349Zm30.816-.948c-3.413-.214-6.856-.332-10.282-.338a.885.885,0,1,1,0-1.771c3.468.006,6.948.118,10.343.341a.885.885,0,0,1-.061,1.768Zm81.713-1.646c-1-.807-.9-1.353-.485-1.624,2.817-1.863,5.813-3.656,8.883-5.341a.887.887,0,1,1,.854,1.554c-3.034,1.662-5.979,3.436-8.764,5.264A.847.847,0,0,1,3694.694,520.755Zm165.521-3.191c-3.306-2.074-6.219-3.9-9.153-5.583a.889.889,0,0,1,.88-1.544c2.978,1.71,5.932,3.561,8.778,5.507a.888.888,0,0,1-.5,1.621Zm-147.517-6.78c-1.009-.96-.82-1.487-.377-1.694,3.089-1.439,6.289-2.817,9.5-4.087a.886.886,0,1,1,.657,1.646c-3.187,1.263-6.353,2.623-9.412,4.049A.918.918,0,0,1,3712.7,510.784Zm129.676-3.446c-3.481-1.538-6.653-2.871-9.792-4.039a.887.887,0,0,1,.619-1.662c3.19,1.184,6.4,2.536,9.546,4.014a.885.885,0,0,1-.373,1.688Zm-110.546-4.16c-1-1.069-.743-1.57-.28-1.726,3.258-1.088,6.592-2.083,9.913-2.961a.888.888,0,0,1,.459,1.717c-3.295.865-6.591,1.847-9.811,2.926A.865.865,0,0,1,3731.828,503.178Zm91.278-3c-1.337-.342-2.444-.625-3.552-.9-2.156-.533-4.39-1.027-6.64-1.474a.886.886,0,0,1,.339-1.739c2.287.45,4.543.951,6.723,1.493,1.133.278,2.252.571,3.365.874a.888.888,0,0,1-.235,1.745Zm-71.388-2.249c-.967-1.2-.651-1.662-.169-1.758,3.362-.664,6.795-1.225,10.206-1.678a.852.852,0,0,1,1,.763.887.887,0,0,1-.763,1c-3.376.447-6.773,1.005-10.1,1.662A1,1,0,0,1,3751.719,497.93Zm51.214-1.764c-3.481-.437-6.907-.769-10.3-.976a.889.889,0,0,1-.83-.941.939.939,0,0,1,.938-.833c3.434.217,6.895.546,10.3.986a.886.886,0,0,1-.111,1.764Zm-30.817-.916c-.922-1.314-.552-1.742-.061-1.774,3.41-.23,6.895-.354,10.344-.367a.889.889,0,0,1,.013,1.777c-3.424.013-6.862.134-10.235.357Z" transform="translate(-3454.255 -493.109)" fill="#1a1a1a"/>
      </g>
      <g id="Group_10083" data-name="Group 10083" transform="translate(429.024 43.194)">
        <path id="Path_3553" data-name="Path 3553" d="M3592.748,512.281a52.516,52.516,0,0,1-3.972-4.151.889.889,0,0,1,1.323-1.187c1.137,1.279,2.247,2.568,3.332,3.892a.886.886,0,0,1-.122,1.248A.869.869,0,0,1,3592.748,512.281Z" transform="translate(-3588.55 -506.647)" fill="#1a1a1a"/>
      </g>
    </g>
    <g id="Group_10085" data-name="Group 10085" transform="translate(3512.55 753.879)">
      <path id="Path_3554" data-name="Path 3554" d="M3473.614,619.809a16.65,16.65,0,0,1-3.912-.507c-11.916-2.913-18.482-20.49-18.76-21.233a.884.884,0,0,1,.526-1.136.9.9,0,0,1,1.14.526c.063.175,6.521,17.427,17.513,20.119,3.745.922,6.773.437,8.993-1.413,5.239-4.355,4.7-14.919,4.7-15.024,1.662-.495,7.363,7.348,13.441,7.852a7.25,7.25,0,0,0,5.905-2.358,7.6,7.6,0,0,0,2.377-5.759c-.095-5.842-5.842-14.083-17.065-24.5a.888.888,0,1,1,1.205-1.3c11.761,10.915,17.526,19.344,17.632,25.773a9.388,9.388,0,0,1-2.9,7.045,9.264,9.264,0,0,1-7.3,2.868c-4.859-.408-9.266-4.61-11.531-7.182-.159,3.679-1.062,10.4-5.321,13.952A10.058,10.058,0,0,1,3473.614,619.809Z" transform="translate(-3450.887 -574.842)" fill="#1a1a1a"/>
    </g>
    <g id="Group_10086" data-name="Group 10086" transform="translate(3855.222 715.67)">
      <path id="Path_3555" data-name="Path 3555" d="M3559.149,570.038c-.942-.5-1-1.062-.692-1.445l4.354-5.4a.886.886,0,1,1,1.381,1.11l-4.354,5.4A.887.887,0,0,1,3559.149,570.038Z" transform="translate(-3558.29 -562.866)" fill="#1a1a1a"/>
    </g>
    <g id="Group_10087" data-name="Group 10087" transform="translate(3535.835 670.843)">
      <path id="Path_3556" data-name="Path 3556" d="M3468.912,554.952c-.5-.153-6.614-3.64-10.024-4.387a.881.881,0,0,1-.681-1.053.9.9,0,0,1,1.054-.68c3.682.807,9.833,4.31,10.092,4.464a.888.888,0,0,1-.44,1.656Z" transform="translate(-3458.185 -548.816)" fill="#1a1a1a"/>
    </g>
    <g id="Group_10088" data-name="Group 10088" transform="translate(3648.976 744.966)">
      <path id="Path_3557" data-name="Path 3557" d="M3494.417,586.986c-2.338-8.531,1.376-14.3,1.545-14.539a.873.873,0,0,1,1.222-.249.884.884,0,0,1,.259,1.222,18.56,18.56,0,0,0-2.154,12.516.889.889,0,0,1-.708,1.04C3494.522,586.979,3494.469,586.986,3494.417,586.986Z" transform="translate(-3493.647 -572.048)" fill="#1a1a1a"/>
    </g>
    <g id="Group_10089" data-name="Group 10089" transform="translate(3752.896 588.154)">
      <path id="Path_3558" data-name="Path 3558" d="M3527.105,661.077a.881.881,0,0,1-.887-.887V545.06A22.182,22.182,0,0,1,3548.38,522.9H3709.8a.885.885,0,0,1,0,1.771H3548.38a20.415,20.415,0,0,0-20.395,20.391V660.19A.88.88,0,0,1,3527.105,661.077Z" transform="translate(-3526.219 -522.899)" fill="#1a1a1a"/>
    </g>
    <g id="Group_10090" data-name="Group 10090" transform="translate(3955.695 853.988)">
      <path id="Path_3559" data-name="Path 3559" d="M3609.527,607.987h-18.861a.884.884,0,1,1,0-1.768h18.861a.884.884,0,1,1,0,1.768Z" transform="translate(-3589.782 -606.219)" fill="#1a1a1a"/>
    </g>
    <g id="Group_10091" data-name="Group 10091" transform="translate(3824.783 747.68)">
      <path id="Path_3560" data-name="Path 3560" d="M3551.859,582.566c-4.119-.661-3.009-7.922-2.872-8.748a.84.84,0,0,1,1.024-.724.887.887,0,0,1,.725,1.018c-.425,2.549-.393,6.432,1.027,6.675,1.761-1.088,2.612-4.9,2.855-7.092a.8.8,0,0,1,.979-.779.879.879,0,0,1,.778.979c-.07.657-.778,6.451-3.021,8.152A2.456,2.456,0,0,1,3551.859,582.566Z" transform="translate(-3548.75 -572.899)" fill="#1a1a1a"/>
    </g>
    <g id="Group_10092" data-name="Group 10092" transform="translate(3845.839 748.348)">
      <path id="Path_3561" data-name="Path 3561" d="M3558.377,582.679c-4.154-.766-2.878-7.992-2.722-8.822a.95.95,0,0,1,1.04-.7.89.89,0,0,1,.708,1.037c-.484,2.543-.552,6.429.861,6.7,1.787-1.05,2.731-4.837,3.024-7.013a.912.912,0,0,1,1-.763.887.887,0,0,1,.759,1c-.086.654-.932,6.432-3.219,8.078A2.479,2.479,0,0,1,3558.377,582.679Z" transform="translate(-3555.35 -573.108)" fill="#1a1a1a"/>
    </g>
  </g>
</svg>
