<svg xmlns="http://www.w3.org/2000/svg" width="98.563" height="98.563" viewBox="0 0 98.563 98.563">
  <g id="Group_9734" data-name="Group 9734" transform="translate(0 0)">
    <path id="Path_3057" data-name="Path 3057" d="M1351.96,753.781a49.281,49.281,0,1,1-49.281-49.281A49.281,49.281,0,0,1,1351.96,753.781Z" transform="translate(-1253.397 -704.5)" fill="#ffb2cb"/>
    <path id="Path_3058" data-name="Path 3058" d="M1563.523,710.275v5.775a5.775,5.775,0,0,1-5.775,5.775h-21.6a13.5,13.5,0,0,1-5.353,7.7,13.5,13.5,0,0,1-5.353-7.7h-4.272a5.775,5.775,0,0,1-5.775-5.775v-5.775a5.775,5.775,0,0,1,5.775-5.775h36.576A5.775,5.775,0,0,1,1563.523,710.275Z" transform="translate(-1464.961 -704.5)" fill="#f2c86c"/>
    <path id="Path_3059" data-name="Path 3059" d="M1525.359,721.825h-4.187a5.775,5.775,0,0,1-5.775-5.775v-5.775a5.775,5.775,0,0,1,5.775-5.775h4.187a5.775,5.775,0,0,0-5.775,5.775v5.775A5.775,5.775,0,0,0,1525.359,721.825Z" transform="translate(-1464.961 -704.5)" fill="#efbb48"/>
    <path id="Path_3060" data-name="Path 3060" d="M1578.123,727.385V729.5a.385.385,0,0,1-.385.385h-31.956a.385.385,0,0,1-.385-.385v-2.118a.385.385,0,0,1,.385-.385h31.956A.385.385,0,0,1,1578.123,727.385Zm-20.02,5.39h-12.321a.385.385,0,0,0-.385.385v2.118a.385.385,0,0,0,.385.385H1558.1a.385.385,0,0,0,.385-.385V733.16A.385.385,0,0,0,1558.1,732.775Zm8.326,0a1.444,1.444,0,1,0,1.444,1.444A1.444,1.444,0,0,0,1566.428,732.775Zm-4.572,0a1.444,1.444,0,1,0,1.444,1.444A1.444,1.444,0,0,0,1561.856,732.775Zm9.144,0a1.444,1.444,0,1,0,1.444,1.444A1.444,1.444,0,0,0,1571,732.775Z" transform="translate(-1489.186 -722.669)" fill="#eba815"/>
    <path id="Path_3061" data-name="Path 3061" d="M1377.174,796.089v3.449a11.546,11.546,0,0,1-2.417,7.073,49.541,49.541,0,0,1-13.372,11.952,46.041,46.041,0,0,1-10.315,22.454,49.476,49.476,0,0,1-30.569,0,46.037,46.037,0,0,1-10.315-22.454,49.534,49.534,0,0,1-13.372-11.952,11.546,11.546,0,0,1-2.417-7.073v-3.449a11.547,11.547,0,0,1,2.417-7.073,49.2,49.2,0,0,1,37.046-19.077v-7.329a4.283,4.283,0,1,1,3.85,0v7.329a49.2,49.2,0,0,1,37.046,19.077A11.544,11.544,0,0,1,1377.174,796.089Z" transform="translate(-1286.504 -744.875)" fill="#ecdffe"/>
    <path id="Path_3062" data-name="Path 3062" d="M1335.786,895.556a49.044,49.044,0,0,0,25.7-7.222,46.115,46.115,0,0,1-1.049,5.131,46.324,46.324,0,0,1-38.266,5.071,1.925,1.925,0,0,0-2.437,2.342,65.092,65.092,0,0,0,4.447,11.586q-1.866-.451-3.674-1.041a46.033,46.033,0,0,1-10.311-22.455,49.539,49.539,0,0,1-13.376-11.951,11.546,11.546,0,0,1-2.417-7.073V866.5a11.547,11.547,0,0,1,2.417-7.073,49.306,49.306,0,0,1,27.329-17.731,49.776,49.776,0,0,0-21.746,17.124,12.9,12.9,0,0,0-2.417,7.561v3.687a12.9,12.9,0,0,0,2.417,7.561,50.193,50.193,0,0,0,18.256,15.563A49.237,49.237,0,0,0,1335.786,895.556Zm14.342-20.6a12.513,12.513,0,1,0-12.513-12.513A12.513,12.513,0,0,0,1350.127,874.958Zm-41.2-12.513a12.513,12.513,0,1,0,12.513-12.513A12.513,12.513,0,0,0,1308.931,862.445Z" transform="translate(-1286.504 -815.281)" fill="#dfc8fe"/>
    <path id="Path_3063" data-name="Path 3063" d="M1490.947,1041.425c0,2.7-2.537,4.813-5.775,4.813s-5.775-2.114-5.775-4.813a1.925,1.925,0,0,1,3.85,0c0,.339.731.963,1.925.963s1.925-.623,1.925-.963a1.925,1.925,0,1,1,3.85,0Z" transform="translate(-1435.891 -975.011)" fill="#c59dfd"/>
    <path id="Path_3064" data-name="Path 3064" d="M1429.756,905.088a10.588,10.588,0,1,1-20.774-2.888h-8.312a10.593,10.593,0,1,1-1.313-2.888H1410.3a10.587,10.587,0,0,1,19.46,5.775Z" transform="translate(-1355.545 -857.924)" fill="#781bfb"/>
    <path id="Path_3065" data-name="Path 3065" d="M1410.3,917.2a7.7,7.7,0,1,1-7.7-7.7A7.7,7.7,0,0,1,1410.3,917.2Zm20.983-7.7a7.7,7.7,0,1,0,7.7,7.7A7.7,7.7,0,0,0,1431.281,909.5Z" transform="translate(-1367.658 -870.036)" fill="#ffa8c5"/>
    <path id="Path_3066" data-name="Path 3066" d="M1447.082,917.518a7.7,7.7,0,0,1-6.631,7.625,11.087,11.087,0,0,0,0-15.249A7.7,7.7,0,0,1,1447.082,917.518Zm22.052-7.625a11.087,11.087,0,0,1,0,15.249,7.7,7.7,0,0,0,0-15.249Z" transform="translate(-1404.442 -870.354)" fill="#ff85ad"/>
  </g>
</svg>
