<svg id="Group_9726" data-name="Group 9726" xmlns="http://www.w3.org/2000/svg" width="95.684" height="95.684" viewBox="0 0 95.684 95.684">
  <path id="Path_3017" data-name="Path 3017" d="M120.706,47.842A47.848,47.848,0,0,1,30.773,70.6,14.721,14.721,0,0,0,42.03,56.3V17.069q-.23-.273-.464-.543c-1.33-1.533-.992-3.392.555-4.706.822-.7,1.469-1.836,2.337-2.477a47.845,47.845,0,0,1,76.248,38.5Z" transform="translate(-25.022)" fill="#ffb2cb"/>
  <path id="Path_3018" data-name="Path 3018" d="M198.426,444.742a48.1,48.1,0,0,1-22.426-1.8V430h22.426Z" transform="translate(-143.109 -349.64)" fill="#944bfc"/>
  <path id="Path_3019" data-name="Path 3019" d="M180.485,437.475v6.7q-2.285-.511-4.485-1.235V430h22.426v5.606H182.354A1.869,1.869,0,0,0,180.485,437.475Z" transform="translate(-143.109 -349.64)" fill="#8034ec"/>
  <path id="Path_3020" data-name="Path 3020" d="M112.724,51.869v62.316a48.069,48.069,0,0,1-7.108,8.7H39.1a48.032,48.032,0,0,1-8.949-11.852A15.826,15.826,0,0,0,41.524,95.849V57.725q-1.09-1.3-2.27-2.513a.9.9,0,0,1,.028-1.277A48.1,48.1,0,0,1,43.953,50h66.9A1.869,1.869,0,0,1,112.724,51.869Z" transform="translate(-24.515 -40.656)" fill="#944bfc"/>
  <path id="Path_3021" data-name="Path 3021" d="M84.471,73.987V127a.935.935,0,0,1-.934.934H5.981A47.855,47.855,0,0,1,14.972,70H80.712A48.125,48.125,0,0,1,84.471,73.987Z" transform="translate(0 -56.918)" fill="#fefbf3"/>
  <path id="Path_3022" data-name="Path 3022" d="M414.5,73.987V127a.935.935,0,0,1-.934.934h-4.859a.935.935,0,0,0,.934-.934V73.987A48.128,48.128,0,0,0,405.884,70h4.859A48.117,48.117,0,0,1,414.5,73.987Z" transform="translate(-330.031 -56.918)" fill="#e0cbfe"/>
  <path id="Path_3023" data-name="Path 3023" d="M211,401.869h0A1.869,1.869,0,0,1,212.869,400h5.606a1.869,1.869,0,0,1,1.869,1.869h0a1.869,1.869,0,0,1-1.869,1.869h-5.606A1.869,1.869,0,0,1,211,401.869Z" transform="translate(-171.568 -325.247)" fill="#8034ec"/>
  <path id="Path_3024" data-name="Path 3024" d="M353.738,341.869A1.869,1.869,0,1,1,351.869,340,1.869,1.869,0,0,1,353.738,341.869ZM357.475,340a1.869,1.869,0,1,0,1.869,1.869A1.869,1.869,0,0,0,357.475,340Zm5.607,0a1.869,1.869,0,1,0,1.869,1.869A1.869,1.869,0,0,0,363.082,340Z" transform="translate(-284.591 -276.46)" fill="#b27dfd"/>
  <path id="Path_3025" data-name="Path 3025" d="M57.934,91.2v48.056a1.135,1.135,0,0,1-1.055,1.2H4.116A47.876,47.876,0,0,1,11.424,90H56.879A1.135,1.135,0,0,1,57.934,91.2Z" transform="translate(0 -73.181)" fill="#f4cf7e"/>
  <path id="Path_3026" data-name="Path 3026" d="M86.164,168.082A13.082,13.082,0,1,1,73.082,155,13.082,13.082,0,0,1,86.164,168.082Z" transform="translate(-48.787 -126.033)" fill="#eba815"/>
  <path id="Path_3027" data-name="Path 3027" d="M115.87,193.931l-9.306,6.382a.934.934,0,0,1-1.463-.771V186.778a.935.935,0,0,1,1.463-.771l9.306,6.382A.935.935,0,0,1,115.87,193.931Z" transform="translate(-85.459 -151.111)" fill="#fefbf3"/>
  <path id="Path_3028" data-name="Path 3028" d="M307.095,45.606v5.606a5.606,5.606,0,0,1-5.606,5.606h-4.147a13.1,13.1,0,0,1-5.2,7.475,13.1,13.1,0,0,1-5.2-7.475H265.607A5.606,5.606,0,0,1,260,51.213V45.606A5.606,5.606,0,0,1,265.607,40h35.882A5.606,5.606,0,0,1,307.095,45.606Z" transform="translate(-211.41 -32.525)" fill="#eba815"/>
  <path id="Path_3029" data-name="Path 3029" d="M269.718,56.819h-4.111A5.606,5.606,0,0,1,260,51.213V45.606A5.606,5.606,0,0,1,265.607,40h4.111a5.606,5.606,0,0,0-5.607,5.606v5.606A5.606,5.606,0,0,0,269.718,56.819Z" transform="translate(-211.41 -32.525)" fill="#e2a31a"/>
  <path id="Path_3030" data-name="Path 3030" d="M316.537,62.874v2.056a.374.374,0,0,1-.374.374h-25.79a.374.374,0,0,1-.374-.374V62.874a.374.374,0,0,1,.374-.374h25.79A.374.374,0,0,1,316.537,62.874Zm-9.718,5.233H290.374a.374.374,0,0,0-.374.374v2.056a.374.374,0,0,0,.374.374h16.446a.374.374,0,0,0,.374-.374V68.48A.374.374,0,0,0,306.819,68.106Z" transform="translate(-235.804 -50.82)" fill="#f4cf7e"/>
  <path id="Path_3031" data-name="Path 3031" d="M321.731,195.607v5.606a5.606,5.606,0,0,1-5.607,5.606H298.147a13.1,13.1,0,0,1-5.2,7.475,13.1,13.1,0,0,1-5.2-7.475h-4.147A5.606,5.606,0,0,1,278,201.213v-5.606A5.606,5.606,0,0,1,283.607,190h32.518A5.606,5.606,0,0,1,321.731,195.607Z" transform="translate(-226.047 -154.492)" fill="#ff8fb4"/>
  <path id="Path_3032" data-name="Path 3032" d="M287.718,206.819h-4.111A5.606,5.606,0,0,1,278,201.213v-5.606A5.606,5.606,0,0,1,283.607,190h4.111a5.606,5.606,0,0,0-5.607,5.606v5.606A5.606,5.606,0,0,0,287.718,206.819Z" transform="translate(-226.047 -154.492)" fill="#fe548c"/>
  <path id="Path_3033" data-name="Path 3033" d="M331.173,212.874v2.056a.374.374,0,0,1-.374.374H308.374a.374.374,0,0,1-.374-.374v-2.056a.374.374,0,0,1,.374-.374H330.8A.374.374,0,0,1,331.173,212.874Zm-9.718,5.233H308.374a.374.374,0,0,0-.374.374v2.056a.374.374,0,0,0,.374.374h13.082a.374.374,0,0,0,.374-.374V218.48A.374.374,0,0,0,321.456,218.107Z" transform="translate(-250.44 -172.787)" fill="#fe1a65"/>
</svg>
