<svg xmlns="http://www.w3.org/2000/svg" width="637.421" height="458.971" viewBox="0 0 637.421 458.971">
  <g id="Group_9910" data-name="Group 9910" transform="translate(-3417.085 161.752)">
    <rect id="Rectangle_185" data-name="Rectangle 185" width="64.266" height="56.721" rx="10" transform="translate(3439.631 84.442)" fill="#1a1a1a"/>
    <path id="Rectangle_186" data-name="Rectangle 186" d="M7.566,0H274.124a7.567,7.567,0,0,1,7.567,7.567V187.912a7.567,7.567,0,0,1-7.567,7.567H7.567A7.567,7.567,0,0,1,0,187.911V7.566A7.566,7.566,0,0,1,7.566,0Z" transform="translate(3489.858 -160.741)" fill="#fff"/>
    <rect id="Rectangle_187" data-name="Rectangle 187" width="228.441" height="183.862" rx="19" transform="translate(3826.065 24.713)" fill="#ffce26"/>
    <path id="Path_3327" data-name="Path 3327" d="M3716.871-39.464s-2.035-.891-19.23-9.81-25.855-11.46-32.224-12.1-15.284,1.147-20.5,3.312-22.291,8.533-29.8,9.554-16.431-2.168-20.122-3.695-31.1-18.249-31.1-18.249-6.051,66.628-8.359,88.17h137.393a24.273,24.273,0,0,0,24.2-24.2V-38.764C3716.965-39.2,3716.871-39.464,3716.871-39.464Z" transform="translate(310.237 204.593)" fill="#1a1a1a"/>
    <path id="Path_3328" data-name="Path 3328" d="M3597.6-34.094s-21.564,4.213-36.672,11.136-28.695,14.95-28.695,14.95,14.292-35.964,17.03-43.414a113.943,113.943,0,0,1,8.189-16.369s-7.016-9.045-7.14-13.482c0,0-14.366-1.808-24.07-8.715,0,0-7.02-2.946-8.3-5.782,0,0-14.347-10.672-13.356-20.129,0,0-10.066,15.958-22.011,47.887s-18.94,44.863-13.443,79.919,35.672,44.474,41.982,45.965,17.533,4.651,28.921,2.5a115.606,115.606,0,0,0,21.97-6.812l-3.3,25.583-12.334,113.637h163.5l-6.362-63.948s6.592,16.606,17.19,22.916a36.723,36.723,0,0,0,36.413.531c12.2-6.54,18.171-19.264,19.344-28.947s.759-22.922-3.227-40.65-16.623-71.84-16.623-71.84L3719.105-7.1s-13.132-19.782-33.312-24.378l-20.178-4.6Z" transform="translate(112.373 102.749)" fill="#fff"/>
    <path id="Path_3329" data-name="Path 3329" d="M3609.222-30.258s1.313-12.273-4.489-21.3-10.218-13.913-11.7-16.557-.83-14.3-1.856-18.748-2.428-11.236-10.326-9.92-10.072,11.657-8.828,18.389,6.054,22.517,5.785,24.692-12.857,10.082-19.565,12.591-19.539,7.055-22.874,12.2-2.185,11.913,4.262,12.545c0,0-8.3,4.339-6.608,10.458a6.837,6.837,0,0,0,7.4,5.347s-1.409,9,7.759,10.141,26.637-5.163,32.671-8.413,16.629-8.779,21.208-15.469S3609.42-28.829,3609.222-30.258Z" transform="translate(259.289 145.206)" fill="#fff"/>
    <path id="Path_3330" data-name="Path 3330" d="M3518.689-90.78s-13.835-2.638-14.234,9.457,11.961,12,15.621,9.515c0,0-.237,28.306,27.835,27.858S3576.748-67.8,3576.748-67.8v-3.487s12.708,3.944,14.95-4.4.821-11.677-2.42-13.479-11.5-1.251-11.5-1.251v-2.894a75.209,75.209,0,0,0-24.857-16.515c-15.24-6.115-22.975-6.99-22.975-6.99s-6.131,15.582-10.373,18.927Z" transform="translate(195.759 100.692)" fill="#fff"/>
    <path id="Path_3331" data-name="Path 3331" d="M3521.777-97.713v7.9L3507.46-74.846,3517.5-19.576l24.411-35.152L3566.4-19.576l9.788-56.419-14.107-14.2.1-6.8Z" transform="translate(202.515 143.502)" fill="#fff"/>
    <path id="Path_3332" data-name="Path 3332" d="M3620.81-71.709a20.174,20.174,0,0,1-20.172,20.174,20.175,20.175,0,0,1-20.175-20.174,20.177,20.177,0,0,1,20.175-20.174A20.176,20.176,0,0,1,3620.81-71.709Z" transform="translate(366.104 156.565)" fill="#fff"/>
    <path id="Path_3418" data-name="Path 3418" d="M30,0H275.925a30,30,0,0,1,30,30V64.386a30,30,0,0,1-30,30H30a30,30,0,0,1-30-30V30A30,30,0,0,1,30,0Z" transform="translate(3464 189.213)" fill="#fe0054"/>
    <path id="Path_3333" data-name="Path 3333" d="M3472.617-27.659a16.25,16.25,0,0,1-16.249,16.246,16.252,16.252,0,0,1-16.25-16.246,16.25,16.25,0,0,1,16.25-16.25A16.248,16.248,0,0,1,3472.617-27.659Z" transform="translate(51.61 264.068)" fill="#ffce26"/>
    <path id="Path_3334" data-name="Path 3334" d="M3693.288-161.44h-225.8a28.024,28.024,0,0,0-27.942,27.939v18.826h281.69V-133.5A28.024,28.024,0,0,0,3693.288-161.44Z" transform="translate(50.317 0.699)" fill="none" stroke="#707070" stroke-width="1"/>
    <path id="Path_3335" data-name="Path 3335" d="M3509.214-77.541s-2.314-13.226-2.158-17.024,2.926-14.305,5.979-15.835a19.127,19.127,0,0,1,4.109-1.718s6.974-11.217,23.21-11.307,28.109,6.329,32.938,14.931,3.836,21.736,3.82,25.612a22.191,22.191,0,0,1-.9,6.488l-4.258.256-.327-2.366s-13.662-13.385-28.834-18.184-18.67-5.321-18.67-5.321-4.829,14.15-10.373,18.927l-.227,6.945Z" transform="translate(201.589 85.884)" fill="#1a1a1a"/>
    <path id="Path_3336" data-name="Path 3336" d="M3524.028-70.246s9.678,5.052,13.906,11.593,5.31,21.869-3.159,22.466-12.258-9.227-13.323-12.072-1.439-6.329-8.018-8.549-21.253-4.32-23.917-8.7-7.082-6.984-6.878-21.2c0,0-4.569-14.726,2.211-20.968s14.519-6.047,28.37-5.668,23.8-6.517,30.146-9.2,16.253-7.947,21.76-5.007,1.526,10.591,1.526,10.591,4.9,1.708,6.4,5.723-4.142,11.735-4.142,11.735,3.257.872,4.108,6.313-7.051,10.458-14.032,12.351-24.177,4.083-27.807,4.369S3521.747-73.759,3524.028-70.246Z" transform="translate(143.519 74.691)" fill="#fff"/>
    <path id="Path_3337" data-name="Path 3337" d="M3451.569-81.087c-1.741-2.975-4.586-2.975-6.323,0L3431.9-58.223c-1.736,2.975-.34,5.409,3.1,5.409h26.822c3.448,0,4.845-2.434,3.108-5.409Z" transform="translate(31.516 175.757)" fill="#ffce26"/>
    <path id="Path_3338" data-name="Path 3338" d="M3533.569-147.225a9.927,9.927,0,0,1-9.927,9.927,9.927,9.927,0,0,1-9.927-9.927,9.927,9.927,0,0,1,9.927-9.927A9.927,9.927,0,0,1,3533.569-147.225Z" transform="translate(216.533 10.308)" fill="#781bfb"/>
    <path id="Path_3339" data-name="Path 3339" d="M3553.233-141.741a10.243,10.243,0,0,1-10.245,10.244,10.243,10.243,0,0,1-10.241-10.244,10.245,10.245,0,0,1,10.241-10.244A10.246,10.246,0,0,1,3553.233-141.741Z" transform="translate(259.18 21.886)" fill="#fe0054"/>
    <path id="Path_3340" data-name="Path 3340" d="M3624.669-114.325a10.244,10.244,0,0,1-10.244,10.248,10.244,10.244,0,0,1-10.245-10.248,10.245,10.245,0,0,1,10.245-10.244A10.246,10.246,0,0,1,3624.669-114.325Z" transform="translate(419.247 83.321)" fill="#fe0054"/>
    <path id="Path_3341" data-name="Path 3341" d="M3523.2-147.225a9.925,9.925,0,0,1-9.924,9.927,9.928,9.928,0,0,1-9.929-9.927,9.928,9.928,0,0,1,9.929-9.927A9.925,9.925,0,0,1,3523.2-147.225Z" transform="translate(193.287 10.308)" fill="#ccc"/>
    <path id="Path_3342" data-name="Path 3342" d="M3512.85-147.225a9.925,9.925,0,0,1-9.924,9.927,9.928,9.928,0,0,1-9.929-9.927,9.927,9.927,0,0,1,9.929-9.927A9.925,9.925,0,0,1,3512.85-147.225Z" transform="translate(170.104 10.308)" fill="#fff"/>
    <path id="Path_3343" data-name="Path 3343" d="M3485.9-117.9s-6.228,1.128-7.1,6.5,8.731,17.125,11.19,18.366h1.728s-4.832-10.889-3.243-16.813Z" transform="translate(138.165 98.256)" fill="#1a1a1a"/>
    <path id="Path_3344" data-name="Path 3344" d="M3487.3-107.108s6.355.088,10.682,1.9a40.127,40.127,0,0,1,6.215,3.076A28.841,28.841,0,0,1,3487.3-107.108Z" transform="translate(157.349 122.449)" fill="#1a1a1a"/>
    <path id="Path_3345" data-name="Path 3345" d="M3498.967-112.212s-5.2,1.663-4.715,4.566c0,0,9.081,6.148,10.8,7.963s2.963,3.05,2.963,3.05S3508.167-104.972,3498.967-112.212Z" transform="translate(172.845 111.011)" fill="#1a1a1a"/>
    <path id="Path_3346" data-name="Path 3346" d="M3589.207-127.971a10.435,10.435,0,0,1-10.438,10.436,10.435,10.435,0,0,1-10.436-10.436,10.437,10.437,0,0,1,10.436-10.436A10.437,10.437,0,0,1,3589.207-127.971Z" transform="translate(338.923 52.315)" fill="#1a1a1a"/>
    <path id="Path_3347" data-name="Path 3347" d="M3560.955-76.445l4.258-.256a22.2,22.2,0,0,0,.9-6.488c.016-3.876,1-17.008-3.82-25.612-4.068-7.24-13.132-12.918-25.581-14.487,8.387,3.633,17.32,9.321,15.486,16.648-2.674,10.7-40.249,3.565-40.249,3.565l.956,1.355c.211-.6,3.715-.071,18.884,4.725s28.834,18.184,28.834,18.184Z" transform="translate(212.584 86.192)" fill="#1a1a1a"/>
    <g id="Group_9913" data-name="Group 9913" transform="translate(3873.121 69.372)">
      <g id="Group_9911" data-name="Group 9911" transform="translate(0 63.764)">
        <path id="Path_3348" data-name="Path 3348" d="M3712.045-37.251c-.46-.11-35.558-18.045-35.558-18.045-8.362-4.294-22.391-5.325-31.294-2.3l-26.309,8.925c-9.356,3.179-23.885,1.65-32.385-3.413l-28.2-16.8a1.008,1.008,0,0,1-.35-1.381,1.007,1.007,0,0,1,1.381-.35l28.2,16.8c8.064,4.8,21.847,6.245,30.708,3.231l26.308-8.922c9.347-3.166,24.083-2.087,32.86,2.414l35.1,17.935a1,1,0,0,1,.438,1.355A1,1,0,0,1,3712.045-37.251Z" transform="translate(-3557.801 70.761)" fill="#1a1a1a"/>
      </g>
      <g id="Group_9912" data-name="Group 9912" transform="translate(66.158)">
        <path id="Path_3349" data-name="Path 3349" d="M3599.4-48.075a21.2,21.2,0,0,1-21.188-21.179A21.207,21.207,0,0,1,3599.4-90.436a21.2,21.2,0,0,1,21.169,21.182A21.2,21.2,0,0,1,3599.4-48.075Zm0-40.345a19.192,19.192,0,0,0-19.176,19.166A19.2,19.2,0,0,0,3599.4-50.091a19.183,19.183,0,0,0,19.154-19.163A19.179,19.179,0,0,0,3599.4-88.42Z" transform="translate(-3578.214 90.436)" fill="#1a1a1a"/>
      </g>
    </g>
    <g id="Group_9914" data-name="Group 9914" transform="translate(3708.44 52.802)">
      <path id="Path_3350" data-name="Path 3350" d="M3567.46-23.418c-.825-.428-24.487-34.4-24.487-34.4l-23.584,33.967c-1.818-.389-12.4-55.658-12.4-55.658.272-.9,15.137-15.87,15.137-15.87,1.588.207,20.845,33.766,20.845,33.766l19.4-33.938c1.594-.207,15.6,13.994,15.6,13.994.278.878-9.509,57.3-9.509,57.3C3567.606-23.425,3567.534-23.418,3567.46-23.418Zm-58.4-55.943L3519.1-26.97l22.683-32.661-19.159-33.384Zm35.1,19.73,22.721,32.619,9.279-53.493-12.7-12.889Z" transform="translate(-3506.987 95.549)" fill="#1a1a1a"/>
    </g>
    <g id="Group_9915" data-name="Group 9915" transform="translate(3745.115 30.554)">
      <path id="Path_3351" data-name="Path 3351" d="M3523.486-92.021a21.139,21.139,0,0,1-4.4-.457,1.006,1.006,0,0,1-.752-1.209,1.011,1.011,0,0,1,1.212-.755c.065.016,6.56,1.484,10.616-1.335a7.859,7.859,0,0,0,3.183-5.753.99.99,0,0,1,1.124-.875,1.011,1.011,0,0,1,.875,1.128,9.768,9.768,0,0,1-4.039,7.159A13.778,13.778,0,0,1,3523.486-92.021Z" transform="translate(-3518.303 102.414)" fill="#1a1a1a"/>
    </g>
    <g id="Group_9916" data-name="Group 9916" transform="translate(3578.053 -16.371)">
      <path id="Path_3352" data-name="Path 3352" d="M3532.992,64.095a81.939,81.939,0,0,1-22.9-3.526c-25.289-7.162-40.589-28.84-43.1-61.035-1.792-22.935,6.7-45.417,15.236-64.379,3.257-7.24,5.626-13.18,7.924-18.927,4.236-10.6,7.891-19.746,15.43-32.626a1.017,1.017,0,0,1,1.38-.36,1.01,1.01,0,0,1,.363,1.381c-7.467,12.746-11.1,21.83-15.3,32.353-2.3,5.762-4.683,11.729-7.963,19C3475.635-45.284,3467.251-23.1,3469-.625c2.438,31.294,17.229,52.34,41.638,59.252,13.5,3.827,29.123,6.167,51.912-2.476a1.007,1.007,0,1,1,.716,1.883C3551.546,62.487,3541.671,64.095,3532.992,64.095Z" transform="translate(-3466.753 116.893)" fill="#1a1a1a"/>
    </g>
    <g id="Group_9917" data-name="Group 9917" transform="translate(3640.426 33.95)">
      <path id="Path_3353" data-name="Path 3353" d="M3487.006-25.375a1.032,1.032,0,0,1-.995-1.154c2.185-14.762,7.817-27.56,10.225-33.024.418-.953.748-1.7.965-2.243l8.462-21.085a162.618,162.618,0,0,1,7.909-16.169l.955-1.779a.994.994,0,0,1,1.361-.415,1,1,0,0,1,.416,1.361l-.954,1.782a160.039,160.039,0,0,0-7.813,15.971l-8.462,21.088c-.223.548-.563,1.326-.995,2.3-2.573,5.85-7.93,18.013-10.073,32.506A1.013,1.013,0,0,1,3487.006-25.375Z" transform="translate(-3486 101.366)" fill="#1a1a1a"/>
    </g>
    <g id="Group_9919" data-name="Group 9919" transform="translate(3417.085 -76.239)">
      <g id="Group_9918" data-name="Group 9918">
        <circle id="Ellipse_23" data-name="Ellipse 23" cx="4.392" cy="4.392" r="4.392" transform="translate(0.227 0.228)" fill="#1a1a1a"/>
        <path id="Path_3354" data-name="Path 3354" d="M3432.239-126.126a4.618,4.618,0,0,0,4.618-4.618,4.619,4.619,0,0,0-4.618-4.621,4.62,4.62,0,0,0-4.622,4.621A4.619,4.619,0,0,0,3432.239-126.126Z" transform="translate(-3393.485 135.366)" fill="#1a1a1a"/>
        <circle id="Ellipse_24" data-name="Ellipse 24" cx="4.279" cy="4.279" r="4.279" transform="translate(68.608 0.341)" fill="#1a1a1a"/>
        <path id="Path_3355" data-name="Path 3355" d="M3421.7-115.6a4.621,4.621,0,0,0,4.622-4.618,4.621,4.621,0,0,0-4.622-4.618,4.618,4.618,0,0,0-4.618,4.618A4.618,4.618,0,0,0,3421.7-115.6Z" transform="translate(-3417.085 158.969)" fill="#1a1a1a"/>
        <path id="Path_3356" data-name="Path 3356" d="M3432.4-115.213a4.845,4.845,0,0,0,4.846-4.845,4.845,4.845,0,0,0-4.846-4.845,4.845,4.845,0,0,0-4.847,4.845A4.845,4.845,0,0,0,3432.4-115.213Z" transform="translate(-3393.642 158.812)" fill="#1a1a1a"/>
        <circle id="Ellipse_25" data-name="Ellipse 25" cx="4.506" cy="4.506" r="4.506" transform="translate(68.381 34.248)" fill="#1a1a1a"/>
        <path id="Path_3357" data-name="Path 3357" d="M3421.469-105.639a4.281,4.281,0,0,0,4.281-4.281,4.28,4.28,0,0,0-4.281-4.275,4.277,4.277,0,0,0-4.278,4.275A4.279,4.279,0,0,0,3421.469-105.639Z" transform="translate(-3416.851 182.807)" fill="#1a1a1a"/>
        <path id="Path_3358" data-name="Path 3358" d="M3432.16-105.255a4.506,4.506,0,0,0,4.5-4.508,4.5,4.5,0,0,0-4.5-4.5,4.5,4.5,0,0,0-4.508,4.5A4.508,4.508,0,0,0,3432.16-105.255Z" transform="translate(-3393.406 182.65)" fill="#1a1a1a"/>
        <path id="Path_3359" data-name="Path 3359" d="M3442.479-105.765a4.2,4.2,0,0,0,4.2-4.207,4.2,4.2,0,0,0-4.2-4.2,4.2,4.2,0,0,0-4.2,4.2A4.2,4.2,0,0,0,3442.479-105.765Z" transform="translate(-3369.593 182.858)" fill="#1a1a1a"/>
      </g>
    </g>
    <g id="Group_9920" data-name="Group 9920" transform="translate(3492.6 295.203)">
      <path id="Path_3360" data-name="Path 3360" d="M3959.631-18.737h-518.24a1.006,1.006,0,0,1-1-1.008,1.006,1.006,0,0,1,1-1.008h518.24a1,1,0,0,1,1.009,1.008A1,1,0,0,1,3959.631-18.737Z" transform="translate(-3440.386 20.753)" fill="#1a1a1a"/>
    </g>
    <path id="Path_3361" data-name="Path 3361" d="M3514.5-108.733c.8-.126,1.345.217,1.578,3.118.256,3.234-.583,3.8-1.305,3.776s-1.455-1.027-1.42-3.338S3513.447-108.568,3514.5-108.733Z" transform="translate(215.715 118.758)" fill="#1a1a1a"/>
    <g id="Group_9921" data-name="Group 9921" transform="translate(3699.035 8.155)">
      <path id="Path_3362" data-name="Path 3362" d="M3515.6-86.292a11.841,11.841,0,0,1-8.636-3.9,11.441,11.441,0,0,1-2.858-8.339,11.438,11.438,0,0,1,3.879-7.914,11.3,11.3,0,0,1,8.336-2.855,11.35,11.35,0,0,1,3.541.791,1,1,0,0,1,.568,1.306,1,1,0,0,1-1.309.567,9.528,9.528,0,0,0-2.927-.651,9.368,9.368,0,0,0-6.874,2.356,9.42,9.42,0,0,0-3.2,6.527,9.445,9.445,0,0,0,2.356,6.877,9.448,9.448,0,0,0,6.534,3.2,9.827,9.827,0,0,0,4.965-1.05,1.011,1.011,0,0,1,1.361.431,1.012,1.012,0,0,1-.432,1.361A11.525,11.525,0,0,1,3515.6-86.292Z" transform="translate(-3504.085 109.325)" fill="#1a1a1a"/>
    </g>
    <g id="Group_9922" data-name="Group 9922" transform="translate(3706.49 12.722)">
      <path id="Path_3363" data-name="Path 3363" d="M3508.135-94.629c-1.141-.833-1.057-1.465-.616-1.8l6.034-4.664-6.757-5a1,1,0,0,1-.211-1.41,1,1,0,0,1,1.41-.211l7.83,5.795c.019,1.607-7.075,7.085-7.075,7.085A1.018,1.018,0,0,1,3508.135-94.629Z" transform="translate(-3506.385 107.916)" fill="#1a1a1a"/>
    </g>
    <g id="Group_9923" data-name="Group 9923" transform="translate(3772.558 8.156)">
      <path id="Path_3364" data-name="Path 3364" d="M3532.616-86.293a11.513,11.513,0,0,1-5.3-1.29,1.016,1.016,0,0,1-.431-1.364,1.022,1.022,0,0,1,1.362-.428,9.475,9.475,0,0,0,4.968,1.05,9.448,9.448,0,0,0,6.53-3.2A9.447,9.447,0,0,0,3542.1-98.4a9.589,9.589,0,0,0-10.075-8.886,9.447,9.447,0,0,0-3.118.736,1.013,1.013,0,0,1-1.325-.535,1.014,1.014,0,0,1,.535-1.322,11.427,11.427,0,0,1,3.781-.888,11.487,11.487,0,0,1,12.215,10.769,11.528,11.528,0,0,1-10.772,12.215C3533.095-86.3,3532.855-86.293,3532.616-86.293Z" transform="translate(-3526.77 109.325)" fill="#1a1a1a"/>
    </g>
    <g id="Group_9924" data-name="Group 9924" transform="translate(3773.007 12.727)">
      <path id="Path_3365" data-name="Path 3365" d="M3534.617-94.632c-.616-.207-7.707-5.684-7.707-5.684.016-1.607,7.849-7.4,7.849-7.4a1.011,1.011,0,0,1,1.409.211,1.006,1.006,0,0,1-.211,1.41l-6.76,5,6.034,4.66a1,1,0,0,1,.181,1.41A1,1,0,0,1,3534.617-94.632Z" transform="translate(-3526.911 107.914)" fill="#1a1a1a"/>
    </g>
    <g id="Group_9925" data-name="Group 9925" transform="translate(3814.879 110.408)">
      <path id="Path_3366" data-name="Path 3366" d="M3575.365,72.257c-12.691,0-26.415-6.31-35.461-28.477a1.008,1.008,0,0,1,1.866-.765c9.337,22.884,24.705,31.426,45.683,25.411,35.309-10.131,25.6-54.929,22.4-69.649-4.664-21.5-17.293-74.776-17.42-75.314a1.007,1.007,0,0,1,.752-1.212A1.014,1.014,0,0,1,3594.4-77c.127.531,12.756,53.827,17.429,75.353,3.29,15.174,13.308,61.359-23.817,72.012A46.238,46.238,0,0,1,3575.365,72.257Z" transform="translate(-3539.83 77.774)" fill="#1a1a1a"/>
    </g>
    <g id="Group_9926" data-name="Group 9926" transform="translate(3714.099 1.995)">
      <path id="Path_3367" data-name="Path 3367" d="M3541.059-55.471h-4.032c-5.066,0-12.318-1.044-18.1-6-4.439-3.8-7.373-9.91-8.977-18.674-1.056-5.778-1.293-24.1-1.2-30.088a1,1,0,0,1,1.009-.992,1.014,1.014,0,0,1,1.007,1.024c-.1,6.443.181,24.316,1.167,29.693,1.517,8.29,4.232,14.017,8.3,17.507,5.318,4.56,12.062,5.516,16.79,5.516h4.032c4.726,0,11.473-.956,16.785-5.516,4.074-3.49,6.786-9.217,8.306-17.507,1.063-5.8,1.092-20.242,1.015-25.317a1,1,0,0,1,.988-1.021.942.942,0,0,1,1.025.992c.078,5.13.048,19.746-1.043,25.71-1.605,8.763-4.538,14.869-8.978,18.674C3553.375-56.514,3546.125-55.471,3541.059-55.471Z" transform="translate(-3508.733 111.226)" fill="#1a1a1a"/>
    </g>
    <g id="Group_9927" data-name="Group 9927" transform="translate(3723.286 49.412)">
      <path id="Path_3368" data-name="Path 3368" d="M3512.575-91.312a1.007,1.007,0,0,1-1.008-1.018l.032-3.267a1.007,1.007,0,0,1,1.008-1,1.01,1.01,0,0,1,1,1.018l-.029,3.27A1.006,1.006,0,0,1,3512.575-91.312Z" transform="translate(-3511.567 96.595)" fill="#1a1a1a"/>
    </g>
    <g id="Group_9928" data-name="Group 9928" transform="translate(3763.585 49.407)">
      <path id="Path_3369" data-name="Path 3369" d="M3525.011-91.692A1.017,1.017,0,0,1,3524-92.735l.1-2.884a.942.942,0,0,1,1.045-.972,1.01,1.01,0,0,1,.971,1.047l-.1,2.884A1.006,1.006,0,0,1,3525.011-91.692Z" transform="translate(-3524.002 96.597)" fill="#1a1a1a"/>
    </g>
    <g id="Group_9929" data-name="Group 9929" transform="translate(3712.858 -38.523)">
      <path id="Path_3370" data-name="Path 3370" d="M3573.241-75.011a1.045,1.045,0,0,1-1-1.163c2.239-14.318.11-23.153-2.262-29.9-4.975-14.156-25.762-17.251-38.949-14.953-9.979,1.757-15.52,9.807-15.573,9.888a14.771,14.771,0,0,0-5.431,2.768,1,1,0,0,1-1.422-.091,1.006,1.006,0,0,1,.091-1.423,12.338,12.338,0,0,1,5.328-2.716,27.59,27.59,0,0,1,16.661-10.413c13.868-2.434,35.827,1,41.2,16.272,2.46,6.984,4.657,16.12,2.356,30.882A1.008,1.008,0,0,1,3573.241-75.011Z" transform="translate(-3508.35 123.728)" fill="#1a1a1a"/>
    </g>
    <g id="Group_9930" data-name="Group 9930" transform="translate(3707.635 -9.332)">
      <path id="Path_3371" data-name="Path 3371" d="M3510.1-95.218c-1.072-1.092-3.432-9.638-3.357-18.5a1.009,1.009,0,0,1,1.007-1,1.013,1.013,0,0,1,1.009,1.014,71.435,71.435,0,0,0,2.313,17.212,1.009,1.009,0,0,1-.7,1.241A.983.983,0,0,1,3510.1-95.218Z" transform="translate(-3506.739 114.721)" fill="#1a1a1a"/>
    </g>
    <g id="Group_9931" data-name="Group 9931" transform="translate(3657.735 276.473)">
      <path id="Path_3372" data-name="Path 3372" d="M3492.348-6.47a1.029,1.029,0,0,1-1-1.112l1.889-18.042a.953.953,0,0,1,1.105-.9,1.007,1.007,0,0,1,.9,1.108l-1.886,18.039A1.011,1.011,0,0,1,3492.348-6.47Z" transform="translate(-3491.341 26.533)" fill="#1a1a1a"/>
    </g>
    <g id="Group_9932" data-name="Group 9932" transform="translate(3670.07 129.718)">
      <path id="Path_3373" data-name="Path 3373" d="M3496.157-18.638a1.033,1.033,0,0,1-1-1.138l6.609-51.16a1.008,1.008,0,0,1,1.127-.872,1.007,1.007,0,0,1,.871,1.131l-6.6,51.163A1.012,1.012,0,0,1,3496.157-18.638Z" transform="translate(-3495.147 71.815)" fill="#1a1a1a"/>
    </g>
    <g id="Group_9933" data-name="Group 9933" transform="translate(3805.999 154.715)">
      <path id="Path_3374" data-name="Path 3374" d="M3553.339,77.718a1.01,1.01,0,0,1-1-.914C3545.463,3.95,3540.255-39.409,3537.1-62.96a1.006,1.006,0,0,1,.865-1.134.993.993,0,0,1,1.135.865c3.16,23.567,8.368,66.959,15.245,139.846a1.01,1.01,0,0,1-.911,1.1Z" transform="translate(-3537.09 64.102)" fill="#1a1a1a"/>
    </g>
    <g id="Group_9934" data-name="Group 9934" transform="translate(3722.243 -0.188)">
      <path id="Path_3375" data-name="Path 3375" d="M3512.249-104.791c-.867-.25-1.137-.83-.946-1.351,1.8-4.978,8.708-6.417,12.8-5.5a1.01,1.01,0,0,1,.764,1.2.984.984,0,0,1-1.206.765c-3.366-.745-9.123.512-10.471,4.216A1,1,0,0,1,3512.249-104.791Z" transform="translate(-3511.245 111.9)" fill="#1a1a1a"/>
    </g>
    <g id="Group_9935" data-name="Group 9935" transform="translate(3751.153 -0.189)">
      <path id="Path_3376" data-name="Path 3376" d="M3532.81-104.79c-2.294-4.369-8.056-5.629-11.414-4.881a1,1,0,0,1-1.205-.765,1.008,1.008,0,0,1,.762-1.2c4.1-.924,11,.519,12.8,5.5a1,1,0,0,1-.6,1.29A.99.99,0,0,1,3532.81-104.79Z" transform="translate(-3520.166 111.9)" fill="#1a1a1a"/>
    </g>
    <g id="Group_9936" data-name="Group 9936" transform="translate(3718.503 -26.745)">
      <path id="Path_3377" data-name="Path 3377" d="M3514.344-113.5c-.821-.425-4.068-5.007-4.068-5.007a1.012,1.012,0,0,1,.24-1.407,1.012,1.012,0,0,1,1.407.24l3.248,4.586a1.008,1.008,0,0,1-.243,1.407A1,1,0,0,1,3514.344-113.5Z" transform="translate(-3510.091 120.094)" fill="#1a1a1a"/>
    </g>
    <g id="Group_9937" data-name="Group 9937" transform="translate(3777.693 66.496)">
      <path id="Path_3378" data-name="Path 3378" d="M3583.139-61.163c-19.41-22.637-38.932-26.909-53.86-28.143a1.013,1.013,0,0,1-.921-1.092.987.987,0,0,1,1.089-.92c15.319,1.27,35.352,5.652,54.466,28.5a1.009,1.009,0,0,1-.127,1.423A1,1,0,0,1,3583.139-61.163Z" transform="translate(-3528.355 91.323)" fill="#1a1a1a"/>
    </g>
    <g id="Group_9938" data-name="Group 9938" transform="translate(3461.651 91.518)">
      <path id="Path_3379" data-name="Path 3379" d="M3462.525-51.17H3435.7a4.741,4.741,0,0,1-4.372-2.094,4.74,4.74,0,0,1,.4-4.832l13.352-22.864c2.056-3.523,6-3.526,8.061,0L3466.5-58.1a4.75,4.75,0,0,1,.4,4.832A4.743,4.743,0,0,1,3462.525-51.17Zm-13.416-30.506a2.907,2.907,0,0,0-2.289,1.731L3433.47-57.078a2.893,2.893,0,0,0-.388,2.81,2.9,2.9,0,0,0,2.622,1.082h26.821a2.9,2.9,0,0,0,2.625-1.082,2.9,2.9,0,0,0-.389-2.81L3451.4-79.945A2.905,2.905,0,0,0,3449.108-81.676Z" transform="translate(-3430.837 83.603)" fill="#1a1a1a"/>
    </g>
    <g id="Group_9939" data-name="Group 9939" transform="translate(3791.122 127.833)">
      <path id="Path_3380" data-name="Path 3380" d="M3543.649-54.433a14.821,14.821,0,0,1-7.425-1.617,7.172,7.172,0,0,1-3.51-4.641c-1.653-6.754,6.748-11.392,7.1-11.586a1.015,1.015,0,0,1,1.37.405,1.008,1.008,0,0,1-.408,1.364c-.074.042-7.392,4.1-6.112,9.337a5.177,5.177,0,0,0,2.57,3.38c3.332,1.938,9.444,1.8,17.2-.4,10.692-3.033,30.155-12.753,30.35-12.853a1.016,1.016,0,0,1,1.352.447,1.016,1.016,0,0,1-.448,1.358c-.807.4-19.831,9.9-30.7,12.989A42.482,42.482,0,0,1,3543.649-54.433Z" transform="translate(-3532.499 72.397)" fill="#1a1a1a"/>
    </g>
    <g id="Group_9940" data-name="Group 9940" transform="translate(3791.484 47.331)">
      <path id="Path_3381" data-name="Path 3381" d="M3551.127,11.24c-3.468,0-6.248-.625-7.927-2.035-5.83-4.907-2.8-9.6-2.771-9.642a1.008,1.008,0,0,1,1.4-.282,1.016,1.016,0,0,1,.285,1.4c-.114.172-1.99,3.3,2.388,6.984,4.625,3.9,22.734.263,38-7.606a66.219,66.219,0,0,0,20.2-15.5c4.971-5.814,6.909-13.913,5.455-22.8a44.536,44.536,0,0,0-10.086-21.665c-.493-.577-.989-1.128-1.478-1.672-2.483-2.755-4.832-5.36-5.159-9.483-.143-1.763-.2-3.733-.252-5.769-.218-7.833-.464-16.71-5.831-18.032-3.48-.859-6.475-.162-8.624,2.038-3.914,3.983-4.6,12.127-1.871,22.336.94,3.52,1.97,7.01,3.008,10.5l1.147,3.889a5.185,5.185,0,0,1,.146,3.416,5.079,5.079,0,0,1-1.595,1.941,71.7,71.7,0,0,1-22.64,12.782c-11.285,3.908-17.938,8.183-19.782,12.691a6.943,6.943,0,0,0,.359,6,4.765,4.765,0,0,0,3.054,2.171c6.805,2.145,23.9-1.027,42.163-11.08a1.013,1.013,0,0,1,1.374.4,1.011,1.011,0,0,1-.4,1.368c-16.739,9.21-35.128,13.936-43.739,11.239a6.676,6.676,0,0,1-4.258-3.2,8.972,8.972,0,0,1-.422-7.658c2.1-5.143,8.968-9.667,20.984-13.838A69.547,69.547,0,0,0,3576.274-52.3a3.359,3.359,0,0,0,1.014-1.138,3.531,3.531,0,0,0-.21-2.1l-1.145-3.883c-1.04-3.51-2.081-7.016-3.021-10.546-2.913-10.918-2.045-19.769,2.376-24.277,2.641-2.693,6.387-3.6,10.548-2.58,6.854,1.692,7.126,11.382,7.363,19.934.055,2,.108,3.931.249,5.659.273,3.445,2.3,5.694,4.644,8.3.5.557,1.011,1.121,1.517,1.711a46.509,46.509,0,0,1,10.54,22.65c1.556,9.486-.548,18.165-5.914,24.439a68.1,68.1,0,0,1-20.807,15.987C3572.929,7.26,3559.865,11.24,3551.127,11.24Z" transform="translate(-3532.611 97.237)" fill="#1a1a1a"/>
    </g>
    <g id="Group_9941" data-name="Group 9941" transform="translate(3682.413 33.729)">
      <path id="Path_3382" data-name="Path 3382" d="M3532.5-99.418h-32.545a1,1,0,0,1-1-1.008,1,1,0,0,1,1-1.008H3532.5a1.009,1.009,0,0,1,1.009,1.008A1.009,1.009,0,0,1,3532.5-99.418Z" transform="translate(-3498.956 101.434)" fill="#1a1a1a"/>
    </g>
    <g id="Group_9942" data-name="Group 9942" transform="translate(3488.85 -161.752)">
      <path id="Path_3383" data-name="Path 3383" d="M3721.928-37.735a1.007,1.007,0,0,1-1.008-1.008V-132.8a26.967,26.967,0,0,0-26.935-26.938H3468.18a26.969,26.969,0,0,0-26.934,26.938v43.829a1,1,0,0,1-1.008,1.008,1.007,1.007,0,0,1-1.009-1.008V-132.8a28.983,28.983,0,0,1,28.95-28.954h225.805a28.982,28.982,0,0,1,28.948,28.954v94.056A1,1,0,0,1,3721.928-37.735Z" transform="translate(-3439.23 161.752)" fill="#1a1a1a"/>
    </g>
    <g id="Group_9943" data-name="Group 9943" transform="translate(3488.85 5.787)">
      <path id="Path_3384" data-name="Path 3384" d="M3518.014-80.1H3468.18a28.982,28.982,0,0,1-28.95-28.95,1.009,1.009,0,0,1,1.009-1.008,1.007,1.007,0,0,1,1.008,1.008,26.964,26.964,0,0,0,26.934,26.935h49.834a1,1,0,0,1,1.009,1.008A1,1,0,0,1,3518.014-80.1Z" transform="translate(-3439.23 110.056)" fill="#1a1a1a"/>
    </g>
    <g id="Group_9944" data-name="Group 9944" transform="translate(3889.379 112.66)">
      <path id="Path_3385" data-name="Path 3385" d="M3676.6,33.583H3563.826a1.008,1.008,0,1,1,0-2.016H3676.6a23.222,23.222,0,0,0,23.2-23.191V-76.071a1,1,0,0,1,1.007-1.008,1.008,1.008,0,0,1,1.009,1.008V8.376A25.238,25.238,0,0,1,3676.6,33.583Z" transform="translate(-3562.817 77.079)" fill="#1a1a1a"/>
    </g>
    <g id="Group_9945" data-name="Group 9945" transform="translate(3797.158 37.764)">
      <path id="Path_3386" data-name="Path 3386" d="M3764.568-65.058a1,1,0,0,1-1.008-1.008v-8.919a23.22,23.22,0,0,0-23.195-23.191h-180.8a23.217,23.217,0,0,0-23.192,23.191v8.3a1,1,0,0,1-1.007,1.008,1.009,1.009,0,0,1-1.009-1.008v-8.3a25.232,25.232,0,0,1,25.207-25.2h180.8a25.235,25.235,0,0,1,25.211,25.2v8.919A1.008,1.008,0,0,1,3764.568-65.058Z" transform="translate(-3534.362 100.189)" fill="#1a1a1a"/>
    </g>
    <g id="Group_9946" data-name="Group 9946" transform="translate(3456.28 182.092)">
      <path id="Path_3387" data-name="Path 3387" d="M3711.916,41.146H3454.39a25.241,25.241,0,0,1-25.211-25.211V-30.448a25.238,25.238,0,0,1,25.211-25.207h79.782a1.007,1.007,0,0,1,1.008,1.008,1.007,1.007,0,0,1-1.008,1.008H3454.39A23.222,23.222,0,0,0,3431.2-30.448V15.935a23.22,23.22,0,0,0,23.195,23.191h257.526a23.219,23.219,0,0,0,23.191-23.191V-30.448a23.221,23.221,0,0,0-23.191-23.191H3608.478a1.007,1.007,0,0,1-1.008-1.008,1.007,1.007,0,0,1,1.008-1.008h103.438a25.237,25.237,0,0,1,25.208,25.207V15.935A25.24,25.24,0,0,1,3711.916,41.146Z" transform="translate(-3429.179 55.655)" fill="#1a1a1a"/>
    </g>
    <g id="Group_9947" data-name="Group 9947" transform="translate(3623.746 -54.605)">
      <path id="Path_3388" data-name="Path 3388" d="M3483.282-85.456c-1.18-1.313-6.44-16.486,3.606-24.352,5.581-4.369,12.361-4.171,19.549-3.986,5.691.159,12.147.337,18.914-1.714a145.719,145.719,0,0,0,16-6.365c10.98-4.871,20.466-9.078,25.771-5.451,2.463,1.679,3.3,4.89,2.22,8.582-2.715,9.3-16.175,19.656-39.317,20.382a1.022,1.022,0,0,1-1.038-.975,1.01,1.01,0,0,1,.977-1.04c25.482-.8,35.632-12.733,37.441-18.93.835-2.852.314-5.169-1.42-6.355-4.366-2.978-13.816,1.2-23.82,5.629a145.737,145.737,0,0,1-16.23,6.456c-7.074,2.142-13.711,1.961-19.551,1.8-7.1-.191-13.239-.366-18.253,3.558-8.892,6.968-3.946,21.273-3.9,21.415a1.009,1.009,0,0,1-.612,1.29A1.011,1.011,0,0,1,3483.282-85.456Z" transform="translate(-3480.853 128.691)" fill="#1a1a1a"/>
    </g>
    <g id="Group_9948" data-name="Group 9948" transform="translate(3672.57 -42.661)">
      <path id="Path_3389" data-name="Path 3389" d="M3503.521-97.474q-3.27,0-6.672-.259a1,1,0,0,1-.927-1.082.952.952,0,0,1,1.079-.927c20.4,1.552,38.294-4.437,41.645-13.936.975-2.771.94-4.981-.107-6.556-1.67-2.508-5.383-2.755-5.422-2.755a1.012,1.012,0,0,1-.95-1.066,1.032,1.032,0,0,1,1.063-.95c.194.013,4.768.314,6.988,3.652,1.416,2.136,1.527,4.942.327,8.348C3537.229-103.612,3522.15-97.477,3503.521-97.474Z" transform="translate(-3495.918 125.005)" fill="#1a1a1a"/>
    </g>
    <g id="Group_9949" data-name="Group 9949" transform="translate(3648.23 -23.122)">
      <path id="Path_3390" data-name="Path 3390" d="M3489.418-97.528a1.009,1.009,0,0,1-1.008-.956,1.008,1.008,0,0,1,.953-1.06c17.838-.95,20.013-18.366,20.033-18.541a1.042,1.042,0,0,1,1.114-.891,1.012,1.012,0,0,1,.888,1.115c-.019.194-2.4,19.293-21.927,20.333Z" transform="translate(-3488.408 118.976)" fill="#1a1a1a"/>
    </g>
    <g id="Group_9950" data-name="Group 9950" transform="translate(3625.099 -25.818)">
      <path id="Path_3391" data-name="Path 3391" d="M3532.67-54.213a7.4,7.4,0,0,1-2.362-.392c-6.015-2.022-9.807-11.44-11.161-15.394-1.1-3.215-5.766-4.975-8.557-6.021a61.947,61.947,0,0,0-8.633-2.337c-1.754-.386-3.507-.771-5.248-1.241a18.694,18.694,0,0,1-12.341-10.176,33.522,33.522,0,0,1-3.031-16.651,1.049,1.049,0,0,1,1.067-.95,1.012,1.012,0,0,1,.949,1.066,31.469,31.469,0,0,0,2.826,15.647,16.514,16.514,0,0,0,11.061,9.116c1.708.467,3.429.843,5.143,1.219a64.862,64.862,0,0,1,8.919,2.414c3.117,1.176,8.345,3.147,9.751,7.263.982,2.862,4.589,12.348,9.9,14.137a5.993,5.993,0,0,0,5.466-1.011,9.517,9.517,0,0,0,4.047-7.658c.319-5.752-2.974-12.9-7.823-17a54.083,54.083,0,0,0-8.7-6.031,3.342,3.342,0,0,1-1.863-1.945,2.977,2.977,0,0,1,.19-1.834,6.5,6.5,0,0,1,4.259-3.886,16.922,16.922,0,0,1,4.139-.567,122.574,122.574,0,0,0,20.378-2.674c5.055-1.138,10.882-2.716,15.767-5.85,1.656-1.063,3.937-2.735,4.6-4.955,1.656-5.545-3.714-7.849-3.941-7.943a1.006,1.006,0,0,1-.544-1.319,1.018,1.018,0,0,1,1.316-.541c2.528,1.047,6.838,4.566,5.1,10.384-.859,2.862-3.516,4.839-5.444,6.073-5.151,3.3-11.187,4.949-16.415,6.119a124.887,124.887,0,0,1-20.528,2.716,15.588,15.588,0,0,0-3.837.486,4.462,4.462,0,0,0-2.975,2.69c3.591,2.8,6.978,5.146,9.8,7.535,5.3,4.479,8.883,12.325,8.533,18.658a11.378,11.378,0,0,1-4.933,9.223A8.707,8.707,0,0,1,3532.67-54.213Z" transform="translate(-3481.271 119.808)" fill="#1a1a1a"/>
    </g>
    <g id="Group_9951" data-name="Group 9951" transform="translate(3446.787 79.282)">
      <path id="Path_3392" data-name="Path 3392" d="M3473.972-28.641h-29.158A18.587,18.587,0,0,1,3426.25-47.2V-68.818a18.584,18.584,0,0,1,18.564-18.56h29.158a18.583,18.583,0,0,1,18.563,18.56V-47.2A18.586,18.586,0,0,1,3473.972-28.641Zm-29.158-56.721a16.563,16.563,0,0,0-16.548,16.545V-47.2a16.561,16.561,0,0,0,16.548,16.544h29.158A16.559,16.559,0,0,0,3490.517-47.2V-68.818a16.561,16.561,0,0,0-16.545-16.545Z" transform="translate(-3426.25 87.378)" fill="#1a1a1a"/>
    </g>
    <g id="Group_9952" data-name="Group 9952" transform="translate(3894.721 -98.63)">
      <path id="Path_3393" data-name="Path 3393" d="M3602.312-95.869h-29.288a8.567,8.567,0,0,1-8.558-8.559v-29.291a8.564,8.564,0,0,1,8.558-8.556h29.288a8.564,8.564,0,0,1,8.556,8.556v29.291A8.567,8.567,0,0,1,3602.312-95.869Zm-29.288-44.393a6.55,6.55,0,0,0-6.543,6.543v29.291a6.55,6.55,0,0,0,6.543,6.543h29.288a6.551,6.551,0,0,0,6.54-6.543v-29.291a6.552,6.552,0,0,0-6.54-6.543Z" transform="translate(-3564.466 142.275)" fill="#1a1a1a"/>
    </g>
    <g id="Group_9953" data-name="Group 9953" transform="translate(3811.403 -136.956)">
      <path id="Path_3394" data-name="Path 3394" d="M3640.78-114.88c-6.372-16.25-15.588-27.012-28.347-32.674-17.824-7.914-42.144-5.454-72.277,7.311a1.008,1.008,0,0,1-1.319-.535,1.016,1.016,0,0,1,.538-1.325c30.658-12.989,55.512-15.446,73.878-7.3,13.1,5.817,22.951,17.29,28.48,33.183a1,1,0,0,1-.619,1.283A1.015,1.015,0,0,1,3640.78-114.88Z" transform="translate(-3538.756 154.101)" fill="#1a1a1a"/>
    </g>
    <g id="Group_9954" data-name="Group 9954" transform="translate(3790.916 -131.103)">
      <path id="Path_3395" data-name="Path 3395" d="M3543.688-129.794a11.266,11.266,0,0,1-11.252-11.252,11.261,11.261,0,0,1,11.252-11.249,11.26,11.26,0,0,1,11.252,11.249A11.265,11.265,0,0,1,3543.688-129.794Zm0-20.489a9.249,9.249,0,0,0-9.237,9.236,9.249,9.249,0,0,0,9.237,9.236,9.247,9.247,0,0,0,9.237-9.236A9.247,9.247,0,0,0,3543.688-150.282Z" transform="translate(-3532.436 152.295)" fill="#1a1a1a"/>
    </g>
    <g id="Group_9955" data-name="Group 9955" transform="translate(3906.67 -86.717)">
      <path id="Path_3396" data-name="Path 3396" d="M3579.4-116.095a11.263,11.263,0,0,1-11.252-11.252A11.267,11.267,0,0,1,3579.4-138.6a11.269,11.269,0,0,1,11.252,11.252A11.265,11.265,0,0,1,3579.4-116.095Zm0-20.485a9.247,9.247,0,0,0-9.24,9.233,9.248,9.248,0,0,0,9.24,9.236,9.244,9.244,0,0,0,9.233-9.236A9.243,9.243,0,0,0,3579.4-136.58Z" transform="translate(-3568.153 138.599)" fill="#1a1a1a"/>
    </g>
    <g id="Group_9956" data-name="Group 9956" transform="translate(3921.381 -53.188)">
      <path id="Path_3397" data-name="Path 3397" d="M3625.286-88.97a58.7,58.7,0,0,1-24.053-4.706c-13.111-5.827-22.962-17.322-28.485-33.241a1.007,1.007,0,0,1,.619-1.283,1.017,1.017,0,0,1,1.284.619c5.413,15.6,14.63,26.39,27.4,32.062,17.833,7.921,42.153,5.471,72.3-7.3a1.006,1.006,0,0,1,1.32.538,1.01,1.01,0,0,1-.536,1.322C3656.265-92.976,3639.6-88.97,3625.286-88.97Z" transform="translate(-3572.691 128.253)" fill="#1a1a1a"/>
    </g>
    <g id="Group_9957" data-name="Group 9957" transform="translate(4022.422 -42.252)">
      <path id="Path_3398" data-name="Path 3398" d="M3615.119-102.378a11.263,11.263,0,0,1-11.25-11.252,11.262,11.262,0,0,1,11.25-11.249,11.262,11.262,0,0,1,11.251,11.249A11.263,11.263,0,0,1,3615.119-102.378Zm0-20.485a9.248,9.248,0,0,0-9.237,9.233,9.25,9.25,0,0,0,9.237,9.24,9.249,9.249,0,0,0,9.235-9.24A9.248,9.248,0,0,0,3615.119-122.863Z" transform="translate(-3603.869 124.879)" fill="#1a1a1a"/>
    </g>
    <g id="Group_9958" data-name="Group 9958" transform="translate(3551.337 216.72)">
      <path id="Path_3399" data-name="Path 3399" d="M3607.6-42.954H3459.519a1.007,1.007,0,0,1-1.009-1.008,1.007,1.007,0,0,1,1.009-1.008H3607.6a1.007,1.007,0,0,1,1.008,1.008A1.007,1.007,0,0,1,3607.6-42.954Z" transform="translate(-3458.51 44.97)" fill="#1a1a1a"/>
    </g>
    <g id="Group_9959" data-name="Group 9959" transform="translate(3551.337 241.681)">
      <path id="Path_3400" data-name="Path 3400" d="M3607.6-35.252H3459.519a1,1,0,0,1-1.009-1.008,1.009,1.009,0,0,1,1.009-1.008H3607.6a1.009,1.009,0,0,1,1.008,1.008A1,1,0,0,1,3607.6-35.252Z" transform="translate(-3458.51 37.268)" fill="#1a1a1a"/>
    </g>
    <g id="Group_9960" data-name="Group 9960" transform="translate(3483.591 213.233)">
      <path id="Path_3401" data-name="Path 3401" d="M3454.864-11.531a17.274,17.274,0,0,1-17.258-17.257,17.276,17.276,0,0,1,17.258-17.257,17.275,17.275,0,0,1,17.255,17.257A17.273,17.273,0,0,1,3454.864-11.531Zm0-32.5a15.258,15.258,0,0,0-15.242,15.238,15.26,15.26,0,0,0,15.242,15.242,15.262,15.262,0,0,0,15.242-15.242A15.259,15.259,0,0,0,3454.864-44.027Z" transform="translate(-3437.606 46.046)" fill="#1a1a1a"/>
    </g>
    <g id="Group_9961" data-name="Group 9961" transform="translate(3504.147 -114.983)">
      <path id="Path_3402" data-name="Path 3402" d="M3695.844-145.305h-250.89a1,1,0,0,1-1-1.008,1.006,1.006,0,0,1,1-1.008h250.89a1,1,0,0,1,1,1.008A1,1,0,0,1,3695.844-145.305Z" transform="translate(-3443.949 147.321)" fill="#1a1a1a"/>
    </g>
    <g id="Group_9962" data-name="Group 9962" transform="translate(3729.152 -147.852)">
      <path id="Path_3403" data-name="Path 3403" d="M3524.315-135.594a10.947,10.947,0,0,1-10.938-10.935,10.947,10.947,0,0,1,10.938-10.935,10.944,10.944,0,0,1,10.935,10.935A10.944,10.944,0,0,1,3524.315-135.594Zm0-19.85a8.929,8.929,0,0,0-8.922,8.916,8.929,8.929,0,0,0,8.922,8.919,8.927,8.927,0,0,0,8.919-8.919A8.926,8.926,0,0,0,3524.315-155.444Z" transform="translate(-3513.377 157.463)" fill="#1a1a1a"/>
    </g>
    <g id="Group_9964" data-name="Group 9964" transform="translate(3695.626 -147.852)">
      <path id="Path_3404" data-name="Path 3404" d="M3523.2-147.225a9.925,9.925,0,0,1-9.924,9.927,9.928,9.928,0,0,1-9.929-9.927,9.928,9.928,0,0,1,9.929-9.927A9.925,9.925,0,0,1,3523.2-147.225Z" transform="translate(-3502.338 158.16)" fill="#ffce26"/>
      <g id="Group_9963" data-name="Group 9963">
        <path id="Path_3405" data-name="Path 3405" d="M3513.967-135.594a10.944,10.944,0,0,1-10.934-10.935,10.944,10.944,0,0,1,10.934-10.935,10.945,10.945,0,0,1,10.932,10.935A10.945,10.945,0,0,1,3513.967-135.594Zm0-19.85a8.928,8.928,0,0,0-8.922,8.916,8.929,8.929,0,0,0,8.922,8.919,8.928,8.928,0,0,0,8.916-8.919A8.927,8.927,0,0,0,3513.967-155.444Z" transform="translate(-3503.032 157.463)" fill="#1a1a1a"/>
      </g>
    </g>
    <g id="Group_9965" data-name="Group 9965" transform="translate(3662.093 -147.852)">
      <path id="Path_3406" data-name="Path 3406" d="M3503.623-135.594a10.947,10.947,0,0,1-10.937-10.935,10.947,10.947,0,0,1,10.938-10.935,10.947,10.947,0,0,1,10.935,10.935A10.947,10.947,0,0,1,3503.623-135.594Zm0-19.85a8.927,8.927,0,0,0-8.922,8.916,8.928,8.928,0,0,0,8.922,8.919,8.929,8.929,0,0,0,8.919-8.919A8.928,8.928,0,0,0,3503.623-155.444Z" transform="translate(-3492.686 157.463)" fill="#1a1a1a"/>
    </g>
    <g id="Group_9966" data-name="Group 9966" transform="translate(3643.914 67.647)">
      <path id="Path_3407" data-name="Path 3407" d="M3487.963-63.515c-1.151-.94-1.008-1.562-.538-1.86.3-.188,30.263-18.9,64.975-25.573a1.006,1.006,0,0,1,1.18.8,1,1,0,0,1-.8,1.176c-34.344,6.608-63.985,25.117-64.283,25.3A.974.974,0,0,1,3487.963-63.515Z" transform="translate(-3487.076 90.968)" fill="#1a1a1a"/>
    </g>
    <g id="Group_9967" data-name="Group 9967" transform="translate(3645.416 -30.171)">
      <path id="Path_3408" data-name="Path 3408" d="M3632.211,32.2h-10.5a1.008,1.008,0,0,1,0-2.016h10.5a1.008,1.008,0,1,1,0,2.016Zm-21,0h-10.5a1.008,1.008,0,1,1,0-2.016h10.5a1.008,1.008,0,1,1,0,2.016Zm-21,0h-10.5a1.008,1.008,0,0,1,0-2.016h10.5a1.008,1.008,0,1,1,0,2.016Zm-21,0h-10.5a1.008,1.008,0,0,1,0-2.016h10.5a1.008,1.008,0,0,1,0,2.016Zm-21,0h-10.5a1.008,1.008,0,0,1,0-2.016h10.5a1.008,1.008,0,0,1,0,2.016Zm-21,0h-10.5a1.008,1.008,0,1,1,0-2.016h10.5a1.008,1.008,0,0,1,0,2.016Zm-21,0h-10.5a1.008,1.008,0,0,1,0-2.016h10.5a1.008,1.008,0,1,1,0,2.016Zm-17.672-3.325a1.007,1.007,0,0,1-1.008-1.008v-10.5a1.008,1.008,0,1,1,2.016,0v10.5A1.007,1.007,0,0,1,3488.548,28.874Zm0-21a1.007,1.007,0,0,1-1.008-1.008v-10.5a1,1,0,0,1,1.008-1.008,1,1,0,0,1,1.008,1.008v10.5A1.007,1.007,0,0,1,3488.548,7.873Zm0-21a1.007,1.007,0,0,1-1.008-1.008v-10.5a1.007,1.007,0,0,1,1.008-1.008,1.007,1.007,0,0,1,1.008,1.008v10.5A1.007,1.007,0,0,1,3488.548-13.124Zm0-21a1.007,1.007,0,0,1-1.008-1.008v-10.5a1.007,1.007,0,0,1,1.008-1.008,1.007,1.007,0,0,1,1.008,1.008v10.5A1.007,1.007,0,0,1,3488.548-34.125Zm193.714-17.264a1.008,1.008,0,0,1-1.007-1.008V-62.9a1.008,1.008,0,0,1,1.007-1.008,1,1,0,0,1,1.009,1.008v10.5A1,1,0,0,1,3682.262-51.389Zm-193.714-3.733a1.007,1.007,0,0,1-1.008-1.008v-10.5a1.007,1.007,0,0,1,1.008-1.008,1.007,1.007,0,0,1,1.008,1.008v10.5A1.007,1.007,0,0,1,3488.548-55.122Zm193.714-17.267a1.006,1.006,0,0,1-1.007-1.008v-10.5a1.008,1.008,0,0,1,1.007-1.008,1,1,0,0,1,1.009,1.008v10.5A1,1,0,0,1,3682.262-72.389Zm-193.714-3.73a1.007,1.007,0,0,1-1.008-1.008v-10.5a1.007,1.007,0,0,1,1.008-1.008,1.007,1.007,0,0,1,1.008,1.008v10.5A1.007,1.007,0,0,1,3488.548-76.12Zm193.714-17.267a1.008,1.008,0,0,1-1.007-1.008v-10.5a1.008,1.008,0,0,1,1.007-1.008,1,1,0,0,1,1.009,1.008v10.5A1,1,0,0,1,3682.262-93.387ZM3488.548-97.12a1.007,1.007,0,0,1-1.008-1.008v-10.5a1.006,1.006,0,0,1,1.008-1,1.006,1.006,0,0,1,1.008,1v10.5A1.007,1.007,0,0,1,3488.548-97.12Zm193.714-17.264a1.008,1.008,0,0,1-1.007-1.008v-3.743h-4.741a1,1,0,0,1-1-1.008,1,1,0,0,1,1-1.008h5.748a1,1,0,0,1,1.009,1.008v4.751A1,1,0,0,1,3682.262-114.384Zm-193.714-3.733a1.007,1.007,0,0,1-1.008-1.008c0-1.578.451-2.026,1.008-2.026h9.482a1,1,0,0,1,1.007,1.008,1.006,1.006,0,0,1-1.007,1.008l-8.475.01A1.007,1.007,0,0,1,3488.548-118.118Zm177.465-1.018h-10.5a1.008,1.008,0,0,1-1.007-1.008,1.006,1.006,0,0,1,1.007-1.008h10.5a1,1,0,0,1,1.011,1.008A1.007,1.007,0,0,1,3666.013-119.135Zm-20.993,0h-10.5a1,1,0,0,1-1.008-1.008,1,1,0,0,1,1.008-1.008h10.5a1,1,0,0,1,1.007,1.008A1.006,1.006,0,0,1,3645.02-119.135Zm-21,0h-10.5a1.007,1.007,0,0,1-1.009-1.008,1,1,0,0,1,1.009-1.008h10.5a1.006,1.006,0,0,1,1.007,1.008A1.008,1.008,0,0,1,3624.021-119.135Zm-21,0h-10.5a1.009,1.009,0,0,1-1.008-1.008,1.007,1.007,0,0,1,1.008-1.008h10.5a1,1,0,0,1,1,1.008A1,1,0,0,1,3603.021-119.135Zm-21,0h-10.5a1.006,1.006,0,0,1-1.007-1.008,1,1,0,0,1,1.007-1.008h10.5a1,1,0,0,1,1.006,1.008A1.006,1.006,0,0,1,3582.024-119.135Zm-21,0h-10.5a1,1,0,0,1-1.008-1.008,1,1,0,0,1,1.008-1.008h10.5a1.007,1.007,0,0,1,1.008,1.008A1.009,1.009,0,0,1,3561.026-119.135Zm-21,0h-10.5a1.006,1.006,0,0,1-1-1.008,1,1,0,0,1,1-1.008h10.5a1,1,0,0,1,1,1.008A1,1,0,0,1,3540.025-119.135Zm-21,0h-10.5a1.008,1.008,0,0,1-1.007-1.008,1.006,1.006,0,0,1,1.007-1.008h10.5a1,1,0,0,1,1.008,1.008A1,1,0,0,1,3519.024-119.135Z" transform="translate(-3487.54 121.151)" fill="#1a1a1a"/>
    </g>
    <g id="Group_9968" data-name="Group 9968" transform="translate(3714.117 -16.518)">
      <path id="Path_3409" data-name="Path 3409" d="M3568.16-92.032a95.37,95.37,0,0,0-47.151-23.4c-1.07,3.02-5.1,13.66-10.575,18.752a1.011,1.011,0,0,1-1.426-.052,1.01,1.01,0,0,1,.051-1.426c5.908-5.49,10.267-18.573,10.309-18.7,1.332-.658,27.427,2.463,49.478,23.081a1.016,1.016,0,0,1,.049,1.429A1.019,1.019,0,0,1,3568.16-92.032Z" transform="translate(-3508.739 116.938)" fill="#1a1a1a"/>
    </g>
    <g id="Group_9969" data-name="Group 9969" transform="translate(3734.031 2.748)">
      <path id="Path_3410" data-name="Path 3410" d="M3524.419-82.018a11.91,11.91,0,0,1-8.7-3.983,3.159,3.159,0,0,1-.685-3.076,23.6,23.6,0,0,1,2.065-3.886c2.265-3.756,5.37-8.9,6.069-17.105a.958.958,0,0,1,1.093-.92,1.01,1.01,0,0,1,.917,1.1c-.739,8.666-4.115,14.266-6.351,17.97a22.837,22.837,0,0,0-1.9,3.523,9.026,9.026,0,0,0,7.944,4.349.945.945,0,0,1,1.068.94,1,1,0,0,1-.936,1.069C3524.809-82.025,3524.614-82.018,3524.419-82.018Z" transform="translate(-3514.883 110.994)" fill="#1a1a1a"/>
    </g>
    <g id="Group_9970" data-name="Group 9970" transform="translate(3743.321 96.362)">
      <path id="Path_3411" data-name="Path 3411" d="M3518.757-6.35a1.006,1.006,0,0,1-1.007-1.008V-81.1a1.008,1.008,0,0,1,1.007-1.008,1,1,0,0,1,1.009,1.008V-7.358A1,1,0,0,1,3518.757-6.35Z" transform="translate(-3517.749 82.108)" fill="#1a1a1a"/>
    </g>
    <g id="Group_9971" data-name="Group 9971" transform="translate(3615.962 -20.782)">
      <path id="Path_3412" data-name="Path 3412" d="M3493.644-88.843c-12.1-8.86-17.477-18.382-14.291-24.462,1.494-2.845,3.8-4.317,7.733-4.933a1,1,0,0,1,1.15.843,1.019,1.019,0,0,1-.843,1.154c-3.264.506-5.078,1.63-6.258,3.873-2.657,5.078,2.612,13.806,13.115,21.71a1.008,1.008,0,0,1,.2,1.413A1,1,0,0,1,3493.644-88.843Z" transform="translate(-3478.451 118.254)" fill="#1a1a1a"/>
    </g>
    <g id="Group_9972" data-name="Group 9972" transform="translate(3639.183 12.426)">
      <path id="Path_3413" data-name="Path 3413" d="M3508.947-97.95c-6.592-.872-13.539-3.289-21.366-7.4-.486-.253-.966-.509-1.442-.775a1.009,1.009,0,0,1-.4-1.368,1.01,1.01,0,0,1,1.37-.4c.464.253.93.506,1.4.749,7.62,4,14.351,6.342,20.573,7.175a1.01,1.01,0,0,1,.866,1.138A1.01,1.01,0,0,1,3508.947-97.95Z" transform="translate(-3485.617 108.007)" fill="#1a1a1a"/>
    </g>
    <g id="Group_9973" data-name="Group 9973" transform="translate(3670.73 -2.2)">
      <path id="Path_3414" data-name="Path 3414" d="M3504.911-94.935a1.035,1.035,0,0,1-1-1.118c.45-4.038-2.479-9.269-8.244-14.726a1.013,1.013,0,0,1-.036-1.426,1.008,1.008,0,0,1,1.426-.039c6.233,5.9,9.379,11.732,8.864,16.412A1.013,1.013,0,0,1,3504.911-94.935Z" transform="translate(-3495.35 112.52)" fill="#1a1a1a"/>
    </g>
    <g id="Group_9974" data-name="Group 9974" transform="translate(3752.509 27.824)">
      <path id="Path_3415" data-name="Path 3415" d="M3521.943-91.621c-1.2-1.753-2.981-10.283,1.682-11.46a3.934,3.934,0,0,1,3.934.833c1.714,1.679,1.7,4.949,1.173,7.234a1,1,0,0,1-1.211.752,1,1,0,0,1-.753-1.209c.444-1.915.376-4.365-.622-5.334-.165-.169-.671-.671-2.029-.318-2.178.548-1.744,5.814-1.19,8.274a1.013,1.013,0,0,1-.761,1.206A1.09,1.09,0,0,1,3521.943-91.621Z" transform="translate(-3520.585 103.256)" fill="#1a1a1a"/>
    </g>
    <g id="Group_9975" data-name="Group 9975" transform="translate(3563.688 -102.493)">
      <path id="Path_3416" data-name="Path 3416" d="M3463.327-46.715a1,1,0,0,1-1-1v-94.74a1.006,1.006,0,0,1,1-1.008,1,1,0,0,1,1.007,1.008v94.74A1,1,0,0,1,3463.327-46.715Z" transform="translate(-3462.322 143.467)" fill="#1a1a1a"/>
    </g>
    <g id="Group_9976" data-name="Group 9976" transform="translate(3753.739 9)">
      <path id="Path_3417" data-name="Path 3417" d="M3529.187-100.135c-.24-.032-8.212-1.993-8.212-1.993-.331-1.808,6.79-6.76,6.79-6.76a1.023,1.023,0,0,1,1.407.25,1.015,1.015,0,0,1-.254,1.407l-5.292,3.682,5.8,1.429a1,1,0,0,1,.736,1.219A1.009,1.009,0,0,1,3529.187-100.135Z" transform="translate(-3520.964 109.064)" fill="#1a1a1a"/>
    </g>
  </g>
</svg>
