<svg xmlns="http://www.w3.org/2000/svg" width="699.169" height="463.316" viewBox="0 0 699.169 463.316">
  <g id="Group_9909" data-name="Group 9909" transform="translate(-3435.492 -94.715)">
    <path id="Path_3198" data-name="Path 3198" d="M3708.906,186.883h-55.492L3628.2,202.834V143.851a14.091,14.091,0,0,1,14.092-14.092h66.612A14.094,14.094,0,0,1,3723,143.851V172.79A14.094,14.094,0,0,1,3708.906,186.883Z" transform="translate(403.236 73.329)" fill="#fff"/>
    <g id="Group_9908" data-name="Group 9908" transform="translate(3435.492 94.715)">
      <path id="Path_3199" data-name="Path 3199" d="M3665.272,221.825s7.221,8.6,16.445,10.1,20.311,3.027,21.848,7.985l-.352,2.155h-63.9a7.266,7.266,0,0,1-4.884-4.911C3632.98,232.961,3662.7,217.459,3665.272,221.825Z" transform="translate(-3019.323 169.652)" fill="#fff"/>
      <g id="Group_9907" data-name="Group 9907">
        <path id="Path_3200" data-name="Path 3200" d="M3600.847,152.652s3.112,7.654,3.058,10.329-.176,23.3-.176,23.3,1.5,12.441,9.812,12.676c0,0,1.949.368,2.053,1.395s.934,4.806-2.17,6.565-5.579,9.568-5.579,9.568l-6.355,44.3-1.281,46.408-6.676,31.178,66.466.64,13.957-29.051-13.029-96.345a11.83,11.83,0,0,1-6.859-4.175c-3.16-3.711-6-2.459-6.479-12.036s-.887-15.663-.887-15.663-.349-2.233,3.466-1.092,10.663-3.5,10.758-10.013-6.859-10.734-6.859-10.734L3644,143.248l-16.432-9.373S3599.827,142.855,3600.847,152.652Z" transform="translate(-3104.799 -12.773)" fill="#fff"/>
        <g id="Group_9906" data-name="Group 9906">
          <rect id="Rectangle_183" data-name="Rectangle 183" width="179.334" height="118.397" rx="30" transform="translate(251.922 42.306)" fill="#fe0054"/>
          <rect id="Rectangle_184" data-name="Rectangle 184" width="227.003" height="170.26" rx="10.28" transform="translate(57.389 165.812)" fill="#fff"/>
          <path id="Path_3201" data-name="Path 3201" d="M3548.256,183.071a17.9,17.9,0,1,1-17.9-17.9A17.9,17.9,0,0,1,3548.256,183.071Z" transform="translate(-3274.438 52.714)" fill="#fff"/>
          <path id="Path_3202" data-name="Path 3202" d="M3652.055,197.1c-14.877-2.418-20.265,1.311-27.34,3.429s-14.832,5.449-26.016,7.181-18.756-3.151-38.613-15.286-22.692-14.34-32.463-14.34-23.639,9.141-35.617,15.917c-11.587,6.556-29.668,16.8-30.829,17.457v28.284a33.016,33.016,0,0,0,32.917,32.916h161.172a33.014,33.014,0,0,0,32.916-32.916V204.3C3674.6,201.424,3659.375,198.291,3652.055,197.1Z" transform="translate(-3381.747 79.74)" fill="#fff"/>
          <path id="Path_3203" data-name="Path 3203" d="M3617.509,202.683s-36.184,2.2-58.879,11.451-42.831,13.594-59.343,28.123-18.8,27.35-20.177,35.545,1.213,22.182,18.975,26.088c17.689,3.89,27.517,4.354,46.446,3.3s38.439-2.483,38.439-2.483,2.347-16.767.454-27.01l39.865,2.817,50.979,1.7s8.281,22.745,14.744,22.689,39.909-.764,39.909-.764l41.253-39.719L3748.753,237.5s-15.935-11.736-49.182-22.173-49.872-11.853-49.872-11.853Z" transform="translate(-3344.885 131.204)" fill="#781bfb"/>
          <path id="Path_3204" data-name="Path 3204" d="M3590.883,251.952s-13.687,2.322-19.931-6.278l-1.843,3.139-7.437,13.848a7.129,7.129,0,0,1-7.459,2.446c-4.642-1.342-2.072-8.959-2.072-8.959l2.406-7.335-7.162,8.984s-4.577,6.479-8.953,4.06.638-9.834.638-9.834-6.956,4.128-9.64,2.2.211-9.021,2.379-11.711,10.711-14.176,15.449-16.625,20.026-1.017,23.085-.705,18.65,1.97,18.65,1.97S3593.508,247.749,3590.883,251.952Z" transform="translate(-3241.194 176.824)" fill="#fff"/>
          <path id="Path_3205" data-name="Path 3205" d="M3559.414,243.69s-2.492-12.243-5.86-15.246a29.758,29.758,0,0,0-6.6-4.487l5.883,17.21-12.568-7.583-5.786-12.466s-6.927.071-11.358.6-11.724,4.057-11.724,4.057,3.717,11.4,4.079,16.161.337,13.4.337,13.4,10.249,3.3,13.928,4.107,13.821,2.972,17.21,1.055c0,0,6.135-.634,8.446-2.069a8.369,8.369,0,0,0,3.652-4.017s1.354.334,2.693-2.449C3563.286,248.774,3559.414,243.69,3559.414,243.69Z" transform="translate(-3276.649 169.778)" fill="#fff"/>
          <path id="Path_3206" data-name="Path 3206" d="M3579.879,180.071c-4.094-2.084-8.834-4.042-14.64-2.96s-11.086,5.232-11.086,5.232-4.8-3.822-13.628-2.8-12.24,6.587-12.973,10.146c-.7,3.414-1.887,11.866.092,18.391a10.32,10.32,0,0,0-4.734,7.855c.059,1.917-.012,9.447,9.2,10.65l-.551,1.877-8.625,28.376s5.65,25.488,20.781,27.161c12.132,1.342,13.431-14.562,13.431-14.562l5.554-16.365s7.651.81,10.332-6.3,8.242-29.36,8.242-29.36,9.135-4.945,10.468-15.536S3583.979,182.158,3579.879,180.071Z" transform="translate(-3252.577 77.052)" fill="#fff"/>
          <path id="Path_3207" data-name="Path 3207" d="M3654.237,239.661l-24.167-15.5-57.949-.186s-5.7-1.194-9.168-5.322-3.272-10.595-3.272-10.595l0-30.043s1.685-4.942,4.7-7.14,6.216-3.992,10.038-3.992h67.647a22.216,22.216,0,0,1,9.213,5.938c3.554,4.193,2.959,13.647,2.959,13.647Z" transform="translate(-3175.643 56.294)" fill="none" stroke="#1a1a1a" stroke-miterlimit="10" stroke-width="0.5"/>
          <path id="Path_3208" data-name="Path 3208" d="M3577.758,119.893c-3.191-5.464-8.42-5.464-11.608,0L3541.618,161.9c-3.192,5.467-.622,9.942,5.708,9.942h49.284c6.331,0,8.9-4.472,5.7-9.939Z" transform="translate(-3216.301 -50.605)" fill="#fff"/>
          <path id="Path_3209" data-name="Path 3209" d="M3527.155,242.689l-8.891-21.664,8.028-3.264,12.563,30.432Z" transform="translate(-3262.296 162.753)" fill="#ffce26"/>
          <path id="Path_3210" data-name="Path 3210" d="M3526.889,219.829l-1.436-3.383-7.722,2.95,1.54,3.526Z" transform="translate(-3263.413 160.001)" fill="#fff"/>
          <path id="Path_3211" data-name="Path 3211" d="M3566.329,325.919l-5.824-7.434a21.233,21.233,0,0,1-.649-8.532c.63-4.62,34.35-99.444,34.35-99.444s4.419-9.336,14.613-11.312h143.093l4.131.894,7.425,4.769.95,1.818L3616.488,205l-9.526,3.637-6.042,6.5-34.654,99.231-.208,5.464Z" transform="translate(-3175.631 123.91)" fill="#fff"/>
          <path id="Path_3212" data-name="Path 3212" d="M3527.62,197.87s6.073,12.787,22.649,18.7l1.976-7.583S3530.524,205.824,3527.62,197.87Z" transform="translate(-3242.718 121.133)" fill="#ccc"/>
          <path id="Path_3213" data-name="Path 3213" d="M3531.533,194.077s3.275,2.477,3.174,5.582a11.179,11.179,0,0,1-1.912,5.582,9.324,9.324,0,0,0,6.618,2.329,3.656,3.656,0,0,0,3.291-5.2c-.745-.971-4.253-.368-5.23-1.719s-.769-2.4-.98-4.19S3535.189,191.8,3531.533,194.077Z" transform="translate(-3234.531 111.434)" fill="#1a1a1a"/>
          <path id="Path_3214" data-name="Path 3214" d="M3537.54,184.867s8.086,4.212,17.151,1.865a5.474,5.474,0,0,1,5.662,1.423s-4.23,10.657-8.879,11.881c-.812-.532,1.235-9.846,1.235-9.846S3540.119,189.8,3537.54,184.867Z" transform="translate(-3221.962 93.925)" fill="#ccc"/>
          <path id="Path_3215" data-name="Path 3215" d="M3524.161,184.867s15.746,7.536,26.323,1.549c0,0-3.627,4.818-6.692,6.033l.2,4.342s-3.563.312-3.792,1.908c0,0-1.122-7.474-6.4-8.343a15.633,15.633,0,0,0-8.774.847Z" transform="translate(-3249.957 93.925)" fill="#ccc"/>
          <path id="Path_3216" data-name="Path 3216" d="M3604.8,178.176l.992,11.136-7.942,15.447V241.68l3.971-1.095.377-6.723s6.464-2.656,9.108-2.462l5.548-20.2-1.593-20.376,7.348-10.858-8.839-14.785Z" transform="translate(-3095.755 52.735)" fill="#ffce26"/>
          <path id="Path_3217" data-name="Path 3217" d="M3656.4,175.174s4.954-11.1,4.212-19.21-7.258-15.193-24.371-12.756c0,0-5.518-17.216-24.041-14.955s-16.392,20.611-13.242,25.9c0,0-11.269,3.627,2.144,17.942l.85-10.465s18.206,4.107,28.841-7.948c0,0,1.534,19.21,9.881,22.383C3640.673,176.062,3647.024,169.014,3656.4,175.174Z" transform="translate(-3102.713 -24.966)" fill="#ffce26"/>
          <path id="Path_3218" data-name="Path 3218" d="M3664.241,159.049v38.139l1.166-1.617s-2.23,10.146-3.276,31.16,0,27.783,0,27.783-11.68,7.159-9.361,27.773l-1.457.919h-58.094s-13.455,3.467-15.66,13.393a27.627,27.627,0,0,1-10.335-24.112c1.2-16.075,15.217-38.136,20.734-51.533S3612.4,160.969,3664.241,159.049Z" transform="translate(-3160.031 39.902)" fill="#fff"/>
          <path id="Path_3219" data-name="Path 3219" d="M3639.663,159.607l-20.2,41.983-2.83-3.358s-12.219,33.442-14.429,44.834c0,0,35.126-2.1,35.126,3.439v35.272l24.545.26,5.148.47,9.139,7.357s11.386,4.939,11.368,14.813-20.3,65.974-20.3,65.974h13.5l1.327-26.168,15.075,22.807s14.111-2.394,22.585-7.456,15.366-9.945,15.366-9.945-11.678-43.656-13.889-51.922-20.651-82.766-21.6-86.938-5.764-21.041-11.813-28.1S3664.618,160.256,3639.663,159.607Z" transform="translate(-3086.652 41.07)" fill="#fff"/>
          <path id="Path_3220" data-name="Path 3220" d="M3599.261,187.707a56.52,56.52,0,0,0,22.894,3.671,91.541,91.541,0,0,0,21.341-3.671v35.272l-17.41.26s2.687-3.547,2.136-7.567-3.151-5.2-3.151-5.2a10.742,10.742,0,0,0,.473-7.567c-1.339-3.937-6.943-3.479-6.943-3.479s-14.413,1.237-18.511-.006C3599.261,198.493,3599.261,187.707,3599.261,187.707Z" transform="translate(-3092.813 99.868)" fill="#fe0054"/>
          <path id="Path_3221" data-name="Path 3221" d="M3617.633,154.652s-8.637,8.263-15.256,8.789l-1.71-3.213.105-4.5Z" transform="translate(-3089.871 30.702)" fill="#ccc"/>
          <path id="Path_3222" data-name="Path 3222" d="M3582.595,334.739h136.791a20.845,20.845,0,0,0,19.851-13.715l32.442-93.7c4.488-12.948-5.591-26.3-19.847-26.3h-136.8a20.854,20.854,0,0,0-19.847,13.715l-32.444,93.692C3558.26,321.386,3568.335,334.739,3582.595,334.739Z" transform="translate(-3171.478 127.741)" fill="#ffce26"/>
          <path id="Path_3223" data-name="Path 3223" d="M3598.164,228.736c-4.166,7.215-3.7,15.289,1.052,18.032s11.98-.887,16.149-8.105,3.7-15.292-1.058-18.032S3602.33,221.518,3598.164,228.736Z" transform="translate(-3101.052 166.843)" fill="#fff"/>
          <path id="Path_3224" data-name="Path 3224" d="M3606.043,153c-9.128-4.827-5.85-18.808-.51-24.285-11.22,5.35-9.281,19.507-6.575,24.044,0,0-11.269,3.627,2.144,17.942l.85-10.465s18.206,4.107,28.844-7.948C3630.8,152.287,3617.95,159.3,3606.043,153Z" transform="translate(-3102.713 -23.574)" fill="#fff"/>
          <path id="Path_3225" data-name="Path 3225" d="M3619.288,156.276c-8.337-1.76-12.862-20.027-12.862-20.027-.018,4.979,2.085,19.888,9.352,22.652a11.7,11.7,0,0,1,3.834-2.542C3619.505,156.331,3619.406,156.3,3619.288,156.276Z" transform="translate(-3077.819 -7.806)" fill="#fff"/>
          <path id="Path_3226" data-name="Path 3226" d="M3616.561,169.772l-7.62,8.4,1.295,12.648-12.381,27.7,1.188-15.048L3605.8,190.1l-1.688-12.188,9.667-12.732Z" transform="translate(-3095.755 52.736)" fill="#fff"/>
          <g id="Group_9813" data-name="Group 9813" transform="translate(615.315 392.865)">
            <g id="Group_9809" data-name="Group 9809" transform="translate(30.572)">
              <path id="Path_3227" data-name="Path 3227" d="M3683.114,241.266c-.968-4.874-5.773-6.683-5.819-6.7a29.244,29.244,0,0,0-9.168-1.948c-15.3-1.274-23.438-10.4-23.776-10.783,1.33-1,9.315,7.911,23.914,9.123a30.878,30.878,0,0,1,9.633,2.063c.2.068,5.877,2.186,6.046,7.388A11.411,11.411,0,0,1,3683.114,241.266Z" transform="translate(-3644.351 -221.755)"/>
            </g>
            <g id="Group_9810" data-name="Group 9810" transform="translate(41.173 6.962)">
              <path id="Path_3228" data-name="Path 3228" d="M3667.279,236.416c-.646-1.351.779-3.269.181-4.932-.415-1.141-1.723-1.982-3.894-2.5-7.706-1.837-15.707-4.487-15.787-4.512.607-1.549,8.539,1.076,16.174,2.895,2.755.652,4.465,1.852,5.074,3.563.9,2.514-1,5.05-1.087,5.155A.823.823,0,0,1,3667.279,236.416Z" transform="translate(-3647.779 -224.006)" fill="#1a1a1a"/>
            </g>
            <g id="Group_9811" data-name="Group 9811" transform="translate(18.284 10.665)">
              <path id="Path_3229" data-name="Path 3229" d="M3650.244,234.226c-10.478-2.165-9.884-8.037-9.85-8.288a.781.781,0,0,1,.928-.724c.705,1.113.38,5.554,9.092,7.366C3650.977,233.957,3650.631,234.226,3650.244,234.226Z" transform="translate(-3640.378 -225.203)" fill="#1a1a1a"/>
            </g>
            <g id="Group_9812" data-name="Group 9812" transform="translate(0 14.891)">
              <path id="Path_3230" data-name="Path 3230" d="M3637.932,231.19a11.7,11.7,0,0,1-3.466-4.53c1.581-.52,2.236,1.314,4.051,3.111C3638.362,231.11,3638.148,231.19,3637.932,231.19Z" transform="translate(-3634.465 -226.57)" fill="#1a1a1a"/>
            </g>
          </g>
          <g id="Group_9814" data-name="Group 9814" transform="translate(133.687 333.232)">
            <path id="Path_3231" data-name="Path 3231" d="M3533.206,309.071c-21.6,0-42.88-2.755-50.259-13.282-4.292-6.114-5.371-15.1-2.972-24.65,4.045-16.1,17.008-30.714,35.579-40.075A291.017,291.017,0,0,1,3549.8,216.6c10.329-3.637,22.575-7.706,35.134-10.289a225.2,225.2,0,0,1,30.342-3.844c-10.2,2.44-18.975,3.219-30.008,5.474-12.459,2.561-24.644,6.609-34.911,10.227a289.432,289.432,0,0,0-34.057,14.38c-18.135,9.144-30.789,23.357-34.716,38.99-2.282,9.082-1.292,17.577,2.722,23.3,12.132,17.315,67.31,12.3,90.865,10.165,3.136-.281,5.809-.523,7.889-.677-1.951,1.809-4.617,2.05-7.74,2.335C3564.495,307.645,3548.764,309.071,3533.206,309.071Z" transform="translate(-3478.723 -202.471)" fill="#1a1a1a"/>
          </g>
          <g id="Group_9815" data-name="Group 9815" transform="translate(308.101 336.494)">
            <path id="Path_3232" data-name="Path 3232" d="M3633,238.127a113.653,113.653,0,0,0-10.249-6.544c-17.744-10.01-38.052-16.5-55.584-21.527-7.988-2.295-20.008-5.461-32.043-6.442,12.32-.665,24.446,2.527,32.508,4.843,17.621,5.056,38.043,11.581,55.933,21.678a80.38,80.38,0,0,1,9.939,6.5C3633.5,238.013,3633.252,238.127,3633,238.127Z" transform="translate(-3535.122 -203.526)" fill="#1a1a1a"/>
          </g>
          <g id="Group_9816" data-name="Group 9816" transform="translate(344.756 434.512)">
            <path id="Path_3233" data-name="Path 3233" d="M3559.422,237.646c-4.452,0-8.665-.071-12.447-.213,11.049-1.243,25.7-1.453,39.227-2.211C3577.371,237.39,3567.96,237.646,3559.422,237.646Z" transform="translate(-3546.975 -235.222)" fill="#1a1a1a"/>
          </g>
          <g id="Group_9820" data-name="Group 9820" transform="translate(253.08 375.106)">
            <g id="Group_9817" data-name="Group 9817" transform="translate(1.67 4.122)">
              <path id="Path_3234" data-name="Path 3234" d="M3539.681,249.893c-.77-.52-13.023-30.693-13.023-30.693l-6.933,2.814,8.306,20.45c-1.543.622-10.162-20.6-10.162-20.6.461-1.082,8.931-4.524,8.931-4.524,1.085.464,13.654,31.4,13.654,31.4C3539.891,249.875,3539.783,249.893,3539.681,249.893Z" transform="translate(-3517.87 -217.345)" fill="#1a1a1a"/>
            </g>
            <g id="Group_9818" data-name="Group 9818">
              <path id="Path_3235" data-name="Path 3235" d="M3519.776,225.184c-.77-.519-2.446-4.651-2.446-4.651.458-1.085,8.931-4.521,8.931-4.521,1.083.458,2.755,4.592,2.755,4.592-1.542.618-2.9-2.74-2.9-2.74l-6.93,2.814,1.367,3.365C3519.986,225.169,3519.882,225.184,3519.776,225.184Z" transform="translate(-3517.33 -216.012)" fill="#1a1a1a"/>
            </g>
            <g id="Group_9819" data-name="Group 9819" transform="translate(20.592 49.887)">
              <path id="Path_3236" data-name="Path 3236" d="M3532.573,245.111c-.571-.226-8.584-7.8-8.584-7.8,1.147-1.212,7.83,5.112,7.83,5.112l.43-10.276c1.661.062,1.156,12.169,1.156,12.169C3532.79,245.089,3532.682,245.111,3532.573,245.111Z" transform="translate(-3523.989 -232.144)" fill="#1a1a1a"/>
            </g>
          </g>
          <g id="Group_9825" data-name="Group 9825" transform="translate(285.815 400.158)">
            <g id="Group_9821" data-name="Group 9821" transform="translate(23.267 14.953)">
              <path id="Path_3237" data-name="Path 3237" d="M3541.617,257.13a5.961,5.961,0,0,1-2.6-.609,6.416,6.416,0,0,1-2.737-2.344,6.1,6.1,0,0,1-.824-3.634,14,14,0,0,1,1.143-4.277c.579-1.45,1.256-2.987,2.146-4.846,1.967-4.091,4.24-8.285,6.753-12.472-1.063,5-3.308,9.147-5.254,13.189-.872,1.818-1.543,3.327-2.1,4.744a12.475,12.475,0,0,0-1.03,3.763,4.518,4.518,0,0,0,.579,2.66,4.753,4.753,0,0,0,2.05,1.716c1.874.909,3.891.405,5.489-1.379a19.5,19.5,0,0,0,2.3-3.5c.213-.39.432-.776.652-1.15.931-1.6,1.8-3.222,2.669-4.843.8-1.5,1.115-2.1,1.425-2.7a49.652,49.652,0,0,1,4.453-7.431,23.006,23.006,0,0,1-2.972,8.2c-.322.606-.64,1.212-.956,1.806-1.367,2.548-2.242,4.187-3.186,5.8a27.378,27.378,0,0,1-3.145,4.917A6.524,6.524,0,0,1,3541.617,257.13Z" transform="translate(-3535.439 -228.948)" fill="#1a1a1a"/>
            </g>
            <g id="Group_9822" data-name="Group 9822" transform="translate(8.5 12.052)">
              <path id="Path_3238" data-name="Path 3238" d="M3536.135,256.108a5.489,5.489,0,0,1-1.664-.266,5.635,5.635,0,0,1-3.766-4.051c-.906-6.958,13.461-23.094,14.074-23.781-2.79,5.61-13.094,18.412-12.423,23.564a4.031,4.031,0,0,0,2.641,2.684c1.639.557,3.414-.1,5.127-1.859,6.67-6.865,15.274-21.341,15.36-21.483,1.077,1.447-7.353,15.635-14.169,22.64A7.2,7.2,0,0,1,3536.135,256.108Z" transform="translate(-3530.664 -228.01)" fill="#1a1a1a"/>
            </g>
            <g id="Group_9823" data-name="Group 9823">
              <path id="Path_3239" data-name="Path 3239" d="M3532.984,256.665a5.805,5.805,0,0,1-3.959-1.624c-4.134-3.754,4.546-13.613,5.549-14.72,3.107-4.45,11.12-15.079,16.989-15.951,8.684-1.274,37.24,2.588,38.452,2.749-.521,1.608-29.75-2.372-38.208-1.1-3.631.535-9.587,6.265-15.936,15.329-3.419,3.807-7.929,10.456-5.73,12.456a4.193,4.193,0,0,0,3.245,1.175c3.253-.315,6.225-4.246,6.259-4.283,1.194,1.178-2.106,5.545-6.1,5.934A5.033,5.033,0,0,1,3532.984,256.665Z" transform="translate(-3527.915 -224.113)" fill="#1a1a1a"/>
            </g>
            <g id="Group_9824" data-name="Group 9824" transform="translate(43.312 23.501)">
              <path id="Path_3240" data-name="Path 3240" d="M3558.435,238.416c-10.733,0-16.254-6.309-16.514-6.609,1.333-1.008,7.849,6.389,20.339,4.667A3.9,3.9,0,0,1,3558.435,238.416Z" transform="translate(-3541.921 -231.712)" fill="#1a1a1a"/>
            </g>
          </g>
          <g id="Group_9826" data-name="Group 9826" transform="translate(251.123 429.35)">
            <path id="Path_3241" data-name="Path 3241" d="M3547.188,260.937c-.557-.213-30.491-27.343-30.491-27.343,1.112-1.231,30.781,25.649,30.781,25.649l72.672-6.442L3590.146,236.1c.809-1.457,33.179,16.563,33.179,16.563-.325,1.562-76.059,8.279-76.059,8.279Z" transform="translate(-3516.698 -233.553)" fill="#1a1a1a"/>
          </g>
          <g id="Group_9827" data-name="Group 9827" transform="translate(340.448 389.493)">
            <path id="Path_3242" data-name="Path 3242" d="M3579.983,223.521c-14.856,0-33.226-1.113-34.4-1.184.541-1.636,43.915.993,51.52-1.673C3594.895,223.2,3587.94,223.521,3579.983,223.521Z" transform="translate(-3545.583 -220.664)" fill="#1a1a1a"/>
          </g>
          <g id="Group_9828" data-name="Group 9828" transform="translate(255.459 400.755)">
            <path id="Path_3243" data-name="Path 3243" d="M3542.118,248.956c-4.222,0-11.876-1.927-24.019-11.352,15.4,9.856,23.1,10.023,25.729,9.549a4.791,4.791,0,0,0,3.38-1.945c1.967-3.089-2.421-6.649-3.074-7.153-1.685-.665-18.926-7.58-23.715-13.749,5.965,4.976,24.244,12.169,24.432,12.237.449.3,6.705,4.936,3.761,9.556a6.381,6.381,0,0,1-4.5,2.7A11.916,11.916,0,0,1,3542.118,248.956Z" transform="translate(-3518.099 -224.306)" fill="#1a1a1a"/>
          </g>
          <g id="Group_9829" data-name="Group 9829" transform="translate(249.441 422.336)">
            <path id="Path_3244" data-name="Path 3244" d="M3539.384,239.311c-10.087,0-22.628-7.539-23.231-7.9,1.036-1.317,17.447,8.551,27.118,5.743a8.4,8.4,0,0,0,5.463-4.549c.127,3.473-2.053,5.294-5.006,6.148A15.79,15.79,0,0,1,3539.384,239.311Z" transform="translate(-3516.153 -231.285)" fill="#1a1a1a"/>
          </g>
          <g id="Group_9830" data-name="Group 9830" transform="translate(269.053 393.697)">
            <path id="Path_3245" data-name="Path 3245" d="M3536.429,243.848c-.837-.785-2.375-10.016-5-14.371-2.576-4.264-8.866-7.076-8.931-7.1.949-1.4,7.509,1.528,10.353,6.244,2.8,4.623,4.336,13.876,4.4,14.265C3536.52,243.848,3536.472,243.848,3536.429,243.848Z" transform="translate(-3522.495 -222.024)" fill="#1a1a1a"/>
          </g>
          <g id="Group_9831" data-name="Group 9831" transform="translate(234.305 389.769)">
            <path id="Path_3246" data-name="Path 3246" d="M3511.259,226.545c-.033-1.661,2.218-1.84,6.735-3.7,8.387-3.451,17.4-1.614,17.782-1.525-.433,1.611-9.253-.182-17.147,3.068a26.2,26.2,0,0,1-7.318,2.155Z" transform="translate(-3511.259 -220.753)" fill="#1a1a1a"/>
          </g>
          <g id="Group_9832" data-name="Group 9832" transform="translate(238.775 425.064)">
            <path id="Path_3247" data-name="Path 3247" d="M3538.661,239.221c-6.617,0-14.413-2.882-17.624-4.067a80,80,0,0,0-8.333-2.121c.526-1.593,5.337-.646,7.7.121,5.573,2.05,18.873,6.961,24.659,2.783C3544.1,238.7,3541.488,239.221,3538.661,239.221Z" transform="translate(-3512.704 -232.167)" fill="#1a1a1a"/>
          </g>
          <g id="Group_9833" data-name="Group 9833" transform="translate(170.892 390.668)">
            <path id="Path_3248" data-name="Path 3248" d="M3490.753,227.08c44.441-4.323,60.139-6.015,60.293-6.03a.768.768,0,0,1,.916.73c-.891.937-16.61,2.635-61.163,5.3Z" transform="translate(-3490.753 -221.044)" fill="#1a1a1a"/>
          </g>
          <g id="Group_9834" data-name="Group 9834" transform="translate(230.629 392.006)">
            <path id="Path_3249" data-name="Path 3249" d="M3517.526,266.216a.856.856,0,0,1-.83-.934c3.792-30.343-6.524-43.659-6.626-43.792,1.74-.489,12.165,12.88,8.281,44A.835.835,0,0,1,3517.526,266.216Z" transform="translate(-3510.071 -221.477)" fill="#1a1a1a"/>
          </g>
          <g id="Group_9835" data-name="Group 9835" transform="translate(335.532 389.489)">
            <path id="Path_3250" data-name="Path 3250" d="M3552.9,267.919c-2.192,0-4.416-1.874-6.325-5.328l-1.731-3.027c1.448-.826,3.183,2.211,3.183,2.211,1.666,3.037,3.5,4.682,5.125,4.469,3.29-.4,6-8.931,4.639-20.552a77.156,77.156,0,0,0-3.674-16.3c-1.683-4.592-3.523-7.19-5.06-7.054-1.265.152-3.444,5.192-4.761,11.018-1.176-2.353,1.237-12.283,4.571-12.67,2.452-.275,4.727,2.446,6.809,8.136a77.168,77.168,0,0,1,3.763,16.678c1.41,11.99-1.266,21.82-6.1,22.4A4.137,4.137,0,0,1,3552.9,267.919Z" transform="translate(-3543.993 -220.663)" fill="#1a1a1a"/>
          </g>
          <g id="Group_9836" data-name="Group 9836" transform="translate(285.097 415.933)">
            <path id="Path_3251" data-name="Path 3251" d="M3534.99,230.878h-7.307c0-1.664,7.307-1.664,7.307-1.664C3535.823,230.507,3535.451,230.878,3534.99,230.878Z" transform="translate(-3527.683 -229.214)" fill="#1a1a1a"/>
          </g>
          <g id="Group_9837" data-name="Group 9837" transform="translate(272.971 436.226)">
            <path id="Path_3252" data-name="Path 3252" d="M3523.762,238.272c-.046-1.661,14.173-2.5,14.173-2.5.1,1.661-14.125,2.5-14.125,2.5Z" transform="translate(-3523.762 -235.776)" fill="#1a1a1a"/>
          </g>
          <g id="Group_9838" data-name="Group 9838" transform="translate(320.474 439.21)">
            <path id="Path_3253" data-name="Path 3253" d="M3539.124,238.541c-.016-1.661,7.136-1.79,7.136-1.79a.771.771,0,0,1,.847.816c-.816.844-7.969.974-7.969.974Z" transform="translate(-3539.124 -236.741)" fill="#1a1a1a"/>
          </g>
          <g id="Group_9839" data-name="Group 9839" transform="translate(284.484 445.175)">
            <path id="Path_3254" data-name="Path 3254" d="M3527.485,241.487c-.065-1.661,14.456-2.817,14.456-2.817.13,1.661-14.4,2.817-14.4,2.817Z" transform="translate(-3527.485 -238.67)" fill="#1a1a1a"/>
          </g>
          <g id="Group_9844" data-name="Group 9844" transform="translate(595.356 107.841)">
            <g id="Group_9840" data-name="Group 9840">
              <path id="Path_3255" data-name="Path 3255" d="M3628.844,204.025c-.832-.832-.832-29.545-.832-29.545V145.154a15.587,15.587,0,0,1,15.571-15.567h65.081a15.586,15.586,0,0,1,15.565,15.567V148.7c-1.658,0-1.658-3.544-1.658-3.544a13.923,13.923,0,0,0-13.907-13.907h-65.081a13.921,13.921,0,0,0-13.907,13.907v27.8c0,.5.031,1,.077,1.491-.077.455-.077,27.229-.077,27.229l22.881-14.68c.451-.127,56.106-.127,56.106-.127a13.929,13.929,0,0,0,13.907-13.913V161.306c1.658,0,1.658,11.646,1.658,11.646a15.587,15.587,0,0,1-15.565,15.574h-55.417L3629.295,203.9A.891.891,0,0,1,3628.844,204.025Z" transform="translate(-3628.011 -129.587)" fill="#1a1a1a"/>
            </g>
            <g id="Group_9841" data-name="Group 9841" transform="translate(61.716 20.756)">
              <path id="Path_3256" data-name="Path 3256" d="M3663.149,137.96h-15.18c0-1.661,15.18-1.661,15.18-1.661C3663.981,137.592,3663.613,137.96,3663.149,137.96Z" transform="translate(-3647.968 -136.299)" fill="#1a1a1a"/>
            </g>
            <g id="Group_9842" data-name="Group 9842" transform="translate(18.901 20.756)">
              <path id="Path_3257" data-name="Path 3257" d="M3658.658,137.96h-24.535c0-1.661,24.535-1.661,24.535-1.661C3659.487,137.592,3659.12,137.96,3658.658,137.96Z" transform="translate(-3634.124 -136.299)" fill="#1a1a1a"/>
            </g>
            <g id="Group_9843" data-name="Group 9843" transform="translate(18.901 36.389)">
              <path id="Path_3258" data-name="Path 3258" d="M3692.119,143.015h-58c0-1.661,58-1.661,58-1.661C3692.951,142.647,3692.583,143.015,3692.119,143.015Z" transform="translate(-3634.124 -141.354)" fill="#1a1a1a"/>
            </g>
          </g>
          <path id="Path_3259" data-name="Path 3259" d="M3535.736,188.441c.67.068,1.026.455.6,2.817-.477,2.632-1.265,2.913-1.84,2.737s-.943-1.126-.426-2.963S3534.859,188.352,3535.736,188.441Z" transform="translate(-3229.734 101.391)" fill="#1a1a1a"/>
          <path id="Path_3260" data-name="Path 3260" d="M3541.225,189.941c.668.074,1.023.47.572,2.826-.5,2.629-1.293,2.9-1.865,2.718s-.931-1.135-.4-2.966S3540.35,189.845,3541.225,189.941Z" transform="translate(-3218.332 104.527)" fill="#1a1a1a"/>
          <g id="Group_9845" data-name="Group 9845" transform="translate(269.486 303.396)">
            <path id="Path_3261" data-name="Path 3261" d="M3546.911,251.307c-13.813,0-22.145-13.891-24.276-27.687.028-.368,9.281-30.8,9.281-30.8,1.583.479-7.608,30.727-7.608,30.727,1.562,9.791,8.04,26.1,22.594,26.1,7.375-.037,10.183-14.714,10.211-14.859l5.375-15.512c1.574.544-3.766,15.935-3.766,15.935-.093.544-3.074,16.062-11.727,16.1Z" transform="translate(-3522.635 -192.823)" fill="#1a1a1a"/>
          </g>
          <g id="Group_9846" data-name="Group 9846" transform="translate(269.482 282.756)">
            <path id="Path_3262" data-name="Path 3262" d="M3564.086,234.339a30.347,30.347,0,0,1-7.679-1.364c-.593-.158-1.178-.312-1.762-.458a50.545,50.545,0,0,1-10.311-3.668c-2.754-1.382-5.881-2.941-7.131-6.34-1.268-3.439-.736-7.369-.136-10.4a38.567,38.567,0,0,1,1.547-5.672c1.462-3.853,3.593-9.605,4-10.725a9.21,9.21,0,1,0-5.429,9.747c-3.99,3.566-9.358,2.134-12.4-1.939a10.873,10.873,0,1,1,19.5-7.815c-.039.393-2.494,7.035-4.118,11.309a36.906,36.906,0,0,0-1.478,5.412c-.557,2.826-1.057,6.454.068,9.5,1.023,2.78,3.708,4.128,6.312,5.43a48.809,48.809,0,0,0,9.976,3.541c.587.145,1.182.306,1.784.467,4.673,1.256,9.519,2.545,13.3-.971,3.565-3.309,4.861-8.479,6.116-13.483.276-1.113.551-2.208.844-3.253.927-3.327,5.938-25.992,5.986-26.218,1.42,1.293-3.44,23.292-4.39,26.669-.288,1.027-.557,2.106-.833,3.2-1.253,4.994-2.665,10.66-6.59,14.3A10.069,10.069,0,0,1,3564.086,234.339Z" transform="translate(-3522.634 -186.149)" fill="#1a1a1a"/>
          </g>
          <g id="Group_9847" data-name="Group 9847" transform="translate(321.634 287.253)">
            <path id="Path_3263" data-name="Path 3263" d="M3546.565,193.074c-.848-.813-1.559-3.81-6.092-3.81a.868.868,0,0,1-.974-.82.9.9,0,0,1,.974-.841c5.956,0,6.9,4.438,6.9,4.481C3546.673,193.067,3546.617,193.074,3546.565,193.074Z" transform="translate(-3539.498 -187.603)" fill="#1a1a1a"/>
          </g>
          <g id="Group_9848" data-name="Group 9848" transform="translate(301.99 283.062)">
            <path id="Path_3264" data-name="Path 3264" d="M3533.146,189.65c5.629-6.312,9.933-1.917,9.98-1.874-1.342,1.017-4.531-2.177-9.467,1.7A.837.837,0,0,1,3533.146,189.65Z" transform="translate(-3533.146 -186.248)" fill="#1a1a1a"/>
          </g>
          <g id="Group_9849" data-name="Group 9849" transform="translate(273.36 252.969)">
            <path id="Path_3265" data-name="Path 3265" d="M3578.993,219.253c-.38-1.583,8.727-7.951,9.936-17.256.659-5.109-1.156-10.205-5.408-15.147-4.589-5.338-9.722-8.241-15.258-8.628-8.724-.646-15.534,5.285-15.6,5.35-1.367-.235-7.647-5.7-19.582-1.073-11.775,4.546-6.584,25.627-6.528,25.841-1.843-.52-7.221-22.321,5.929-27.393,11.021-4.261,17.7-.451,19.618.931,1.849-1.45,8.226-5.851,16.282-5.316,6,.417,11.517,3.516,16.408,9.206,4.571,5.316,6.519,10.851,5.788,16.449-1.307,10.054-10.714,16.616-11.11,16.891A.85.85,0,0,1,3578.993,219.253Z" transform="translate(-3523.889 -176.517)" fill="#1a1a1a"/>
          </g>
          <g id="Group_9851" data-name="Group 9851" transform="translate(294.748 303.46)">
            <g id="Group_9850" data-name="Group 9850">
              <path id="Path_3266" data-name="Path 3266" d="M3540.184,209.219a9.444,9.444,0,0,1-7.3-3.479,9.665,9.665,0,0,1-1.782-8.433c.485-2.06,1.515-3.6,2.74-4.132a3.2,3.2,0,0,1,3.26.244,4.707,4.707,0,0,1,1.728,4.193c-.15,2.245.016,2.443.375,2.879s.519.625,2.754.894a4.684,4.684,0,0,1,3.807,2.459,3.235,3.235,0,0,1-.346,3.25,6.131,6.131,0,0,1-4.747,2.115C3540.508,209.212,3540.347,209.219,3540.184,209.219Zm-4.874-14.7a3.853,3.853,0,0,0-2.6,3.176,8.047,8.047,0,0,0,1.444,6.992,7.764,7.764,0,0,0,6.426,2.864,4.611,4.611,0,0,0,3.45-1.385,1.591,1.591,0,0,0,.221-1.624,3.1,3.1,0,0,0-2.494-1.5c-2.523-.3-3.113-.6-3.84-1.487-.686-.823-.928-1.392-.757-4.045a3.093,3.093,0,0,0-1.018-2.721A1.407,1.407,0,0,0,3535.31,194.514Z" transform="translate(-3530.804 -192.844)" fill="#1a1a1a"/>
            </g>
          </g>
          <g id="Group_9852" data-name="Group 9852" transform="translate(296.421 306.117)">
            <path id="Path_3267" data-name="Path 3267" d="M3533.191,205.089c3.717-6.027-1.614-11.17-1.845-11.386a6.659,6.659,0,0,1,2.448,11.124A.807.807,0,0,1,3533.191,205.089Z" transform="translate(-3531.345 -193.703)" fill="#1a1a1a"/>
          </g>
          <g id="Group_9853" data-name="Group 9853" transform="translate(276.008 287.681)">
            <path id="Path_3268" data-name="Path 3268" d="M3524.747,198.823c-.177-1.645,7.2-3.266,7.2-3.266l-4.574-7.759c1.438-.844,6.588,7.9,6.588,7.9-.542,1.24-9.039,3.114-9.039,3.114A1.144,1.144,0,0,1,3524.747,198.823Z" transform="translate(-3524.744 -187.741)" fill="#1a1a1a"/>
          </g>
          <g id="Group_9854" data-name="Group 9854" transform="translate(300.812 259.937)">
            <path id="Path_3269" data-name="Path 3269" d="M3536.269,185.209c-.754-.479-3.5-6.38-3.5-6.38,1.51-.708,4.259,5.192,4.259,5.192C3536.5,185.187,3536.386,185.209,3536.269,185.209Z" transform="translate(-3532.765 -178.77)" fill="#1a1a1a"/>
          </g>
          <g id="Group_9855" data-name="Group 9855" transform="translate(292.983 269.632)">
            <path id="Path_3270" data-name="Path 3270" d="M3544.233,219.24c-2.156-2.582-6.315-4.076-9.358-5.171a24.214,24.214,0,0,1-3.012-1.212c-2.424-1.317-1.559-10.477-1.073-14.349a33.283,33.283,0,0,0,12.453-16.6c1.614-.006,8.7,13.681,26.181,13.681a25.936,25.936,0,0,1-25.17-11.516,32.313,32.313,0,0,1-11.863,15.026c-.723,6.08-.61,11.779.264,12.3a24.92,24.92,0,0,0,2.782,1.1c3.263,1.169,7.728,2.774,9.488,5.449C3544.545,219.2,3544.384,219.24,3544.233,219.24Z" transform="translate(-3530.234 -181.905)" fill="#1a1a1a"/>
          </g>
          <g id="Group_9856" data-name="Group 9856" transform="translate(317.081 309.851)">
            <path id="Path_3271" data-name="Path 3271" d="M3545.089,198.573a10.136,10.136,0,0,0-6.222-2.344.8.8,0,0,1-.842-.823c1.048-.829,5.19-.85,7.663,1.76C3545.5,198.5,3545.294,198.573,3545.089,198.573Z" transform="translate(-3538.026 -194.911)" fill="#1a1a1a"/>
          </g>
          <g id="Group_9857" data-name="Group 9857" transform="translate(383.22 322.275)">
            <path id="Path_3272" data-name="Path 3272" d="M3572.1,333.691c-.643-.3-11.523-13.616-11.523-13.616a19.738,19.738,0,0,1-.065-13.18l32.447-93.689a21.654,21.654,0,0,1,20.639-14.278H3750.39a22.859,22.859,0,0,1,6.992,1.086c.229.121,12.732,9.129,12.732,9.129-.975,1.351-13.372-7.583-13.372-7.583a21.021,21.021,0,0,0-6.352-.971H3613.6a19.984,19.984,0,0,0-19.065,13.161l-32.443,93.692a18.221,18.221,0,0,0-.13,11.7l10.784,13.2C3572.469,333.632,3572.287,333.691,3572.1,333.691Z" transform="translate(-3559.413 -198.928)" fill="#1a1a1a"/>
          </g>
          <g id="Group_9858" data-name="Group 9858" transform="translate(389.357 327.937)">
            <path id="Path_3273" data-name="Path 3273" d="M3719.951,336.137H3583.157a22,22,0,0,1-17.964-9.1,19.975,19.975,0,0,1-2.672-18.314l32.442-93.692a21.654,21.654,0,0,1,20.636-14.272h136.792a22.023,22.023,0,0,1,17.964,9.1,19.964,19.964,0,0,1,2.675,18.307l-32.442,93.692A21.662,21.662,0,0,1,3719.951,336.137ZM3615.6,202.423a19.986,19.986,0,0,0-19.061,13.155l-32.443,93.692a18.312,18.312,0,0,0,2.455,16.8,20.337,20.337,0,0,0,16.607,8.4h136.794a19.981,19.981,0,0,0,19.059-13.161l32.442-93.692a18.314,18.314,0,0,0-2.448-16.8,20.356,20.356,0,0,0-16.613-8.4Z" transform="translate(-3561.398 -200.759)" fill="#1a1a1a"/>
          </g>
          <g id="Group_9859" data-name="Group 9859" transform="translate(580.586 410.892)">
            <path id="Path_3274" data-name="Path 3274" d="M3741.323,229.245H3623.235c0-1.661,118.088-1.661,118.088-1.661C3742.155,228.877,3741.784,229.245,3741.323,229.245Z" transform="translate(-3623.235 -227.584)" fill="#1a1a1a"/>
          </g>
          <g id="Group_9860" data-name="Group 9860" transform="translate(0 410.892)">
            <path id="Path_3275" data-name="Path 3275" d="M3569.723,229.245H3435.492c0-1.661,134.231-1.661,134.231-1.661C3570.552,228.877,3570.18,229.245,3569.723,229.245Z" transform="translate(-3435.492 -227.584)" fill="#1a1a1a"/>
          </g>
          <g id="Group_9861" data-name="Group 9861" transform="translate(282.409 410.892)">
            <path id="Path_3276" data-name="Path 3276" d="M3541.385,229.245h-14.571c0-1.661,14.571-1.661,14.571-1.661C3542.218,228.877,3541.846,229.245,3541.385,229.245Z" transform="translate(-3526.814 -227.584)" fill="#1a1a1a"/>
          </g>
          <g id="Group_9863" data-name="Group 9863" transform="translate(0 301.429)">
            <g id="Group_9862" data-name="Group 9862">
              <circle id="Ellipse_22" data-name="Ellipse 22" cx="3.623" cy="3.623" r="3.623" transform="translate(0.19 0.186)" fill="#1a1a1a"/>
              <path id="Path_3277" data-name="Path 3277" d="M3448.408,199.8A3.808,3.808,0,1,0,3444.6,196,3.807,3.807,0,0,0,3448.408,199.8Z" transform="translate(-3416.438 -192.187)" fill="#1a1a1a"/>
              <path id="Path_3278" data-name="Path 3278" d="M3457.326,199.337a3.53,3.53,0,1,0-3.533-3.528A3.526,3.526,0,0,0,3457.326,199.337Z" transform="translate(-3397.196 -191.999)" fill="#1a1a1a"/>
              <path id="Path_3279" data-name="Path 3279" d="M3439.305,208.912a3.81,3.81,0,1,0-3.813-3.813A3.812,3.812,0,0,0,3439.305,208.912Z" transform="translate(-3435.492 -173.135)" fill="#1a1a1a"/>
              <path id="Path_3280" data-name="Path 3280" d="M3448.535,209.225a4,4,0,1,0-4-4A4,4,0,0,0,3448.535,209.225Z" transform="translate(-3416.566 -173.263)" fill="#1a1a1a"/>
              <path id="Path_3281" data-name="Path 3281" d="M3457.454,208.756a3.717,3.717,0,1,0-3.721-3.72A3.716,3.716,0,0,0,3457.454,208.756Z" transform="translate(-3397.323 -173.072)" fill="#1a1a1a"/>
              <path id="Path_3282" data-name="Path 3282" d="M3439.115,217.548a3.53,3.53,0,1,0-3.531-3.528A3.529,3.529,0,0,0,3439.115,217.548Z" transform="translate(-3435.302 -153.893)" fill="#1a1a1a"/>
              <path id="Path_3283" data-name="Path 3283" d="M3448.345,217.861a3.717,3.717,0,1,0-3.717-3.714A3.716,3.716,0,0,0,3448.345,217.861Z" transform="translate(-3416.375 -154.021)" fill="#1a1a1a"/>
              <path id="Path_3284" data-name="Path 3284" d="M3457.285,217.441a3.467,3.467,0,1,0-3.47-3.464A3.461,3.461,0,0,0,3457.285,217.441Z" transform="translate(-3397.154 -153.851)" fill="#1a1a1a"/>
            </g>
          </g>
          <g id="Group_9864" data-name="Group 9864" transform="translate(436.1)">
            <path id="Path_3285" data-name="Path 3285" d="M3774.841,193.764a.848.848,0,0,1-.832-.881c0-.015.067-1.061.067-2.925,0-.557-.006-1.184-.021-1.874,1.676.668,1.682,1.308,1.682,1.874,0,1.939-.064,3.021-.064,3.021A.834.834,0,0,1,3774.841,193.764Zm-.588-14.445a91.2,91.2,0,0,1-2.239-10.156c2.239,2.836,2.718,6.046,3.061,9.234C3774.313,179.319,3774.279,179.319,3774.254,179.319Zm-3.63-18.805c-1.67-3.686-2.678-6.72-3.8-9.617,2.691,2.353,3.718,5.43,4.6,8.563C3770.775,160.5,3770.7,160.514,3770.624,160.514Zm-194.018-13.168c-.578-1.444,1.566-4.292,5.684-8.665a65.876,65.876,0,0,1-5.019,8.334A.817.817,0,0,1,3576.606,147.346Zm187.106-4.673c-2.172-3.281-3.766-6.033-5.49-8.653,3.146,1.753,4.768,4.571,6.228,7.447C3763.968,142.649,3763.842,142.674,3763.712,142.674ZM3589.7,133.338a22.558,22.558,0,0,1,6.7-7.768c-1.4,3.29-3.816,5.4-6.13,7.549A.845.845,0,0,1,3589.7,133.338Zm163.516-6.618c-2.654-2.7-4.85-5-7.156-7.144,3.488.965,5.731,3.318,7.793,5.777C3753.6,126.658,3753.405,126.72,3753.219,126.72Zm-148.689-5.508c2.143-3.4,4.839-5.2,7.518-6.871-1.772,3.065-4.431,4.846-7.029,6.714A.826.826,0,0,1,3604.531,121.212Zm134.695-7.468c-3.012-1.976-5.7-3.674-8.479-5.2,3.64.1,6.383,1.837,8.969,3.7C3739.739,113.629,3739.482,113.744,3739.225,113.744Zm-118.447-2.656c2.48-3.092,5.4-4.512,8.266-5.789-2.161,2.777-5.034,4.181-7.873,5.693A.837.837,0,0,1,3620.779,111.087Zm101.76-6.581c-3.16-1.234-6.162-2.3-9.252-3.222,3.618-.652,6.673.43,9.568,1.624C3723.176,104.315,3722.863,104.507,3722.538,104.507Zm-84.272-1.178c2.774-2.706,5.866-3.683,8.919-4.5-2.573,2.418-5.622,3.377-8.64,4.453A.883.883,0,0,1,3638.266,103.328Zm66-4.342c-3.268-.671-6.419-1.212-9.549-1.63,3.4-1.228,6.586-.674,9.721-.015C3704.992,98.718,3704.648,98.987,3704.262,98.987Zm-47.543-.674c2.968-2.236,6.178-2.709,9.376-3.046a.8.8,0,0,1,.912.742,76.194,76.194,0,0,1-10.133,2.292A1.433,1.433,0,0,1,3656.719,98.313Zm28.58-1.855c-3.15-.176-6.432-.223-9.55-.155,3.149-1.735,6.451-1.679,9.6-1.506C3686.1,96.114,3685.736,96.457,3685.3,96.457Z" transform="translate(-3576.513 -94.715)" fill="#1a1a1a"/>
          </g>
          <g id="Group_9868" data-name="Group 9868" transform="translate(78.598 181.309)">
            <g id="Group_9866" data-name="Group 9866" transform="translate(151.431 29.728)">
              <g id="Group_9865" data-name="Group 9865">
                <path id="Path_3286" data-name="Path 3286" d="M3528.616,200.416a18.729,18.729,0,1,1,18.725-18.731A18.757,18.757,0,0,1,3528.616,200.416Zm0-35.8a17.069,17.069,0,1,0,17.064,17.067A17.1,17.1,0,0,0,3528.616,164.618Z" transform="translate(-3509.876 -162.957)" fill="#1a1a1a"/>
              </g>
            </g>
            <g id="Group_9867" data-name="Group 9867">
              <path id="Path_3287" data-name="Path 3287" d="M3544.8,325.269h-49.968a33.967,33.967,0,0,1-33.927-33.93V187.274a33.967,33.967,0,0,1,33.927-33.93h51.175c0,1.661-51.175,1.661-51.175,1.661a32.3,32.3,0,0,0-32.266,32.27V291.338a32.3,32.3,0,0,0,32.266,32.27H3544.8C3545.635,324.9,3545.264,325.269,3544.8,325.269Zm143.941-111.387c-.833-.832-.833-26.607-.833-26.607A32.3,32.3,0,0,0,3655.649,155h-55.844c0-1.661,55.844-1.661,55.844-1.661a33.965,33.965,0,0,1,33.924,33.93V213.05A.827.827,0,0,1,3688.745,213.882Z" transform="translate(-3460.908 -153.344)" fill="#1a1a1a"/>
            </g>
          </g>
          <g id="Group_9869" data-name="Group 9869" transform="translate(313.661 291.224)">
            <path id="Path_3288" data-name="Path 3288" d="M3536.92,208.833c3.581-3.062,3.355-3.739,2.418-6.6-.157-.479-.328-.983-.486-1.546-1.208-4.172.755-11.485.834-11.8,1.587.51-.311,7.617.758,11.334.159.538.325,1.036.469,1.491,1.061,3.232,1.414,5.149-3.7,7.069A.859.859,0,0,1,3536.92,208.833Z" transform="translate(-3536.92 -188.887)" fill="#1a1a1a"/>
          </g>
          <g id="Group_9870" data-name="Group 9870" transform="translate(490.309 379.524)">
            <path id="Path_3289" data-name="Path 3289" d="M3602.246,247.061a7.769,7.769,0,0,1-3.915-1.011c-5.133-2.966-5.749-11.566-1.358-19.173a20.448,20.448,0,0,1,8.2-8.111c3.324-1.661,6.534-1.763,9.082-.291s4.07,4.311,4.287,8.006a20.475,20.475,0,0,1-2.929,11.164C3612.241,243.483,3606.875,247.061,3602.246,247.061Zm-3.837-19.346c-3.921,6.807-3.585,14.383.757,16.9,4.336,2.5,11.08-1,15.011-7.8a18.772,18.772,0,0,0,2.7-10.233c-.183-3.117-1.41-5.48-3.454-6.664-2.038-1.169-4.707-1.067-7.5.343A18.737,18.737,0,0,0,3598.409,227.715Z" transform="translate(-3594.042 -217.441)" fill="#1a1a1a"/>
          </g>
          <g id="Group_9871" data-name="Group 9871" transform="translate(114.369 71.047)">
            <path id="Path_3290" data-name="Path 3290" d="M3475.218,230.7c-.844-.792-1.655-4.342-2.218-10.221a69.709,69.709,0,0,1,3.028,9.2C3475.342,230.693,3475.281,230.7,3475.218,230.7Zm-1.9-19.031a3.54,3.54,0,0,1-.842-2.217c0-2.762.1-5.535.3-8.241,1.465,2.786,1.367,5.517,1.367,8.241l.009,1.379C3473.323,211.669,3473.323,211.669,3473.317,211.669Zm1.394-19.077a.852.852,0,0,1-.819-.965c.526-3.2,1.2-6.383,2.01-9.444.807,3.436.146,6.562-.371,9.713A.824.824,0,0,1,3474.711,192.591Zm4.933-18.465a25.356,25.356,0,0,1,3.182-9.945c.04,3.51-1.261,6.417-2.406,9.407A.844.844,0,0,1,3479.644,174.126Zm8.842-16.937a22.205,22.205,0,0,1,5.244-8.934c-.825,3.464-2.78,5.978-4.561,8.575A.816.816,0,0,1,3488.485,157.189Zm12.614-14.33a7.068,7.068,0,0,1,2.953-4.416q2.008-1.6,4.042-3.055c-.359,2.307-1.685,3.309-3,4.357q-1.781,1.424-3.439,2.907A.818.818,0,0,1,3501.1,142.858Zm15.5-11.167c2.369-3.167,5.264-4.645,8.18-5.947-2.187,2.8-5.022,4.249-7.761,5.835A.837.837,0,0,1,3516.6,131.692Zm83.234-5.854c-2.187-.764-5.288-1.843-9.34-2.919a19.494,19.494,0,0,1,9.636,1.314C3600.488,125.637,3600.172,125.838,3599.835,125.838Zm-65.789-1.942c2.8-2.619,5.931-3.457,9.076-4.128-2.734,2.285-5.823,3.114-8.82,4.088A.813.813,0,0,1,3534.046,123.9Zm47.3-2.993c-3.246-.547-6.419-.952-9.561-1.209,3.33-1.395,6.55-.986,9.7-.442C3582.1,120.621,3581.747,120.9,3581.35,120.9Zm-28.611-1c3.108-2,6.346-2.193,9.544-2.217-3.129,1.688-6.311,1.874-9.45,2.211A.523.523,0,0,1,3552.739,119.906Z" transform="translate(-3472.475 -117.689)" fill="#1a1a1a"/>
          </g>
          <g id="Group_9872" data-name="Group 9872" transform="translate(251.092 41.477)">
            <path id="Path_3291" data-name="Path 3291" d="M3663.888,228.182H3549.532a32.876,32.876,0,0,1-32.845-32.845V140.972a32.876,32.876,0,0,1,32.845-32.845h115.305a32.878,32.878,0,0,1,32.845,32.845v54.365a31.885,31.885,0,0,1-19.42,29.57c10.7-6.488,17.759-17.234,17.759-29.57V140.972a31.223,31.223,0,0,0-31.184-31.184H3549.532a31.221,31.221,0,0,0-31.184,31.184v54.365a31.221,31.221,0,0,0,31.184,31.184h114.355C3664.719,227.814,3664.349,228.182,3663.888,228.182Z" transform="translate(-3516.688 -108.127)" fill="#1a1a1a"/>
          </g>
          <g id="Group_9873" data-name="Group 9873" transform="translate(309.391 72.176)">
            <path id="Path_3292" data-name="Path 3292" d="M3592.063,175.1h-48.693c-3.334,0-5.842-1.172-7.063-3.3s-.974-4.886.708-7.768l24.239-41.507c1.676-2.876,3.97-4.465,6.447-4.465s4.774,1.59,6.458,4.465l24.257,41.513c1.686,2.87,1.936,5.628.715,7.759S3595.4,175.1,3592.063,175.1ZM3567.7,119.715c-1.865,0-3.649,1.293-5.012,3.64l-24.239,41.507c-1.37,2.347-1.621,4.518-.705,6.108s2.91,2.468,5.622,2.468h48.693c2.719,0,4.716-.881,5.629-2.471s.656-3.757-.708-6.1l-24.264-41.51C3571.349,121.007,3569.568,119.715,3567.7,119.715Z" transform="translate(-3535.539 -118.054)" fill="#1a1a1a"/>
          </g>
          <g id="Group_9874" data-name="Group 9874" transform="translate(79.439 257.175)">
            <path id="Path_3293" data-name="Path 3293" d="M3461.181,212.831c1.483-2.656,46.226-28.7,54.763-32.264,8.833-3.7,19.439-5.362,37.166,7.06,16.025,11.238,29.443,19.881,42.831,19.881.532,0,1.054-.015,1.58-.043,5.221-.266,12.188-2.53,19.56-4.923,11.9-3.872,25.405-8.245,35.343-5.344-9.887-1.172-23.146,3.136-34.827,6.924-7.483,2.434-14.551,4.725-19.99,5-14.391.684-28.534-8.266-45.448-20.138-17.95-12.583-27.778-10.14-35.571-6.887-8.441,3.528-54.522,30.349-54.989,30.618A.837.837,0,0,1,3461.181,212.831Z" transform="translate(-3461.181 -177.877)" fill="#1a1a1a"/>
          </g>
          <g id="Group_9875" data-name="Group 9875" transform="translate(549.854 287.25)">
            <path id="Path_3294" data-name="Path 3294" d="M3614.126,223.372c-.829-.832-.829-35.77-.829-35.77,1.66,0,1.66,34.938,1.66,34.938A.827.827,0,0,1,3614.126,223.372Z" transform="translate(-3613.297 -187.602)" fill="#1a1a1a"/>
          </g>
          <g id="Group_9876" data-name="Group 9876" transform="translate(505.616 287.25)">
            <path id="Path_3295" data-name="Path 3295" d="M3599.821,196.715c-.829-.829-.829-9.113-.829-9.113,1.661,0,1.661,8.285,1.661,8.285A.83.83,0,0,1,3599.821,196.715Z" transform="translate(-3598.992 -187.602)" fill="#1a1a1a"/>
          </g>
          <g id="Group_9877" data-name="Group 9877" transform="translate(505.616 295.535)">
            <path id="Path_3296" data-name="Path 3296" d="M3599.821,194.409c-.829-.829-.829-4.128-.829-4.128,1.661,0,1.661,3.3,1.661,3.3A.828.828,0,0,1,3599.821,194.409Z" transform="translate(-3598.992 -190.281)" fill="#1a1a1a"/>
          </g>
          <g id="Group_9878" data-name="Group 9878" transform="translate(505.616 283.069)">
            <path id="Path_3297" data-name="Path 3297" d="M3621.945,195.261c-.938,0-22.953-.046-22.953-4.506s22.015-4.506,22.953-4.506,22.945.046,22.945,4.506S3622.882,195.261,3621.945,195.261Zm-21.267-4.506c.766,1.055,8.275,2.845,21.267,2.845,13.251,0,20.79-1.865,21.294-2.91-.5-.915-8.043-2.78-21.294-2.78C3608.953,187.911,3601.444,189.7,3600.678,190.756Z" transform="translate(-3598.992 -186.25)" fill="#1a1a1a"/>
          </g>
          <g id="Group_9879" data-name="Group 9879" transform="translate(505.365 298.423)">
            <path id="Path_3298" data-name="Path 3298" d="M3625.253,204.516a8.884,8.884,0,0,1,.446-2.885c.652-2.678.346-7.122-3.152-8.408a10.376,10.376,0,0,0-4.561-.182,82.152,82.152,0,0,1-11.666.371,24.334,24.334,0,0,1-7.409-1,18.09,18.09,0,0,1,6.921-.683,82.013,82.013,0,0,0,11.763-.312,11.96,11.96,0,0,1,5.524.244c4.051,1.491,5.177,6.339,4.2,10.363a3.238,3.238,0,0,1-1.784,2.446A.877.877,0,0,1,3625.253,204.516Z" transform="translate(-3598.911 -191.215)" fill="#1a1a1a"/>
          </g>
          <g id="Group_9880" data-name="Group 9880" transform="translate(504.317 310.161)">
            <path id="Path_3299" data-name="Path 3299" d="M3626.991,208.523c1.844-4.323,2.329-6.973,1.627-9.243a4.135,4.135,0,0,0-1.719-2.406c-.579-.322-.835-.247-1.618.043a28.33,28.33,0,0,1-6.076,1.339,71.318,71.318,0,0,1-20.323-.665c-.619-1.4-.192-1.763.26-1.639a69.4,69.4,0,0,0,19.865.652,26.324,26.324,0,0,0,5.428-1.157c1.146-.411,2.031-.724,3.278-.022a5.854,5.854,0,0,1,2.5,3.352,9.532,9.532,0,0,1-1.535,8.4,5.829,5.829,0,0,1-1.184,1.178A.813.813,0,0,1,3626.991,208.523Z" transform="translate(-3598.573 -195.011)" fill="#1a1a1a"/>
          </g>
          <g id="Group_9881" data-name="Group 9881" transform="translate(428.964 290.188)">
            <path id="Path_3300" data-name="Path 3300" d="M3647.338,193.611c-.55-.093-38.835-7.926-72.144-.479a.79.79,0,0,1-.989-.628c34.308-8.526,72.919-.612,73.306-.538C3648.074,193.345,3647.728,193.611,3647.338,193.611Z" transform="translate(-3574.205 -188.552)" fill="#1a1a1a"/>
          </g>
          <g id="Group_9882" data-name="Group 9882" transform="translate(492.61 291.796)">
            <path id="Path_3301" data-name="Path 3301" d="M3594.914,220.3c-.827-14.714,2.415-24.9,8.066-28.8a28.18,28.18,0,0,1,5.374-2.424c.494,1.586-2.916,2.755-4.428,3.794-5.2,3.581-8.18,13.276-8.18,26.6A.828.828,0,0,1,3594.914,220.3Z" transform="translate(-3594.786 -189.072)" fill="#1a1a1a"/>
          </g>
          <g id="Group_9883" data-name="Group 9883" transform="translate(561.463 236.8)">
            <path id="Path_3302" data-name="Path 3302" d="M3628.657,258.424c-16.371-57.133-10.65-86.845-10.589-87.136,1.568.619-4.06,30,11.392,86.085C3628.8,258.415,3628.731,258.424,3628.657,258.424Z" transform="translate(-3617.051 -171.288)" fill="#1a1a1a"/>
          </g>
          <path id="Path_3303" data-name="Path 3303" d="M3605.849,142.67c-.665-.105-1.107.179-1.3,2.573-.211,2.666.479,3.136,1.079,3.114s1.2-.847,1.168-2.752S3606.718,142.806,3605.849,142.67Z" transform="translate(-3081.833 5.592)" fill="#1a1a1a"/>
          <path id="Path_3304" data-name="Path 3304" d="M3599.505,142.737c-.668-.087-1.1.21-1.234,2.607-.142,2.672.563,3.123,1.159,3.083s1.176-.875,1.1-2.783S3600.378,142.854,3599.505,142.737Z" transform="translate(-3094.923 5.743)" fill="#1a1a1a"/>
          <g id="Group_9884" data-name="Group 9884" transform="translate(541.071 167.021)">
            <path id="Path_3305" data-name="Path 3305" d="M3612.491,173.461c-.832-.786-2.034-24.737-2.034-24.737,1.66-.084,2.867,23.864,2.867,23.864A7.078,7.078,0,0,1,3612.491,173.461Z" transform="translate(-3610.457 -148.724)" fill="#1a1a1a"/>
          </g>
          <g id="Group_9885" data-name="Group 9885" transform="translate(498.097 135.82)">
            <path id="Path_3306" data-name="Path 3306" d="M3611.536,190.116c-4.447,0-9.076-.532-11.95-4.9-2.931-4.475-2.953-10.31-2.968-15.456-.007-1.138-.01-2.245-.044-3.315-.108-3.513.445-26.029.47-26.988a.765.765,0,0,1,.854-.81c.8,1.082.232,24.279.34,27.742.037,1.089.037,2.214.04,3.368.016,5.155.037,10.486,2.7,14.547,2.838,4.32,7.877,4.193,12.679,4.128.621-.012,1.243-.028,1.849-.028a48.713,48.713,0,0,0,10.534-1.039c-2.84,2.341-6.3,2.684-10.525,2.7-.6.006-1.212.019-1.826.028C3612.984,190.1,3612.266,190.116,3611.536,190.116Z" transform="translate(-3596.56 -138.634)" fill="#1a1a1a"/>
          </g>
          <g id="Group_9886" data-name="Group 9886" transform="translate(537.16 146.992)">
            <path id="Path_3307" data-name="Path 3307" d="M3618.116,164a10.852,10.852,0,0,1-6.612-2.257c4.41,1.3,9.126,1.212,12.467-1.512a9.212,9.212,0,1,0-14.467-10.388c-.885-2.353.251-3.927,1.719-5.133A10.874,10.874,0,1,1,3618.116,164Z" transform="translate(-3609.193 -142.247)" fill="#1a1a1a"/>
          </g>
          <g id="Group_9887" data-name="Group 9887" transform="translate(499.419 141.243)">
            <path id="Path_3308" data-name="Path 3308" d="M3597.133,144.569c-.732-1.222,1.281-5.384,7.175-3.844.482,1.466.022,1.76-.417,1.611-4.6-1.212-5.987,1.726-6,1.753A.833.833,0,0,1,3597.133,144.569Z" transform="translate(-3596.989 -140.388)" fill="#1a1a1a"/>
          </g>
          <g id="Group_9888" data-name="Group 9888" transform="translate(519.597 140.918)">
            <path id="Path_3309" data-name="Path 3309" d="M3612.144,145.256c-4.511-5.263-8.38-2.925-8.542-2.826-.841-1.438,4.379-4.682,9.194,1.481C3612.506,145.2,3612.327,145.256,3612.144,145.256Z" transform="translate(-3603.512 -140.283)" fill="#1a1a1a"/>
          </g>
          <g id="Group_9889" data-name="Group 9889" transform="translate(510.072 186.427)">
            <path id="Path_3310" data-name="Path 3310" d="M3601.261,160.176c-.828-.829-.828-5.177-.828-5.177,1.661,0,1.661,4.348,1.661,4.348A.826.826,0,0,1,3601.261,160.176Z" transform="translate(-3600.433 -154.999)" fill="#1a1a1a"/>
          </g>
          <g id="Group_9890" data-name="Group 9890" transform="translate(491.22 102.185)">
            <path id="Path_3311" data-name="Path 3311" d="M3656.35,176.613c-.327-1.6,2.215-3.368,3.724-16.724.937-8.294-4.054-12.97-7.639-14.089-6.855-2.134-15.611-1.172-15.694-1.163-5.545-9.766-11.637-13.223-15.926-14.476a17.835,17.835,0,0,0-14.228,1.784c-4.55,2.675-7.367,6.086-8.378,10.119-1.618,6.491,2,12.518,2.041,12.577a5.461,5.461,0,0,0-3.389,2.827c-1.836,3.68-1.281,10.969,5.739,14.918-8.779-3.027-9.351-11.408-7.231-15.663a4.49,4.49,0,0,1,2.747-2.579,19.191,19.191,0,0,1-1.526-12.463c1.123-4.5,4.2-8.257,9.147-11.17a19.518,19.518,0,0,1,15.55-1.945c4.518,1.324,10.892,4.9,15.84,14.361,2.105-.182,9.562-.659,15.8,1.286,5.084,1.586,9.738,7.539,8.8,15.858-1.629,14.439-4.515,16.263-5.071,16.486A.824.824,0,0,1,3656.35,176.613Z" transform="translate(-3594.337 -127.758)" fill="#1a1a1a"/>
          </g>
          <g id="Group_9891" data-name="Group 9891" transform="translate(505.695 146.25)">
            <path id="Path_3312" data-name="Path 3312" d="M3606.633,161.557c-.548,0-5.381-.049-7.011-1.791a2.12,2.12,0,0,1-.6-1.611,15.329,15.329,0,0,1,1.126-3.7c1.286-3.392,3.048-8.034,1.961-12.444,2.828,4.512.881,9.642-.406,13.035a15.3,15.3,0,0,0-1.02,3.219c.971,1.243,4.036,1.633,5.95,1.633C3607.461,161.186,3607.093,161.557,3606.633,161.557Z" transform="translate(-3599.018 -142.007)" fill="#1a1a1a"/>
          </g>
          <g id="Group_9892" data-name="Group 9892" transform="translate(541.091 151.383)">
            <path id="Path_3313" data-name="Path 3313" d="M3618.642,156.191c-.368-.083-8.174-3.943-8.174-3.943-.223-1.33,6.869-8.582,6.869-8.582,1.194,1.169-5.1,7.6-5.1,7.6l6.775,3.352C3619.242,156.024,3618.945,156.191,3618.642,156.191Z" transform="translate(-3610.463 -143.667)" fill="#1a1a1a"/>
          </g>
          <g id="Group_9893" data-name="Group 9893" transform="translate(530.656 117.879)">
            <path id="Path_3314" data-name="Path 3314" d="M3607.219,139.742c-.748-1.191,1.994-6.909,1.994-6.909,1.5.717-1.243,6.435-1.243,6.435A.835.835,0,0,1,3607.219,139.742Z" transform="translate(-3607.09 -132.833)" fill="#1a1a1a"/>
          </g>
          <g id="Group_9894" data-name="Group 9894" transform="translate(552.983 201.434)">
            <path id="Path_3315" data-name="Path 3315" d="M3671.81,367.6c-.739-.427-9.3-11.476-19.4-29.471,10.489,15.308,18.282,25.8,19.789,27.786,15.338-.98,33.878-14.757,36.924-17.1q-4.518-16.152-8.944-32.319c-9.284-33.822-17.107-64.187-23.929-92.826-.65-2.715-1.228-5.5-1.807-8.306-2.239-10.777-4.556-21.929-11.22-30.665-10.69-14.009-30.8-24.2-48.919-24.774,18.632-1.067,39.271,9.389,50.237,23.769,6.9,9.033,9.252,20.367,11.531,31.333.578,2.786,1.154,5.557,1.793,8.26,6.82,28.621,14.637,58.964,23.92,92.767q4.509,16.439,9.085,32.848c-1.143,1.571-21.724,17.862-39.02,18.7Z" transform="translate(-3614.309 -159.852)" fill="#1a1a1a"/>
          </g>
          <g id="Group_9895" data-name="Group 9895" transform="translate(406.462 198.122)">
            <path id="Path_3316" data-name="Path 3316" d="M3578.019,298.312c-19.3-15.92-9.67-40.063.823-59.341,1.51-2.78,3.182-6.473,5.121-10.74,11.009-24.276,31.5-69.45,81.876-69.45-49.3,1.661-68.746,44.525-80.364,70.137-1.945,4.3-3.634,8.013-5.177,10.848-10.19,18.719-19.588,42.122-1.744,57.077C3578.492,298.213,3578.256,298.312,3578.019,298.312Z" transform="translate(-3566.93 -158.781)" fill="#1a1a1a"/>
          </g>
          <g id="Group_9896" data-name="Group 9896" transform="translate(499.227 127.887)">
            <path id="Path_3317" data-name="Path 3317" d="M3636.169,160.332c-8.161-3.108-10.368-16.968-10.91-21.916a31.808,31.808,0,0,1-28.333,7.233,34.257,34.257,0,0,0,28.386-9.58c1.459.687,2.736,19.387,11.156,22.655C3636.816,160.134,3636.5,160.332,3636.169,160.332Z" transform="translate(-3596.926 -136.069)" fill="#1a1a1a"/>
          </g>
          <g id="Group_9897" data-name="Group 9897" transform="translate(593.248 384.402)">
            <path id="Path_3318" data-name="Path 3318" d="M3628.163,245.9a.839.839,0,0,1-.832-.878c.89-14.918,1.2-21.016,1.293-23.475-.022-1.9-.037-2.551.909-2.533.343.028.572.043.662,1.045.138,2.629-.226,8.705-1.2,25.058A.826.826,0,0,1,3628.163,245.9Z" transform="translate(-3627.33 -219.018)" fill="#1a1a1a"/>
          </g>
          <g id="Group_9898" data-name="Group 9898" transform="translate(503.377 189.677)">
            <path id="Path_3319" data-name="Path 3319" d="M3628.243,210.765c-.711-.4-15.4-24.962-15.4-24.962l-13.068,18.15c-1.51-.489-1.51-36.9-1.51-36.9.142-.467,6.834-10.369,6.834-10.369,1.5.257,8.232,25.936,8.232,25.936l24.458-26.317a.866.866,0,0,1,1.219,0l9.5,10.183c.146.915-19.514,43.8-19.514,43.8A5.155,5.155,0,0,1,3628.243,210.765Zm-14.3-26.369,14.2,23.753,18.768-40.938-8.51-9.12Zm-14.015-17.089v33.581L3612,184.126l-6.547-24.993Z" transform="translate(-3598.268 -156.05)" fill="#1a1a1a"/>
          </g>
          <g id="Group_9899" data-name="Group 9899" transform="translate(514.615 238.163)">
            <path id="Path_3320" data-name="Path 3320" d="M3602.734,219.013c-.624-.117-.912-.563-.813-1.008,4.8-21.9,14.82-46.034,14.919-46.275,1.438.884-8.522,24.882-13.288,46.628A.838.838,0,0,1,3602.734,219.013Z" transform="translate(-3601.902 -171.729)" fill="#1a1a1a"/>
          </g>
          <g id="Group_9900" data-name="Group 9900" transform="translate(501.43 235.306)">
            <path id="Path_3321" data-name="Path 3321" d="M3598.305,230.746c-2.39-35.341,2.415-59.694,2.461-59.941,1.584.569-3.176,24.737-1.629,59.075A7.649,7.649,0,0,1,3598.305,230.746Z" transform="translate(-3597.639 -170.805)" fill="#1a1a1a"/>
          </g>
          <g id="Group_9901" data-name="Group 9901" transform="translate(508.22 230.434)">
            <path id="Path_3322" data-name="Path 3322" d="M3611.125,183.187c-.08,0-9.553-.9-9.553-.9-.748-.767-1.738-13.056-1.738-13.056,1.661-.13,2.592,11.464,2.592,11.464l8.3.789,7.289-10.106c1.351.974-6.217,11.467-6.217,11.467A.83.83,0,0,1,3611.125,183.187Z" transform="translate(-3599.834 -169.23)" fill="#1a1a1a"/>
          </g>
          <g id="Group_9902" data-name="Group 9902" transform="translate(518.679 243.624)">
            <path id="Path_3323" data-name="Path 3323" d="M3605.6,194.635c-.833-.764-2.387-21.14-2.387-21.14,1.663-.13,3.216,20.246,3.216,20.246C3605.644,194.635,3605.622,194.635,3605.6,194.635Z" transform="translate(-3603.217 -173.495)" fill="#1a1a1a"/>
          </g>
          <g id="Group_9903" data-name="Group 9903" transform="translate(503.23 242.289)">
            <path id="Path_3324" data-name="Path 3324" d="M3598.279,187.814c-.745-1.2,6.008-14.751,6.008-14.751,1.49.742-5.264,14.287-5.264,14.287A.824.824,0,0,1,3598.279,187.814Z" transform="translate(-3598.221 -173.063)" fill="#1a1a1a"/>
          </g>
          <g id="Group_9904" data-name="Group 9904" transform="translate(465.894 229.406)">
            <path id="Path_3325" data-name="Path 3325" d="M3586.187,230.146a148.62,148.62,0,0,1,11.946-61.249c1.373.98-11.115,27.39-11.115,60.42A.825.825,0,0,1,3586.187,230.146Z" transform="translate(-3586.148 -168.897)" fill="#1a1a1a"/>
          </g>
          <g id="Group_9905" data-name="Group 9905" transform="translate(515.292 165.602)">
            <path id="Path_3326" data-name="Path 3326" d="M3605,157.3a9.1,9.1,0,0,1-2.879-.526c2.486-.922,3.982-1.008,4.966-1.818,1.827-1.5,1.769-5.341,1.593-6.692,1.682.022,2.369,5.585-.535,7.979A4.8,4.8,0,0,1,3605,157.3Z" transform="translate(-3602.121 -148.265)" fill="#1a1a1a"/>
          </g>
        </g>
      </g>
    </g>
  </g>
</svg>
