<svg xmlns="http://www.w3.org/2000/svg" width="96.243" height="96.243" viewBox="0 0 96.243 96.243">
  <g id="Group_9735" data-name="Group 9735" transform="translate(0)">
    <path id="Path_3067" data-name="Path 3067" d="M1480.9,131.181a48.115,48.115,0,0,1-66.656.111,5.208,5.208,0,0,0-5.126-6.153c-.1,0-.193,0-.289.008a48.121,48.121,0,1,1,77.377,0c-.053,0-.106,0-.159,0a5.213,5.213,0,0,0-5.146,6.042Z" transform="translate(-1399.397 -48.406)" fill="#ffc7d9"/>
    <path id="Path_3068" data-name="Path 3068" d="M1674.435,84.045v5.639a5.639,5.639,0,0,1-5.639,5.639h-3.76a5.639,5.639,0,0,1-5.639-5.639V84.045a5.639,5.639,0,0,1,5.639-5.639h3.76A5.639,5.639,0,0,1,1674.435,84.045Z" transform="translate(-1610.524 -72.767)" fill="#ec0753"/>
    <path id="Path_3069" data-name="Path 3069" d="M1526.842,215.233a48.39,48.39,0,0,1-5.462,6.2h-66.521a48.369,48.369,0,0,1-5.462-6.2V159.406h77.445Z" transform="translate(-1439.998 -138.541)" fill="#faebc9"/>
    <path id="Path_3070" data-name="Path 3070" d="M1543.083,215.233a48.382,48.382,0,0,1-5.462,6.2H1471.1q-.873-.835-1.7-1.714V159.406h73.686Z" transform="translate(-1456.239 -138.541)" fill="#faf6ff"/>
    <path id="Path_3071" data-name="Path 3071" d="M1526.842,128.8H1449.4v-7.519a1.88,1.88,0,0,1,1.88-1.88h73.686a1.88,1.88,0,0,1,1.88,1.88Z" transform="translate(-1439.998 -106.06)" fill="#eeb436"/>
    <path id="Path_3072" data-name="Path 3072" d="M1543.083,128.8H1469.4v-7.519a1.88,1.88,0,0,1,1.88-1.88H1541.2a1.88,1.88,0,0,1,1.88,1.88Z" transform="translate(-1456.239 -106.06)" fill="#f2c86c"/>
    <path id="Path_3073" data-name="Path 3073" d="M1483.156,136.286a1.88,1.88,0,1,1-1.88-1.88A1.88,1.88,0,0,1,1483.156,136.286Zm3.759-1.88a1.88,1.88,0,1,0,1.88,1.88A1.88,1.88,0,0,0,1486.916,134.406Zm5.639,0a1.88,1.88,0,1,0,1.88,1.88A1.88,1.88,0,0,0,1492.555,134.406Z" transform="translate(-1464.359 -118.24)" fill="#eba815"/>
    <path id="Path_3074" data-name="Path 3074" d="M1544.624,287.88h-64.287a.94.94,0,0,1-.94-.94V249.346a.94.94,0,0,1,.94-.94h64.287a.94.94,0,0,1,.94.94v37.595A.94.94,0,0,1,1544.624,287.88Z" transform="translate(-1464.359 -210.811)" fill="#c59dfd"/>
    <path id="Path_3075" data-name="Path 3075" d="M1503.834,193.782v2.068a.376.376,0,0,1-.376.376h-23.685a.376.376,0,0,1-.376-.376v-2.068a.376.376,0,0,1,.376-.376h23.685A.376.376,0,0,1,1503.834,193.782Zm-11.654,4.323h-12.406a.376.376,0,0,0-.376.376v2.068a.376.376,0,0,0,.376.376h12.406a.376.376,0,0,0,.376-.376v-2.068A.376.376,0,0,0,1492.179,198.105Z" transform="translate(-1464.359 -166.15)" fill="#f9e5b9"/>
    <path id="Path_3076" data-name="Path 3076" d="M1598.555,283.406a13.158,13.158,0,1,0,13.158,13.158A13.158,13.158,0,0,0,1598.555,283.406Z" transform="translate(-1550.434 -239.232)" fill="#944bfc"/>
    <path id="Path_3077" data-name="Path 3077" d="M1641.33,322.384l-9.361,6.419a.94.94,0,0,1-1.471-.775V315.19a.94.94,0,0,1,1.471-.775l9.361,6.419A.94.94,0,0,1,1641.33,322.384Z" transform="translate(-1587.057 -264.277)" fill="#faf6ff"/>
    <path id="Path_3078" data-name="Path 3078" d="M1715.714,84.045V106.6l-10.339-5.639-10.339,5.639V84.045a5.639,5.639,0,0,0-5.639-5.639h20.677A5.639,5.639,0,0,1,1715.714,84.045Z" transform="translate(-1634.885 -72.767)" fill="#fe0054"/>
  </g>
</svg>
