<svg xmlns="http://www.w3.org/2000/svg" width="98.825" height="98.825" viewBox="0 0 98.825 98.825">
  <g id="Group_9732" data-name="Group 9732" transform="translate(0 0)">
    <path id="Path_3034" data-name="Path 3034" d="M726.4,497.913A49.413,49.413,0,1,1,676.988,448.5,49.413,49.413,0,0,1,726.4,497.913Z" transform="translate(-627.575 -448.5)" fill="#ffb2cb"/>
    <path id="Path_3035" data-name="Path 3035" d="M823.238,497.913a49.417,49.417,0,0,1-75.663,41.867V456.046a49.417,49.417,0,0,1,75.663,41.867Z" transform="translate(-724.413 -448.5)" fill="#ffb2cb"/>
    <path id="Path_3036" data-name="Path 3036" d="M955.575,522.46v-2.123a.386.386,0,0,1,.386-.386h18.612a.386.386,0,0,1,.386.386v2.123a.386.386,0,0,1-.386.386H955.961A.386.386,0,0,1,955.575,522.46Zm.386-5.018h21.785q-1.412-1.508-2.944-2.9H955.961a.386.386,0,0,0-.386.386v2.123A.386.386,0,0,0,955.961,517.441Zm22.473,15.435H955.961a.386.386,0,0,0-.386.386v2.123a.386.386,0,0,0,.386.386h22.473a.386.386,0,0,0,.386-.386v-2.123A.386.386,0,0,0,978.434,532.877Zm-22.473,8.3h18.612a.386.386,0,0,0,.386-.386v-2.123a.386.386,0,0,0-.386-.386H955.961a.386.386,0,0,0-.386.386v2.123A.386.386,0,0,0,955.961,541.177Zm22.473,10.031H955.961a.386.386,0,0,0-.386.386v2.123a.386.386,0,0,0,.386.386h22.473a.386.386,0,0,0,.386-.386v-2.123A.386.386,0,0,0,978.434,551.208Zm-22.473,8.3h18.612a.386.386,0,0,0,.386-.386V557a.386.386,0,0,0-.386-.386H955.961a.386.386,0,0,0-.386.386v2.123A.386.386,0,0,0,955.961,559.508Zm22.473,10.031H955.961a.386.386,0,0,0-.386.386v2.123a.386.386,0,0,0,.386.386h22.473a.386.386,0,0,0,.386-.386v-2.123A.386.386,0,0,0,978.434,569.538Zm-3.86,5.4H955.961a.386.386,0,0,0-.386.386v2.123a.386.386,0,0,0,.386.386h18.612a.386.386,0,0,0,.386-.386v-2.123A.386.386,0,0,0,974.573,574.943Z" transform="translate(-892.265 -501.798)" fill="#fe4a86"/>
    <path id="Path_3037" data-name="Path 3037" d="M847.226,529.855v6.285a6.757,6.757,0,0,1,0,12.209v6.285a6.756,6.756,0,1,1-5.791,0v-6.285a6.757,6.757,0,0,1,0-12.209v-6.285a6.757,6.757,0,0,1,0-12.209V511.36a6.756,6.756,0,1,1,5.791,0v6.285a6.757,6.757,0,0,1,0,12.209Z" transform="translate(-797.041 -488.849)" fill="#ff85ad"/>
    <path id="Path_3038" data-name="Path 3038" d="M857.4,561.755a.965.965,0,1,1-.965-.965A.965.965,0,0,1,857.4,561.755Zm-.965,6.756a.965.965,0,1,0,.965.965A.965.965,0,0,0,856.435,568.511Zm0-3.86a.965.965,0,1,0,.965.965A.965.965,0,0,0,856.435,564.651Zm3.86-28.795a3.858,3.858,0,0,0-2.9-3.734V521.1a3.86,3.86,0,1,0-1.93,0v11.027a3.855,3.855,0,0,0,0,7.467v11.027a3.86,3.86,0,1,0,1.93,0V539.589A3.858,3.858,0,0,0,860.3,535.856Z" transform="translate(-809.146 -500.955)" fill="#781bfb"/>
    <path id="Path_3039" data-name="Path 3039" d="M723.79,853.258v11.093a4.869,4.869,0,0,1-4.869,4.869H713.4a4.869,4.869,0,0,1-4.869-4.869V853.258Z" transform="translate(-692.907 -775.132)" fill="#eba815"/>
    <path id="Path_3040" data-name="Path 3040" d="M740.305,869.22h-.4a4.869,4.869,0,0,1-4.869-4.869V853.258h10.142v11.093A4.869,4.869,0,0,1,740.305,869.22Z" transform="translate(-714.292 -775.132)" fill="#edb231"/>
    <path id="Path_3041" data-name="Path 3041" d="M723.79,569.338H708.533v-47.89a3.946,3.946,0,0,1,.617-2.119l6.827-10.729a.218.218,0,0,1,.368,0l6.827,10.729a3.947,3.947,0,0,1,.617,2.119v47.89Z" transform="translate(-692.907 -496.919)" fill="#f4cf7e"/>
    <path id="Path_3042" data-name="Path 3042" d="M741,534.189v47.889H729.866V534.189a3.945,3.945,0,0,1,.617-2.119l4.952-7.782,4.952,7.782A3.947,3.947,0,0,1,741,534.189Z" transform="translate(-710.122 -509.66)" fill="#f4cf7e"/>
    <path id="Path_3043" data-name="Path 3043" d="M737.276,511.582l1.9-2.98a.218.218,0,0,1,.368,0l1.9,2.98Z" transform="translate(-716.102 -496.919)" fill="#781bfb"/>
    <path id="Path_3044" data-name="Path 3044" d="M723.79,571.374V630.2H708.533V571.374a6.227,6.227,0,0,1,7.771.567,3.561,3.561,0,0,1,5.558,0A3.545,3.545,0,0,0,723.79,571.374Z" transform="translate(-692.907 -546.885)" fill="#a76bfc"/>
    <path id="Path_3045" data-name="Path 3045" d="M719.866,579.717v49.039a1.09,1.09,0,1,1-2.18,0V579.717a1.09,1.09,0,1,1,2.18,0Zm-6.538-1.09a1.09,1.09,0,0,0-1.09,1.09v-4.249a3.556,3.556,0,0,1-3.705-.091V634.2h3.705v-5.449a1.09,1.09,0,1,0,2.18,0V579.717A1.09,1.09,0,0,0,713.328,578.627Z" transform="translate(-692.907 -550.887)" fill="#9852fc"/>
  </g>
</svg>
