<svg xmlns="http://www.w3.org/2000/svg" width="895.559" height="509.483" viewBox="0 0 895.559 509.483">
  <g id="Group_10093" data-name="Group 10093" transform="translate(-3937.673 157.271)">
    <path id="Path_3562" data-name="Path 3562" d="M4197.173-95.465s-2.778,10.178.382,11.834c0,0,3.974,4.643,3.614,7.754s-.415,7.365-3.988,8.8-7.573,3.773-11.957,1.259l1,8.526,1.847,27.048,17.255,13.116-8.069,43.033-9.687,36.269S4175,78.629,4174.459,79.211s-14.283,7.86-14.283,7.86-24.845-27.955-25.867-29.554-8.151-22.424-8.151-23.154,10.586-51.721,10.586-51.721l11.98-10.306s3.09-2.061,3.514-4.416,0-12.306,0-12.306-6.148.325-9.8-4.121-3.579-17.119-3.579-17.119l.778-32.5,11.545-.106,8.152-2.726,6.383-4.015,1.875-1.614,5.055-3.059,14.048,3.059Z" transform="translate(524.142 132.443)" fill="#fff"/>
    <g id="Group_10231" data-name="Group 10231" transform="translate(3937.673 -157.271)">
      <path id="Path_3563" data-name="Path 3563" d="M4175.024-70.071s5.527-10.446,15.388-5.792c0,0,2.906-11.074.768-20.348s-8.8-16.39-21.331-12.363a36.916,36.916,0,0,0-19.732-4.518c-10.877.745-22.144,13.429-22.083,24.832,0,0,5.459,13.63,5.376,13.286s.412-13.448.412-13.448a30.758,30.758,0,0,0,13.914-.389c7.016-2.019,15.744-8.9,15.744-8.9s.9,14.764,8.816,20.59c0,0-.876,2.733-.939,3.293" transform="translate(-3408.321 279.909)" fill="#1a1a1a"/>
      <path id="Path_3564" data-name="Path 3564" d="M4167.228-102.763c-.061.567-.515,11.845-3.2,12.764s-11.429-1.164-15.115,1.028-4.24,4.057-6.78,3.361a40.233,40.233,0,0,0-7.621-1.437,7.494,7.494,0,0,0-4.9,1.535s-2.106,23.1,14,22.023c0,0,21.1.975,25.671-4.253s3.28-17.936,2.514-21.229a67.423,67.423,0,0,1-.9-10.038" transform="translate(-3404.191 308.846)" fill="#1a1a1a"/>
      <path id="Path_3565" data-name="Path 3565" d="M4111.646-56.5S4139.8-85.585,4177.1-84.731l10.909,53.6,3.136-5.516,9.387,44.98L4207.2,15l24.867-57.959,2.428,1.04,8.955-43.721s21.832.991,37.364,7.32,25.978,17.6,37.727,50.878S4342.6,38.912,4346.9,50.319s5.047,50.432-18.469,63.491-32.167,4.227-32.167,4.227v33.309H4145.551Z" transform="translate(-3453.886 356.467)" fill="#fff"/>
      <path id="Path_3566" data-name="Path 3566" d="M3958.14-69.849V62.55s29.986-22.515,74.391-35.8,63.3-14.114,63.3-14.114V-119.332a360.842,360.842,0,0,0-72.448,17.01A289.627,289.627,0,0,0,3958.14-69.849Z" transform="translate(-3880.759 262.772)" fill="#fff"/>
      <path id="Path_3567" data-name="Path 3567" d="M4199.5-45.075s-30.148-3.3-47.631-20.961l-20.632,44.556s-6.169-29.063-7.769-36.122-1.808-21.006-40.2-20.779l-30.28-.011s-36.119-1.35-48.417,18.961-12.813,30.6-12.813,30.6l-30.22,119.219-8.4,40.859h188.147l-2.03-56.825s15.4,1.463,26.866-14.064,19.263-34.182,22.564-44.67,10.461-37.165,10.461-37.165Z" transform="translate(-3894.667 376.567)" fill="#781bfb"/>
      <path id="Path_3568" data-name="Path 3568" d="M4271.31-80.447l-3.863-13.06-6.223-6.9-6.123-2.044h-199l-5.392,1.624-6.584,6.58-2.056,6.083,1.579,7.714L4077.738,42.8l2.563,5.786,4.379,4.133,4.7,2.36,124.228-.442L4293.04,8.012Z" transform="translate(-3647.379 309.723)" fill="#fff"/>
      <path id="Path_3569" data-name="Path 3569" d="M4242.8-93.078l-3.614-4.439-4.991-1.5-181.285.038-4.673,2.408-1.742,5.376,32.257,116.214,3.308,4.374,6.507,3.059h121.2s62.742-46.507,62.742-47.018S4242.8-93.078,4242.8-93.078Z" transform="translate(-3635.075 319.272)" fill="#fff"/>
      <path id="Path_3570" data-name="Path 3570" d="M4206.77-69.182s-19.437,3.781-27.921,20.7-17.69,38.246-21.029,44.322-15.871,8.14-19.485,2.166-23.525-68.039-23.525-68.039-6.419-7.565-29.315-6.208-25.966,14.632-25.966,14.632,7.354,47.237,14.723,66.141,21.391,60,62.383,59.9c0,0,17.577.832,24.056-2.038,0,0-3.236,53.456-7.035,63.264h136.832s-1.742-47.449-1.673-61.85,2.219-39.26.886-54.171a151.515,151.515,0,0,1,0-26.987l-58.761-57.857Z" transform="translate(-3598.821 382.156)" fill="#fe0054"/>
      <g id="Group_10094" data-name="Group 10094" transform="translate(553.381 119.851)">
        <g id="Group_10093-2" data-name="Group 10093">
          <path id="Path_3571" data-name="Path 3571" d="M4088.036-117.635a3.94,3.94,0,0,0,3.94-3.943,3.94,3.94,0,0,0-3.94-3.94,3.943,3.943,0,0,0-3.943,3.94A3.944,3.944,0,0,0,4088.036-117.635Z" transform="translate(-4083.889 125.718)" fill="#1a1a1a"/>
          <path id="Path_3572" data-name="Path 3572" d="M4096.288-117.284a4.149,4.149,0,0,0,4.148-4.148,4.145,4.145,0,0,0-4.148-4.14,4.145,4.145,0,0,0-4.147,4.14A4.15,4.15,0,0,0,4096.288-117.284Z" transform="translate(-4061.512 125.571)" fill="#1a1a1a"/>
          <path id="Path_3573" data-name="Path 3573" d="M4104.164-117.812a3.839,3.839,0,0,0,3.835-3.841,3.838,3.838,0,0,0-3.835-3.838,3.84,3.84,0,0,0-3.839,3.838A3.841,3.841,0,0,0,4104.164-117.812Z" transform="translate(-4038.757 125.793)" fill="#1a1a1a"/>
          <path id="Path_3574" data-name="Path 3574" d="M4088.186-109.179a4.146,4.146,0,0,0,4.144-4.148,4.145,4.145,0,0,0-4.144-4.144,4.146,4.146,0,0,0-4.147,4.144A4.147,4.147,0,0,0,4088.186-109.179Z" transform="translate(-4084.039 148.098)" fill="#1a1a1a"/>
          <path id="Path_3575" data-name="Path 3575" d="M4096.435-108.828a4.348,4.348,0,0,0,4.348-4.348,4.348,4.348,0,0,0-4.348-4.348,4.349,4.349,0,0,0-4.348,4.348A4.349,4.349,0,0,0,4096.435-108.828Z" transform="translate(-4061.66 147.948)" fill="#1a1a1a"/>
          <path id="Path_3576" data-name="Path 3576" d="M4104.313-109.36a4.044,4.044,0,0,0,4.044-4.042,4.042,4.042,0,0,0-4.044-4.042,4.041,4.041,0,0,0-4.044,4.042A4.043,4.043,0,0,0,4104.313-109.36Z" transform="translate(-4038.908 148.173)" fill="#1a1a1a"/>
          <circle id="Ellipse_27" data-name="Ellipse 27" cx="3.839" cy="3.839" r="3.839" transform="translate(0.308 61.561)" fill="#1a1a1a"/>
          <circle id="Ellipse_28" data-name="Ellipse 28" cx="4.042" cy="4.042" r="4.042" transform="translate(30.733 61.358)" fill="#1a1a1a"/>
          <path id="Path_3577" data-name="Path 3577" d="M4104.115-101.727a3.768,3.768,0,0,0,3.767-3.773,3.765,3.765,0,0,0-3.767-3.769,3.772,3.772,0,0,0-3.773,3.769A3.775,3.775,0,0,0,4104.115-101.727Z" transform="translate(-4038.708 170.9)" fill="#1a1a1a"/>
        </g>
      </g>
      <path id="Path_3578" data-name="Path 3578" d="M4107.3-35.656l4.435-14.654s3.583-9.69-1.436-11.3-8.068,3.989-9,7.013-2.109,8.046-8.235,5.494c0,0-3.353-2.378-5.807-12.79s-8.39-23.619-8.39-23.619-2.455-6.669-7.263-4.877-3.678,7.607-2.216,12.012,5.206,16.443,5.206,16.443-7.751-.669-8.2,5.838c0,0-6.605,2.038-7,6.926s1.814,13.705,3.127,16.424,2.461,4.669,2.461,4.669a36.042,36.042,0,0,1,18.446-8.144C4094.4-37.512,4107.3-35.656,4107.3-35.656Z" transform="translate(-3599.335 342.391)" fill="#fff"/>
      <path id="Path_3579" data-name="Path 3579" d="M3988.774-27.027l-.31-25.46s-7.859,2.5-11.361-7.327,13.016-11.615,14.677-10.771c0,0,10.446-4.9,14.733-7.543,8.012-4.938,14.24-18.772,14.24-18.772l4.861,6.934,4.322,25.448s1.467,16.919-2.371,20.953-8.873,4.964-11.274,4.669l.9,11.921s3.036,9.754,3.471,11.425,2.722,9.618-4.477,11.788-13.206-2.261-16.779-6.545S3988.774-27.027,3988.774-27.027Z" transform="translate(-3829.377 325.15)" fill="#fff"/>
      <path id="Path_3580" data-name="Path 3580" d="M4007.822-34.36l6.079-10.306s3.5-18.533,4.988-19.913,3.084-5.372,11.085-5.176a11.756,11.756,0,0,0,1.717-1.168c.2-.284,14.431-16.348,14.431-16.348s3.157-1.259,5.622.741,1.792,5.959.529,8.178-8.526,11.834-8.526,11.834,7.339.072,8.1,3.372l-3.028,3.183-.938,29.082s-7.161,8.707-10.708,9.357C4037.172-21.525,4014.124-28.186,4007.822-34.36Z" transform="translate(-3742.601 350.835)" fill="#fff"/>
      <path id="Path_3581" data-name="Path 3581" d="M4043.779-61.874A20.541,20.541,0,0,0,4039-79.8c-7.421-8.73-30.662-.31-30.662-.31s3.312-10.219-1.58-18.291-15.52-11.191-25.119-6.371-13.154,17.2-11.263,25.694,7.731,13.634,13.153,13.864a50.317,50.317,0,0,0,.464,22.609c3.131,12.133,10.775,21.709,23.237,22.579l-.049-4.2s-9.373,1.414-10.855-6.586,4.878-11.46,6.7-11.788a29.244,29.244,0,0,1,6.16.3,51.4,51.4,0,0,0,11.029-4.344,51.3,51.3,0,0,0,12.6-10.719c1.512-2.023,6.771-10.824,6.771-10.824S4043.287-64.3,4043.779-61.874Z" transform="translate(-3848.094 296.895)" fill="#1a1a1a"/>
      <path id="Path_3582" data-name="Path 3582" d="M4095.507-76.1s-1.47-14.03,4.5-19.687c0,0,11.13-3.573,20.74,1.032,0,0,13.706-2.348,18.629-1.788s16.362,7.9,17.9,17.433a59.468,59.468,0,0,1-.688,23.853c-1.553,6.068-4.4,15.6-3.372,21.5a23.14,23.14,0,0,0,14.115,17.176c9.084,3.917,17.356,10.59,20.723,15.758s10.166,17.645,10.809,27.127-2.876,24.76-11.4,29.811-20.332,8.442-34.087,2.862-16.544-12.681-16.851-17.3,4.125-27.6,3.324-32.624-5.725-11.3-13.892-12.28-20.642-3.872-22.911-14.662-3.081-16.488-3.081-16.488Z" transform="translate(-3499.214 324.573)" fill="#fff"/>
      <path id="Path_3583" data-name="Path 3583" d="M4117.946-77.142a12.753,12.753,0,0,1,8.925-.121c4.542,1.792,6.8,8.427,5.116,12.439a10.169,10.169,0,0,1-11.969,5.977s-10.276,6.873-10.838,14.325c-.563.775-9.309.087-11.54-5.705s-2.212-9.6-1.618-12.45.948-6.454.948-6.454l-3.319-.688-1.324-2.371,5.259-17.52,1.771-1.705,3.157,1.55.913-1.422S4110.052-78.472,4117.946-77.142Z" transform="translate(-3507.612 340.405)" fill="#fff"/>
      <path id="Path_3584" data-name="Path 3584" d="M4021.347,21.067,4017.7,155.682s51.9-31.653,59.491-77.245V-51.842a52.829,52.829,0,0,0-7.479-36.348c-11.44-18.28-37.911-28.613-37.911-28.613l-.57,130Z" transform="translate(-3715.13 269.804)" fill="#fff"/>
      <path id="Path_3585" data-name="Path 3585" d="M4141.805-28.977l-1.7,132.581s-50.947,14.7-93.439,11.8-71.434-13.5-87.131-28.881-16.964-32.965-16.964-32.965l-.3-137.4s-3.471,36.855,43.619,54.893,99.9,11.108,104.717,10.613C4099.838-19.29,4141.805-28.977,4141.805-28.977Z" transform="translate(-3925.038 361.448)" fill="#fff"/>
      <path id="Path_3586" data-name="Path 3586" d="M3982.921-37.407s62.157-5.524,80.913-18.106v45.88S4030.5,6.186,3982.921,8.39Z" transform="translate(-3811.849 440.238)" fill="#fe0054"/>
      <path id="Path_3587" data-name="Path 3587" d="M4013.506-68.046l3.626-6.151s-10.307-2.6-11.279-.594S4013.506-68.046,4013.506-68.046Z" transform="translate(-3748.285 384.52)" fill="#1a1a1a"/>
      <path id="Path_3588" data-name="Path 3588" d="M4025.263-72.5s-6.708,8.227-9.468,8.817c0,0,6.609,1.883,9.468,1.8Z" transform="translate(-3720.434 392.996)" fill="#1a1a1a"/>
      <path id="Path_3589" data-name="Path 3589" d="M4236.729,15.029l23.166-55.1-79.937-34.28L4130.388,41.074l79.222,34.575,2.185-2.514s-29.274-17.66-36.133-26.344a103.907,103.907,0,0,0-15.106-15.2,96.366,96.366,0,0,1,14.309-25.142c9.946-12.571,15.431-17.713,15.431-17.713Z" transform="translate(-3401.774 387.859)" fill="#fff"/>
      <path id="Path_3590" data-name="Path 3590" d="M4157.907-60.837c-.426.31-3.867,10.484-3.867,10.484l2.644,22.628L4142.86,3.539l-6.108-6.25-2.168-10.382,5.642-36.345-5.21-12.322,11.231-19.906Z" transform="translate(-3390.107 367.515)" fill="#ffce26"/>
      <path id="Path_3591" data-name="Path 3591" d="M4143.274-85.481s-.389-4.923,2.408-7.267a12.547,12.547,0,0,1,4.928-2.775s-1.039-2.575-3.271-2.412-2,4.045-4.911,4.786-4.859-1.372-7.032-.057-2.969,1.6-1.943,3.372,3.088,4.363,6.118,4.582S4143.274-85.481,4143.274-85.481Z" transform="translate(-3394.48 322.253)" fill="#1a1a1a"/>
      <circle id="Ellipse_29" data-name="Ellipse 29" cx="93.186" cy="93.186" r="93.186" transform="translate(347.841)" fill="#fe0054"/>
      <path id="Path_3592" data-name="Path 3592" d="M4061.609-109.4a9.86,9.86,0,0,0-13.947,0l-3.8,3.8a9.848,9.848,0,0,0,0,13.944l27.781,27.789a9.867,9.867,0,0,0,13.947,0l57.2-55.8a9.862,9.862,0,0,0,0-13.944l-3.8-3.807a9.867,9.867,0,0,0-13.947,0L4078.616-92.4Z" transform="translate(-3650.424 204.424)" fill="#fff"/>
      <path id="Path_3593" data-name="Path 3593" d="M3974.472-90.689v39.581l-22.01,10.684V-80.005Z" transform="translate(-3896.549 342.422)" fill="#ffce26"/>
      <path id="Path_3594" data-name="Path 3594" d="M4054.42-105.843v33.509s-12.666-6.291-24.519-7.962-20.511-2.321-20.511-2.321v-33.509s13.774-.3,26.319,3.535A154.834,154.834,0,0,1,4054.42-105.843Z" transform="translate(-3738.244 271.669)" fill="#1a1a1a"/>
      <path id="Path_3595" data-name="Path 3595" d="M4021.851-116.8l-.57,130s20.186-14.065,30.243-30.065,15.15-30.174,15.716-34.972,1.946-22.976-5.887-33.622S4050.234-102.9,4021.851-116.8Z" transform="translate(-3705.178 269.804)" fill="#ffce26"/>
      <path id="Path_3596" data-name="Path 3596" d="M4145.5-55.063s-13.619,52.107-59.332,74.05l.438-15.928s20.1-6.662,32.822-17.993C4138.055-31.528,4145.5-55.063,4145.5-55.063Z" transform="translate(-3524.738 441.49)" fill="#1a1a1a"/>
      <path id="Path_3597" data-name="Path 3597" d="M4150.054-54.3s-4.857.832-9.783,1.788l-7.6,17.69s27.649,33.509,54.6,47.732l15.98,6.976,2.185-2.514S4176.161-.285,4169.3-8.969a103.907,103.907,0,0,0-15.106-15.2,91.009,91.009,0,0,1,7.822-15.819Z" transform="translate(-3395.415 443.62)" fill="#b5b5b5"/>
      <path id="Path_3598" data-name="Path 3598" d="M4190.375-40.824s-3.3-7.686-4.219-10.658-2.856-11.887-7.081-11.429-5.832,4.571-4.689,8.8,4.8,13.947.574,14.862-10.96-3.482-15.709-7.686-16.62-13.509-16.62-13.509-3.784,1.422-4.7,3.478.764,4.851.764,4.851-3.084-.975-4.784,1.085-2.385,5.645-1.295,6.885c0,0-5.679,4-2.013,9.074s8.931,12.049,15.56,17.535,11.216,10.257,19.38,12.212c0,0,6.9-13.584,10.446-18.5S4190.375-40.824,4190.375-40.824Z" transform="translate(-3404.613 419.617)" fill="#fff"/>
      <path id="Path_3599" data-name="Path 3599" d="M4077.732-77.811l14.413,52.1,2.563,5.786,6.132,5.014,2.948,1.479,26.669-.093,10.2,31.594h-77.273l-26.5-95.42Z" transform="translate(-3661.785 378.233)" fill="#1a1a1a"/>
      <path id="Path_3600" data-name="Path 3600" d="M3993.348-92.475c2.575,12.858.689,13.373.689,13.373h5.315l2.193-1.123c.348-1.157,2.969-10.613-1.618-18.178-4.893-8.072-15.52-11.191-25.119-6.371a18.169,18.169,0,0,0-2.466,1.516C3975.76-103.492,3991.1-103.723,3993.348-92.475Z" transform="translate(-3841.263 296.895)" fill="#fff"/>
      <path id="Path_3601" data-name="Path 3601" d="M3982.389-99.441c3.966.306,19.213,2.061,18.691,11.085-.6,10.356-19.04,26.692-19.1,26.745a42.65,42.65,0,0,0,4.583-2.174,51.3,51.3,0,0,0,12.6-10.719c1.512-2.023,6.771-10.824,6.771-10.824s3.7,3.887,4.2,6.318a20.548,20.548,0,0,0-4.779-17.932C4000.71-102.4,3989.852-101.142,3982.389-99.441Z" transform="translate(-3814.45 314.031)" fill="#fff"/>
      <path id="Path_3602" data-name="Path 3602" d="M4143.346-97.3s-10.682,3.917-6.92,9.633a9.251,9.251,0,0,0,5.083-3.028C4143.565-93.211,4143.346-97.3,4143.346-97.3Z" transform="translate(-3387.216 324.032)" fill="#fff"/>
      <path id="Path_3603" data-name="Path 3603" d="M4133.822-88.429a30.758,30.758,0,0,0,13.914-.389,30.781,30.781,0,0,0,5.409-2.238c-6.553,2.1-17.679-3.7-17.679-3.7.751-9.293,14.678-17.4,16.48-18.412-.6.008-1.2.026-1.828.068-10.877.745-22.144,13.429-22.083,24.832,0,0,5.459,13.63,5.376,13.286S4133.822-88.429,4133.822-88.429Z" transform="translate(-3408.321 279.915)" fill="#fff"/>
      <path id="Path_3604" data-name="Path 3604" d="M4153.4-75.97c-22.847,1.459-19.315-22.632-19.315-22.632s-1.032.155-2.419.4a7.89,7.89,0,0,0-2.057,1.119s-2.106,23.1,14,22.023a99.146,99.146,0,0,0,16.054-.684C4158.872-76.084,4156.926-76.193,4153.4-75.97Z" transform="translate(-3404.191 320.417)" fill="#fff"/>
      <path id="Path_3605" data-name="Path 3605" d="M4149.3-75.635l-7.933,13.823,4.566,11.356L4139.134,0l-1.723-1.579-2.714-11.5,5.428-36.692-4.5-12.04L4146.4-81.669Z" transform="translate(-3389.79 367.504)" fill="#fff"/>
      <path id="Path_3606" data-name="Path 3606" d="M4134.3-24.738s-6.314-22.692-30.311-21.577-31.029,18.942-31.029,18.942,11.225,8.427,31.453,8.416S4134.3-24.738,4134.3-24.738Z" transform="translate(-3561.47 465.706)" fill="#fe0054"/>
      <g id="Group_10101" data-name="Group 10101" transform="translate(265.218 261.966)">
        <g id="Group_10095" data-name="Group 10095" transform="translate(0 18.213)">
          <path id="Path_3607" data-name="Path 3607" d="M4007.821-45.161c.852-4.053,5.426-12.707,5.475-12.8l3.009-11.724c.125-.563.261-1.157.412-1.739.994-3.921,2.344-8.287,5.808-10.477,1.928-1.2,4.041-1.24,6.177-1.267a40.448,40.448,0,0,1,8.137.892,15.165,15.165,0,0,1,3.807,1.259c2.673,1.4,4.729,4.7,3.27,8.068a7.71,7.71,0,0,1-4.585,4.008,23.439,23.439,0,0,1-7.222,1.123,21.967,21.967,0,0,1-10.586-2.363c3.564-.185,6.745.556,10.042.556a22.629,22.629,0,0,0,7.138-1.013,6.065,6.065,0,0,0,3.558-3.028c1.018-2.367-.5-4.726-2.454-5.747a13.065,13.065,0,0,0-3.349-1.093,38.7,38.7,0,0,0-7.766-.851,8.788,8.788,0,0,0-5.206.991c-2.9,1.826-4.107,5.8-5.013,9.388-.147.567-.277,1.142-.409,1.716l-3.093,11.951c-.264.552-4.726,8.991-6.374,11.713A.91.91,0,0,1,4007.821-45.161Z" transform="translate(-4007.821 83.165)" fill="#1a1a1a"/>
        </g>
        <g id="Group_10096" data-name="Group 10096" transform="translate(35.028 36.463)">
          <path id="Path_3608" data-name="Path 3608" d="M4022.422-61.449c-2.526-.268-4.129-1.762-5.013-4.579a8.885,8.885,0,0,1,.544-6.136,22.839,22.839,0,0,1,4.1-6.174c-.249,3.051-1.519,4.737-2.446,6.889a7.1,7.1,0,0,0-.469,4.881c.658,2.113,1.7,3.134,3.376,3.312C4023.265-61.793,4022.872-61.449,4022.422-61.449Z" transform="translate(-4017.086 78.338)" fill="#1a1a1a"/>
        </g>
        <g id="Group_10097" data-name="Group 10097" transform="translate(23.898)">
          <path id="Path_3609" data-name="Path 3609" d="M4025.545-64.181a20.385,20.385,0,0,1,4.4-8c3.1-3.875,5.516-6.9,4.468-10.926-.426-1.667-1.674-3.448-3.706-2.975a7.569,7.569,0,0,0-3.077,1.849c-5.43,4.654-9.871,10.567-13.49,15.736,2.2-6.3,6.727-12.325,12.31-17.112a9.274,9.274,0,0,1,3.853-2.231c3.089-.741,5.181,1.633,5.868,4.28,1.267,4.907-1.674,8.586-4.264,11.834-2.253,2.836-3.963,5.006-5.645,7.191A.89.89,0,0,1,4025.545-64.181Z" transform="translate(-4014.143 87.982)" fill="#1a1a1a"/>
        </g>
        <g id="Group_10098" data-name="Group 10098" transform="translate(35.885 21.453)">
          <path id="Path_3610" data-name="Path 3610" d="M4025.618-76.7c-1.387-2.28-2.383-3.2-4.087-3.622-1.1-.265-3.111-.492-4.2,1.074-.239-2.828,1.988-3.49,4.63-2.824a5.893,5.893,0,0,1,4.519,4.189C4025.8-76.712,4025.708-76.7,4025.618-76.7Z" transform="translate(-4017.313 82.308)" fill="#1a1a1a"/>
        </g>
        <g id="Group_10099" data-name="Group 10099" transform="translate(23.97 32.043)">
          <path id="Path_3611" data-name="Path 3611" d="M4021.905-67.3a8.076,8.076,0,0,1-6.975-3.751c-.915-1.652-1.47-4.465,1.074-8.461-.114,3.539-.466,5.826.51,7.584a6.216,6.216,0,0,0,5.384,2.817,6.97,6.97,0,0,0,4.6-2.306,33.251,33.251,0,0,0,2.351-2.658c.45-.544.916-1.108,1.459-1.728.828,1.8.375,2.348-.06,2.881a35.466,35.466,0,0,1-2.477,2.783,8.672,8.672,0,0,1-5.8,2.839Z" transform="translate(-4014.162 79.507)" fill="#1a1a1a"/>
        </g>
        <g id="Group_10100" data-name="Group 10100" transform="translate(24.242 42.369)">
          <path id="Path_3612" data-name="Path 3612" d="M4014.233-65.173a24.14,24.14,0,0,0,2.613-11.6c1.834.079,2.329,5.932-1.906,11.263A.908.908,0,0,1,4014.233-65.173Z" transform="translate(-4014.233 76.776)" fill="#1a1a1a"/>
        </g>
      </g>
      <g id="Group_10102" data-name="Group 10102" transform="translate(758.112 271.31)">
        <path id="Path_3613" data-name="Path 3613" d="M4234.8,120.072c-31.693,0-73.646-32.072-96.6-56.961-.137-1.062,4.891-14.235,13.427-25.562a167.366,167.366,0,0,1,15.829-18.507c1.466.057,46.427,21.728,74.988,45.747-27.808-21.021-68.872-41.4-74.182-44a174.455,174.455,0,0,0-15.189,17.845A111.473,111.473,0,0,0,4139.9,62.3c34.526,37.229,85.612,67.831,112.781,51.328,38.624-23.445,15.882-79.226-2.384-124.04-3.178-7.807-6.187-15.184-8.735-22.053-.269-.733-.564-1.539-.878-2.42-3.682-10.246-10.532-29.324-26.763-39.21-11.457-6.987-27.594-10.991-44.278-10.991,17.009-1.811,33.5,2.291,45.227,9.441,16.768,10.223,23.758,29.69,27.516,40.148q.481,1.31.874,2.4c2.541,6.847,5.542,14.2,8.719,22,18.53,45.453,41.585,102.024,1.637,126.271A35.614,35.614,0,0,1,4234.8,120.072Z" transform="translate(-4138.189 85.511)" fill="#1a1a1a"/>
      </g>
      <g id="Group_10107" data-name="Group 10107" transform="translate(724.028 355.526)">
        <g id="Group_10106" data-name="Group 10106" transform="translate(0 0)">
          <g id="Group_10103" data-name="Group 10103" transform="translate(0 11.074)">
            <path id="Path_3614" data-name="Path 3614" d="M4166.075-11.709c-12.7-1.958-34.324-24.56-36.565-32.208a6.738,6.738,0,0,1,2.736-7.811,5.327,5.327,0,0,1,.906-6.613,6.348,6.348,0,0,1,2.333-1.652,5.511,5.511,0,0,1,4.841.631c-2.173.854-3.236.684-4.181,1.051a4.576,4.576,0,0,0-1.675,1.206,3.542,3.542,0,0,0-.208,5.078c-.483,1.49-4.289,3.255-3.02,7.6,2.1,7.149,23.225,29.1,34.969,30.923C4166.894-12.027,4166.516-11.709,4166.075-11.709Z" transform="translate(-4129.173 60.307)" fill="#1a1a1a"/>
          </g>
          <g id="Group_10104" data-name="Group 10104" transform="translate(7.874)">
            <path id="Path_3615" data-name="Path 3615" d="M4153.526-32.823C4149.5-35.2,4139.95-43.387,4137.2-46.109c-3.142-2.907-5.94-5.475-5.948-8.431a5.6,5.6,0,0,1,2.05-4.129c4.588-4.238,8.953-.053,11.543,2.446.53.507,1.3,1.282,2.227,2.208a130.224,130.224,0,0,0,9.814,9.187c2.356,1.8,9.518,7.233,12.333,5.9,2.031-.968,2.666-2.82.158-9.845-1.8-5.051-1.97-9.781-.441-12.352a3.953,3.953,0,0,1,2.847-2c5.49-.843,6.876,3.342,8.031,6.707.264.771.517,1.527.815,2.208a33.553,33.553,0,0,1,1.6,5.047c.758,2.915,1.544,5.932,3.6,8.647-3.712-1.909-4.547-5.1-5.354-8.189a32.02,32.02,0,0,0-1.509-4.779c-.317-.726-.6-1.524-.869-2.344-1.3-3.822-2.454-6.076-6.033-5.509A2.178,2.178,0,0,0,4170.5-60.2c-1.221,2.053-.983,6.4.6,10.817,2.225,6.272,2.767,10.257-1.1,12.087-3.4,1.607-9.077-2.185-14.2-6.1a130,130,0,0,1-10-9.346c-.915-.911-1.677-1.679-2.2-2.182-3.793-3.652-6.232-5.021-9.06-2.423a3.851,3.851,0,0,0-1.467,2.8c.007,2.163,2.463,4.42,4.252,6.064,3.79,3.69,13.3,11.849,16.692,13.985C4154.124-32.975,4153.829-32.823,4153.526-32.823Z" transform="translate(-4131.257 63.236)" fill="#1a1a1a"/>
          </g>
          <g id="Group_10105" data-name="Group 10105" transform="translate(4.128 20.782)">
            <path id="Path_3616" data-name="Path 3616" d="M4150.149-39.523c-.57-.2-5.271-4-10.529-8.31a84.138,84.138,0,0,1-9.354-9.652c1.028-1.6,6.238,4.768,10.5,8.253,5.256,4.3,9.95,8.1,9.953,8.1C4150.678-39.64,4150.415-39.523,4150.149-39.523Z" transform="translate(-4130.267 57.739)" fill="#1a1a1a"/>
          </g>
        </g>
      </g>
      <g id="Group_10108" data-name="Group 10108" transform="translate(256.587 307.519)">
        <path id="Path_3617" data-name="Path 3617" d="M4053.781-51.057c-5,0-13.763-2.378-24.036-6.522-9.137-3.675-25.925-11.857-24.064-16.48.8-2,3.187-1.906,4.583-1.856a21.394,21.394,0,0,1,7.546,1.55c-2.707.828-4.99.355-7.5.265-1.436-.06-2.65-.034-2.949.715-.574,1.414,7.051,7.686,23.063,14.133,9.917,4,18.646,6.386,23.354,6.386C4054.684-51.461,4054.279-51.057,4053.781-51.057Z" transform="translate(-4005.539 75.934)" fill="#1a1a1a"/>
      </g>
      <g id="Group_10113" data-name="Group 10113" transform="translate(459.058 250.815)">
        <g id="Group_10109" data-name="Group 10109" transform="translate(0.538)">
          <path id="Path_3618" data-name="Path 3618" d="M4107.384-33.616a41.1,41.1,0,0,1,1.718-9.437c.548-2.072,1.062-4.027,1.542-5.369,1.039-2.923,2.3-6.461,1.49-9.263a3.963,3.963,0,0,0-1.933-2.473,4.157,4.157,0,0,0-3.948.446,9.178,9.178,0,0,0-2.975,3.5,12.5,12.5,0,0,0-.79,2.416c-.692,2.654-1.641,6.3-4.81,7.051-4.563,1.081-7.943-2.6-10.121-10.96-.893-3.456-1.724-6.45-2.53-9.165a114.3,114.3,0,0,0-6.673-17.607c-.91-1.9-1.512-3.168-2.635-4a3.636,3.636,0,0,0-2.366-.635,3.9,3.9,0,0,0-3.06,1.607,7.322,7.322,0,0,0-.815,5.875c1.112,4.439,6.722,19.868,6.779,20.019-1.1,1.183-4.114.442-6.344,1.943a5.919,5.919,0,0,0-2.324,4.329c-.866.783-3.694,1.006-5.509,3.164-1.271,1.524-1.77,3.66-1.472,6.355-2.15-3.021-1.512-5.618.1-7.535a9.019,9.019,0,0,1,5.2-2.915,7.328,7.328,0,0,1,3.009-4.907,8.355,8.355,0,0,1,5.128-1.221c-1.426-3.962-5.377-15.021-6.325-18.794a9.1,9.1,0,0,1,1.111-7.384,5.7,5.7,0,0,1,4.409-2.34,5.33,5.33,0,0,1,3.546.979,10.142,10.142,0,0,1,2.938,4.117,118.935,118.935,0,0,1,7.035,18.431c.814,2.733,1.649,5.754,2.552,9.229,1.873,7.221,4.51,10.5,7.951,9.652,2.1-.5,2.862-3.414,3.479-5.751a13.318,13.318,0,0,1,.949-2.836,10.958,10.958,0,0,1,3.588-4.144,5.909,5.909,0,0,1,5.72-.548,5.724,5.724,0,0,1,2.874,3.592c.972,3.365-.454,7.373-1.493,10.3-.483,1.35-.987,3.274-1.528,5.308a56.525,56.525,0,0,1-2.65,8.458A.92.92,0,0,1,4107.384-33.616Z" transform="translate(-4059.234 90.932)" fill="#1a1a1a"/>
        </g>
        <g id="Group_10110" data-name="Group 10110" transform="translate(7.142 35.16)">
          <path id="Path_3619" data-name="Path 3619" d="M4066.482-68.532c-5.565-7.679-5.5-12.885-5.5-13.1,1.8.079,1.789,4.942,6.258,11.694C4066.822-68.581,4066.652-68.532,4066.482-68.532Z" transform="translate(-4060.98 81.632)" fill="#1a1a1a"/>
        </g>
        <g id="Group_10111" data-name="Group 10111" transform="translate(15.814 29.756)">
          <path id="Path_3620" data-name="Path 3620" d="M4068.244-71.63c-4.563-8.851-4.945-11.316-4.968-11.422,1.807-.182,2.257,2.284,5.792,10.148C4068.5-71.653,4068.365-71.63,4068.244-71.63Z" transform="translate(-4063.276 83.061)" fill="#1a1a1a"/>
        </g>
        <g id="Group_10112" data-name="Group 10112" transform="translate(0 43.765)">
          <path id="Path_3621" data-name="Path 3621" d="M4065.674-58.721a39.125,39.125,0,0,1-6.582-20.635c1.807.113,1.807,10.6,7.345,19.24C4066.015-58.766,4065.84-58.721,4065.674-58.721Z" transform="translate(-4059.092 79.356)" fill="#1a1a1a"/>
        </g>
      </g>
      <g id="Group_10117" data-name="Group 10117" transform="translate(737.932 223.19)">
        <g id="Group_10115" data-name="Group 10115">
          <g id="Group_10114" data-name="Group 10114">
            <path id="Path_3622" data-name="Path 3622" d="M4141.648-83.526a10.163,10.163,0,0,1-5.367-1.527c-1.965-1.217-3.267-2.941-3.411-4.507a3.538,3.538,0,0,1,1.375-3.278,5.106,5.106,0,0,1,4.915-.34c2.271.915,2.519.817,3.1.59s.835-.329,1.871-2.541a5.121,5.121,0,0,1,3.839-3.1,3.616,3.616,0,0,1,3.236,1.471c.887,1.153,1.061,3.164.446,5.38a10.526,10.526,0,0,1-6.125,7.1A10.585,10.585,0,0,1,4141.648-83.526Zm-4.772-8.306a2.589,2.589,0,0,0-1.552.45,1.719,1.719,0,0,0-.646,1.66,5,5,0,0,0,2.553,3.127,8.482,8.482,0,0,0,7.628.643,8.718,8.718,0,0,0,5.047-5.906c.511-1.837.3-3.229-.136-3.788a1.706,1.706,0,0,0-1.607-.779,3.374,3.374,0,0,0-2.4,2.064c-1.217,2.62-1.747,3.028-2.839,3.456s-1.76.5-4.441-.6A4.362,4.362,0,0,0,4136.875-91.832Z" transform="translate(-4132.853 98.238)" fill="#1a1a1a"/>
          </g>
        </g>
        <g id="Group_10116" data-name="Group 10116" transform="translate(10.51 2.664)">
          <path id="Path_3623" data-name="Path 3623" d="M4136.259-85.776c-2.581-7.41,3.424-10.87,6.833-11.758.125,1.837-7.646,3.966-5.956,10.632C4136.407-85.783,4136.331-85.776,4136.259-85.776Z" transform="translate(-4135.632 97.534)" fill="#1a1a1a"/>
        </g>
      </g>
      <g id="Group_10118" data-name="Group 10118" transform="translate(726.817 203.819)">
        <path id="Path_3624" data-name="Path 3624" d="M4133.194-94.492c-1.572-.208-3.048-1.2-3.256-4.949a22.621,22.621,0,0,1,.17-3.921c1.407,2.877,1.518,6.836,2.97,7.047,1.8-1.119,2.505-4.571,2.682-6.533,1.747.76,1.227,6.057-.948,7.766A2.56,2.56,0,0,1,4133.194-94.492Z" transform="translate(-4129.912 103.362)" fill="#1a1a1a"/>
      </g>
      <g id="Group_10119" data-name="Group 10119" transform="translate(748.329 203.894)">
        <path id="Path_3625" data-name="Path 3625" d="M4138.774-94.4c-4.221-.7-3.062-8.106-2.915-8.945,1.339,2.907,1.351,6.87,2.792,7.123,1.826-1.093,2.653-4.7,2.887-6.752,1.725.824,1.037,6.344-1.208,8.027A2.581,2.581,0,0,1,4138.774-94.4Z" transform="translate(-4135.604 103.342)" fill="#1a1a1a"/>
      </g>
      <g id="Group_10120" data-name="Group 10120" transform="translate(176.055 236.919)">
        <path id="Path_3626" data-name="Path 3626" d="M3989.634-44.368c-1.7,0-3.538-.038-5.4-.17a17.731,17.731,0,0,1,8.379-1.675c5.031-.087,8.9-.155,11.86-2.945a10.208,10.208,0,0,0,2.264-3.176,19.448,19.448,0,0,0,1.259-5.32,41.553,41.553,0,0,0,.337-6.745,109.43,109.43,0,0,0-1.32-12.507c-.87-6.023-3.573-17.584-3.6-17.7,1.875.064,4.511,11.342,5.248,16.427a117.314,117.314,0,0,1,1.479,13.732,42.375,42.375,0,0,1-.348,7.044,20.623,20.623,0,0,1-1.407,5.819,11.977,11.977,0,0,1-2.669,3.743c-3.471,3.267-7.872,3.35-12.125,3.422C3991.71-44.379,3990.7-44.368,3989.634-44.368Z" transform="translate(-3984.238 94.607)" fill="#1a1a1a"/>
      </g>
      <path id="Path_3627" data-name="Path 3627" d="M3984.563-91.265c.7-.2,1.218.042,1.758,2.594.6,2.847-.079,3.452-.729,3.509s-1.41-.749-1.646-2.809S3983.64-91,3984.563-91.265Z" transform="translate(-3809.415 340.665)" fill="#1a1a1a"/>
      <path id="Path_3628" data-name="Path 3628" d="M3989.392-92.288c.693-.231,1.225,0,1.845,2.533.7,2.832.038,3.452-.613,3.535s-1.433-.7-1.735-2.752S3988.481-91.986,3989.392-92.288Z" transform="translate(-3795.851 337.782)" fill="#1a1a1a"/>
      <g id="Group_10121" data-name="Group 10121" transform="translate(191.247 238.407)">
        <path id="Path_3629" data-name="Path 3629" d="M3993.866-91.735c-1.528-.828-2.767-1.384-5.61-.242,2.813-3.078,4.662-2.382,6.106-1.418C3994.449-91.878,3994.166-91.735,3993.866-91.735Z" transform="translate(-3988.256 94.214)" fill="#1a1a1a"/>
      </g>
      <g id="Group_10122" data-name="Group 10122" transform="translate(146.818 253.116)">
        <path id="Path_3630" data-name="Path 3630" d="M3986.843-69.653a10.359,10.359,0,0,1-10.1-8.136,10.281,10.281,0,0,1,1.4-7.785,10.266,10.266,0,0,1,6.5-4.51,10.262,10.262,0,0,1,5.88.442c.552.053,1.895.408,3.475,2.337-2.726-.465-3.671-.541-3.683-.541a9.188,9.188,0,0,0-5.282-.469,8.464,8.464,0,0,0-5.368,3.72,8.432,8.432,0,0,0-1.157,6.416,8.543,8.543,0,0,0,10.143,6.518,8.449,8.449,0,0,0,4.026-2.121c-.121,2.6-1.807,3.493-3.645,3.89A10.444,10.444,0,0,1,3986.843-69.653Z" transform="translate(-3976.505 90.323)" fill="#1a1a1a"/>
      </g>
      <g id="Group_10123" data-name="Group 10123" transform="translate(153.367 258.741)">
        <path id="Path_3631" data-name="Path 3631" d="M3980.366-78.38c-.621-1.558,4.347-6.261,4.347-6.261l-6.476-3.868c.922-1.55,8.427,2.926,8.427,2.926.159,1.429-5.678,6.957-5.678,6.957A.884.884,0,0,1,3980.366-78.38Z" transform="translate(-3978.238 88.835)" fill="#1a1a1a"/>
      </g>
      <g id="Group_10124" data-name="Group 10124" transform="translate(158.981 286.288)">
        <path id="Path_3632" data-name="Path 3632" d="M4004.624-44.353a12.008,12.008,0,0,1-3.721-.62c-4.884-1.618-8.888-5.263-11.387-8.042a58.772,58.772,0,0,1-9.792-15.388c4.262,5.081,7.453,10.1,11.131,14.182,2.359,2.609,6.11,6.034,10.613,7.524a8.189,8.189,0,0,0,6.711-.355c5.844-3.425,3.757-9.093,1.546-15.1a29.192,29.192,0,0,1-2.072-7.441s-.042-.473-.9-11.955c1.807-.132,2.677,11.528,2.7,11.8a28.242,28.242,0,0,0,1.962,6.972c2.148,5.83,4.817,13.089-2.322,17.278A8.815,8.815,0,0,1,4004.624-44.353Z" transform="translate(-3979.723 81.549)" fill="#1a1a1a"/>
      </g>
      <g id="Group_10125" data-name="Group 10125" transform="translate(158.259 272.674)">
        <path id="Path_3633" data-name="Path 3633" d="M3980.666-58.8c-.9-.892-1.134-26.352-1.134-26.352,1.807-.019,2.038,25.441,2.038,25.441C3980.673-58.8,3980.666-58.8,3980.666-58.8Z" transform="translate(-3979.532 85.15)" fill="#1a1a1a"/>
      </g>
      <g id="Group_10126" data-name="Group 10126" transform="translate(242.533 427.913)">
        <path id="Path_3634" data-name="Path 3634" d="M4005.909,36.717c-1.41-11.891-1.758-22.843-2.1-33.437-.491-15.369-.994-31.267-1.984-47.369,2.794,16.015,3.3,31.929,3.795,47.313.341,10.586.689,21.532,1.192,32.545A12.121,12.121,0,0,1,4005.909,36.717Z" transform="translate(-4001.822 44.09)" fill="#1a1a1a"/>
      </g>
      <g id="Group_10127" data-name="Group 10127" transform="translate(187.798 297.302)">
        <path id="Path_3635" data-name="Path 3635" d="M4039.682,8.247c-3.025-22.817-6.367-42.485-11.112-60.942-1.153-4.492-2.374-8.847-4.625-12.707-6.593-11.32-20.347-11.376-32.483-11.422-1.4,0-2.779-.011-4.118-.03a4.328,4.328,0,0,1,4.132-1.781c12.62.049,26.919.11,34.031,12.325,2.362,4.061,3.629,8.541,4.821,13.165a392.486,392.486,0,0,1,10.253,60.4C4039.735,8.243,4039.713,8.247,4039.682,8.247Z" transform="translate(-3987.345 78.636)" fill="#1a1a1a"/>
      </g>
      <g id="Group_10128" data-name="Group 10128" transform="translate(184.895 245.075)">
        <path id="Path_3636" data-name="Path 3636" d="M3995.007-72.957c-.17-4.155-.011-7.429-.552-7.849-.5-.178-2.506.518-4.3,1.456-1.308-.639-3.576-13.093-3.576-13.093,1.778-.325,3.834,10.949,3.834,10.949,1.757-.817,4.041-1.588,5.148-.749,1.786,1.384.825,6.461.334,8.582A.905.905,0,0,1,3995.007-72.957Z" transform="translate(-3986.576 92.45)" fill="#1a1a1a"/>
      </g>
      <g id="Group_10129" data-name="Group 10129" transform="translate(97.374 297.272)">
        <path id="Path_3637" data-name="Path 3637" d="M3964.331-32.968c-.759-.2-1.017-.715-.858-1.191,5.992-18.095,13.221-29.823,21.49-34.866,9.75-5.94,19.743-9.618,39.408-9.618-19.241,1.811-28.983,5.388-38.459,11.165-7.894,4.813-14.87,16.216-20.719,33.891A.92.92,0,0,1,3964.331-32.968Z" transform="translate(-3963.428 78.644)" fill="#1a1a1a"/>
      </g>
      <g id="Group_10130" data-name="Group 10130" transform="translate(58.469 467.521)">
        <path id="Path_3638" data-name="Path 3638" d="M3953.137,7.585c1.986-15.112,4.806-28.609,7.517-41.2-.942,12.964-3.762,26.454-6.631,40.473A.9.9,0,0,1,3953.137,7.585Z" transform="translate(-3953.137 33.614)" fill="#1a1a1a"/>
      </g>
      <g id="Group_10131" data-name="Group 10131" transform="translate(131.821 476.92)">
        <path id="Path_3639" data-name="Path 3639" d="M3972.538.672c1.172-10.995,2.946-20.753,4.685-31.8.042,11.357-1.731,21.146-3.8,31.078A.9.9,0,0,1,3972.538.672Z" transform="translate(-3972.538 31.128)" fill="#1a1a1a"/>
      </g>
      <g id="Group_10132" data-name="Group 10132" transform="translate(133.344 211.982)">
        <path id="Path_3640" data-name="Path 3640" d="M3997.915-35.414c-15.267-1.456-25.717-17.739-24.931-38.723.284-7.6,2.727-13.422,7.256-17.293,6.79-5.8,15.882-5.27,17.531-5.127,2.737-1.157,26.707-10.8,34.847,1.675,6.362,9.724,4.064,18.291,3.966,18.654a73.181,73.181,0,0,0-5.285-7.134c-2.03,4.609-10.27,20.386-29.593,25.7,21.233-7.713,28.345-27.373,28.409-27.573,1.528-.318,3.581,1.312,5.119,4.48A24.356,24.356,0,0,0,4031.11-93.9c-7.629-11.683-32.59-1.017-32.836-.911-.564.061-10.155-.987-16.866,4.76-4.124,3.531-6.348,8.9-6.62,15.978-.749,19.993,9.013,35.49,23.211,36.851C3998.765-35.766,3998.372-35.414,3997.915-35.414Z" transform="translate(-3972.942 101.203)" fill="#1a1a1a"/>
      </g>
      <g id="Group_10133" data-name="Group 10133" transform="translate(659.19 270.844)">
        <path id="Path_3641" data-name="Path 3641" d="M4112.025-55.6a11.423,11.423,0,0,1,4.385-6.582C4136.54-79.5,4155.219-82.4,4171.7-84.972q2.128-.329,4.2-.662a4.512,4.512,0,0,1-3.931,2.454c-16.238,2.529-34.652,5.4-54.386,22.367a35.46,35.46,0,0,0-4.856,4.87A.911.911,0,0,1,4112.025-55.6Z" transform="translate(-4112.025 85.634)" fill="#1a1a1a"/>
      </g>
      <g id="Group_10134" data-name="Group 10134" transform="translate(722.333 258.409)">
        <path id="Path_3642" data-name="Path 3642" d="M4140.52-21.088c-.886-.726-11.792-53.7-11.792-53.7.3-.866,15.617-14.133,15.617-14.133,1.336.178,18.641,25.789,18.641,25.789l16.7-25.6c1.3-.223,16.823,11.512,16.823,11.512.338.9-8.619,44.625-8.619,44.625-1.769-.363,7.075-43.528,7.075-43.528l-14.3-10.805-16.613,25.471,18.491,33.517c-1.583.87-19.557-31.706-19.557-31.706l-21.683,38.1A.9.9,0,0,1,4140.52-21.088Zm-9.915-53.547,10.311,50.107,21.017-36.931-17.179-25.43Z" transform="translate(-4128.728 88.923)" fill="#1a1a1a"/>
      </g>
      <g id="Group_10135" data-name="Group 10135" transform="translate(744.469 305.839)">
        <path id="Path_3643" data-name="Path 3643" d="M4140.449-63.554c-.834-.56-5.867-12.62-5.867-12.62,1.666-.7,6.464,10.805,6.464,10.805l12.35-.019,3.658-10.991c1.716.571-2.151,12.178-2.151,12.178-.857.62-14.454.647-14.454.647Z" transform="translate(-4134.582 76.378)" fill="#1a1a1a"/>
      </g>
      <g id="Group_10136" data-name="Group 10136" transform="translate(771.385 224.363)">
        <path id="Path_3644" data-name="Path 3644" d="M4144.357-62.29c-.9-.862-2.657-35.638-2.657-35.638,1.8-.091,3.563,34.685,3.563,34.685A8.4,8.4,0,0,1,4144.357-62.29Z" transform="translate(-4141.7 97.928)" fill="#1a1a1a"/>
      </g>
      <g id="Group_10137" data-name="Group 10137" transform="translate(737.794 245.313)">
        <path id="Path_3645" data-name="Path 3645" d="M4133.561-77.7c-.9-.919-.732-14.688-.732-14.688,1.8.023,1.635,13.8,1.635,13.8A.9.9,0,0,1,4133.561-77.7Z" transform="translate(-4132.815 92.387)" fill="#1a1a1a"/>
      </g>
      <g id="Group_10138" data-name="Group 10138" transform="translate(744.809 317.624)">
        <path id="Path_3646" data-name="Path 3646" d="M4134.771-35.555c-.9-1.04,4.533-37.706,4.533-37.706,1.792.265-3.638,36.931-3.638,36.931A.91.91,0,0,1,4134.771-35.555Z" transform="translate(-4134.671 73.261)" fill="#1a1a1a"/>
      </g>
      <g id="Group_10139" data-name="Group 10139" transform="translate(763.037 317.842)">
        <path id="Path_3647" data-name="Path 3647" d="M4143.138-49.821c-.9-.794-3.646-23.38-3.646-23.38,1.792-.223,4.544,22.367,4.544,22.367C4143.213-49.825,4143.174-49.821,4143.138-49.821Z" transform="translate(-4139.492 73.203)" fill="#1a1a1a"/>
      </g>
      <g id="Group_10140" data-name="Group 10140" transform="translate(736.378 320.007)">
        <path id="Path_3648" data-name="Path 3648" d="M4142.712-26.93c-.888-.718-10.271-45.7-10.271-45.7,1.766-.371,11.15,44.609,11.15,44.609C4142.835-26.938,4142.771-26.93,4142.712-26.93Z" transform="translate(-4132.441 72.631)" fill="#1a1a1a"/>
      </g>
      <g id="Group_10141" data-name="Group 10141" transform="translate(755.812 441.104)">
        <path id="Path_3649" data-name="Path 3649" d="M4138.855,27.778c-.9-.9-1.273-68.379-1.273-68.379,1.8-.011,2.179,67.468,2.179,67.468C4138.862,27.778,4138.855,27.778,4138.855,27.778Z" transform="translate(-4137.582 40.601)" fill="#1a1a1a"/>
      </g>
      <g id="Group_10142" data-name="Group 10142" transform="translate(553.932 446.012)">
        <path id="Path_3650" data-name="Path 3650" d="M4085.09,23.405c-.764-.2-1.02-.718-.858-1.195,4.129-12.34,6.057-44.33,7.085-61.513.767,17.376-1.165,49.521-5.368,62.088A.912.912,0,0,1,4085.09,23.405Z" transform="translate(-4084.185 39.303)" fill="#1a1a1a"/>
      </g>
      <g id="Group_10143" data-name="Group 10143" transform="translate(180.767 267.574)">
        <path id="Path_3651" data-name="Path 3651" d="M3992.2-80.5a6.1,6.1,0,0,1-2.843-.669c-2.991-1.539-3.842-5.142-3.875-5.293,1.768-.378,2.476,2.544,4.71,3.686a5.791,5.791,0,0,0,4.934-.2C3994.543-80.771,3993.326-80.5,3992.2-80.5Z" transform="translate(-3985.484 86.499)" fill="#1a1a1a"/>
      </g>
      <g id="Group_10144" data-name="Group 10144" transform="translate(724.513 192.344)">
        <path id="Path_3652" data-name="Path 3652" d="M4145.6-52.513c-4.841,0-9.881-.575-13-5.335-3.2-4.873-3.212-11.221-3.236-16.821,0-1.233,0-2.439-.041-3.6-.12-3.819.454-27.135.479-28.129,1.8.287,1.212,24.3,1.323,28.072.037,1.18.044,2.4.052,3.648.017,5.611.035,11.414,2.932,15.834,3.084,4.7,8.5,4.6,13.811,4.492.668-.011,1.343-.03,2-.034a52.381,52.381,0,0,0,11.46-1.13c3.084-.7,6.274-1.422,8.082-4.087,1.991-2.938,2.406-6.9,2.546-10.015a38.51,38.51,0,0,0-.155-6.117c-.594-4.934-1.45-12.582-1.45-12.582a11.329,11.329,0,0,1,3.6-5.365,11.8,11.8,0,0,1,8.665-2.631,11.76,11.76,0,0,1,7.984,4.265,11.85,11.85,0,0,1-1.625,16.647,11.8,11.8,0,0,1-14.711.253c4.817,1.41,9.938,1.32,13.554-1.656a10.035,10.035,0,0,0,1.383-14.1,10.028,10.028,0,0,0-14.094-1.38,9.987,9.987,0,0,0-2.932,3.981c.144,1.293.886,7.921,1.428,12.356a40.891,40.891,0,0,1,.163,6.412c-.151,3.357-.618,7.637-2.859,10.945-2.2,3.263-5.915,4.1-9.184,4.839a54.1,54.1,0,0,1-11.838,1.18c-.653,0-1.306.015-1.978.026C4147.176-52.528,4146.392-52.513,4145.6-52.513Z" transform="translate(-4129.305 106.397)" fill="#1a1a1a"/>
      </g>
      <g id="Group_10145" data-name="Group 10145" transform="translate(725.948 196.128)">
        <path id="Path_3653" data-name="Path 3653" d="M4129.841-100.851c-.8-1.331,1.351-5.853,7.8-4.178-5.437.446-6.957,3.622-6.978,3.656A.906.906,0,0,1,4129.841-100.851Z" transform="translate(-4129.683 105.396)" fill="#1a1a1a"/>
      </g>
      <g id="Group_10146" data-name="Group 10146" transform="translate(747.898 195.778)">
        <path id="Path_3654" data-name="Path 3654" d="M4144.88-100.083c-4.911-5.709-9.115-3.183-9.292-3.078-.926-1.561,4.764-5.081,10.008,1.614C4145.275-100.147,4145.076-100.083,4144.88-100.083Z" transform="translate(-4135.488 105.489)" fill="#1a1a1a"/>
      </g>
      <g id="Group_10147" data-name="Group 10147" transform="translate(771.287 207.161)">
        <path id="Path_3655" data-name="Path 3655" d="M4150.563-88.856c-.4-.095-8.883-4.291-8.883-4.291-.246-1.444,7.464-9.331,7.464-9.331,1.292,1.267-5.549,8.261-5.549,8.261l7.365,3.645C4151.214-89.037,4150.895-88.856,4150.563-88.856Z" transform="translate(-4141.674 102.478)" fill="#1a1a1a"/>
      </g>
      <g id="Group_10148" data-name="Group 10148" transform="translate(756.858 170.393)">
        <path id="Path_3656" data-name="Path 3656" d="M4137.934-105.216c-.707-1.471,3.741-6.987,3.741-6.987,1.41,1.138-3.033,6.65-3.033,6.65A.921.921,0,0,1,4137.934-105.216Z" transform="translate(-4137.858 112.203)" fill="#1a1a1a"/>
      </g>
      <g id="Group_10149" data-name="Group 10149" transform="translate(723.622 181.599)">
        <path id="Path_3657" data-name="Path 3657" d="M4149.938-69.465c2.015-4.083,6.843-3.633,10.733-3.282a15.92,15.92,0,0,0,3.952.11c1.042-.272,2.465-6.182,2.974-12.393l.669-2.7a35.234,35.234,0,0,1-8.571-18.942,34.152,34.152,0,0,1-30.628,7.856,36.76,36.76,0,0,0,30.686-10.42c1.584.684,2.064,12.1,10.167,20.624.219.843-.541,3.875-.541,3.875-.3,3.807-1.376,13.085-4.3,13.853a15.179,15.179,0,0,1-4.566-.057c-3.354-.306-7.909-.726-9.947,1.225A.89.89,0,0,1,4149.938-69.465Z" transform="translate(-4129.067 109.239)" fill="#1a1a1a"/>
      </g>
      <g id="Group_10150" data-name="Group 10150" transform="translate(725.501 221.061)">
        <path id="Path_3658" data-name="Path 3658" d="M4129.564-96.051c2.875-3.826,6.468-2.563,6.62-2.5-.635,1.686-3.542.692-6.132,2.359A.878.878,0,0,1,4129.564-96.051Z" transform="translate(-4129.564 98.801)" fill="#1a1a1a"/>
      </g>
      <g id="Group_10151" data-name="Group 10151" transform="translate(0 506.909)">
        <path id="Path_3659" data-name="Path 3659" d="M4825.289-21.385H3937.673c0-1.811,887.616-1.811,887.616-1.811C4826.194-21.79,4825.79-21.385,4825.289-21.385Z" transform="translate(-3937.673 23.196)" fill="#1a1a1a"/>
      </g>
      <g id="Group_10152" data-name="Group 10152" transform="translate(606.283 261.381)">
        <path id="Path_3660" data-name="Path 3660" d="M4106.889-66.658a10.8,10.8,0,0,1-3.787-.688,10.747,10.747,0,0,1-5.07-3.974c2.529.484,3.99,1.63,5.708,2.276a8.966,8.966,0,0,0,11.54-5.214,8.871,8.871,0,0,0-.22-6.847,8.873,8.873,0,0,0-5-4.688,8.914,8.914,0,0,0-8.6,1.263c1.88-3.713,5.74-4.284,9.243-2.957a10.707,10.707,0,0,1,6.014,5.633,10.729,10.729,0,0,1,.264,8.235A10.8,10.8,0,0,1,4106.889-66.658Z" transform="translate(-4098.032 88.137)" fill="#1a1a1a"/>
      </g>
      <g id="Group_10153" data-name="Group 10153" transform="translate(610.368 267.343)">
        <path id="Path_3661" data-name="Path 3661" d="M4104.634-75.857c-.73-.371-5.522-6.942-5.522-6.942.482-1.4,8.64-3.762,8.64-3.762.5,1.739-6.415,3.735-6.415,3.735l4.027,5.527C4105.007-75.913,4104.819-75.857,4104.634-75.857Z" transform="translate(-4099.112 86.56)" fill="#1a1a1a"/>
      </g>
      <g id="Group_10154" data-name="Group 10154" transform="translate(689.111 378.026)">
        <path id="Path_3662" data-name="Path 3662" d="M4122.494,73.409c-.932-1.134-4-33.018-1.742-66.988,1.063-15.993,1.218-36.832.458-63.706a393.214,393.214,0,0,1,1.35,63.831,456.917,456.917,0,0,0,.835,65.869C4122.557,73.405,4122.523,73.409,4122.494,73.409Z" transform="translate(-4119.939 57.285)" fill="#1a1a1a"/>
      </g>
      <g id="Group_10155" data-name="Group 10155" transform="translate(587.393 247.158)">
        <path id="Path_3663" data-name="Path 3663" d="M4107.138-41.49c-5.44-.5-9.331-2.5-11.661-5.951-4.244-6.3-1.689-15.032-1.579-15.4L4101.01-91.9c1.758.427-5.369,29.532-5.369,29.532-.039.129-2.428,8.348,1.341,13.917,2.009,2.979,5.455,4.707,10.239,5.149C4108-41.845,4107.6-41.49,4107.138-41.49Z" transform="translate(-4093.035 91.899)" fill="#1a1a1a"/>
      </g>
      <g id="Group_10156" data-name="Group 10156" transform="translate(584.016 248.32)">
        <path id="Path_3664" data-name="Path 3664" d="M4096.355-67.6c-3.514-.858-4.618-2.82-4.087-4.707L4096.944-89a3.572,3.572,0,0,1,4.391-2.465,4.125,4.125,0,0,1,2.8,1.871,3.547,3.547,0,0,1,.334,2.7l-4.686,16.681A3.568,3.568,0,0,1,4096.355-67.6Zm-.466-1.875a1.776,1.776,0,0,0,2.15-1.214l4.69-16.681c-2.793-2.613-3.773-2.053-4.042-1.127l-4.677,16.677a1.743,1.743,0,0,0,1.21,2.151Z" transform="translate(-4092.142 91.592)" fill="#1a1a1a"/>
      </g>
      <g id="Group_10157" data-name="Group 10157" transform="translate(594.907 226.027)">
        <path id="Path_3665" data-name="Path 3665" d="M4170.831,63.816a55.874,55.874,0,0,1-16.368-2.779c-4.6-1.4-9.78-3.361-13.316-7.4-4.3-4.919-5.8-12.31-4.453-21.974.332-2.386.782-4.779,1.225-7.1A83.433,83.433,0,0,0,4139.6,12.4c.087-2.223.011-5.062-1.343-7.342-2.334-3.932-7.734-5.5-11.591-6.344-.915-.2-1.834-.378-2.756-.556a44.828,44.828,0,0,1-8.363-2.212c-8.379-3.422-14.6-12.862-14.8-22.45-.147-6.953,5.75-12.737,11.318-15.838-4.227,4.424-9.638,9.652-9.516,15.8.192,8.9,5.944,17.649,13.681,20.809a43.186,43.186,0,0,0,8.031,2.113c.932.185,1.861.363,2.788.563,4.193.915,10.063,2.654,12.768,7.187C4141.4,6.82,4141.5,10,4141.4,12.465a83.456,83.456,0,0,1-1.708,12.431c-.434,2.3-.886,4.669-1.21,7.01-1.262,9.123.087,16.031,4.024,20.537,3.236,3.7,8.125,5.543,12.482,6.862a54.243,54.243,0,0,0,15.84,2.7c16.21-.147,28.112-12.605,28.032-28.972-.086-17.463-8.828-34.613-21.747-42.677-1.987-1.248-4.169-2.382-6.278-3.478-5.343-2.786-10.866-5.66-14.318-10.741-5.679-8.344-3.271-17.543-.945-26.443a84.955,84.955,0,0,0,2.059-9.255c3.789-26.465-9.009-33.263-16.98-34.965-2.011-.427-12.4.8-18.873,1.724-12.827-5.183-19.279-1.83-20.227-1.263-.819,1.259-6.612,10.533-4.071,19.588,1.6,5.694,6.167,10.242,13.58,13.509-8.669-1.845-13.58-6.783-15.327-13.032-2.937-10.518,4.133-20.813,4.431-21.244.5-.423,7.4-5.191,21.6.616,2.544-.363,16.366-2.291,19.27-1.667,8.582,1.834,22.391,9.066,18.391,36.995a88,88,0,0,1-2.1,9.452c-2.223,8.511-4.523,17.3.692,24.968,3.191,4.7,8.276,7.35,13.659,10.151,2.136,1.115,4.345,2.268,6.4,3.55,13.425,8.378,22.505,26.144,22.588,44.2.087,17.392-12.578,30.632-29.464,30.791Z" transform="translate(-4095.023 97.488)" fill="#1a1a1a"/>
      </g>
      <g id="Group_10158" data-name="Group 10158" transform="translate(394.081 206.272)">
        <path id="Path_3666" data-name="Path 3666" d="M4117.114,56.723H4093.32a16.372,16.372,0,0,1-15.738-11.974l-35.074-126.77a16.2,16.2,0,0,1,2.745-14.246,16.217,16.217,0,0,1,13-6.446h195.6A16.379,16.379,0,0,1,4269.6-90.732l3.033,10.779c-1.742.488-4.778-10.291-4.778-10.291a14.557,14.557,0,0,0-13.993-10.658h-195.6A14.4,14.4,0,0,0,4046.7-95.17a14.391,14.391,0,0,0-2.443,12.666l35.07,126.77a14.552,14.552,0,0,0,14,10.647h23.793C4118.013,56.318,4117.609,56.723,4117.114,56.723Z" transform="translate(-4041.905 102.713)" fill="#1a1a1a"/>
      </g>
      <g id="Group_10159" data-name="Group 10159" transform="translate(533.245 363.897)">
        <path id="Path_3667" data-name="Path 3667" d="M4111.217-59.211h-32.5c0-1.811,32.5-1.811,32.5-1.811C4112.121-59.616,4111.717-59.211,4111.217-59.211Z" transform="translate(-4078.714 61.022)" fill="#1a1a1a"/>
      </g>
      <g id="Group_10160" data-name="Group 10160" transform="translate(588.308 219.35)">
        <path id="Path_3668" data-name="Path 3668" d="M4112.692-90.978c-1.875-4.3-4.987-6.465-9.2-6.465h-10.215c0-1.811,10.215-1.811,10.215-1.811,5.07,0,8.839,2.665,10.077,7.127C4112.854-90.989,4112.775-90.978,4112.692-90.978Z" transform="translate(-4093.278 99.254)" fill="#1a1a1a"/>
      </g>
      <g id="Group_10161" data-name="Group 10161" transform="translate(410.509 219.35)">
        <path id="Path_3669" data-name="Path 3669" d="M4102.089,34.03H4091a13.7,13.7,0,0,1-13.156-10.012L4046.546-89.125a7.943,7.943,0,0,1,1.338-6.972,7.943,7.943,0,0,1,6.367-3.157h138.577c0,1.811-138.577,1.811-138.577,1.811A6.129,6.129,0,0,0,4049.328-95a6.11,6.11,0,0,0-1.036,5.388l31.294,113.147A11.87,11.87,0,0,0,4091,32.215h11.093C4102.99,33.621,4102.584,34.03,4102.089,34.03Z" transform="translate(-4046.251 99.254)" fill="#1a1a1a"/>
      </g>
      <g id="Group_10162" data-name="Group 10162" transform="translate(528.477 350.819)">
        <path id="Path_3670" data-name="Path 3670" d="M4120.047-62.666h-42.594c0-1.815,42.594-1.815,42.594-1.815C4120.951-63.075,4120.542-62.666,4120.047-62.666Z" transform="translate(-4077.452 64.481)" fill="#1a1a1a"/>
      </g>
      <g id="Group_10166" data-name="Group 10166" transform="translate(443.814 242.428)">
        <g id="Group_10163" data-name="Group 10163">
          <path id="Path_3671" data-name="Path 3671" d="M4107.544-91.339H4055.06c0-1.811,52.484-1.811,52.484-1.811C4108.444-91.744,4108.039-91.339,4107.544-91.339Z" transform="translate(-4055.06 93.15)" fill="#1a1a1a"/>
        </g>
        <g id="Group_10164" data-name="Group 10164" transform="translate(35.055 11.429)">
          <path id="Path_3672" data-name="Path 3672" d="M4085.129-88.316h-20.8c0-1.811,20.8-1.811,20.8-1.811C4086.033-88.721,4085.629-88.316,4085.129-88.316Z" transform="translate(-4064.331 90.127)" fill="#1a1a1a"/>
        </g>
        <g id="Group_10165" data-name="Group 10165" transform="translate(3.368 11.429)">
          <path id="Path_3673" data-name="Path 3673" d="M4077.445-88.316h-21.493c0-1.811,21.493-1.811,21.493-1.811C4078.345-88.721,4077.94-88.316,4077.445-88.316Z" transform="translate(-4055.951 90.127)" fill="#1a1a1a"/>
        </g>
      </g>
      <g id="Group_10169" data-name="Group 10169" transform="translate(535.922 242.428)">
        <g id="Group_10167" data-name="Group 10167">
          <path id="Path_3674" data-name="Path 3674" d="M4131.91-91.339h-52.488c0-1.811,52.488-1.811,52.488-1.811C4132.818-91.744,4132.408-91.339,4131.91-91.339Z" transform="translate(-4079.422 93.15)" fill="#1a1a1a"/>
        </g>
        <g id="Group_10168" data-name="Group 10168" transform="translate(3.376 11.429)">
          <path id="Path_3675" data-name="Path 3675" d="M4129.7-88.316h-49.384c0-1.811,49.384-1.811,49.384-1.811C4130.6-88.721,4130.2-88.316,4129.7-88.316Z" transform="translate(-4080.315 90.127)" fill="#1a1a1a"/>
        </g>
      </g>
      <g id="Group_10174" data-name="Group 10174" transform="translate(456.034 276.826)">
        <g id="Group_10170" data-name="Group 10170" transform="translate(31.123)">
          <path id="Path_3676" data-name="Path 3676" d="M4087.886-82.241h-21.363c0-1.811,21.363-1.811,21.363-1.811C4088.79-82.646,4088.384-82.241,4087.886-82.241Z" transform="translate(-4066.523 84.052)" fill="#1a1a1a"/>
        </g>
        <g id="Group_10171" data-name="Group 10171">
          <path id="Path_3677" data-name="Path 3677" d="M4077.044-82.241h-18.752c0-1.811,18.752-1.811,18.752-1.811C4077.948-82.646,4077.544-82.241,4077.044-82.241Z" transform="translate(-4058.292 84.052)" fill="#1a1a1a"/>
        </g>
        <g id="Group_10172" data-name="Group 10172" transform="translate(35.268 11.429)">
          <path id="Path_3678" data-name="Path 3678" d="M4077.9-79.218h-10.284c0-1.811,10.284-1.811,10.284-1.811C4078.8-79.626,4078.4-79.218,4077.9-79.218Z" transform="translate(-4067.619 81.029)" fill="#1a1a1a"/>
        </g>
        <g id="Group_10173" data-name="Group 10173" transform="translate(3.373 11.429)">
          <path id="Path_3679" data-name="Path 3679" d="M4061-79.218h-1.812A1.774,1.774,0,0,1,4061-81.029C4061.894-79.626,4061.49-79.218,4061-79.218Z" transform="translate(-4059.184 81.029)" fill="#1a1a1a"/>
        </g>
      </g>
      <g id="Group_10177" data-name="Group 10177" transform="translate(548.148 276.826)">
        <g id="Group_10175" data-name="Group 10175">
          <path id="Path_3680" data-name="Path 3680" d="M4122.917-82.241h-40.261c0-1.811,40.261-1.811,40.261-1.811C4123.825-82.646,4123.416-82.241,4122.917-82.241Z" transform="translate(-4082.656 84.052)" fill="#1a1a1a"/>
        </g>
        <g id="Group_10176" data-name="Group 10176" transform="translate(3.373 11.429)">
          <path id="Path_3681" data-name="Path 3681" d="M4121.385-79.218h-37.837c0-1.811,37.837-1.811,37.837-1.811C4122.289-79.626,4121.881-79.218,4121.385-79.218Z" transform="translate(-4083.548 81.029)" fill="#1a1a1a"/>
        </g>
      </g>
      <g id="Group_10180" data-name="Group 10180" transform="translate(515.989 311.223)">
        <g id="Group_10178" data-name="Group 10178">
          <path id="Path_3682" data-name="Path 3682" d="M4078.7-73.143h-4.553c0-1.811,4.553-1.811,4.553-1.811C4079.6-73.551,4079.2-73.143,4078.7-73.143Z" transform="translate(-4074.149 74.954)" fill="#1a1a1a"/>
        </g>
        <g id="Group_10179" data-name="Group 10179" transform="translate(3.77 11.426)">
          <path id="Path_3683" data-name="Path 3683" d="M4079.3-70.121h-4.152c0-1.811,4.152-1.811,4.152-1.811C4080.2-70.522,4079.8-70.121,4079.3-70.121Z" transform="translate(-4075.146 71.932)" fill="#1a1a1a"/>
        </g>
      </g>
      <g id="Group_10183" data-name="Group 10183" transform="translate(560.164 311.223)">
        <g id="Group_10181" data-name="Group 10181">
          <path id="Path_3684" data-name="Path 3684" d="M4132.7-73.143h-46.866c0-1.811,46.866-1.811,46.866-1.811C4133.6-73.551,4133.2-73.143,4132.7-73.143Z" transform="translate(-4085.833 74.954)" fill="#1a1a1a"/>
        </g>
        <g id="Group_10182" data-name="Group 10182" transform="translate(3.369 11.426)">
          <path id="Path_3685" data-name="Path 3685" d="M4111.3-70.121h-24.571c0-1.811,24.571-1.811,24.571-1.811C4112.2-70.522,4111.793-70.121,4111.3-70.121Z" transform="translate(-4086.725 71.932)" fill="#1a1a1a"/>
        </g>
      </g>
      <g id="Group_10184" data-name="Group 10184" transform="translate(120.862 189.278)">
        <path id="Path_3686" data-name="Path 3686" d="M3983.029-63.9c-10.626-2.707-14.252-13.8-13.22-22.968,1.02-9.134,7.107-19.944,20.877-20.325,6.9-.181,12.185,1.792,15.633,5.906,6.722,8.023,4.106,21.123,3.989,21.679-1.742-.492.779-13.18-5.38-20.526-3.078-3.66-7.767-5.463-14.2-5.252-12.6.355-18.178,10.306-19.127,18.719s2.3,18.575,11.652,20.987C3983.8-64.179,3983.435-63.9,3983.029-63.9Z" transform="translate(-3969.64 107.208)" fill="#1a1a1a"/>
      </g>
      <g id="Group_10185" data-name="Group 10185" transform="translate(76.931 286.421)">
        <path id="Path_3687" data-name="Path 3687" d="M3958.021-41.71c23.181-17.755,50.871-30.587,81.793-39.8-30.224,10.9-57.752,23.656-81.283,39.649A.946.946,0,0,1,3958.021-41.71Z" transform="translate(-3958.021 81.514)" fill="#1a1a1a"/>
      </g>
      <g id="Group_10186" data-name="Group 10186" transform="translate(200.559 274.515)">
        <path id="Path_3688" data-name="Path 3688" d="M3990.72-80.757c4.927-2.654,9.411-3.3,14.4-3.906-4.746,2.393-9.207,3.036-14.247,3.894C3990.819-80.765,3990.769-80.757,3990.72-80.757Z" transform="translate(-3990.72 84.663)" fill="#1a1a1a"/>
      </g>
      <g id="Group_10187" data-name="Group 10187" transform="translate(77.385 151.648)">
        <path id="Path_3689" data-name="Path 3689" d="M3958.141-74.979c24.246-18.556,53.718-31.872,87.086-41.233,1.153-.325,2.306-.639,3.456-.949a3.584,3.584,0,0,1-2.966,2.692c-33.18,9.3-62.473,22.541-87.072,39.331A.879.879,0,0,1,3958.141-74.979Z" transform="translate(-3958.141 117.161)" fill="#1a1a1a"/>
      </g>
      <g id="Group_10188" data-name="Group 10188" transform="translate(195.655 142.54)">
        <path id="Path_3690" data-name="Path 3690" d="M3989.423-114.893c6.3-2.96,12.847-3.928,19.312-4.677-6.22,2.541-12.73,3.5-19.153,4.662A1.137,1.137,0,0,1,3989.423-114.893Z" transform="translate(-3989.423 119.57)" fill="#1a1a1a"/>
      </g>
      <g id="Group_10189" data-name="Group 10189" transform="translate(304.886 152.843)">
        <path id="Path_3691" data-name="Path 3691" d="M4018.707,56.621c-.9-.93.038-35.464.038-35.464,3.679-3.044,6.851-5.407,9.883-7.8l.571-130.04c1.263-.828,7.335,1.819,9.327,2.752,19.154,8.972,31.756,22.56,36.455,39.3,7.792,27.77-8.829,60.466-44.728,89-3.349,2.658-6.464,4.991-9.716,7.293l-.93,34.08A.9.9,0,0,1,4018.707,56.621ZM4031-115.307l-.556,127.212c34.4-27.811,50.289-59.343,42.8-86.047-4.552-16.22-16.817-29.414-35.482-38.152C4036.344-112.955,4032.877-114.482,4031-115.307Z" transform="translate(-4018.314 116.845)" fill="#1a1a1a"/>
      </g>
      <g id="Group_10190" data-name="Group 10190" transform="translate(302.387 325.378)">
        <path id="Path_3692" data-name="Path 3692" d="M4017.838,29.8c-.9-.934,1.8-101.011,1.8-101.011,1.8.053-.9,100.13-.9,100.13A.9.9,0,0,1,4017.838,29.8Z" transform="translate(-4017.653 71.21)" fill="#1a1a1a"/>
      </g>
      <g id="Group_10191" data-name="Group 10191" transform="translate(302.571 307.227)">
        <path id="Path_3693" data-name="Path 3693" d="M4017.7,43.152c35.657-26.159,57.339-55.453,58.974-82.028.049-1.142.034-37.135.034-37.135,1.807,0,1.818,36.031,1.818,36.031-1.716,28.352-23.683,58.152-60.315,82.973A.92.92,0,0,1,4017.7,43.152Z" transform="translate(-4017.701 76.011)" fill="#1a1a1a"/>
      </g>
      <g id="Group_10192" data-name="Group 10192" transform="translate(361.544 205.868)">
        <path id="Path_3694" data-name="Path 3694" d="M4034.233-21.56c-.9-.907-.934-81.26-.934-81.26,1.8,0,1.833,80.353,1.833,80.353A.906.906,0,0,1,4034.233-21.56Z" transform="translate(-4033.3 102.82)" fill="#1a1a1a"/>
      </g>
      <g id="Group_10193" data-name="Group 10193" transform="translate(214.462 436.235)">
        <path id="Path_3695" data-name="Path 3695" d="M3995-12.168c-.9-.919-.534-29.721-.534-29.721,1.808.026,1.437,28.828,1.437,28.828A.9.9,0,0,1,3995-12.168Z" transform="translate(-3994.397 41.889)" fill="#1a1a1a"/>
      </g>
      <g id="Group_10194" data-name="Group 10194" transform="translate(215.588 332.46)">
        <path id="Path_3696" data-name="Path 3696" d="M3995.147-11.725c-.9-.919-.177-57.612-.177-57.612,1.808.026,1.081,56.715,1.081,56.715A.9.9,0,0,1,3995.147-11.725Z" transform="translate(-3994.694 69.337)" fill="#1a1a1a"/>
      </g>
      <g id="Group_10195" data-name="Group 10195" transform="translate(55.516 331.08)">
        <path id="Path_3697" data-name="Path 3697" d="M4028.619-55.006c-29.411,0-55.993-4.923-76.263-14.7,38.886,16.738,99.631,17.755,159.307,1.006l1.69-.484a1.734,1.734,0,0,1-1.191,2.223A313.008,313.008,0,0,1,4028.619-55.006Z" transform="translate(-3952.356 69.702)" fill="#1a1a1a"/>
      </g>
      <g id="Group_10196" data-name="Group 10196" transform="translate(16.336 277.604)">
        <path id="Path_3698" data-name="Path 3698" d="M3956.432-48.5a50.668,50.668,0,0,1-12.544-21.577,51.7,51.7,0,0,1-1.895-13.77c1.819,4.514,2.435,8.983,3.642,13.278a51.727,51.727,0,0,0,11.47,20.56C3956.86-48.575,3956.644-48.5,3956.432-48.5Z" transform="translate(-3941.993 83.846)" fill="#1a1a1a"/>
      </g>
      <g id="Group_10197" data-name="Group 10197" transform="translate(100.705 380.135)">
        <path id="Path_3699" data-name="Path 3699" d="M3995.386-52.908a231.15,231.15,0,0,1-31.078-2.019c19.973.885,41.479.881,64.178-1.8C4017.273-53.581,4006.143-52.908,3995.386-52.908Z" transform="translate(-3964.309 56.727)" fill="#1a1a1a"/>
      </g>
      <g id="Group_10198" data-name="Group 10198" transform="translate(99.049 395.58)">
        <path id="Path_3700" data-name="Path 3700" d="M3996.6-48.816a229.625,229.625,0,0,1-32.733-2.257,380.222,380.222,0,0,0,65.833-1.569C4018.483-49.489,4007.361-48.816,3996.6-48.816Z" transform="translate(-3963.871 52.642)" fill="#1a1a1a"/>
      </g>
      <g id="Group_10199" data-name="Group 10199" transform="translate(16.336 320.49)">
        <path id="Path_3701" data-name="Path 3701" d="M4057.5,85a217.081,217.081,0,0,1-45.108-4.461c-37.354-7.977-61.684-25.758-68.508-50.065a51.462,51.462,0,0,1-1.875-12.435l-.02-1.853V-72.5c1.8,0,1.823,90.5,1.823,90.5a49.657,49.657,0,0,0,1.819,11.981c6.627,23.634,30.469,40.957,67.143,48.783,36.885,7.875,82.232,5.176,127.7-7.58A253.791,253.791,0,0,1,4057.5,85Z" transform="translate(-3941.993 72.503)" fill="#1a1a1a"/>
      </g>
      <g id="Group_10200" data-name="Group 10200" transform="translate(16.336 279.23)">
        <path id="Path_3702" data-name="Path 3702" d="M3942.894-41.253c-.9-.9-.9-42.163-.9-42.163,1.8,0,1.8,41.26,1.8,41.26A.9.9,0,0,1,3942.894-41.253Z" transform="translate(-3941.993 83.416)" fill="#1a1a1a"/>
      </g>
      <g id="Group_10201" data-name="Group 10201" transform="translate(76.481 192.922)">
        <path id="Path_3703" data-name="Path 3703" d="M3958.805,27.059c-.9-.9-.9-133.3-.9-133.3,1.8,0,1.8,132.4,1.8,132.4A.9.9,0,0,1,3958.805,27.059Z" transform="translate(-3957.901 106.244)" fill="#1a1a1a"/>
      </g>
      <g id="Group_10202" data-name="Group 10202" transform="translate(214.17 143.443)">
        <path id="Path_3704" data-name="Path 3704" d="M3995.22,13.545c-.9-.907-.9-132.876-.9-132.876,1.8,0,1.8,131.968,1.8,131.968A.9.9,0,0,1,3995.22,13.545Z" transform="translate(-3994.319 119.331)" fill="#1a1a1a"/>
      </g>
      <g id="Group_10203" data-name="Group 10203" transform="translate(319.162 315.877)">
        <path id="Path_3705" data-name="Path 3705" d="M4022.09-46.138c6.93-7.433,17.867-16.658,27.471-27.585-8.337,12.231-19.365,21.535-26.919,27.4A.865.865,0,0,1,4022.09-46.138Z" transform="translate(-4022.09 73.723)" fill="#1a1a1a"/>
      </g>
      <g id="Group_10204" data-name="Group 10204" transform="translate(245.947 352.834)">
        <path id="Path_3706" data-name="Path 3706" d="M4002.725,35.108c32.231-1.811,49.962-62.591,57.706-99.056C4054.346-26.564,4036.222,35.108,4002.725,35.108Z" transform="translate(-4002.725 63.948)" fill="#1a1a1a"/>
      </g>
      <g id="Group_10205" data-name="Group 10205" transform="translate(236.543 309.522)">
        <path id="Path_3707" data-name="Path 3707" d="M4000.26-28.934c-.819-1.289,20.1-46.47,20.1-46.47,1.645.76-19.275,45.94-19.275,45.94A.9.9,0,0,1,4000.26-28.934Z" transform="translate(-4000.237 75.404)" fill="#1a1a1a"/>
      </g>
      <g id="Group_10206" data-name="Group 10206" transform="translate(295.365 318.531)">
        <path id="Path_3708" data-name="Path 3708" d="M4015.8-61.335c3.713-4.189,6.964-7.554,9.2-11.686-.8,5.282-4.276,8.885-8.733,11.562A.955.955,0,0,1,4015.8-61.335Z" transform="translate(-4015.796 73.021)" fill="#1a1a1a"/>
      </g>
      <g id="Group_10207" data-name="Group 10207" transform="translate(171.072 377.356)">
        <path id="Path_3709" data-name="Path 3709" d="M3982.921-37.666c.492-1.853,56.583-6.613,80.482-19.8-23.365,14.957-79.839,19.751-80.41,19.792Z" transform="translate(-3982.921 57.462)" fill="#1a1a1a"/>
      </g>
      <g id="Group_10208" data-name="Group 10208" transform="translate(171.072 423.149)">
        <path id="Path_3710" data-name="Path 3710" d="M3982.921-25.55c.492-1.853,56.583-6.613,80.482-19.8-23.365,14.961-79.839,19.755-80.41,19.8Z" transform="translate(-3982.921 45.35)" fill="#1a1a1a"/>
      </g>
      <g id="Group_10209" data-name="Group 10209" transform="translate(170.168 396.249)">
        <path id="Path_3711" data-name="Path 3711" d="M3983.586-5.614c-.9-.907-.9-46.851-.9-46.851,1.8,0,1.8,45.944,1.8,45.944A.906.906,0,0,1,3983.586-5.614Z" transform="translate(-3982.682 52.465)" fill="#1a1a1a"/>
      </g>
      <g id="Group_10210" data-name="Group 10210" transform="translate(251.089 378.079)">
        <path id="Path_3712" data-name="Path 3712" d="M4004.984-10.423c-.9-.907-.9-46.848-.9-46.848,1.8,0,1.8,45.94,1.8,45.94A.907.907,0,0,1,4004.984-10.423Z" transform="translate(-4004.085 57.271)" fill="#1a1a1a"/>
      </g>
      <g id="Group_10211" data-name="Group 10211" transform="translate(718.807 165.675)">
        <path id="Path_3713" data-name="Path 3713" d="M4134.405-72.343c-1.423-1.747-6.791-12.722-6.606-15.7.046-.737,1.278-18.159,16.708-23.687a29.764,29.764,0,0,1,25.461,2.715c2.581-.767,15.707-4.061,20.758,7.195,5.393,11.989,1.584,26.084,1.418,26.677-1.706-.624,2.052-14.556-3.062-25.932-4.9-10.919-18.371-6.3-18.956-6.091-.928-.185-11.735-7.614-25-2.858-14.321,5.127-15.475,21.4-15.521,22.095-.113,1.879,3.383,9.762,5.614,14.284C4134.678-72.369,4134.542-72.343,4134.405-72.343Z" transform="translate(-4127.794 113.451)" fill="#1a1a1a"/>
      </g>
      <g id="Group_10212" data-name="Group 10212" transform="translate(54.015 242.5)">
        <path id="Path_3714" data-name="Path 3714" d="M3952.859-41.123c-.9-.9-.9-40.488-.9-40.488,7.263-5.153,21.944-11.263,22.568-11.52.544,1.728-13.868,7.728-20.764,12.019v37.468c7.262-4.291,20.185-9.667,20.764-9.906.544,1.732-14.465,7.977-21.177,12.284A.924.924,0,0,1,3952.859-41.123Z" transform="translate(-3951.959 93.131)" fill="#1a1a1a"/>
      </g>
      <g id="Group_10213" data-name="Group 10213" transform="translate(270.242 164.48)">
        <path id="Path_3715" data-name="Path 3715" d="M4010.059-79.358c-.908-.9-.908-34.409-.908-34.409,32.254.688,45.85,9.161,46.417,9.524-1.1,1.437-14.518-6.885-44.609-8.571v32.553A.9.9,0,0,1,4010.059-79.358Z" transform="translate(-4009.151 113.767)" fill="#1a1a1a"/>
      </g>
      <g id="Group_10214" data-name="Group 10214" transform="translate(271.104 198.885)">
        <path id="Path_3716" data-name="Path 3716" d="M4054.45-94.376c-.621-.227-14.319-8.722-45.072-10.287,31.392-.212,44.989,8.257,45.555,8.62C4055.039-94.527,4054.74-94.376,4054.45-94.376Z" transform="translate(-4009.378 104.667)" fill="#1a1a1a"/>
      </g>
      <g id="Group_10215" data-name="Group 10215" transform="translate(732.102 199.52)">
        <path id="Path_3717" data-name="Path 3717" d="M4138.624-79.78a9.171,9.171,0,0,1-5.068-1.282,5.086,5.086,0,0,1-2.191-3.486,8.475,8.475,0,0,1,2.064-6.163,23.286,23.286,0,0,0,3.679-5.894,8.269,8.269,0,0,0-.779-7.758c1.564-.934,4.561,3.051,2.461,8.412a24.741,24.741,0,0,1-3.946,6.367,6.678,6.678,0,0,0-1.688,4.779,3.207,3.207,0,0,0,1.448,2.261,7.53,7.53,0,0,0,4.046.953C4139.515-80.17,4139.114-79.78,4138.624-79.78Z" transform="translate(-4131.31 104.499)" fill="#1a1a1a"/>
      </g>
      <g id="Group_10219" data-name="Group 10219" transform="translate(360.028 10.534)">
        <g id="Group_10218" data-name="Group 10218">
          <g id="Group_10217" data-name="Group 10217">
            <g id="Group_10216" data-name="Group 10216">
              <path id="Path_3718" data-name="Path 3718" d="M4114.757,13.325c-38.9,0-73.324-27.509-81.859-65.411,10.115,36.685,43.8,63.6,81.859,63.6a82.185,82.185,0,0,0,82.1-82.088,82.189,82.189,0,0,0-82.1-82.092,81.528,81.528,0,0,0-70.334,39.732c13.8-26.363,40.67-41.547,70.334-41.547a84,84,0,0,1,83.9,83.907A83.993,83.993,0,0,1,4114.757,13.325Z" transform="translate(-4032.898 154.485)" fill="#1a1a1a"/>
            </g>
          </g>
        </g>
      </g>
      <g id="Group_10220" data-name="Group 10220" transform="translate(387.775 52.614)">
        <path id="Path_3719" data-name="Path 3719" d="M4078.787-62.212a10.673,10.673,0,0,1-7.611-3.161l-27.784-27.785a10.651,10.651,0,0,1-3.153-7.6,10.673,10.673,0,0,1,3.153-7.626l3.8-3.8a10.663,10.663,0,0,1,7.611-3.161,10.667,10.667,0,0,1,7.615,3.161L4078.8-95.8l45.774-44.409a10.7,10.7,0,0,1,7.606-3.146,10.69,10.69,0,0,1,7.612,3.153l3.806,3.807a10.788,10.788,0,0,1,0,15.221l-57.2,55.812A10.707,10.707,0,0,1,4078.787-62.212ZM4054.8-113.528a8.9,8.9,0,0,0-6.333,2.624l-3.8,3.8a8.928,8.928,0,0,0-2.627,6.344,8.915,8.915,0,0,0,2.627,6.321l27.782,27.789a8.9,8.9,0,0,0,6.336,2.624,8.877,8.877,0,0,0,6.333-2.628l57.207-55.808a8.985,8.985,0,0,0,0-12.658l-3.807-3.807a8.927,8.927,0,0,0-6.337-2.62,8.9,8.9,0,0,0-6.333,2.62l-46.427,45.048c-1.271-.015-18.28-17.029-18.28-17.029A8.918,8.918,0,0,0,4054.8-113.528Z" transform="translate(-4040.238 143.355)" fill="#1a1a1a"/>
      </g>
      <g id="Group_10221" data-name="Group 10221" transform="translate(135.204 15.598)">
        <path id="Path_3720" data-name="Path 3720" d="M3975.626-20.892c-.919-.843-1.864-4.7-2.193-11.184,2.128,6.2,3.062,10.023,3.074,10.064C3975.778-20.9,3975.7-20.892,3975.626-20.892Zm-1.187-20.734a32.53,32.53,0,0,1,.412-11.4c1.157,3.69.729,7.138.487,10.556A.9.9,0,0,1,3974.439-41.626Zm3.75-20.45c-.736-.181-1.012-.688-.865-1.168a96.607,96.607,0,0,1,3.573-9.879c.322,3.872-.858,7.134-1.841,10.4A.908.908,0,0,1,3978.189-62.076Zm8.11-19.131a26.146,26.146,0,0,1,4.768-10.25c-.5,3.883-2.329,6.821-3.978,9.785A.905.905,0,0,1,3986.3-81.207Zm11.861-17.07a24.439,24.439,0,0,1,6.438-9.176c-1.186,3.713-3.55,6.261-5.75,8.858A.9.9,0,0,1,3998.16-98.277Zm14.766-14.639c2.065-3.83,4.844-6,7.676-8.049-1.739,3.49-4.476,5.633-7.093,7.83A.887.887,0,0,1,4012.927-112.916Zm16.8-12.25c2.4-3.494,5.426-5.282,8.514-6.991-2.178,3.274-5.176,5.047-8.031,6.851A.916.916,0,0,1,4029.729-125.166Zm166.932-1.176c-3.225-2.023-6.177-3.868-9.289-5.645,4.057.231,7.055,2.106,9.8,3.989C4197.232-126.481,4196.949-126.342,4196.662-126.342Zm-148.739-8.919c2.76-3.248,5.97-4.692,9.152-6.008-2.453,2.972-5.637,4.4-8.756,5.917A.907.907,0,0,1,4047.922-135.26Zm130.667-1.444c-3.466-1.573-6.662-2.972-9.872-4.246,3.917-.389,7.146,1.025,10.262,2.522C4179.245-136.894,4178.926-136.7,4178.589-136.7Zm-111.43-6.51c3.058-2.9,6.43-3.932,9.731-4.821-2.79,2.628-6.126,3.641-9.437,4.775A.855.855,0,0,1,4067.16-143.215Zm92.087-1.183c-3.549-1.089-6.9-2.034-10.238-2.851,3.8-.93,7.2.027,10.514,1.085C4159.98-144.644,4159.625-144.4,4159.247-144.4Zm-71.993-4.219c3.229-2.461,6.711-3.021,10.171-3.452-3.2,2.223-6.635,2.775-10,3.437A1.283,1.283,0,0,1,4087.254-148.618Zm51.774-.711c-3.527-.59-6.975-1.047-10.409-1.38,3.649-1.463,7.142-1,10.56-.42C4139.84-149.642,4139.462-149.329,4139.027-149.329Zm-31.12-1.841c3.433-1.985,6.987-2.034,10.428-1.955-3.433,1.732-6.945,1.781-10.383,1.951Z" transform="translate(-3973.434 153.146)" fill="#1a1a1a"/>
      </g>
      <g id="Group_10222" data-name="Group 10222" transform="translate(535.888 11.01)">
        <path id="Path_3721" data-name="Path 3721" d="M4386.324,99.2c-.707-1.471,1.28-4.155,4.027-8.93-1.24,5.781-3.211,8.454-3.3,8.563A.915.915,0,0,1,4386.324,99.2Zm9.665-16.8a46.738,46.738,0,0,1,3.308-10.79c.415,3.894-.987,7.131-2.492,10.28A.907.907,0,0,1,4395.989,82.4Zm7.584-19.384c-.742-.193-1.011-.7-.863-1.172,1.026-3.308,1.926-6.669,2.681-9.989,1,3.762.086,7.168-.952,10.526A.9.9,0,0,1,4403.573,63.013Zm4.62-20.3a68.439,68.439,0,0,1,.163-11.316c1.592,3.527,1.234,7.036.73,10.541A.9.9,0,0,1,4408.192,42.718Zm1.268-20.764a88.145,88.145,0,0,1-1.6-11.191c2.177,3.267,2.415,6.786,2.5,10.261C4409.467,21.954,4409.46,21.954,4409.46,21.954Zm-2.3-20.67c-1.573-4.083-2.413-7.459-3.372-10.756,2.71,2.832,3.568,6.257,4.252,9.667C4407.27,1.277,4407.218,1.284,4407.157,1.284ZM4231.732-15.241a11.261,11.261,0,0,1-6.45-2.113c3.859.454,6.942.828,10.053-.431A3.294,3.294,0,0,1,4231.732-15.241Zm169.545-3.433c-2.057-3.713-3.45-6.9-4.979-10.046,3.182,2.4,4.593,5.63,5.822,8.809C4401.5-18.693,4401.389-18.674,4401.278-18.674Zm-157.653-3.917c1.341-4.03,3.106-6.96,4.534-10.166.159,4.087-1.681,7.146-3.832,9.826A.9.9,0,0,1,4243.625-22.591ZM4219.4-25.264a26.745,26.745,0,0,1-3.875-10.711c2.33,3.221,3.33,6.575,4.69,9.414C4219.656-25.291,4219.525-25.264,4219.4-25.264ZM4392.21-37.393c-2.463-3.35-4.324-6.287-6.306-9.195,3.5,1.924,5.379,4.9,7.09,7.838C4392.526-37.431,4392.365-37.393,4392.21-37.393Zm-140.032-3.985c-.188-4.363.227-7.785.356-11.263,1.675,3.648,1.247,7.172.527,10.545A.912.912,0,0,1,4252.179-41.378Zm-36.072-4.216a23.41,23.41,0,0,1,1.353-11.357c.583,3.777-.146,7.115-.452,10.537A.9.9,0,0,1,4216.106-45.594Zm164.361-8.968c-2.881-3.055-5.169-5.671-7.5-8.117,3.679,1.236,6,3.89,8.208,6.647C4380.868-54.626,4380.664-54.562,4380.468-54.562ZM4252.983-62.1c-1.3-4.132-1.954-7.528-2.836-10.885,2.659,2.976,3.328,6.454,3.732,9.872C4253.059-62.1,4253.018-62.1,4252.983-62.1Zm-29.894-2.858a17.908,17.908,0,0,1,6.567-9.149c-1.542,3.554-3.887,6.03-5.833,8.771A.9.9,0,0,1,4223.089-64.959ZM4366.1-69.583c-3.2-2.488-5.937-4.628-8.723-6.579,3.871.5,6.66,2.681,9.318,4.987C4366.6-69.692,4366.351-69.583,4366.1-69.583ZM4239.06-77.953c2.162-3.017,4.824-4.276,7.527-5.456a86.869,86.869,0,0,0-4.2-8.6c3.175,1.981,4.614,4.926,5.859,7.891-2.6,3.055-5.75,4.522-8.778,6.064A.886.886,0,0,1,4239.06-77.953Zm110.016-3.554c-3.42-1.766-6.542-3.274-9.725-4.594,3.937-.325,7.12,1.214,10.16,2.9C4349.7-81.677,4349.393-81.507,4349.076-81.507Zm-90.844-4.545c3.033-2.9,6.407-3.921,9.735-4.8-2.825,2.616-6.155,3.63-9.44,4.752A.9.9,0,0,1,4258.232-86.052Zm71.65-3.433c-3.5-.991-6.876-1.781-10.289-2.393,3.793-1.161,7.237-.348,10.538.616C4330.637-89.745,4330.275-89.485,4329.882-89.485Zm-51.542-1.879c3.312-2.446,6.8-2.949,10.206-3.3-3.175,2.147-6.612,2.647-10.038,3.282A.854.854,0,0,1,4278.341-91.364Zm31.1-1.819c-3.459-.268-6.974-.367-10.388-.31,3.455-1.864,7.008-1.762,10.458-1.5C4310.3-93.549,4309.908-93.182,4309.438-93.182Zm-71.836-7.142c-2.7-3.127-4.863-5.837-7.166-8.443,3.693,1.452,5.9,4.216,7.9,7.01C4237.972-100.381,4237.785-100.324,4237.6-100.324Zm-13.77-15.581c-3.083-2.541-5.729-4.79-8.477-6.93,3.905.745,6.589,3.032,9.089,5.361C4224.314-116,4224.069-115.9,4223.831-115.9Zm-16.394-12.79c-3.313-1.992-6.289-3.788-9.352-5.486,3.979.136,7,1.955,9.846,3.822C4208.021-128.843,4207.729-128.7,4207.438-128.7Zm-127.99-9.641c-.406-1.728,2.771-4.042,8.7-6.817-4.995,4.333-8.14,6.616-8.167,6.643A.916.916,0,0,1,4079.447-138.336Zm109.8-.457c-3.527-1.565-6.728-2.949-9.89-4.2,3.865-.42,7.1.975,10.276,2.469C4189.91-138.986,4189.585-138.794,4189.247-138.794Zm-19.365-7.626c-3.586-1.093-6.94-2.019-10.243-2.8,3.767-.968,7.158-.026,10.516,1.036C4170.624-146.665,4170.264-146.419,4169.882-146.419Zm-71.675-.858c2.983-2.854,6.39-3.8,9.834-4.567-2.991,2.518-6.336,3.448-9.543,4.522A1.006,1.006,0,0,1,4098.207-147.278Zm51.43-3.913c-3.562-.537-7.021-.919-10.4-1.146,3.561-1.573,7.064-1.187,10.538-.654C4150.465-151.516,4150.076-151.191,4149.636-151.191ZM4118.5-151.8c3.319-2.216,6.843-2.469,10.359-2.556-3.41,1.894-6.88,2.144-10.25,2.548Z" transform="translate(-4079.413 154.359)" fill="#1a1a1a"/>
      </g>
      <g id="Group_10223" data-name="Group 10223" transform="translate(756.703 162.68)">
        <path id="Path_3722" data-name="Path 3722" d="M4141.956-106.167c-.712-.163-1-.654-.882-1.134.041-.14.806-3.467-3.256-6.941,6.147,2.877,5.055,7.221,5.007,7.4A.9.9,0,0,1,4141.956-106.167Z" transform="translate(-4137.817 114.243)" fill="#1a1a1a"/>
      </g>
      <g id="Group_10224" data-name="Group 10224" transform="translate(762.544 164.544)">
        <path id="Path_3723" data-name="Path 3723" d="M4139.87-106.884c-.891-1.1-.662-4.454,1.109-6.866.007,3.047-.2,5.993-.2,6.019A.908.908,0,0,1,4139.87-106.884Z" transform="translate(-4139.362 113.75)" fill="#1a1a1a"/>
      </g>
      <g id="Group_10225" data-name="Group 10225" transform="translate(728.242 401.202)">
        <path id="Path_3724" data-name="Path 3724" d="M4210.986,12.056c-.351-.072-80.681-34.541-80.681-34.541-.476-1.187,11.316-28.67,11.316-28.67,1.661.711-9.77,27.362-9.77,27.362l78.663,33.759.727-1.682c1.657.718.578,3.229.578,3.229A.9.9,0,0,1,4210.986,12.056Z" transform="translate(-4130.291 51.155)" fill="#1a1a1a"/>
      </g>
      <g id="Group_10226" data-name="Group 10226" transform="translate(754.062 313.15)">
        <path id="Path_3725" data-name="Path 3725" d="M4218.011,16.2c-.825-1.263,22.373-55.339,22.373-55.339L4161.716-72.9,4137.2-15.765c-1.655-.715,23.218-58.674,23.218-58.674,1.185-.476,81.513,33.993,81.513,33.993.473,1.191-23.084,56.1-23.084,56.1A.912.912,0,0,1,4218.011,16.2Z" transform="translate(-4137.118 74.444)" fill="#1a1a1a"/>
      </g>
      <g id="Group_10227" data-name="Group 10227" transform="translate(841.472 474.545)">
        <path id="Path_3726" data-name="Path 3726" d="M4161.146,2.418c.026-13.777-.9-33.97-.908-34.174,1.819.121,2.745,20.42,1.806,33.335A.907.907,0,0,1,4161.146,2.418Z" transform="translate(-4160.238 31.756)" fill="#1a1a1a"/>
      </g>
      <g id="Group_10228" data-name="Group 10228" transform="translate(438.185 424.076)">
        <path id="Path_3727" data-name="Path 3727" d="M4095.1-4.155h-29.8c-.873-.665-11.735-39.8-11.735-39.8.87-1.146,42.72-1.146,42.72-1.146.87.662,8.412,27.823,8.412,27.823-1.743.484-9.1-26.012-9.1-26.012H4055.63l10.364,37.328H4095.1C4096.006-4.56,4095.6-4.155,4095.1-4.155Z" transform="translate(-4053.57 45.105)" fill="#1a1a1a"/>
      </g>
      <path id="Path_3728" data-name="Path 3728" d="M3984.148-50.6v29.944s-19.031.223-31.686-10.288v-31.01S3961.52-53.108,3984.148-50.6Z" transform="translate(-3896.549 422.336)" fill="#1a1a1a"/>
      <g id="Group_10229" data-name="Group 10229" transform="translate(319.819 346.286)">
        <path id="Path_3729" data-name="Path 3729" d="M4022.263-50.243c5.611-6.121,11.37-10.764,16.586-15.437-4.049,6.061-9.86,10.741-16.048,15.259A.931.931,0,0,1,4022.263-50.243Z" transform="translate(-4022.263 65.68)" fill="#1a1a1a"/>
      </g>
      <g id="Group_10230" data-name="Group 10230" transform="translate(511.986 418.446)">
        <path id="Path_3730" data-name="Path 3730" d="M4133.931-24.019c-3.751-12.7-15.872-20.76-31.059-20.76-13.6,0-25.846,7.735-29.782,18.809,2.548-12.575,15.2-20.624,29.782-20.624,16.038,0,28.874,8.624,31.936,21.456C4134.073-24.03,4134-24.019,4133.931-24.019Z" transform="translate(-4073.09 46.594)" fill="#1a1a1a"/>
      </g>
    </g>
  </g>
</svg>
